<svg xmlns="http://www.w3.org/2000/svg" viewBox="0 0 23.43 21.48"><defs><style>.cls-1{fill:none;stroke:#fff;stroke-linecap:round;stroke-linejoin:round;}</style></defs><title>iconos</title><g id="Capa_2" data-name="Capa 2"><rect class="cls-1" x="5.81" y="2.44" width="11.92" height="18.54" rx="5.96" ry="5.96"/><path class="cls-1" d="M12.44,14.88l.91-1.59a.77.77,0,0,0-.67-1.16H10.85a.77.77,0,0,0-.67,1.16l.91,1.59A.78.78,0,0,0,12.44,14.88Z"/><line class="cls-1" x1="11.77" y1="15.27" x2="11.77" y2="17.78"/><line class="cls-1" x1="9.28" y1="7.77" x2="9.28" y2="8.66"/><line class="cls-1" x1="14.25" y1="7.77" x2="14.25" y2="8.66"/><path class="cls-1" d="M14.69,3.22l2-1.76a3.77,3.77,0,0,1,2.52-1h0a3.76,3.76,0,0,1,3.76,3.77v.58A1.44,1.44,0,0,1,21.5,6.29h-.95a1.44,1.44,0,0,1-1.44-1.44h0a1.42,1.42,0,0,1,.42-1h0A.72.72,0,0,0,19,2.61h0a2.44,2.44,0,0,0-1.72.72l-1.11,1.1"/><path class="cls-1" d="M8.74,3.22l-2-1.76A3.76,3.76,0,0,0,4.27.5h0A3.77,3.77,0,0,0,.5,4.27v.58A1.44,1.44,0,0,0,1.93,6.29h1A1.44,1.44,0,0,0,4.32,4.85h0a1.42,1.42,0,0,0-.42-1h0a.72.72,0,0,1,.51-1.23h0a2.44,2.44,0,0,1,1.72.72l1.11,1.1"/></g></svg>