<?xml version="1.0" encoding="UTF-8"?>
<svg width="40px" height="31px" viewBox="0 0 40 31" version="1.1" xmlns="http://www.w3.org/2000/svg" xmlns:xlink="http://www.w3.org/1999/xlink">
    <!-- Generator: Sketch 47.1 (45422) - http://www.bohemiancoding.com/sketch -->
    <title>Page 1</title>
    <desc>Created with Sketch.</desc>
    <defs></defs>
    <g id="1.24.n.Experiencia" stroke="none" stroke-width="1" fill="none" fill-rule="evenodd" stroke-linecap="round" stroke-linejoin="round">
        <g id="Experiencia-El-Palmar" transform="translate(-594.000000, -981.000000)" stroke="#FFFFFF" stroke-width="1.7">
            <g id="Group-13" transform="translate(482.000000, 972.000000)">
                <g id="Group-14" transform="translate(111.000000, 9.000000)">
                    <g id="Page-1" transform="translate(1.000000, 0.000000)">
                        <path d="M5.5970087,25.1627 C8.86961739,25.1627 8.86961739,23.3371444 12.1405304,23.3371444 C15.4148348,23.3371444 15.4148348,25.1627 18.6857478,25.1627 C21.9600522,25.1627 21.9600522,23.3371444 25.2343565,23.3371444 C28.5120522,23.3371444 28.5120522,25.1627 31.7914435,25.1627" id="Stroke-1"></path>
                        <path d="M5.5970087,29.6928333 C8.86961739,29.6928333 8.86961739,27.8672778 12.1405304,27.8672778 C15.4148348,27.8672778 15.4148348,29.6928333 18.6857478,29.6928333 C21.9600522,29.6928333 21.9600522,27.8672778 25.2343565,27.8672778 C28.5120522,27.8672778 28.5120522,29.6928333 31.7914435,29.6928333" id="Stroke-3"></path>
                        <path d="M22.5426783,23.5498389 C22.5426783,23.5498389 19.4938957,17.5220611 23.4244174,13.00295" id="Stroke-5"></path>
                        <path d="M22.8390783,10.6474667 C22.8390783,10.6474667 20.2922087,7.92291111 15.5545565,9.14913333 C15.5545565,9.14913333 17.3858609,4.74713333 23.5105565,7.28913333 C23.5105565,7.28913333 22.7492087,2.93018889 16.4481652,1.75046667 C16.4481652,1.75046667 22.7949913,-1.69914444 26.4592957,5.06402222 C26.4592957,5.06402222 27.4868609,-0.746755556 36.202513,1.2958 C36.202513,1.2958 30.079513,2.88541111 30.0354261,7.01702222 C30.0354261,7.01702222 36.0685565,5.1088 38.347513,11.1021333 C38.347513,11.1021333 32.9400783,8.2863 29.2757739,10.4201333 C29.2757739,10.4201333 34.6391217,10.9195778 33.745513,17.7292444 C33.745513,17.7292444 31.376687,12.6452444 26.0574261,12.5987444" id="Stroke-7"></path>
                        <path d="M17.2256217,4.46589444 C15.4638391,4.04911667 12.5269696,4.05256111 10.5481435,7.70367222 C10.5481435,7.70367222 9.70879565,2.96239444 2.59892609,4.62950556 C2.59892609,4.62950556 7.59431739,5.92633889 7.63162174,9.29672778 C7.63162174,9.29672778 2.70744783,7.74156111 0.847317391,12.63095 C0.847317391,12.63095 5.2611,10.3335056 8.25053478,12.0746722 C8.25053478,12.0746722 3.87405652,12.4828389 4.60488261,18.0387278 C5.05931739,17.2447833 6.20557826,15.8377278 6.64475217,15.4640056 C8.71514348,13.7142278 11.9216217,13.1200611 13.5613174,15.9410611 C15.2586652,18.8585056 14.1819261,21.8603389 13.7444478,23.5498389" id="Stroke-9"></path>
                        <path d="M13.5023087,12.2603278 C13.5023087,12.2603278 13.851613,11.8883278 14.5264826,11.5163278" id="Stroke-11"></path>
                    </g>
                </g>
            </g>
        </g>
    </g>
</svg>