<?xml version="1.0" encoding="UTF-8"?>
<svg width="94px" height="71px" viewBox="0 0 94 71" version="1.1" xmlns="http://www.w3.org/2000/svg" xmlns:xlink="http://www.w3.org/1999/xlink">
    <!-- Generator: Sketch 47.1 (45422) - http://www.bohemiancoding.com/sketch -->
    <title>Page 1</title>
    <desc>Created with Sketch.</desc>
    <defs></defs>
    <g id="1.7.Naturaleza" stroke="none" stroke-width="1" fill="none" fill-rule="evenodd" stroke-linecap="round" stroke-linejoin="round">
        <g id="Naturaleza" transform="translate(-674.000000, -1944.000000)" stroke="#FFFFFF" stroke-width="4">
            <g id="Page-1" transform="translate(674.000000, 1944.000000)">
                <path d="M32.6948,49.8452 C32.6948,56.4692 27.3268,61.8372 20.7028,61.8372 C14.0788,61.8372 8.7108,56.4692 8.7108,49.8452 C8.7108,43.2212 14.0788,37.8532 20.7028,37.8532 C27.3268,37.8532 32.6948,43.2212 32.6948,49.8452 Z" id="Stroke-1"></path>
                <path d="M22.1752,12.7436 C23.9792,10.2716 26.6392,9.0076 29.9352,9.0076 C35.4192,9.0076 39.8632,13.4516 39.8632,18.9356 C39.8632,19.0956 39.8592,19.2596 39.8512,19.4196" id="Stroke-3"></path>
                <path d="M39.4036,49.8452 C39.4036,60.1732 31.0316,68.5452 20.7036,68.5452 C10.3716,68.5452 1.9996,60.1732 1.9996,49.8452 C1.9996,39.5132 10.3716,31.1412 20.7036,31.1412 C31.0316,31.1412 39.4036,39.5132 39.4036,49.8452 Z" id="Stroke-5"></path>
                <path d="M5.9192,38.2904 L22.1752,12.7424" id="Stroke-7"></path>
                <path d="M39.4036,33.568 L39.4036,49.844" id="Stroke-9"></path>
                <path d="M39.8648,17.5992 L40.3168,8.5752 C40.3088,8.4872 40.3008,8.3992 40.2888,8.3112 C39.8328,4.4992 36.4328,1.7032 32.5768,2.0232 C30.4168,2.2032 28.5568,3.3272 27.3728,4.9512 L22.1768,12.7432" id="Stroke-11"></path>
                <path d="M15.5308,49.6088 L20.2068,44.9328" id="Stroke-13"></path>
                <path d="M16.4348,55.4524 L24.9668,46.9204" id="Stroke-15"></path>
                <path d="M60.6244,49.8452 C60.6244,56.4692 65.9924,61.8372 72.6164,61.8372 C79.2404,61.8372 84.6084,56.4692 84.6084,49.8452 C84.6084,43.2212 79.2404,37.8532 72.6164,37.8532 C65.9924,37.8532 60.6244,43.2212 60.6244,49.8452 Z" id="Stroke-17"></path>
                <path d="M71.142,12.7436 C69.338,10.2716 66.678,9.0076 63.382,9.0076 C57.898,9.0076 53.454,13.4516 53.454,18.9356 C53.454,19.0956 53.458,19.2596 53.466,19.4196" id="Stroke-19"></path>
                <path d="M53.9136,49.8452 C53.9136,60.1732 62.2856,68.5452 72.6176,68.5452 C82.9456,68.5452 91.3176,60.1732 91.3176,49.8452 C91.3176,39.5132 82.9456,31.1412 72.6176,31.1412 C62.2856,31.1412 53.9136,39.5132 53.9136,49.8452 Z" id="Stroke-21"></path>
                <path d="M87.398,38.2904 L71.142,12.7424" id="Stroke-23"></path>
                <path d="M53.9136,33.568 L53.9136,49.844" id="Stroke-25"></path>
                <path d="M53.4524,17.5992 L53.0004,8.5752 C53.0084,8.4872 53.0164,8.3992 53.0284,8.3112 C53.4884,4.4992 56.8844,1.7032 60.7404,2.0232 C62.9044,2.2032 64.7604,3.3272 65.9444,4.9512 L71.1404,12.7432" id="Stroke-27"></path>
                <path d="M77.7864,49.6088 L73.1104,44.9328" id="Stroke-29"></path>
                <path d="M76.8824,55.4524 L68.3504,46.9204" id="Stroke-31"></path>
                <path d="M37.136,20.234 L27.656,22.858 C27.656,22.858 39.404,22.806 39.404,33.566 L46.66,33.566 L53.912,33.566 C53.912,22.806 65.66,22.858 65.66,22.858 L56.18,20.234 C49.952,18.51 43.368,18.51 37.136,20.234 Z" id="Stroke-33"></path>
            </g>
        </g>
    </g>
</svg>