<?xml version="1.0" encoding="UTF-8"?>
<svg width="161px" height="68px" viewBox="0 0 161 68" version="1.1" xmlns="http://www.w3.org/2000/svg" xmlns:xlink="http://www.w3.org/1999/xlink">
    <!-- Generator: Sketch 47.1 (45422) - http://www.bohemiancoding.com/sketch -->
    <title>Group 20</title>
    <desc>Created with Sketch.</desc>
    <defs>
        <polygon id="path-1" points="0.884891898 68.2903963 161.550681 68.2903963 161.550681 0.660330934 0.884891898 0.660330934"></polygon>
    </defs>
    <g id="Home" stroke="none" stroke-width="1" fill="none" fill-rule="evenodd">
        <g id="Artboard" transform="translate(-698.000000, -476.000000)">
            <g id="Group-2" transform="translate(464.000000, 82.562482)">
                <g id="Group-20" transform="translate(233.000000, 392.943092)">
                    <mask id="mask-2" fill="white">
                        <use xlink:href="#path-1"></use>
                    </mask>
                    <g id="Clip-19"></g>
                    <path d="M116.73573,19.9467533 L116.73573,19.890788 C115.888777,20.1572895 115.055183,20.418461 114.56892,20.5703669 C114.544874,20.5490468 114.50747,20.5357217 114.184185,20.6449873 C114.400599,20.6902926 115.509385,20.3411756 116.73573,19.9467533 M49.6768479,46.3623844 C45.4821611,48.4197762 40.8920515,50.666384 37.050039,52.6997907 C39.7538754,51.4419035 46.1634637,48.1266245 49.6768479,46.3623844 M34.3622333,54.1202438 C32.7324505,55.0050288 30.707245,56.1030151 28.7675364,57.1556962 C26.8411865,58.2243673 25.0270513,59.3170235 23.854142,60.284424 C24.4659785,59.9113219 25.0217077,59.572865 25.5453756,59.2530631 C26.0743871,58.9412564 26.5686655,58.6481047 27.0388979,58.3709431 C27.9793627,57.8086249 28.8289872,57.2836169 29.6973141,56.6759934 C31.2389283,55.8551687 32.9381772,55.0663242 34.3622333,54.1202438 M161.426511,9.81436536 C161.260861,10.8857015 160.881469,12.7432171 160.408565,13.9691241 C160.173449,14.4941321 159.973066,14.827259 159.804744,15.0377952 L159.794057,15.0511203 C159.695201,15.1364008 159.574971,15.2430014 159.441382,15.3602621 C159.160846,15.5068379 158.995196,15.3682571 158.85092,15.8133147 C158.51962,16.0558311 158.378016,16.1197914 158.239084,16.1917468 C158.118854,16.2450471 158.019998,16.2876874 157.958547,16.3170026 C157.87305,16.3463177 157.838317,16.3596428 157.776867,16.3836279 L157.643278,16.4236032 C157.643278,16.4236032 156.558537,16.916631 156.104335,16.8500056 C155.970747,16.8286855 155.628759,16.8100304 155.214634,16.7940403 L154.869975,16.8366805 C154.693638,16.8606657 154.525316,16.8819858 154.346307,16.9059709 L153.806609,16.9912514 L152.729884,17.1618124 C152.013848,17.2844031 151.281781,17.4096588 150.55773,17.5322495 C149.114972,17.8280662 147.656183,18.1265479 146.210752,18.4223646 L141.885149,19.37111 C136.140832,20.7222728 130.498043,22.1427259 124.988843,23.7523951 C113.973115,26.886453 103.494413,30.3909481 93.7103726,34.1299644 C81.5724985,38.7164557 68.4487394,43.9318905 56.7623954,49.2032907 C47.0130882,53.5419355 37.5229432,58.4642186 31.3778606,61.4330456 C30.386632,61.9127484 29.424793,62.376461 28.4843282,62.8321786 C28.0167676,63.0587049 27.5572223,63.2852312 27.1003487,63.5064275 C26.6354599,63.7382838 26.2240065,63.940825 25.7965225,64.1540262 L25.4785813,64.3139271 L25.3182748,64.3912125 L25.1552965,64.4844881 L24.4980398,64.8575902 L24.4552914,64.8815753 L24.436589,64.8922354 L24.4259019,64.9002304 L24.4205583,64.9028955 C24.5087269,64.8336051 24.4446043,64.8842404 24.4633067,64.8682503 L24.460635,64.8709153 L24.3724664,64.9268806 L24.198801,65.0361462 L23.854142,65.2546775 L23.1594805,65.6677548 C22.2323746,66.1980929 21.289238,66.6458154 20.3300707,67.0162526 C19.1331155,67.5679107 18.4304387,67.7784469 17.8292893,67.9490079 C17.5273787,68.0262933 17.2495141,68.0929187 16.9342446,68.146219 C16.7792817,68.1702042 16.6136316,68.1968543 16.4319509,68.2261695 C16.2502702,68.2448246 16.0525589,68.2661447 15.8308015,68.2901298 C14.8609472,68.3061199 16.3998896,68.1302289 16.1781323,68.0049732 C14.7701068,68.1542141 13.2765846,68.1302289 12.036881,67.8104271 C10.8025209,67.5146104 9.84602543,66.9842724 9.613581,66.6378204 C10.2254175,66.8003863 10.551374,66.914982 10.9307661,67.0429027 C11.1204621,67.1068631 11.323517,67.1734885 11.5746639,67.2294538 C11.8284825,67.2934141 12.1303931,67.3440494 12.5204723,67.3760296 C12.9292538,67.2454439 12.3441351,67.1335132 11.6307712,66.920312 C10.920079,66.7124408 10.0704545,66.3579938 10.017019,66.1661127 C10.4738926,66.2807083 10.9681709,66.403299 11.5532897,66.5472099 C12.1384084,66.6724656 12.8170393,66.7764012 13.6265871,66.7550811 C12.8998643,66.7124408 12.3254327,66.6005102 11.8258107,66.4592644 C11.3288606,66.3126885 10.9093919,66.1474576 10.4819079,65.9502465 L10.1586231,65.8010056 L9.82465123,65.6331096 C9.59755035,65.513184 9.35441882,65.3825982 9.08991309,65.2440174 C8.95632433,65.166732 8.81739203,65.0867815 8.6704444,65.004166 C8.52616855,64.9135555 8.3712056,64.82028 8.20822732,64.7216744 C8.04524904,64.6124088 7.87158366,64.5004782 7.68990296,64.3805525 C7.50555048,64.2473017 7.31585445,64.1087209 7.107456,63.9568151 C7.03531807,63.8662045 7.12081487,63.9088448 7.28379315,64.0154454 C7.44677143,64.114051 7.69524651,64.2659568 7.94639336,64.4205277 C7.85020946,64.3485723 7.72463603,64.2552968 7.56967308,64.1380361 C7.41203835,64.0207754 7.22768587,63.8821946 7.01394387,63.7222937 L6.84829382,63.594373 L6.66928489,63.4451321 L6.47691708,63.2852312 L6.37806141,63.2026157 L6.29256461,63.1253303 L6.11889923,62.9680944 L6.02805888,62.8854789 L5.9933258,62.8534987 L5.97729515,62.8375087 L5.94790562,62.8081935 L5.89179835,62.7495631 C5.73950717,62.5896622 5.57652889,62.4404214 5.41889416,62.2405452 L5.56049824,62.3871211 L5.68072812,62.4963867 C5.75553782,62.5576821 5.81431687,62.6083173 5.86240882,62.6482926 C5.95859272,62.722913 6.00668467,62.7442331 6.0147,62.728243 C6.02805888,62.6935978 5.8864548,62.5017167 5.65935392,62.2165601 C5.54981114,62.0646542 5.41889416,61.8834332 5.27729009,61.6862221 C5.21049571,61.5796215 5.13835778,61.4676908 5.06621986,61.3557602 L4.84980608,60.9959831 C4.71087377,60.7401417 4.56125437,60.4843002 4.43835272,60.2098036 L4.25400024,59.8073863 L4.09102196,59.4129641 C4.12308326,59.4476093 4.18720586,59.58086 4.27537444,59.7700761 C4.36888657,59.9566272 4.49178822,60.1964785 4.62537697,60.45765 C4.76965283,60.7028314 4.91927223,60.982658 5.08759406,61.2038543 C5.17041908,61.3157849 5.25057233,61.4277156 5.32805381,61.5289862 C5.41087884,61.6195967 5.48836031,61.7048772 5.55782647,61.7794976 C5.56584179,61.7661725 5.53645227,61.7102072 5.47232966,61.6195967 C5.41087884,61.5316512 5.32271026,61.4063955 5.21316748,61.2491596 C5.10629648,61.0892587 4.9753795,60.9133676 4.84980608,60.6921714 L4.65209472,60.3643745 L4.45972692,60.0072625 C4.32880994,59.7700761 4.21926716,59.5115696 4.10705261,59.2770483 C4.00552516,59.0345319 3.91201303,58.8106706 3.83185978,58.6161245 C3.68491215,58.2217022 3.59674358,57.9605308 3.61277423,57.9711908 C3.48185725,57.3768924 3.48987257,57.2303166 3.57536938,57.3529073 C3.61811778,57.4142026 3.68224038,57.5421234 3.75972186,57.7180144 C3.83987511,57.8912404 3.93873078,58.1151016 4.04827356,58.360283 C4.27804622,58.8453158 4.57194147,59.4236241 4.8898827,59.9086569 C5.05286098,60.1431782 5.20782393,60.3776996 5.36545866,60.5535906 C5.44294014,60.6415361 5.51774984,60.7268166 5.58721599,60.806767 C5.65935392,60.8760574 5.72882007,60.9400178 5.7902709,61.0013131 C5.71278942,60.8867175 5.62729262,60.7641268 5.53110872,60.625546 C5.44026836,60.4843002 5.34141269,60.3323943 5.23988523,60.1724934 C5.03950211,59.8420315 4.8257601,59.4715944 4.64140762,59.0771721 C4.26201557,58.2936577 3.98147918,57.4595079 3.87460818,57.0277754 C3.81582913,56.7506138 3.82651623,56.7346237 3.86659286,56.8252343 C2.63490456,52.4599393 2.89139496,47.1912042 2.89139496,47.1912042 C6.59714696,41.4934016 16.3785154,35.1133551 29.638535,29.4128875 C42.882524,23.6990948 59.5891334,18.7341714 76.6029969,15.2296763 C75.8976483,15.165716 74.0808413,15.4295525 71.8712833,15.8586199 C68.9456896,16.399618 65.3521522,17.3323734 62.7364844,18.0998978 C61.5876211,18.137208 58.9238614,18.6915311 56.2734605,19.3924301 C53.6203879,20.074674 50.9753306,20.7862331 49.7997496,20.8741786 C50.5825797,20.3944759 51.7635042,19.8401527 54.2295526,19.0832884 C52.5917545,19.4350704 49.7570012,20.410466 48.6134814,20.8528585 C47.8653844,20.9727842 46.2703347,21.4391619 44.6325366,21.9535098 C42.9947385,22.4731878 41.3195356,23.0674862 40.4084603,23.4645734 C35.3962103,25.0982278 30.6431224,26.8065026 26.0743871,28.6880033 C26.3121751,28.5041173 27.2072197,28.109695 28.0434853,27.7419229 C28.8824227,27.3821458 29.6599092,27.062344 29.6518939,26.9610734 C28.4682975,27.3341756 26.7663768,28.0750498 25.2140755,28.7492987 C23.6591025,29.4235475 22.2537488,30.039166 21.6392405,30.1564267 C22.6518433,29.5994385 23.8300961,28.9998101 25.1900296,28.3548764 C23.9529977,28.7919389 21.8984027,29.7433494 19.8090746,30.8013604 C17.7170747,31.8433814 15.6090442,33.0852785 14.1769728,33.8394778 C21.561759,28.981155 31.3457993,24.5945399 41.9474027,20.9088238 C52.5463343,17.2017876 63.9708445,14.2329606 74.583135,12.0583082 C73.728167,11.8157918 71.2754775,12.3088196 68.2911047,13.0337038 C65.3094038,13.7958981 61.8067067,14.827259 58.8169904,15.522828 C55.8459765,15.7999896 47.3443883,18.3557392 39.5428051,21.11936 C33.7210073,23.1794168 27.4663819,25.7138463 21.6659583,28.6213779 C15.8575193,31.5129195 10.5006103,34.7082728 6.39943561,38.068857 C5.35744334,38.9243269 4.29140509,39.8650772 3.33490962,40.8191527 C2.37574238,41.7678981 1.52344614,42.7459587 0.884891898,43.5774435 C1.58222519,42.4981123 2.31696333,41.5920071 3.07307567,40.7551923 C3.83185978,39.9210426 4.6120181,39.1588482 5.41087884,38.4392941 C7.01127209,37.0135109 8.67311618,35.6969934 10.3990829,34.5430418 C13.8483445,32.2324736 17.4632561,30.1137865 21.1930541,28.3122362 C28.6392912,24.618525 36.432859,21.639038 43.9458904,19.1765639 C44.782156,18.7661516 42.9252724,19.197884 42.7355763,19.1046085 C43.6840565,18.6808711 46.374534,17.9053516 47.2268302,17.5162594 C45.1375021,18.0625875 42.4951166,19.1472487 40.4886135,19.8747979 C44.189022,18.2518036 48.3997394,16.5541889 55.8940685,14.5740826 C53.8982525,14.8645692 49.0008888,15.9412354 46.2462888,16.4982236 C45.3352135,16.2690323 48.0764547,15.0804355 48.6829476,14.4488269 C53.1581708,13.1456344 56.7089599,11.7491664 60.5055522,10.7444557 C66.5384203,9.07349112 74.8289383,7.29592595 82.6973158,5.93943319 C94.6722116,3.82074607 106.935659,2.31501246 119.257886,1.46753761 C125.418999,1.07844539 131.593471,0.774633651 137.757256,0.702678239 C140.840485,0.625392797 143.918369,0.668033041 146.993582,0.718668331 L151.61041,0.827933956 L153.926839,0.961184718 C154.704325,1.01981505 155.47914,1.0811104 156.283344,1.14507077 L156.435636,1.15839585 L157.071518,1.07578037 C157.071518,1.07578037 157.814271,1.08377542 158.605117,1.51550789 L158.607789,1.51550789 L158.738706,1.56081315 C158.800156,1.58479829 158.840233,1.60078838 158.923058,1.63276856 C158.989852,1.66474874 159.080693,1.70738899 159.206266,1.76868434 C159.339855,1.84596978 159.492146,1.91792519 159.823446,2.19242176 C159.810087,3.02390652 160.910859,1.80865957 161.490634,5.37178495 C161.490634,5.37178495 161.661628,8.31129676 161.426511,9.81436536" id="Fill-18" fill="#FFFFFF" mask="url(#mask-2)"></path>
                </g>
            </g>
        </g>
    </g>
</svg>