<?xml version="1.0" encoding="UTF-8"?>
<svg width="40px" height="40px" viewBox="0 0 40 40" version="1.1" xmlns="http://www.w3.org/2000/svg" xmlns:xlink="http://www.w3.org/1999/xlink">
    <!-- Generator: Sketch 47.1 (45422) - http://www.bohemiancoding.com/sketch -->
    <title>Page 1</title>
    <desc>Created with Sketch.</desc>
    <defs></defs>
    <g id="1.28.n.Eventos" stroke="none" stroke-width="1" fill="none" fill-rule="evenodd" stroke-linecap="round" stroke-linejoin="round">
        <g id="Evento" transform="translate(-507.000000, -967.000000)" stroke="#FFFFFF" stroke-width="1.7">
            <g id="Group-13" transform="translate(455.000000, 968.000000)">
                <g id="Group-2">
                    <g id="Page-1" transform="translate(53.000000, 0.000000)">
                        <g id="Group-11" transform="translate(0.000000, 0.005596)">
                            <path d="M30.5250243,37.3043478 C10.1750081,37.3043478 6.60804744e-13,37.3043478 6.60804744e-13,37.3043478 C6.60804744e-13,37.3043478 6.60804744e-13,29.3913043 6.60804744e-13,13.5652174" id="Stroke-1"></path>
                            <g id="Group-5" transform="translate(37.304348, 13.565217)">
                                <path d="M0,0 L0,16.8717391" id="Stroke-3"></path>
                            </g>
                            <polygon id="Stroke-6" points="0 13.5652174 37.3043478 13.5652174 37.3043478 3.39130435 0 3.39130435"></polygon>
                            <path d="M20.3478261,0 L20.3478261,6.7826087" id="Stroke-8"></path>
                            <path d="M10.173913,0 L10.173913,6.7826087" id="Stroke-9"></path>
                            <path d="M30.5217391,0 L30.5217391,6.7826087" id="Stroke-10"></path>
                        </g>
                        <path d="M6.7826087,20.3478261 L11.0285217,20.3478261" id="Stroke-12"></path>
                        <path d="M16.9565217,20.3478261 L21.2024348,20.3478261" id="Stroke-13"></path>
                        <path d="M27.1304348,20.3478261 L31.3763478,20.3478261" id="Stroke-14"></path>
                        <path d="M6.7826087,25.4347826 L11.0285217,25.4347826" id="Stroke-15"></path>
                        <path d="M16.9565217,25.4347826 L21.2024348,25.4347826" id="Stroke-16"></path>
                        <path d="M27.1304348,25.4347826 L31.3763478,25.4347826" id="Stroke-17"></path>
                        <path d="M6.7826087,30.5217391 L11.0285217,30.5217391" id="Stroke-18"></path>
                        <path d="M16.9565217,30.5217391 L21.2024348,30.5217391" id="Stroke-19"></path>
                        <polygon id="Stroke-20" points="37.3942174 30.5217391 30.5217391 37.3942174 30.5217391 30.5217391"></polygon>
                    </g>
                </g>
            </g>
        </g>
    </g>
</svg>