<?xml version="1.0" encoding="UTF-8"?>
<svg width="84px" height="92px" viewBox="0 0 84 92" version="1.1" xmlns="http://www.w3.org/2000/svg" xmlns:xlink="http://www.w3.org/1999/xlink">
    <!-- Generator: Sketch 47.1 (45422) - http://www.bohemiancoding.com/sketch -->
    <title>Page 1</title>
    <desc>Created with Sketch.</desc>
    <defs></defs>
    <g id="1.20.Gastronomia" stroke="none" stroke-width="1" fill="none" fill-rule="evenodd" stroke-linecap="round" stroke-linejoin="round">
        <g id="Gastronomia" transform="translate(-1156.000000, -1941.000000)" stroke="#FFFFFF" stroke-width="4">
            <g id="Page-1" transform="translate(1157.000000, 1941.000000)">
                <path d="M44.2988,22.7172 C43.7508,20.3652 42.7508,18.0812 41.2748,15.9852 L34.4988,6.3892 C33.2548,4.6292 31.3708,3.4212 29.2468,3.0292 C24.7948,2.2052 20.5068,5.1132 19.6308,9.5572 L19.5788,9.8092 C19.1388,12.0292 19.6308,14.3292 20.9388,16.1812 L26.7988,24.4852 C29.4028,28.1732 28.5228,33.2732 24.8348,35.8732 L24.7748,35.9172 C21.0868,38.5212 15.9868,37.6412 13.3828,33.9532 L9.0348,37.0252 L9.8468,38.1732 C15.9708,46.8492 27.9748,48.9212 36.6508,42.7932 C37.4028,42.2652 38.1028,41.6932 38.7508,41.0812" id="Stroke-1"></path>
                <path d="M13.3828,33.9536 C13.3828,33.9536 7.7628,20.1936 3.1668,23.4376 C-1.4292,26.6816 9.0348,37.0256 9.0348,37.0256" id="Stroke-3"></path>
                <path d="M6.1288,23.3832 C6.4528,22.3472 6.8168,21.2472 7.4528,20.3552 C8.3568,19.0832 9.8768,18.6632 11.0128,19.8672 C11.8808,20.7872 12.2608,22.2272 12.3128,23.4592 C12.4008,25.4712 11.8528,27.5112 11.1368,29.3752" id="Stroke-5"></path>
                <path d="M39.2148,13.0708 C39.2148,13.0708 37.3788,19.9588 25.5508,22.7188" id="Stroke-7"></path>
                <path d="M38.75,36.1644 C35.958,36.7044 32.11,36.2404 27.594,32.4804" id="Stroke-9"></path>
                <path d="M21.7068,37.2448 C21.7068,37.2448 24.1388,44.8448 28.0028,46.1608" id="Stroke-11"></path>
                <path d="M24.8456,11.518 C24.8456,11.518 18.0656,9.714 18.1256,2.002" id="Stroke-13"></path>
                <path d="M56.748,44.018 L56.748,38.158 C56.748,33.298 60.684,29.362 65.544,29.362 L65.624,29.362 C70.484,29.362 74.42,33.298 74.42,38.158 L80.148,38.158 L80.148,36.646 C80.148,25.21 70.88,15.942 59.448,15.942 C48.016,15.942 38.748,25.21 38.748,36.646 L38.748,45.722" id="Stroke-17"></path>
                <path d="M74.42,38.1568 C74.42,38.1568 70.82,53.7448 76.876,53.7448 C82.928,53.7448 80.148,38.1568 80.148,38.1568" id="Stroke-19"></path>
                <path d="M74.2364,51.9536 C73.3124,52.6656 72.3044,53.4016 71.1924,53.7936 C69.6124,54.3496 68.0164,53.7776 67.7604,52.0136 C67.5684,50.6656 68.1284,49.1656 68.8444,48.0456 C70.0164,46.2216 71.7684,44.7736 73.5524,43.5776" id="Stroke-21"></path>
                <path d="M38.748,40.4848 C38.748,40.4848 44.64,35.5688 56.748,40.4848" id="Stroke-23"></path>
                <path d="M47.748,19.5708 C47.748,19.5708 57.584,17.8348 61.012,30.6348" id="Stroke-25"></path>
                <path d="M69.1444,30.1 C69.1444,30.1 71.7244,21.908 69.1444,18.352" id="Stroke-27"></path>
                <polyline id="Stroke-29" points="36.9628 45.7308 36.9628 89.7028 67.7348 38.1468"></polyline>
                <path d="M59.6016,31.6568 C62.3016,32.3568 65.9336,33.3488 67.2376,36.1128 C70.0416,42.0728 56.7576,44.0688 53.3016,44.6248 C47.9056,45.4928 42.4216,45.7328 36.9616,45.7328" id="Stroke-31"></path>
                <path d="M12.7304,32.4848 C14.7704,31.5848 20.0864,29.6048 28.2304,29.1248" id="Stroke-33"></path>
                <path d="M36.9628,50.7896 C31.1748,50.5416 25.3228,50.8136 19.5948,49.7816 C18.1908,49.5296 16.4988,49.1216 14.8068,48.5176 C11.1108,47.2056 7.3908,44.9736 6.6028,41.4696 C6.0988,39.2376 6.6908,37.3936 7.9428,35.8776" id="Stroke-35"></path>
                <path d="M7.244,43.1372 L36.964,89.7052" id="Stroke-37"></path>
            </g>
        </g>
    </g>
</svg>