<svg xmlns="http://www.w3.org/2000/svg" viewBox="0 0 23 23"><defs><style>.cls-1{fill:none;stroke:#fff;stroke-linecap:round;stroke-linejoin:round;}</style></defs><title>iconos</title><g id="Capa_2" data-name="Capa 2"><rect class="cls-1" x="7.57" y="4.28" width="7.86" height="13.86" rx="3.93" ry="3.93"/><path class="cls-1" d="M17.11,12v2.23a5.61,5.61,0,0,1-5.61,5.61h0a5.61,5.61,0,0,1-5.61-5.61V12"/><path class="cls-1" d="M7.77,4A5.5,5.5,0,0,1,11.5,2.57h0A5.5,5.5,0,0,1,15.23,4"/><path class="cls-1" d="M6.48,2.75a7.28,7.28,0,0,1,5-2h0a7.28,7.28,0,0,1,5,2"/><line class="cls-1" x1="5.89" y1="12.76" x2="7.57" y2="12.76"/><line class="cls-1" x1="15.43" y1="12.76" x2="17.11" y2="12.76"/><line class="cls-1" x1="11.5" y1="19.84" x2="11.5" y2="22.24"/><line class="cls-1" x1="6.73" y1="22.24" x2="16.27" y2="22.24"/><line class="cls-1" x1="10.25" y1="4.51" x2="10.25" y2="10.79"/><line class="cls-1" x1="12.75" y1="4.51" x2="12.75" y2="10.79"/><line class="cls-1" x1="9.23" y1="7.61" x2="13.77" y2="7.61"/><line class="cls-1" x1="7.77" y1="9.77" x2="13.77" y2="9.77"/></g></svg>