<?xml version="1.0" encoding="UTF-8"?>
<svg width="63px" height="52px" viewBox="0 0 63 52" version="1.1" xmlns="http://www.w3.org/2000/svg" xmlns:xlink="http://www.w3.org/1999/xlink">
    <!-- Generator: Sketch 47.1 (45422) - http://www.bohemiancoding.com/sketch -->
    <title>Page 1</title>
    <desc>Created with Sketch.</desc>
    <defs></defs>
    <g id="1.2.n.Comarca" stroke="none" stroke-width="1" fill="none" fill-rule="evenodd" stroke-linecap="round" stroke-linejoin="round">
        <g id="Comarca" transform="translate(-1053.000000, -4433.000000)" stroke="#CFCFCF" stroke-width="2.7">
            <g id="Page-1" transform="translate(1054.000000, 4434.000000)">
                <path d="M10.4009913,23.4515474 L11.6086435,18.3622842 C12.2286435,15.7424947 10.5249913,13.1414947 7.86977391,12.6502842 L3.45968696,11.8289158 C1.29238261,11.4289684 -0.0824,9.2816 0.470208696,7.15570526 L1.49994783,3.18575789 C1.99864348,1.25849474 3.90986087,0.0452315789 5.8749913,0.404915789 L41.4171652,7.11275789 L55.353687,9.49096842 L58.2919478,10.0304947 C59.2623826,10.2103368 59.8958609,11.1498105 59.6882957,12.1134421 C59.5804696,12.6207579 59.2489043,13.0529158 58.7879478,13.2918105 L48.6792522,18.5528632 C47.8543826,18.9823368 47.1804696,19.6533895 46.7464696,20.4774421 L43.3229913,26.9866526 C42.7164696,28.1408632 42.6356,29.4990737 43.0992522,30.7203895 C43.7165565,32.3416526 43.3580348,34.1722842 42.1692522,35.4419158 L34.7400348,43.3871789 C33.5809043,44.6272842 31.9554261,45.3305474 30.2544696,45.3305474 L23.4371652,45.3305474 C22.7470783,45.3305474 22.0758609,45.5452842 21.5205565,45.9506 L18.1563826,48.3798105 C17.2452522,49.0374421 16.0564696,49.1823895 15.0105565,48.7582842 C14.2072522,48.4334947 13.5683826,47.8053895 13.2314261,47.0081789 L12.1504696,44.4528105 C11.7730783,43.5616526 11.0182957,42.8852316 10.0909913,42.6033895 L9.07473043,42.2947053 C7.42768696,41.7954421 6.45186087,40.1070737 6.84812174,38.4374947 L7.69186087,34.8782316" id="Stroke-1"></path>
                <path d="M21.876113,31.2827316 C21.876113,28.3757316 19.5093304,26.0189947 16.5872435,26.0189947 C13.6678522,26.0189947 11.3010696,28.3757316 11.3010696,31.2827316 C11.3010696,32.6838895 11.9911565,33.8944684 12.5545478,35.1318895 C12.9993304,36.1062579 13.444113,37.0806263 13.8862,38.0523105 C14.5439391,39.4937316 15.1989826,40.9351526 15.8567217,42.3738895 C15.862113,42.3899947 15.8702,42.4034158 15.8755913,42.4168368 C16.110113,43.0878895 17.0643739,43.0878895 17.2988957,42.4168368 C17.9188957,41.0639947 18.5362,39.7084684 19.1535043,38.3529421 C19.7034174,37.1477316 20.2506348,35.9425211 20.8005478,34.7373105 C21.3154174,33.6126263 21.876113,32.5523632 21.876113,31.2827316 Z" id="Stroke-3"></path>
                <path d="M17.4797739,31.3756053 C17.4797739,31.8668158 17.0808174,32.2640789 16.587513,32.2640789 C16.0942087,32.2640789 15.6952522,31.8668158 15.6952522,31.3756053 C15.6952522,30.8843947 16.0942087,30.4871316 16.587513,30.4871316 C17.0808174,30.4871316 17.4797739,30.8843947 17.4797739,31.3756053 Z" id="Stroke-5"></path>
            </g>
        </g>
    </g>
</svg>