<svg xmlns="http://www.w3.org/2000/svg" viewBox="0 0 23 23"><defs><style>.cls-1{fill:none;stroke:#fff;stroke-linecap:round;stroke-linejoin:round;}</style></defs><title>iconos</title><g id="Layer_4" data-name="Layer 4"><rect class="cls-1" x="2.35" y="5.4" width="5.24" height="16.96"/><line class="cls-1" x1="2.35" y1="12.09" x2="7.58" y2="12.09"/><line class="cls-1" x1="4.96" y1="13.51" x2="4.96" y2="15.42"/><line class="cls-1" x1="2.35" y1="17.54" x2="7.58" y2="17.54"/><line class="cls-1" x1="4.96" y1="6.82" x2="4.96" y2="9.25"/><line class="cls-1" x1="3.86" y1="6.82" x2="3.86" y2="9.25"/><line class="cls-1" x1="6.07" y1="6.82" x2="6.07" y2="9.25"/><line class="cls-1" x1="4.96" y1="6.82" x2="4.96" y2="9.25"/><rect class="cls-1" x="3.07" y="3.67" width="3.71" height="1.73"/><path class="cls-1" d="M4.93,1.76h0A1.86,1.86,0,0,1,6.78,3.61v.05a0,0,0,0,1,0,0H3.07a0,0,0,0,1,0,0V3.61A1.86,1.86,0,0,1,4.93,1.76Z"/><line class="cls-1" x1="4.93" y1="1.76" x2="4.93" y2="0.3"/><rect class="cls-1" x="15.42" y="5.4" width="5.24" height="16.96"/><line class="cls-1" x1="15.42" y1="12.09" x2="20.65" y2="12.09"/><line class="cls-1" x1="18.04" y1="13.51" x2="18.04" y2="15.42"/><line class="cls-1" x1="15.42" y1="17.54" x2="20.65" y2="17.54"/><line class="cls-1" x1="18.04" y1="6.82" x2="18.04" y2="9.25"/><line class="cls-1" x1="16.93" y1="6.82" x2="16.93" y2="9.25"/><line class="cls-1" x1="19.14" y1="6.82" x2="19.14" y2="9.25"/><line class="cls-1" x1="18.04" y1="6.82" x2="18.04" y2="9.25"/><rect class="cls-1" x="16.15" y="3.67" width="3.71" height="1.73"/><path class="cls-1" d="M18,1.76h0a1.86,1.86,0,0,1,1.86,1.86v.05a0,0,0,0,1,0,0H16.15a0,0,0,0,1,0,0V3.61A1.86,1.86,0,0,1,18,1.76Z"/><line class="cls-1" x1="18" y1="1.76" x2="18" y2="0.3"/><rect class="cls-1" x="7.58" y="17.54" width="7.84" height="4.82"/><rect class="cls-1" x="7.58" y="12.09" width="7.84" height="5.44"/><polyline class="cls-1" points="7.58 12.09 11.5 9.25 15.42 12.09"/><path class="cls-1" d="M11.5,13.51h0a1.09,1.09,0,0,1,1.09,1.09v2.93a0,0,0,0,1,0,0H10.41a0,0,0,0,1,0,0V14.61A1.09,1.09,0,0,1,11.5,13.51Z"/><path class="cls-1" d="M12.41,9.91h3A3.61,3.61,0,0,0,11.81,6.3h-.62A3.61,3.61,0,0,0,7.58,9.91h3"/></g></svg>