<svg xmlns="http://www.w3.org/2000/svg" viewBox="0 0 23 23"><defs><style>.cls-1{fill:none;stroke:#fff;stroke-linecap:round;stroke-linejoin:round;}.cls-2{fill:#fff;}</style></defs><title>iconos</title><g id="Layer_4" data-name="Layer 4"><ellipse class="cls-1" cx="7.64" cy="5.91" rx="2.19" ry="1.61" transform="translate(0.37 12.27) rotate(-78.89)"/><path class="cls-1" d="M6.21,5.07A1.28,1.28,0,1,1,7.86,3.74"/><path class="cls-1" d="M17,7.83a10.78,10.78,0,0,1-1,9.6c-3.1,5.21-7.9,4.81-10.35,4.81,0,0,3.14-3.82,3.14-7.77S7.1,9.64,7.1,9.64A3.38,3.38,0,0,0,10,8.1s0,0,0,0a5.1,5.1,0,0,1,.53.78,4,4,0,0,1,0,3.84,3,3,0,0,0-.3,1.08,1,1,0,0,0,1.51.89,8.34,8.34,0,0,0,2.47-2.58c.58-.79,1.12-1.61,1.64-2.44.24-.38.89-1.49,1.15-1.84"/><path class="cls-1" d="M11.15,7.3c.06,0,4.19-4.48-1.58-6.71"/><path class="cls-1" d="M6.29,11a2.42,2.42,0,0,0-.74,1.27A2,2,0,0,0,6,14.14a1.73,1.73,0,0,0,1.31.42"/><path class="cls-2" d="M10.07,16.81a.5.5,0,0,0,0-1,.5.5,0,0,0,0,1Z"/><path class="cls-2" d="M13.14,17.41a.5.5,0,0,0,0-1,.5.5,0,0,0,0,1Z"/><path class="cls-2" d="M9.71,18.27a.5.5,0,0,0,0-1,.5.5,0,0,0,0,1Z"/><path class="cls-2" d="M9,20.15a.5.5,0,0,0,0-1,.5.5,0,0,0,0,1Z"/><path class="cls-2" d="M12,20.15a.5.5,0,0,0,0-1,.5.5,0,0,0,0,1Z"/><path class="cls-2" d="M10.68,19.51a.5.5,0,0,0,0-1,.5.5,0,0,0,0,1Z"/><path class="cls-2" d="M13.63,18.71a.5.5,0,0,0,0-1,.5.5,0,0,0,0,1Z"/><path class="cls-2" d="M16.39,12a.5.5,0,0,0,0-1,.5.5,0,0,0,0,1Z"/><path class="cls-2" d="M15.68,13.19a.5.5,0,0,0,0-1,.5.5,0,0,0,0,1Z"/><path class="cls-2" d="M15.38,15.94a.5.5,0,0,0,0-1,.5.5,0,0,0,0,1Z"/><path class="cls-2" d="M16,14.54a.5.5,0,0,0,0-1,.5.5,0,0,0,0,1Z"/><path class="cls-2" d="M14.64,14.82a.5.5,0,0,0,0-1,.5.5,0,0,0,0,1Z"/><path class="cls-2" d="M14.64,17.11a.5.5,0,0,0,0-1,.5.5,0,0,0,0,1Z"/><path class="cls-2" d="M11.65,16.81a.5.5,0,0,0,0-1,.5.5,0,0,0,0,1Z"/><path class="cls-2" d="M9.54,11.17a.5.5,0,0,0,0-1,.5.5,0,0,0,0,1Z"/><path class="cls-2" d="M12.38,18.71a.5.5,0,0,0,0-1,.5.5,0,0,0,0,1Z"/><path class="cls-2" d="M10.07,20.86a.5.5,0,0,0,0-1,.5.5,0,0,0,0,1Z"/><path class="cls-2" d="M8.24,21.33a.5.5,0,0,0,0-1,.5.5,0,0,0,0,1Z"/><path class="cls-2" d="M11.22,18a.5.5,0,0,0,0-1,.5.5,0,0,0,0,1Z"/><path class="cls-2" d="M13.63,16.07a.5.5,0,0,0,0-1,.5.5,0,0,0,0,1Z"/></g></svg>