<?xml version="1.0" encoding="UTF-8"?>
<svg width="21px" height="21px" viewBox="0 0 21 21" version="1.1" xmlns="http://www.w3.org/2000/svg" xmlns:xlink="http://www.w3.org/1999/xlink">
    <!-- Generator: Sketch 47.1 (45422) - http://www.bohemiancoding.com/sketch -->
    <title>Page 1</title>
    <desc>Created with Sketch.</desc>
    <defs></defs>
    <g id="1.4.Playas" stroke="none" stroke-width="1" fill="none" fill-rule="evenodd" stroke-linecap="round" stroke-linejoin="round">
        <g id="Playas-tarifa" transform="translate(-658.000000, -3563.000000)" stroke="#FFFFFF">
            <g id="Page-1" transform="translate(658.000000, 3563.000000)">
                <path d="M6.9845,17.1982 C6.9845,18.9892 5.5325,20.4402 3.7425,20.4402 C1.9515,20.4402 0.5005,18.9892 0.5005,17.1982" id="Stroke-1"></path>
                <path d="M13.4684,17.1982 C13.4684,18.9892 12.0174,20.4402 10.2264,20.4402 C8.4354,20.4402 6.9844,18.9892 6.9844,17.1982" id="Stroke-3"></path>
                <path d="M19.9527,17.1982 C19.9527,18.9892 18.5007,20.4402 16.7107,20.4402 C14.9197,20.4402 13.4687,18.9892 13.4687,17.1982" id="Stroke-5"></path>
                <path d="M19.6222,13.4746 L11.9102,15.7456 L7.5182,0.8296 C11.7772,-0.4244 16.2472,2.0116 17.5012,6.2706 L19.6222,13.4746 Z" id="Stroke-7"></path>
                <path d="M6.025,5.8286 C6.176,7.3226 5.088,8.6566 3.593,8.8076 C2.1,8.9586 0.766,7.8706 0.615,6.3756 C0.463,4.8826 1.552,3.5486 3.046,3.3976 C4.54,3.2456 5.874,4.3346 6.025,5.8286 Z" id="Stroke-9"></path>
                <path d="M4.1373,8.6957 L5.4573,13.1717" id="Stroke-11"></path>
                <path d="M5.4576,13.1713 L9.3536,13.8693" id="Stroke-13"></path>
                <path d="M9.3541,13.8696 L9.9521,16.4056" id="Stroke-15"></path>
                <path d="M4.7975,10.9335 L10.0075,9.2875" id="Stroke-17"></path>
            </g>
        </g>
    </g>
</svg>