<?xml version="1.0" encoding="UTF-8"?>
<svg width="93px" height="87px" viewBox="0 0 93 87" version="1.1" xmlns="http://www.w3.org/2000/svg" xmlns:xlink="http://www.w3.org/1999/xlink">
    <!-- Generator: Sketch 47.1 (45422) - http://www.bohemiancoding.com/sketch -->
    <title>Page 1 Copy</title>
    <desc>Created with Sketch.</desc>
    <defs></defs>
    <g id="1.7.Naturaleza" stroke="none" stroke-width="1" fill="none" fill-rule="evenodd" stroke-linecap="round" stroke-linejoin="round">
        <g id="Naturaleza" transform="translate(-1150.000000, -1941.000000)" stroke="#FDFCFB" stroke-width="4">
            <g id="Page-1-Copy" transform="translate(1152.000000, 1942.000000)">
                <path d="M25.3072,60.7924 C23.0272,63.1964 19.8072,64.7004 16.2512,64.7004 C9.3752,64.7004 3.7512,59.0724 3.7512,52.2004 L3.7512,30.9484 C3.7512,24.0724 9.3752,18.4484 16.2512,18.4484 C23.1272,18.4484 28.7512,24.0724 28.7512,30.9484 L28.7512,35.2004" id="Stroke-1"></path>
                <path d="M16.2192,29.8548 L16.2192,83.4468" id="Stroke-3"></path>
                <path d="M16.2192,53.2924 L21.1472,48.3644" id="Stroke-5"></path>
                <path d="M16.2192,39.3864 L23.6552,31.9504" id="Stroke-7"></path>
                <path d="M16.2192,47.4488 L9.4952,40.7248" id="Stroke-9"></path>
                <path d="M34.86,68.898 L34.86,68.898 C29.524,68.898 25.156,64.53 25.156,59.194 L25.156,42.702 C25.156,37.366 29.524,33.002 34.86,33.002 L34.86,33.002 C40.192,33.002 44.56,37.366 44.56,42.702 L44.56,59.194 C44.56,64.53 40.192,68.898 34.86,68.898 Z" id="Stroke-11"></path>
                <path d="M34.8344,41.8532 L34.8344,83.4492" id="Stroke-13"></path>
                <path d="M34.8344,60.0424 L38.6624,56.2184" id="Stroke-15"></path>
                <path d="M34.8344,49.2516 L37.9904,46.0956" id="Stroke-17"></path>
                <path d="M34.8344,55.5092 L29.6144,50.2892" id="Stroke-19"></path>
                <path d="M30.4692,67.8256 L25.7492,81.6976" id="Stroke-21"></path>
                <polyline id="Stroke-23" points="0.0004 83.4488 88.5004 83.4488 55.0164 11.0008 41.4124 35.6688"></polyline>
                <polyline id="Stroke-25" points="45.098 28.982 28.75 0.998 19.938 18.45"></polyline>
                <path d="M41.4144,22.6792 L25.7504,22.6792" id="Stroke-27"></path>
                <path d="M44.5608,50.8276 L73.4248,50.8276" id="Stroke-29"></path>
                <path d="M4.5804,56.652 L0.0004,65.488" id="Stroke-31"></path>
            </g>
        </g>
    </g>
</svg>