<svg id="Capa_1" data-name="Capa 1" xmlns="http://www.w3.org/2000/svg" viewBox="0 0 23 23"><defs><style>.cls-1{fill:none;stroke:#fff;stroke-linecap:round;stroke-linejoin:round;}</style></defs><title>iconos</title><path class="cls-1" d="M6,8.85V2A1.56,1.56,0,0,1,7.6.4h0A1.56,1.56,0,0,1,9.16,2V8.85"/><path class="cls-1" d="M9.16,8.85V7.52A1.56,1.56,0,0,1,10.72,6h0a1.56,1.56,0,0,1,1.56,1.56V9.29"/><path class="cls-1" d="M7.3,12h3.89a1.56,1.56,0,0,0,1.56-1.56h0a1.56,1.56,0,0,0-1.56-1.56H6.54A2.05,2.05,0,0,0,4.48,10.9v4.92a3.12,3.12,0,0,0,3.11,3.11h0v3.31"/><path class="cls-1" d="M12.28,9.29V7.52A1.56,1.56,0,0,1,13.84,6h0A1.56,1.56,0,0,1,15.4,7.52v3.7"/><path class="cls-1" d="M15.4,11.22V2A1.56,1.56,0,0,1,17,.4h0A1.56,1.56,0,0,1,18.52,2V12.52"/><path class="cls-1" d="M15.41,21.85V18.93h0a3.17,3.17,0,0,0,3.11-3.11v-3.3"/><path class="cls-1" d="M12.29,11.53A1.56,1.56,0,0,0,13.84,13h0a1.56,1.56,0,0,0,1.56-1.56V7.21"/><path class="cls-1" d="M9.27,12a1.59,1.59,0,0,0,1.45,1h0a1.56,1.56,0,0,0,1.55-1.42"/></svg>