<svg xmlns="http://www.w3.org/2000/svg" viewBox="0 0 23 23"><defs><style>.cls-1{fill:none;stroke:#fff;stroke-linecap:round;stroke-linejoin:round;}</style></defs><title>iconos</title><g id="Capa_8" data-name="Capa 8"><circle class="cls-1" cx="11.5" cy="10.89" r="1.6"/><path class="cls-1" d="M5.88,8.13h-2A8,8,0,0,0,4,13.81h3.1l-.9,2.58H5.6a8,8,0,0,0,3.75,2.27l-.35-1h5l-.35,1a8,8,0,0,0,3.75-2.27h-.64l-.9-2.58H19a8,8,0,0,0,.06-5.68H16.76l-.9-2.58h1.68a8,8,0,0,0-4.08-2.48l-.36,1H9.9l-.36-1A8,8,0,0,0,5.46,5.55H6.78Z"/><polyline class="cls-1" points="13.46 3.07 14 1.53 9 1.53 9.54 3.07"/><polyline class="cls-1" points="9.35 18.66 9.9 20.25 13.1 20.25 13.65 18.66"/><polyline class="cls-1" points="13.65 18.66 14 17.67 9 17.67 9.35 18.66"/><polyline class="cls-1" points="5.46 5.55 1.79 5.55 2.69 8.13 3.92 8.13"/><polyline class="cls-1" points="3.92 8.13 5.88 8.13 6.78 5.55 5.46 5.55"/><polyline class="cls-1" points="3.98 13.81 2.09 13.81 2.99 16.39 5.6 16.39"/><polyline class="cls-1" points="5.6 16.39 6.18 16.39 7.08 13.81 3.98 13.81"/><polyline class="cls-1" points="17.4 16.39 19.95 16.39 20.86 13.81 19.02 13.81"/><polyline class="cls-1" points="19.02 13.81 15.86 13.81 16.76 16.39 17.4 16.39"/><polyline class="cls-1" points="19.08 8.13 19.95 8.13 20.86 5.55 17.55 5.55"/><line class="cls-1" x1="7.25" y1="17.84" x2="6.32" y2="22.07"/><line class="cls-1" x1="15.7" y1="17.84" x2="16.63" y2="22.07"/><line class="cls-1" x1="0.39" y1="22.24" x2="22.61" y2="22.24"/><line class="cls-1" x1="11.5" y1="9.29" x2="11.5" y2="4.11"/><line class="cls-1" x1="10.12" y1="10.09" x2="6.02" y2="7.73"/><line class="cls-1" x1="10.12" y1="11.69" x2="6.44" y2="13.81"/><line class="cls-1" x1="11.5" y1="12.49" x2="11.5" y2="17.67"/><line class="cls-1" x1="12.88" y1="11.69" x2="16.56" y2="13.81"/><line class="cls-1" x1="12.88" y1="10.09" x2="16.68" y2="7.9"/></g></svg>