<svg id="Capa_1" data-name="Capa 1" xmlns="http://www.w3.org/2000/svg" viewBox="0 0 23 23"><defs><style>.cls-1{fill:none;stroke:#fff;stroke-linecap:round;stroke-linejoin:round;}</style></defs><title>iconos</title><line class="cls-1" x1="12.04" y1="1.81" x2="12.04" y2="4"/><circle class="cls-1" cx="12.07" cy="13.18" r="9.18"/><path class="cls-1" d="M12.16,22.35a18,18,0,0,1-2.37-9.17A18,18,0,0,1,12.16,4a11.37,11.37,0,0,0-4.85,9.18A11.34,11.34,0,0,0,12.16,22.35Z"/><path class="cls-1" d="M12.16,4S4.88,6,4.88,13.18s7.28,9.17,7.28,9.17"/><path class="cls-1" d="M12,4a18,18,0,0,1,2.38,9.18A18,18,0,0,1,12,22.35a11.34,11.34,0,0,0,4.85-9.17A11.37,11.37,0,0,0,12,4Z"/><path class="cls-1" d="M12,22.35s7.29-2,7.29-9.17S12,4,12,4"/><path class="cls-1" d="M2.89,13.27a18,18,0,0,1,9.18-2.37,18,18,0,0,1,9.18,2.37,11.37,11.37,0,0,0-9.18-4.85A11.37,11.37,0,0,0,2.89,13.27Z"/><path class="cls-1" d="M21.25,13.27S19.24,6,12.07,6s-9.18,7.29-9.18,7.29"/><path class="cls-1" d="M21.25,13.08a18,18,0,0,1-9.18,2.38,18,18,0,0,1-9.18-2.38,11.37,11.37,0,0,0,9.18,4.85A11.37,11.37,0,0,0,21.25,13.08Z"/><path class="cls-1" d="M2.89,13.08s2,7.29,9.18,7.29,9.18-7.29,9.18-7.29"/><path class="cls-1" d="M5.12,1h0A1.23,1.23,0,0,1,3.89,2.19h0"/><path class="cls-1" d="M6.37,2.19h0A1.23,1.23,0,0,1,5.13,1h0"/><path class="cls-1" d="M5.13,3.43h0A1.24,1.24,0,0,1,6.37,2.19h0"/><path class="cls-1" d="M3.89,2.19h0A1.24,1.24,0,0,1,5.12,3.43h0"/><path class="cls-1" d="M17.47.93h0a1.23,1.23,0,0,1-1.24,1.24h0"/><path class="cls-1" d="M18.71,2.17h0A1.24,1.24,0,0,1,17.47.93h0"/><path class="cls-1" d="M17.47,3.41h0a1.25,1.25,0,0,1,1.24-1.24h0"/><path class="cls-1" d="M16.23,2.17h0a1.24,1.24,0,0,1,1.24,1.24h0"/><path class="cls-1" d="M20.5,3.88h0a.62.62,0,0,1-.62.62h0"/><path class="cls-1" d="M21.12,4.5h0a.62.62,0,0,1-.62-.62h0"/><path class="cls-1" d="M20.5,5.12h0a.62.62,0,0,1,.62-.62h0"/><path class="cls-1" d="M19.88,4.5h0a.62.62,0,0,1,.62.62h0"/><path class="cls-1" d="M2.37,5.5h0a.62.62,0,0,1-.62.62h0"/><path class="cls-1" d="M3,6.12H3a.62.62,0,0,1-.62-.62h0"/><path class="cls-1" d="M2.37,6.74h0A.62.62,0,0,1,3,6.12H3"/><path class="cls-1" d="M1.75,6.12h0a.61.61,0,0,1,.62.62h0"/></svg>