<?xml version="1.0" encoding="UTF-8"?>
<svg width="91px" height="91px" viewBox="0 0 91 91" version="1.1" xmlns="http://www.w3.org/2000/svg" xmlns:xlink="http://www.w3.org/1999/xlink">
    <!-- Generator: Sketch 47.1 (45422) - http://www.bohemiancoding.com/sketch -->
    <title>Page 1</title>
    <desc>Created with Sketch.</desc>
    <defs></defs>
    <g id="1.15.Cultura" stroke="none" stroke-width="1" fill="none" fill-rule="evenodd" stroke-linecap="round" stroke-linejoin="round">
        <g id="Cultura" transform="translate(-494.000000, -1835.000000)" stroke="#FFFFFF" stroke-width="4">
            <g id="Page-1" transform="translate(496.000000, 1837.000000)">
                <path d="M78.2868,60.83 C78.2868,69.95 71.3868,77.338 62.8788,77.338 C54.3708,77.338 47.4708,69.95 47.4708,60.83 C47.4708,51.71 54.3708,44.318 62.8788,44.318 C71.3868,44.318 78.2868,51.71 78.2868,60.83 Z" id="Stroke-1"></path>
                <path d="M42.3708,73.6408 C46.4868,81.1928 54.1308,86.2648 62.8788,86.2648 C75.9868,86.2648 86.6148,74.8768 86.6148,60.8288 C86.6148,52.3568 82.7268,44.8928 76.7708,40.2888 C73.6868,37.9008 72.3788,33.8848 73.6428,30.1968 L75.5708,24.5768 C76.4468,22.0248 74.5468,19.3688 71.8468,19.3688 L53.9108,19.3688 C51.2068,19.3688 49.3108,22.0248 50.1868,24.5768 L52.1148,30.1968 C53.3788,33.8848 52.0708,37.9008 48.9828,40.2888 C47.1988,41.6688 45.5988,43.3088 44.2308,45.1528" id="Stroke-3"></path>
                <polyline id="Stroke-5" points="12.9688 27.2736 23.7328 44.1416 34.5008 27.2736"></polyline>
                <path d="M34.5,27.2736 L36.424,21.6576 C37.3,19.1016 35.404,16.4456 32.704,16.4456 L14.764,16.4456 C12.068,16.4456 10.168,19.1016 11.044,21.6576 L12.968,27.2736 C14.236,30.9616 12.928,34.9816 9.84,37.3656 C3.888,41.9696 0,49.4336 0,57.9056 C0,71.9536 10.628,83.3416 23.736,83.3416 C36.844,83.3416 47.472,71.9536 47.472,57.9056 C47.472,49.4336 43.584,41.9696 37.628,37.3656 C34.544,34.9816 33.236,30.9616 34.5,27.2736 Z" id="Stroke-7"></path>
                <path d="M19.7344,16.4452 L19.7344,16.4452 C19.7344,11.7812 23.5144,8.0012 28.1784,8.0012 L50.4344,8.0012 C55.0984,8.0012 58.8784,11.7812 58.8784,16.4452 L58.8784,19.3652" id="Stroke-9"></path>
                <path d="M27.7344,16.4452 L27.7344,8.4452 C27.7344,3.7812 31.5144,0.0012 36.1784,0.0012 L58.4344,0.0012 C63.0984,0.0012 66.8784,3.7812 66.8784,8.4452 L66.8784,19.3652" id="Stroke-11"></path>
            </g>
        </g>
    </g>
</svg>