<svg id="Capa_1" data-name="Capa 1" xmlns="http://www.w3.org/2000/svg" viewBox="0 0 23 23"><defs><style>.cls-1{fill:none;stroke:#fff;stroke-linecap:round;stroke-linejoin:round;}</style></defs><title>iconos</title><ellipse class="cls-1" cx="16.39" cy="15.89" rx="3.85" ry="4.13"/><path class="cls-1" d="M11.27,19.09a5.86,5.86,0,0,0,5.12,3.15,6.15,6.15,0,0,0,5.94-6.35,6.47,6.47,0,0,0-2.46-5.14,2.26,2.26,0,0,1-.79-2.52l.49-1.41a1,1,0,0,0-.93-1.3H14.15a1,1,0,0,0-.93,1.3l.48,1.41a2.26,2.26,0,0,1-.78,2.52A6.25,6.25,0,0,0,11.73,12"/><polyline class="cls-1" points="3.92 7.5 6.61 11.71 9.3 7.5"/><path class="cls-1" d="M9.3,7.5l.48-1.41a1,1,0,0,0-.93-1.3H4.36a1,1,0,0,0-.93,1.3L3.92,7.5A2.26,2.26,0,0,1,3.13,10,6.46,6.46,0,0,0,.67,15.15a6.16,6.16,0,0,0,5.94,6.36,6.15,6.15,0,0,0,5.93-6.36A6.46,6.46,0,0,0,10.08,10,2.26,2.26,0,0,1,9.3,7.5Z"/><path class="cls-1" d="M5.61,4.79h0A2.1,2.1,0,0,1,7.72,2.68h5.56a2.1,2.1,0,0,1,2.11,2.11v.73"/><path class="cls-1" d="M7.61,4.79v-2A2.1,2.1,0,0,1,9.72.68h5.56a2.1,2.1,0,0,1,2.11,2.11V5.52"/></svg>