<svg id="Capa_1" data-name="Capa 1" xmlns="http://www.w3.org/2000/svg" viewBox="0 0 23 23"><defs><style>.cls-1{fill:none;stroke:#fff;stroke-linecap:round;stroke-linejoin:round;}</style></defs><title>iconos</title><path class="cls-1" d="M12.23,5.61a4.8,4.8,0,0,0-.76-1.68L9.78,1.53A2.05,2.05,0,0,0,8.46.69h0a2.06,2.06,0,0,0-2.4,1.63v.06A2,2,0,0,0,6.39,4L7.85,6.05A2,2,0,0,1,7.36,8.9h0A2,2,0,0,1,4.5,8.42h0l-1.09.76.2.29a4.81,4.81,0,0,0,6.7,1.16h0a4.52,4.52,0,0,0,.53-.43"/><path class="cls-1" d="M4.5,8.42S3.09,5,1.94,5.79,3.41,9.18,3.41,9.18"/><path class="cls-1" d="M2.68,5.77A3,3,0,0,1,3,5a.55.55,0,0,1,.9-.12,1.45,1.45,0,0,1,.32.89,3.9,3.9,0,0,1-.29,1.48"/><path class="cls-1" d="M11,3.2S10.5,4.92,7.54,5.61"/><path class="cls-1" d="M10.84,9a3.29,3.29,0,0,1-2.79-.92"/><path class="cls-1" d="M6.58,9.24s.61,1.9,1.57,2.23"/><path class="cls-1" d="M7.36,2.81A2.39,2.39,0,0,1,5.68.43"/><line class="cls-1" x1="8.46" y1="2.03" x2="8.46" y2="2.03"/><path class="cls-1" d="M15.34,10.93V9.47a2.19,2.19,0,0,1,2.2-2.2h0a2.2,2.2,0,0,1,2.2,2.2h1.43V9.09A5.17,5.17,0,0,0,16,3.92h0a5.17,5.17,0,0,0-5.17,5.17v2.27"/><path class="cls-1" d="M19.76,9.47s-.9,3.89.61,3.89.82-3.89.82-3.89"/><path class="cls-1" d="M19.71,12.92a3.08,3.08,0,0,1-.76.46.6.6,0,0,1-.86-.45,1.54,1.54,0,0,1,.27-1,4.06,4.06,0,0,1,1.18-1.12"/><path class="cls-1" d="M10.84,10.05s1.47-1.23,4.5,0"/><path class="cls-1" d="M13.09,4.82s2.46-.43,3.31,2.77"/><path class="cls-1" d="M18.44,7.45s.64-2,0-2.93"/><polyline class="cls-1" points="10.39 11.36 10.39 22.36 18.09 9.46"/><path class="cls-1" d="M16.05,7.84C16.73,8,17.64,8.27,18,9c.7,1.49-2.62,2-3.48,2.12a25.41,25.41,0,0,1-4.09.28"/><path class="cls-1" d="M4.33,8.05a11.59,11.59,0,0,1,3.88-.84"/><path class="cls-1" d="M10.39,12.63a33.15,33.15,0,0,1-4.34-.26,7.61,7.61,0,0,1-1.2-.31,2.93,2.93,0,0,1-2-1.76,1.56,1.56,0,0,1,.34-1.4"/><line class="cls-1" x1="2.96" y1="10.71" x2="10.39" y2="22.35"/></svg>