<?xml version="1.0" encoding="UTF-8"?>
<svg width="63px" height="70px" viewBox="0 0 63 70" version="1.1" xmlns="http://www.w3.org/2000/svg" xmlns:xlink="http://www.w3.org/1999/xlink">
    <!-- Generator: Sketch 47.1 (45422) - http://www.bohemiancoding.com/sketch -->
    <title>Page 1</title>
    <desc>Created with Sketch.</desc>
    <defs></defs>
    <g id="1.28.n.Eventos" stroke="none" stroke-width="1" fill="none" fill-rule="evenodd" stroke-linecap="round" stroke-linejoin="round">
        <g id="Evento" transform="translate(-368.000000, -9484.000000)" stroke="#CECECE" stroke-width="3">
            <g id="Group-21" transform="translate(352.000000, 9486.000000)">
                <g id="Page-1" transform="translate(18.000000, 0.000000)">
                    <path d="M31.7241,15.5379 C31.3131,13.7739 30.5631,12.0609 29.4561,10.4889 L24.3741,3.2919 C23.4411,1.9719 22.0281,1.0659 20.4351,0.7719 C17.0961,0.1539 13.8801,2.3349 13.2231,5.6679 L13.1841,5.8569 C12.8541,7.5219 13.2231,9.2469 14.2041,10.6359 L18.5991,16.8639 C20.5521,19.6299 19.8921,23.4549 17.1261,25.4049 L17.0811,25.4379 C14.3151,27.3909 10.4901,26.7309 8.5371,23.9649 L5.2761,26.2689 L5.8851,27.1299 C10.4781,33.6369 19.4811,35.1909 25.9881,30.5949 C26.5521,30.1989 27.0771,29.7699 27.5631,29.3109" id="Stroke-1"></path>
                    <path d="M8.5371,23.9652 C8.5371,23.9652 4.3221,13.6452 0.8751,16.0782 C-2.5719,18.5112 5.2761,26.2692 5.2761,26.2692" id="Stroke-3"></path>
                    <path d="M3.0966,16.0374 C3.3396,15.2604 3.6126,14.4354 4.0896,13.7664 C4.7676,12.8124 5.9076,12.4974 6.7596,13.4004 C7.4106,14.0904 7.6956,15.1704 7.7346,16.0944 C7.8006,17.6034 7.3896,19.1334 6.8526,20.5314" id="Stroke-5"></path>
                    <path d="M27.9111,8.3031 C27.9111,8.3031 26.5341,13.4691 17.6631,15.5391" id="Stroke-7"></path>
                    <path d="M27.5625,25.6233 C25.4685,26.0283 22.5825,25.6803 19.1955,22.8603" id="Stroke-9"></path>
                    <path d="M14.7801,26.4336 C14.7801,26.4336 16.6041,32.1336 19.5021,33.1206" id="Stroke-11"></path>
                    <path d="M17.1342,7.1385 C17.1342,7.1385 12.0492,5.7855 12.0942,0.0015" id="Stroke-13"></path>
                    <path d="M41.061,31.5135 L41.061,27.1185 C41.061,23.4735 44.013,20.5215 47.658,20.5215 L47.718,20.5215 C51.363,20.5215 54.315,23.4735 54.315,27.1185 L58.611,27.1185 L58.611,25.9845 C58.611,17.4075 51.66,10.4565 43.086,10.4565 C34.512,10.4565 27.561,17.4075 27.561,25.9845 L27.561,32.7915" id="Stroke-17"></path>
                    <path d="M54.315,27.1176 C54.315,27.1176 51.615,38.8086 56.157,38.8086 C60.696,38.8086 58.611,27.1176 58.611,27.1176" id="Stroke-19"></path>
                    <path d="M54.1773,37.4652 C53.4843,37.9992 52.7283,38.5512 51.8943,38.8452 C50.7093,39.2622 49.5123,38.8332 49.3203,37.5102 C49.1763,36.4992 49.5963,35.3742 50.1333,34.5342 C51.0123,33.1662 52.3263,32.0802 53.6643,31.1832" id="Stroke-21"></path>
                    <path d="M27.561,28.8636 C27.561,28.8636 31.98,25.1766 41.061,28.8636" id="Stroke-23"></path>
                    <path d="M34.311,13.1781 C34.311,13.1781 41.688,11.8761 44.259,21.4761" id="Stroke-25"></path>
                    <path d="M50.3583,21.075 C50.3583,21.075 52.2933,14.931 50.3583,12.264" id="Stroke-27"></path>
                    <polyline id="Stroke-29" points="26.2221 32.7981 26.2221 65.7771 49.3011 27.1101"></polyline>
                    <path d="M43.2012,22.2426 C45.2262,22.7676 47.9502,23.5116 48.9282,25.5846 C51.0312,30.0546 41.0682,31.5516 38.4762,31.9686 C34.4292,32.6196 30.3162,32.7996 26.2212,32.7996" id="Stroke-31"></path>
                    <path d="M8.0478,22.8636 C9.5778,22.1886 13.5648,20.7036 19.6728,20.3436" id="Stroke-33"></path>
                    <path d="M26.2221,36.5922 C21.8811,36.4062 17.4921,36.6102 13.1961,35.8362 C12.1431,35.6472 10.8741,35.3412 9.6051,34.8882 C6.8331,33.9042 4.0431,32.2302 3.4521,29.6022 C3.0741,27.9282 3.5181,26.5452 4.4571,25.4082" id="Stroke-35"></path>
                    <path d="M3.933,30.8529 L26.223,65.7789" id="Stroke-37"></path>
                </g>
            </g>
        </g>
    </g>
</svg>