<?xml version="1.0" encoding="UTF-8"?>
<svg width="77px" height="91px" viewBox="0 0 77 91" version="1.1" xmlns="http://www.w3.org/2000/svg" xmlns:xlink="http://www.w3.org/1999/xlink">
    <!-- Generator: Sketch 47.1 (45422) - http://www.bohemiancoding.com/sketch -->
    <title>Page 1</title>
    <desc>Created with Sketch.</desc>
    <defs></defs>
    <g id="1.20.Gastronomia" stroke="none" stroke-width="1" fill="none" fill-rule="evenodd" stroke-linecap="round" stroke-linejoin="round">
        <g id="Gastronomia" transform="translate(-206.000000, -1941.000000)" stroke="#FFFFFF" stroke-width="4">
            <g id="Page-1" transform="translate(206.000000, 1941.000000)">
                <path d="M60.6424,10.9832 C60.6424,6.0232 56.6224,1.9992 51.6584,1.9992 C48.1984,1.9992 45.2264,3.9792 43.7264,6.8472 C42.2344,4.9792 39.9624,3.7592 37.3864,3.7592 C34.8064,3.7592 32.5344,4.9792 31.0384,6.8472 C29.5384,3.9792 26.5704,1.9992 23.1104,1.9992 C18.1464,1.9992 14.1264,6.0232 14.1264,10.9832 C14.1264,15.3312 17.2184,18.9592 21.3224,19.7872 L21.3224,36.9712 L53.4424,36.9712 L53.4424,19.7872 C57.5504,18.9592 60.6424,15.3312 60.6424,10.9832 Z" id="Stroke-1"></path>
                <path d="M37.3848,20.8856 L37.3848,28.9856" id="Stroke-3"></path>
                <path d="M29.072,20.8856 L29.072,28.9856" id="Stroke-5"></path>
                <path d="M45.6972,20.8856 L45.6972,28.9856" id="Stroke-7"></path>
                <path d="M56.072,42.794 C55.94,42.794 55.816,42.822 55.688,42.834 C55.26,40.734 54.524,38.746 53.456,36.962 L21.312,36.962 C20.244,38.746 19.504,40.734 19.08,42.838 C18.94,42.822 18.808,42.794 18.664,42.794 C16.292,42.794 14.372,44.718 14.372,47.09 C14.372,49.462 16.292,51.382 18.664,51.382 C18.884,51.382 19.088,51.354 19.3,51.322 C21.404,59.35 28.692,65.282 37.384,65.282 C46.072,65.282 53.36,59.354 55.468,51.322 C55.668,51.354 55.864,51.382 56.072,51.382 C58.444,51.382 60.368,49.462 60.368,47.09 C60.368,44.718 58.444,42.794 56.072,42.794 Z" id="Stroke-9"></path>
                <path d="M27.3944,55.4716 L33.2824,55.4716 C35.7304,55.4716 37.7144,53.4876 37.7144,51.0396" id="Stroke-11"></path>
                <path d="M48.0368,55.4716 L42.1488,55.4716 C39.7008,55.4716 37.7128,53.4876 37.7128,51.0396" id="Stroke-13"></path>
                <path d="M22.576,64.3232 C12.056,68.8872 4.248,77.9352 2,88.8232 L74.244,88.8232 C71.996,77.9352 64.188,68.8832 53.668,64.3232" id="Stroke-15"></path>
                <path d="M37.7148,73.0988 L37.7148,88.8228" id="Stroke-17"></path>
                <path d="M43.4004,80.96 L45.6964,80.96" id="Stroke-19"></path>
            </g>
        </g>
    </g>
</svg>