<svg xmlns="http://www.w3.org/2000/svg" viewBox="0 0 21.74 19.19"><defs><style>.cls-1{fill:none;stroke:#cecece;stroke-linecap:round;stroke-linejoin:round;}</style></defs><title>iconos</title><g id="Capa_2" data-name="Capa 2"><line class="cls-1" x1="10.87" y1="18.69" x2="10.87" y2="0.58"/><path class="cls-1" d="M5.75,18.69,2.32,5.34a.46.46,0,0,0-.9,0l-.92,6"/><path class="cls-1" d="M2.59,18.69,6,5.34a.46.46,0,0,1,.9,0l.92,6"/><circle class="cls-1" cx="4.17" cy="1.83" r="1.33"/><path class="cls-1" d="M16.57,8.67l-.86-3.33a.45.45,0,0,0-.89,0l-.93,6"/><line class="cls-1" x1="19.14" y1="18.69" x2="17.77" y2="13.34"/><path class="cls-1" d="M18.56,8.67l.86-3.33a.45.45,0,0,1,.89,0l.93,6"/><line class="cls-1" x1="15.99" y1="18.69" x2="17.36" y2="13.34"/><circle class="cls-1" cx="17.57" cy="1.83" r="1.33"/><polygon class="cls-1" points="19.82 13.34 15.31 13.34 17.57 4.99 19.82 13.34"/></g></svg>