<?xml version="1.0" encoding="UTF-8"?>
<svg width="27px" height="39px" viewBox="0 0 27 39" version="1.1" xmlns="http://www.w3.org/2000/svg" xmlns:xlink="http://www.w3.org/1999/xlink">
    <!-- Generator: Sketch 47.1 (45422) - http://www.bohemiancoding.com/sketch -->
    <title>Page 1</title>
    <desc>Created with Sketch.</desc>
    <defs></defs>
    <g id="1.28.n.Eventos" stroke="none" stroke-width="1" fill="none" fill-rule="evenodd" stroke-linecap="round" stroke-linejoin="round">
        <g id="Evento" transform="translate(-886.000000, -965.000000)" stroke="#FFFFFF" stroke-width="1.7">
            <g id="Page-1" transform="translate(886.000000, 965.000000)">
                <path d="M23.94756,11.271 C23.94756,5.51426087 19.1774267,0.847826087 13.2944933,0.847826087 C7.40809333,0.847826087 2.63969333,5.51426087 2.63969333,11.271 C2.63969333,14.0433913 4.02982667,16.4393478 5.16862667,18.8895652 C6.06129333,20.8158261 6.95569333,22.7437826 7.85009333,24.6700435 C9.17436,27.5221304 10.4968933,30.3742174 11.8194267,33.2246087 C11.8332933,33.2517391 11.8488933,33.2805652 11.8592933,33.3093913 C12.3342267,34.637087 14.2530267,34.637087 14.72796,33.3093913 C15.07636,32.5582174 15.42476,31.8053478 15.7748933,31.0541739 C16.6710267,29.1245217 17.5654267,27.1931739 18.46156,25.2635217 C19.56916,22.8794348 20.6750267,20.4936522 21.7808933,18.1095652 C22.8156933,15.8797826 23.94756,13.7822609 23.94756,11.271 Z" id="Stroke-1"></path>
                <path d="M15.0904,11.4541304 C15.0904,12.4240435 14.2861333,13.2125217 13.2929333,13.2125217 C12.3014667,13.2125217 11.4972,12.4240435 11.4972,11.4541304 C11.4972,10.4825217 12.3014667,9.69573913 13.2929333,9.69573913 C14.2861333,9.69573913 15.0904,10.4825217 15.0904,11.4541304 Z" id="Stroke-3"></path>
                <path d="M15.74716,31.1138609 C21.5572933,31.415687 25.9530267,32.8230783 25.9530267,34.5136435 C25.9530267,36.4246435 20.3370267,37.9744696 13.4088933,37.9744696 C6.48249333,37.9744696 0.866493333,36.4246435 0.866493333,34.5136435 C0.866493333,32.8451217 5.14782667,31.4529913 10.8452933,31.1257304" id="Stroke-5"></path>
            </g>
        </g>
    </g>
</svg>