<?xml version="1.0" encoding="UTF-8"?>
<svg width="77px" height="94px" viewBox="0 0 77 94" version="1.1" xmlns="http://www.w3.org/2000/svg" xmlns:xlink="http://www.w3.org/1999/xlink">
    <!-- Generator: Sketch 47.1 (45422) - http://www.bohemiancoding.com/sketch -->
    <title>Page 1</title>
    <desc>Created with Sketch.</desc>
    <defs></defs>
    <g id="1.11.Diversion" stroke="none" stroke-width="1" fill="none" fill-rule="evenodd" stroke-linecap="round" stroke-linejoin="round">
        <g id="Diversion" transform="translate(-682.000000, -1926.000000)" stroke="#FFFFFF" stroke-width="4">
            <g id="Page-1" transform="translate(684.000000, 1928.000000)">
                <polygon id="Stroke-1" points="0 39.92 60.76 39.92 30.38 67.22"></polygon>
                <polyline id="Stroke-3" points="55.6524 12.7852 59.0004 5.5772 72.2084 0.0012"></polyline>
                <polyline id="Stroke-5" points="30.3808 89.5276 30.3808 67.2196 46.0888 33.3876"></polyline>
                <g id="Group-9" transform="translate(17.000000, 89.526800)">
                    <path d="M0.0252,0.0008 L26.7372,0.0008" id="Stroke-7"></path>
                </g>
                <path d="M55.6524,12.7852 C55.6524,12.7852 40.0004,7.6812 31.8804,18.5772 C31.8804,18.5772 44.3204,42.7372 68.8884,36.4652 C68.8884,36.4652 70.7924,22.2052 55.6524,12.7852 Z" id="Stroke-10"></path>
                <path d="M38.9084,27.7912 C42.8804,13.8472 55.6524,12.7872 55.6524,12.7872 C55.6524,12.7872 60.9684,22.4272 57.5764,37.3112" id="Stroke-12"></path>
            </g>
        </g>
    </g>
</svg>