<?xml version="1.0" encoding="UTF-8"?>
<svg width="17px" height="24px" viewBox="0 0 17 24" version="1.1" xmlns="http://www.w3.org/2000/svg" xmlns:xlink="http://www.w3.org/1999/xlink">
    <!-- Generator: Sketch 47.1 (45422) - http://www.bohemiancoding.com/sketch -->
    <title>Page 1</title>
    <desc>Created with Sketch.</desc>
    <defs></defs>
    <g id="1.24.n.Experiencia" stroke="none" stroke-width="1" fill="none" fill-rule="evenodd" stroke-linecap="round" stroke-linejoin="round">
        <g id="Experiencia-El-Palmar" transform="translate(-354.000000, -7706.000000)" stroke="#484848">
            <g id="Page-1" transform="translate(355.000000, 7707.000000)">
                <path d="M13.8162,6.6468 C13.8162,3.2518 11.0642,0.4998 7.6692,0.4998 C4.2742,0.4998 1.5232,3.2518 1.5232,6.6468 C1.5232,8.2828 2.3252,9.6948 2.9812,11.1398 C3.4972,12.2768 4.0132,13.4128 4.5292,14.5498 C5.2922,16.2308 6.0562,17.9128 6.8192,19.5938 C6.8262,19.6108 6.8362,19.6268 6.8412,19.6438 C7.1152,20.4268 8.2232,20.4268 8.4972,19.6438 C8.6982,19.2008 8.8992,18.7568 9.1012,18.3138 C9.6172,17.1758 10.1342,16.0378 10.6512,14.8988 C11.2892,13.4928 11.9282,12.0858 12.5662,10.6798 C13.1632,9.3648 13.8162,8.1278 13.8162,6.6468 Z" id="Stroke-1"></path>
                <path d="M8.7063,6.7547 C8.7063,7.3277 8.2423,7.7917 7.6693,7.7917 C7.0973,7.7917 6.6323,7.3277 6.6323,6.7547 C6.6323,6.1827 7.0973,5.7177 7.6693,5.7177 C8.2423,5.7177 8.7063,6.1827 8.7063,6.7547 Z" id="Stroke-3"></path>
                <path d="M9.0847,18.3495 C12.4367,18.5275 14.9727,19.3575 14.9727,20.3545 C14.9727,21.4815 11.7327,22.3955 7.7367,22.3955 C3.7397,22.3955 0.4997,21.4815 0.4997,20.3545 C0.4997,19.3705 2.9697,18.5495 6.2567,18.3565" id="Stroke-5"></path>
            </g>
        </g>
    </g>
</svg>