<?xml version="1.0" encoding="UTF-8"?>
<svg width="78px" height="93px" viewBox="0 0 78 93" version="1.1" xmlns="http://www.w3.org/2000/svg" xmlns:xlink="http://www.w3.org/1999/xlink">
    <!-- Generator: Sketch 47.1 (45422) - http://www.bohemiancoding.com/sketch -->
    <title>Page 1</title>
    <desc>Created with Sketch.</desc>
    <defs></defs>
    <g id="1.15.Cultura" stroke="none" stroke-width="1" fill="none" fill-rule="evenodd" stroke-linecap="round" stroke-linejoin="round">
        <g id="Cultura" transform="translate(-142.000000, -1831.000000)" stroke="#FFFFFF" stroke-width="4">
            <g id="Page-1" transform="translate(144.000000, 1832.000000)">
                <g id="Group-4" transform="translate(0.000000, 21.210800)">
                    <polygon id="Stroke-1" points="0 68 20.944 68 20.944 0.176 0 0.176"></polygon>
                    <path d="M0,26.946 L20.944,26.946" id="Stroke-3"></path>
                </g>
                <path d="M10.4708,53.844 L10.4708,61.472" id="Stroke-5"></path>
                <path d="M0,69.932 L20.944,69.932" id="Stroke-6"></path>
                <path d="M10.4708,27.0744 L10.4708,36.7824" id="Stroke-8"></path>
                <path d="M6.0372,27.0744 L6.0372,36.7824" id="Stroke-9"></path>
                <path d="M14.9044,27.0744 L14.9044,36.7824" id="Stroke-10"></path>
                <path d="M10.4708,27.0744 L10.4708,36.7824" id="Stroke-11"></path>
                <g id="Group-32" transform="translate(2.000000, 0.210800)">
                    <polygon id="Stroke-12" points="0.912 21.18 15.752 21.18 15.752 14.244 0.912 14.244"></polygon>
                    <path d="M8.332,6.6136 L8.332,6.6136 C4.236,6.6136 0.912,9.9376 0.912,14.0336 L0.912,14.2416 L15.752,14.2416 L15.752,14.0336 C15.752,9.9376 12.432,6.6136 8.332,6.6136 Z" id="Stroke-14"></path>
                    <path d="M8.332,6.6136 L8.332,0.7896" id="Stroke-15"></path>
                    <polygon id="Stroke-16" points="50.288 89 71.232 89 71.232 21.176 50.288 21.176"></polygon>
                    <path d="M50.2892,47.946 L71.2332,47.946" id="Stroke-17"></path>
                    <path d="M60.7596,53.6332 L60.7596,61.2612" id="Stroke-18"></path>
                    <path d="M50.2892,69.7212 L71.2332,69.7212" id="Stroke-19"></path>
                    <path d="M60.7596,26.8636 L60.7596,36.5716" id="Stroke-20"></path>
                    <path d="M56.326,26.8636 L56.326,36.5716" id="Stroke-21"></path>
                    <path d="M65.1932,26.8636 L65.1932,36.5716" id="Stroke-22"></path>
                    <path d="M60.7596,26.8636 L60.7596,36.5716" id="Stroke-23"></path>
                    <polygon id="Stroke-24" points="53.2 21.18 68.04 21.18 68.04 14.244 53.2 14.244"></polygon>
                    <path d="M60.6212,6.6136 L60.6212,6.6136 C56.5252,6.6136 53.2012,9.9376 53.2012,14.0336 L53.2012,14.2416 L68.0412,14.2416 L68.0412,14.0336 C68.0412,9.9376 64.7172,6.6136 60.6212,6.6136 Z" id="Stroke-25"></path>
                    <path d="M60.6212,6.6136 L60.6212,0.7896" id="Stroke-26"></path>
                    <polygon id="Stroke-27" points="18.944 89 50.288 89 50.288 69.72 18.944 69.72"></polygon>
                    <polygon id="Stroke-28" points="18.944 69.72 50.288 69.72 50.288 47.944 18.944 47.944"></polygon>
                    <polyline id="Stroke-29" points="18.9432 47.946 34.6152 36.574 50.2872 47.946"></polyline>
                    <path d="M34.6152,53.6332 L34.6152,53.6332 C32.2032,53.6332 30.2472,55.5892 30.2472,58.0012 L30.2472,69.7212 L38.9832,69.7212 L38.9832,58.0012 C38.9832,55.5892 37.0312,53.6332 34.6152,53.6332 Z" id="Stroke-30"></path>
                    <path d="M38.248,39.2076 L50.288,39.2076 C50.288,31.2436 43.832,24.7836 35.864,24.7836 L33.368,24.7836 C25.4,24.7836 18.944,31.2436 18.944,39.2076 L30.984,39.2076" id="Stroke-31"></path>
                </g>
            </g>
        </g>
    </g>
</svg>