<?xml version="1.0" encoding="UTF-8"?>
<svg width="59px" height="55px" viewBox="0 0 59 55" version="1.1" xmlns="http://www.w3.org/2000/svg" xmlns:xlink="http://www.w3.org/1999/xlink">
    <!-- Generator: Sketch 47.1 (45422) - http://www.bohemiancoding.com/sketch -->
    <title>Page 1</title>
    <desc>Created with Sketch.</desc>
    <defs></defs>
    <g id="1.28.n.Eventos" stroke="none" stroke-width="1" fill="none" fill-rule="evenodd" stroke-linecap="round" stroke-linejoin="round">
        <g id="Evento" transform="translate(-507.000000, -9497.000000)" stroke="#CECECE" stroke-width="2.5">
            <g id="Group-22" transform="translate(497.000000, 9498.000000)">
                <g id="Page-1" transform="translate(11.000000, 0.000000)">
                    <path d="M16.2154087,37.62025 C14.7780174,39.12275 12.7480174,40.06275 10.5061913,40.06275 C6.17132174,40.06275 2.62575652,36.54525 2.62575652,32.25025 L2.62575652,18.96775 C2.62575652,14.67025 6.17132174,11.15525 10.5061913,11.15525 C14.8410609,11.15525 18.3866261,14.67025 18.3866261,18.96775 L18.3866261,21.62525" id="Stroke-1"></path>
                    <path d="M10.4860174,18.28425 L10.4860174,51.77925" id="Stroke-3"></path>
                    <path d="M10.4860174,32.93275 L13.5928,29.85275" id="Stroke-5"></path>
                    <path d="M10.4860174,24.2415 L15.1739304,19.594" id="Stroke-7"></path>
                    <path d="M10.4860174,29.2805 L6.24697391,25.078" id="Stroke-9"></path>
                    <path d="M22.2378261,42.68625 L22.2378261,42.68625 C18.8738261,42.68625 16.120087,39.95625 16.120087,36.62125 L16.120087,26.31375 C16.120087,22.97875 18.8738261,20.25125 22.2378261,20.25125 L22.2378261,20.25125 C25.5993043,20.25125 28.3530435,22.97875 28.3530435,26.31375 L28.3530435,36.62125 C28.3530435,39.95625 25.5993043,42.68625 22.2378261,42.68625 Z" id="Stroke-11"></path>
                    <path d="M22.221687,25.78325 L22.221687,51.78075" id="Stroke-13"></path>
                    <path d="M22.221687,37.1515 L24.6349913,34.7615" id="Stroke-15"></path>
                    <path d="M22.221687,30.40725 L24.2113391,28.43475" id="Stroke-17"></path>
                    <path d="M22.221687,34.31825 L18.9308174,31.05575" id="Stroke-19"></path>
                    <path d="M19.469713,42.016 L16.4940609,50.686" id="Stroke-21"></path>
                    <polyline id="Stroke-23" points="0.261121739 51.7805 56.0546 51.7805 34.9451217 6.5005 26.368687 21.918"></polyline>
                    <polyline id="Stroke-25" points="28.6922174 17.73875 18.3858696 0.24875 12.8304783 11.15625"></polyline>
                    <path d="M26.3699478,13.7995 L16.4948174,13.7995" id="Stroke-27"></path>
                    <path d="M28.3535478,31.39225 L46.5504174,31.39225" id="Stroke-29"></path>
                    <path d="M3.14851304,35.0325 L0.261121739,40.555" id="Stroke-31"></path>
                </g>
            </g>
        </g>
    </g>
</svg>