<?xml version="1.0" encoding="UTF-8"?>
<svg width="24px" height="22px" viewBox="0 0 24 22" version="1.1" xmlns="http://www.w3.org/2000/svg" xmlns:xlink="http://www.w3.org/1999/xlink">
    <!-- Generator: Sketch 47.1 (45422) - http://www.bohemiancoding.com/sketch -->
    <title>Page 1</title>
    <desc>Created with Sketch.</desc>
    <defs></defs>
    <g id="1.26.Eventos" stroke="none" stroke-width="1" fill="none" fill-rule="evenodd" stroke-linecap="round" stroke-linejoin="round">
        <g id="Eventos" transform="translate(-50.000000, -1960.000000)" stroke="#FFFFFF">
            <g id="Group-16" transform="translate(0.000000, 1497.000000)">
                <g id="Group-11">
                    <g id="Group-10-Copy-3">
                        <g id="Group-24-Copy-3">
                            <g id="Group-10" transform="translate(50.000000, 463.000000)">
                                <g id="Group-21">
                                    <g id="Page-1">
                                        <path d="M6.8268,15.4481 C6.2568,16.0491 5.4518,16.4251 4.5628,16.4251 C2.8438,16.4251 1.4378,15.0181 1.4378,13.3001 L1.4378,7.9871 C1.4378,6.2681 2.8438,4.8621 4.5628,4.8621 C6.2818,4.8621 7.6878,6.2681 7.6878,7.9871 L7.6878,9.0501" id="Stroke-1"></path>
                                        <path d="M4.5548,7.7137 L4.5548,21.1117" id="Stroke-3"></path>
                                        <path d="M4.5548,13.5731 L5.7868,12.3411" id="Stroke-5"></path>
                                        <path d="M4.5548,10.0966 L6.4138,8.2376" id="Stroke-7"></path>
                                        <path d="M4.5548,12.1122 L2.8738,10.4312" id="Stroke-9"></path>
                                        <path d="M9.215,17.4745 L9.215,17.4745 C7.881,17.4745 6.789,16.3825 6.789,15.0485 L6.789,10.9255 C6.789,9.5915 7.881,8.5005 9.215,8.5005 L9.215,8.5005 C10.548,8.5005 11.64,9.5915 11.64,10.9255 L11.64,15.0485 C11.64,16.3825 10.548,17.4745 9.215,17.4745 Z" id="Stroke-11"></path>
                                        <path d="M9.2086,10.7133 L9.2086,21.1123" id="Stroke-13"></path>
                                        <path d="M9.2086,15.2606 L10.1656,14.3046" id="Stroke-15"></path>
                                        <path d="M9.2086,12.5629 L9.9976,11.7739" id="Stroke-17"></path>
                                        <path d="M9.2086,14.1273 L7.9036,12.8223" id="Stroke-19"></path>
                                        <path d="M8.1173,17.2064 L6.9373,20.6744" id="Stroke-21"></path>
                                        <polyline id="Stroke-23" points="0.5001 21.1122 22.6251 21.1122 14.2541 3.0002 10.8531 9.1672"></polyline>
                                        <polyline id="Stroke-25" points="11.7745 7.4955 7.6875 0.4995 5.4845 4.8625"></polyline>
                                        <path d="M10.8536,5.9198 L6.9376,5.9198" id="Stroke-27"></path>
                                        <path d="M11.6402,12.9569 L18.8562,12.9569" id="Stroke-29"></path>
                                        <path d="M1.6451,14.413 L0.5001,16.622" id="Stroke-31"></path>
                                    </g>
                                </g>
                            </g>
                        </g>
                    </g>
                </g>
            </g>
        </g>
    </g>
</svg>