<svg xmlns="http://www.w3.org/2000/svg" viewBox="0 0 23 23"><defs><style>.cls-1{fill:none;stroke:#fff;stroke-linecap:round;stroke-linejoin:round;}</style></defs><title>iconos</title><g id="Modo_de_aislamiento" data-name="Modo de aislamiento"><path class="cls-1" d="M6.76,16.69a3.11,3.11,0,0,1-2.26,1h0a3.13,3.13,0,0,1-3.12-3.13V9.23A3.13,3.13,0,0,1,4.5,6.1h0A3.13,3.13,0,0,1,7.62,9.23v1.06"/><line class="cls-1" x1="4.49" y1="8.96" x2="4.49" y2="22.35"/><line class="cls-1" x1="4.49" y1="14.82" x2="5.72" y2="13.58"/><line class="cls-1" x1="4.49" y1="11.34" x2="6.35" y2="9.48"/><line class="cls-1" x1="4.49" y1="13.35" x2="2.81" y2="11.67"/><rect class="cls-1" x="6.73" y="9.74" width="4.85" height="8.97" rx="2.43" ry="2.43"/><line class="cls-1" x1="9.15" y1="11.96" x2="9.15" y2="22.35"/><line class="cls-1" x1="9.15" y1="16.5" x2="10.1" y2="15.55"/><line class="cls-1" x1="9.15" y1="13.81" x2="9.94" y2="13.02"/><line class="cls-1" x1="9.15" y1="15.37" x2="7.84" y2="14.06"/><line class="cls-1" x1="8.06" y1="18.45" x2="6.88" y2="21.92"/><polyline class="cls-1" points="0.44 22.36 22.56 22.36 14.19 4.24 10.79 10.41"/><polyline class="cls-1" points="11.71 8.74 7.63 1.74 5.42 6.11"/><line class="cls-1" x1="10.79" y1="7.16" x2="6.88" y2="7.16"/><line class="cls-1" x1="11.58" y1="14.2" x2="18.79" y2="14.2"/><line class="cls-1" x1="1.58" y1="15.66" x2="0.44" y2="17.86"/></g></svg>