<svg xmlns="http://www.w3.org/2000/svg" viewBox="0 0 23 23"><defs><style>.cls-1{fill:none;stroke:#fff;stroke-linecap:round;stroke-linejoin:round;}</style></defs><title>iconos</title><g id="Capa_8" data-name="Capa 8"><polygon class="cls-1" points="12.3 4.61 14.26 8.01 18.18 8.01 16.22 11.41 18.18 14.8 14.26 14.8 12.3 18.2 10.34 14.8 6.42 14.8 8.38 11.41 6.42 8.01 10.34 8.01 12.3 4.61"/><line class="cls-1" x1="12.3" y1="4.61" x2="12.3" y2="0.57"/><line class="cls-1" x1="12.3" y1="2.97" x2="13.78" y2="1.49"/><line class="cls-1" x1="12.3" y1="2.97" x2="10.82" y2="1.49"/><line class="cls-1" x1="10.34" y1="8.01" x2="12.3" y2="11.41"/><line class="cls-1" x1="14.26" y1="8.01" x2="12.3" y2="11.41"/><line class="cls-1" x1="8.38" y1="11.41" x2="16.22" y2="11.41"/><line class="cls-1" x1="10.34" y1="14.81" x2="12.3" y2="11.41"/><line class="cls-1" x1="14.26" y1="14.81" x2="12.3" y2="11.41"/><line class="cls-1" x1="8.49" y1="4.8" x2="10.34" y2="8.01"/><circle class="cls-1" cx="7.86" cy="3.73" r="1.25"/><line class="cls-1" x1="6.42" y1="8.01" x2="2.92" y2="5.99"/><line class="cls-1" x1="4.99" y1="7.19" x2="4.45" y2="5.17"/><line class="cls-1" x1="4.99" y1="7.19" x2="2.97" y2="7.73"/><line class="cls-1" x1="4.67" y1="11.41" x2="8.38" y2="11.41"/><circle class="cls-1" cx="3.43" cy="11.41" r="1.25"/><line class="cls-1" x1="6.42" y1="14.81" x2="2.92" y2="16.83"/><line class="cls-1" x1="4.99" y1="15.63" x2="2.97" y2="15.09"/><line class="cls-1" x1="4.99" y1="15.63" x2="4.45" y2="17.65"/><line class="cls-1" x1="8.49" y1="18.01" x2="10.34" y2="14.81"/><circle class="cls-1" cx="7.86" cy="19.09" r="1.25"/><line class="cls-1" x1="12.3" y1="18.2" x2="12.3" y2="22.24"/><line class="cls-1" x1="12.3" y1="19.85" x2="10.82" y2="21.33"/><line class="cls-1" x1="12.3" y1="19.85" x2="13.78" y2="21.33"/><line class="cls-1" x1="16.11" y1="18.01" x2="14.26" y2="14.81"/><circle class="cls-1" cx="16.73" cy="19.09" r="1.25"/><line class="cls-1" x1="18.18" y1="14.81" x2="21.68" y2="16.83"/><line class="cls-1" x1="19.61" y1="15.63" x2="20.15" y2="17.65"/><line class="cls-1" x1="19.61" y1="15.63" x2="21.63" y2="15.09"/><line class="cls-1" x1="19.93" y1="11.41" x2="16.22" y2="11.41"/><circle class="cls-1" cx="21.17" cy="11.41" r="1.25"/><line class="cls-1" x1="18.18" y1="8.01" x2="21.68" y2="5.99"/><line class="cls-1" x1="19.61" y1="7.19" x2="21.63" y2="7.73"/><line class="cls-1" x1="19.61" y1="7.19" x2="20.15" y2="5.17"/><line class="cls-1" x1="16.11" y1="4.8" x2="14.26" y2="8.01"/><circle class="cls-1" cx="16.73" cy="3.73" r="1.25"/></g></svg>