<svg id="Capa_1" data-name="Capa 1" xmlns="http://www.w3.org/2000/svg" viewBox="0 0 23 23"><defs><style>.cls-1{fill:none;stroke:#fff;stroke-linecap:round;stroke-linejoin:round;}</style></defs><title>iconos</title><circle class="cls-1" cx="4.64" cy="18.2" r="4.04"/><circle class="cls-1" cx="18.36" cy="18.2" r="4.04"/><line class="cls-1" x1="4.64" y1="18.2" x2="7.1" y2="10.66"/><line class="cls-1" x1="7.1" y1="10.66" x2="16.08" y2="10.66"/><line class="cls-1" x1="16.08" y1="10.66" x2="18.36" y2="18.2"/><path class="cls-1" d="M11.76,18.2,7.1,10.66h0A1.12,1.12,0,0,0,6,9.54H4.76a1.29,1.29,0,0,0-1.29,1.29h0a1.3,1.3,0,0,0,1.29,1.3h.32"/><line class="cls-1" x1="18.36" y1="18.2" x2="11.76" y2="18.2"/><line class="cls-1" x1="16.08" y1="10.66" x2="11.76" y2="18.2"/><line class="cls-1" x1="16.08" y1="10.66" x2="16.08" y2="9.19"/><line class="cls-1" x1="14.63" y1="9.19" x2="17.52" y2="9.19"/></svg>