<?xml version="1.0" encoding="UTF-8"?>
<svg width="24px" height="15px" viewBox="0 0 24 15" version="1.1" xmlns="http://www.w3.org/2000/svg" xmlns:xlink="http://www.w3.org/1999/xlink">
    <!-- Generator: Sketch 47.1 (45422) - http://www.bohemiancoding.com/sketch -->
    <title>Page 1</title>
    <desc>Created with Sketch.</desc>
    <defs></defs>
    <g id="1.25.Resultado-búsqueda-(experiencia)" stroke="none" stroke-width="1" fill="none" fill-rule="evenodd" stroke-linecap="round" stroke-linejoin="round">
        <g id="Resultado-búsqueda" transform="translate(-184.000000, -1495.000000)" stroke="#FFFFFF">
            <g id="Group-3" transform="translate(0.000000, 1028.000000)">
                <g id="Group-11-Copy-2">
                    <g id="Group-10-Copy-3">
                        <g id="Group-24-Copy-3">
                            <g id="Group-10" transform="translate(50.000000, 427.000000)">
                                <g id="Group-19" transform="translate(135.000000, 36.000000)">
                                    <g id="Page-1" transform="translate(0.000000, 4.000000)">
                                        <path d="M8.5808,9.5083 C8.5808,11.7393 6.7718,13.5493 4.5398,13.5493 C2.3088,13.5493 0.4998,11.7393 0.4998,9.5083 C0.4998,7.2773 2.3088,5.4683 4.5398,5.4683 C6.7718,5.4683 8.5808,7.2773 8.5808,9.5083 Z" id="Stroke-1"></path>
                                        <path d="M22.2961,9.5083 C22.2961,11.7393 20.4871,13.5493 18.2551,13.5493 C16.0241,13.5493 14.2151,11.7393 14.2151,9.5083 C14.2151,7.2773 16.0241,5.4683 18.2551,5.4683 C20.4871,5.4683 22.2961,7.2773 22.2961,9.5083 Z" id="Stroke-3"></path>
                                        <path d="M4.5403,9.5083 L7.0013,1.9673" id="Stroke-5"></path>
                                        <path d="M7.0017,1.9673 L15.9747,1.9673" id="Stroke-7"></path>
                                        <path d="M15.9744,1.9673 L18.2554,9.5083" id="Stroke-9"></path>
                                        <path d="M11.658,9.5083 L7.002,1.9673 C7.002,1.3443 6.497,0.8403 5.875,0.8403 L4.663,0.8403 C3.947,0.8403 3.366,1.4213 3.366,2.1373 C3.366,2.8533 3.947,3.4343 4.663,3.4343 L4.982,3.4343" id="Stroke-11"></path>
                                        <path d="M18.2556,9.5083 L11.6576,9.5083" id="Stroke-13"></path>
                                        <path d="M15.9744,1.9673 L11.6584,9.5083" id="Stroke-15"></path>
                                        <path d="M15.9744,1.9673 L15.9744,0.5003" id="Stroke-17"></path>
                                        <path d="M14.5286,0.5 L17.4206,0.5" id="Stroke-19"></path>
                                    </g>
                                </g>
                            </g>
                        </g>
                    </g>
                </g>
            </g>
        </g>
    </g>
</svg>