<svg xmlns="http://www.w3.org/2000/svg" viewBox="0 0 23 23"><defs><style>.cls-1{fill:none;stroke:#fff;stroke-linecap:round;stroke-linejoin:round;}</style></defs><title>iconos</title><g id="Capa_8" data-name="Capa 8"><path class="cls-1" d="M.51,10.64a13.93,13.93,0,0,1,22,0"/><path class="cls-1" d="M4.15,13.06a9.32,9.32,0,0,1,14.7,0"/><line class="cls-1" x1="11.5" y1="19.2" x2="22.49" y2="10.64"/><line class="cls-1" x1="11.5" y1="19.2" x2="0.51" y2="10.64"/><path class="cls-1" d="M13.9,21.07a3,3,0,0,1-4.8,0"/><line class="cls-1" x1="11.5" y1="19.21" x2="9.1" y2="21.07"/><line class="cls-1" x1="11.5" y1="19.21" x2="13.9" y2="21.07"/><line class="cls-1" x1="5.31" y1="11.83" x2="2.54" y2="8.53"/><line class="cls-1" x1="17.69" y1="11.82" x2="20.45" y2="8.52"/><line class="cls-1" x1="16.33" y1="10.82" x2="18.46" y2="7.13"/><line class="cls-1" x1="14.82" y1="10.08" x2="16.26" y2="6.11"/><line class="cls-1" x1="13.18" y1="9.62" x2="13.91" y2="5.48"/><line class="cls-1" x1="11.5" y1="9.47" x2="11.49" y2="5.27"/><line class="cls-1" x1="9.81" y1="9.63" x2="9.07" y2="5.48"/><line class="cls-1" x1="8.18" y1="10.08" x2="6.73" y2="6.11"/><line class="cls-1" x1="6.66" y1="10.83" x2="4.53" y2="7.14"/></g></svg>