<?xml version="1.0" encoding="UTF-8"?>
<svg width="58px" height="94px" viewBox="0 0 58 94" version="1.1" xmlns="http://www.w3.org/2000/svg" xmlns:xlink="http://www.w3.org/1999/xlink">
    <!-- Generator: Sketch 47.1 (45422) - http://www.bohemiancoding.com/sketch -->
    <title>Page 1</title>
    <desc>Created with Sketch.</desc>
    <defs>
        <polygon id="path-1" points="0 93.4648 57.8 93.4648 57.8 0.0008 0 0.0008"></polygon>
    </defs>
    <g id="1.11.Diversion" stroke="none" stroke-width="1" fill="none" fill-rule="evenodd">
        <g id="Diversion" transform="translate(-1167.000000, -1935.000000)">
            <g id="Page-1" transform="translate(1167.000000, 1935.000000)">
                <path d="M14.0672,57.6952 L55.7992,57.6952 L36.3432,36.6832 C33.9112,34.0552 30.4952,32.5632 26.9152,32.5632 C19.8192,32.5632 14.0672,38.3152 14.0672,45.4112 L14.0672,57.6952 Z" id="Stroke-1" stroke="#FFFFFF" stroke-width="4" stroke-linecap="round" stroke-linejoin="round"></path>
                <path d="M8.9032,1.9996 L14.0672,1.9996 L14.0672,15.8076 L8.9032,15.8076 C5.0912,15.8076 1.9992,12.7156 1.9992,8.9036 C1.9992,5.0916 5.0912,1.9996 8.9032,1.9996 Z" id="Stroke-3" stroke="#FFFFFF" stroke-width="4" stroke-linecap="round" stroke-linejoin="round"></path>
                <mask id="mask-2" fill="white">
                    <use xlink:href="#path-1"></use>
                </mask>
                <g id="Clip-6"></g>
                <polygon id="Stroke-5" stroke="#FFFFFF" stroke-width="4" stroke-linecap="round" stroke-linejoin="round" mask="url(#mask-2)" points="14.068 10.3008 22.368 10.3008 22.368 2.0008 14.068 2.0008"></polygon>
                <path d="M22.9888,14.2556 L22.3688,14.2556 L22.3688,1.9996 L22.9888,1.9996 C26.3728,1.9996 29.1168,4.7436 29.1168,8.1276 C29.1168,11.5116 26.3728,14.2556 22.9888,14.2556 Z" id="Stroke-7" stroke="#FFFFFF" stroke-width="4" stroke-linecap="round" stroke-linejoin="round" mask="url(#mask-2)"></path>
                <path d="M9.6784,8.1288 C9.6784,8.5808 9.3104,8.9528 8.8544,8.9528 C8.4024,8.9528 8.0344,8.5808 8.0344,8.1288 C8.0344,7.6728 8.4024,7.3048 8.8544,7.3048 C9.3104,7.3048 9.6784,7.6728 9.6784,8.1288 Z" id="Stroke-8" stroke="#FFFFFF" stroke-width="4" stroke-linecap="round" stroke-linejoin="round" mask="url(#mask-2)"></path>
                <path d="M33.356,57.6952 L33.356,91.4632" id="Stroke-9" stroke="#FFFFFF" stroke-width="4" stroke-linecap="round" stroke-linejoin="round" mask="url(#mask-2)"></path>
                <path d="M33.356,91.4648 L25.74,91.4648" id="Stroke-10" stroke="#FFFFFF" stroke-width="4" stroke-linecap="round" stroke-linejoin="round" mask="url(#mask-2)"></path>
                <path d="M29.116,57.6952 L41.604,70.1872" id="Stroke-11" stroke="#FFFFFF" stroke-width="4" stroke-linecap="round" stroke-linejoin="round" mask="url(#mask-2)"></path>
                <path d="M41.604,70.1852 L18.216,70.1852" id="Stroke-12" stroke="#FFFFFF" stroke-width="4" stroke-linecap="round" stroke-linejoin="round" mask="url(#mask-2)"></path>
                <path d="M18.2176,70.1852 L18.2176,75.7452" id="Stroke-13" stroke="#FFFFFF" stroke-width="4" stroke-linecap="round" stroke-linejoin="round" mask="url(#mask-2)"></path>
                <path d="M14.0672,57.6952 L14.0672,57.6952 L14.0672,15.8072 L4.9632,15.8072 L4.9632,48.5952 C4.9632,53.6192 9.0392,57.6952 14.0672,57.6952 Z" id="Stroke-14" stroke="#FFFFFF" stroke-width="4" stroke-linecap="round" stroke-linejoin="round" mask="url(#mask-2)"></path>
            </g>
        </g>
    </g>
</svg>