<svg id="Capa_1" data-name="Capa 1" xmlns="http://www.w3.org/2000/svg" viewBox="0 0 23.83 20.82"><defs><style>.cls-1{fill:none;stroke:#fff;stroke-linecap:round;stroke-linejoin:round;}</style></defs><title>iconos</title><polyline class="cls-1" points="2.75 9.08 2.75 20.32 21.24 20.32 21.24 8.99"/><polyline class="cls-1" points="2.07 6.96 3.19 3.44 5.18 3.44 4.29 6.95"/><line class="cls-1" x1="5.18" y1="3.44" x2="7.16" y2="3.44"/><polyline class="cls-1" points="6.49 6.96 7.16 3.44 9.15 3.44 8.7 6.96"/><polyline class="cls-1" points="8.7 6.96 9.15 3.44 11.14 3.44 10.91 6.95"/><polyline class="cls-1" points="10.91 6.95 11.14 3.44 12.85 3.44 13.07 6.96"/><polyline class="cls-1" points="13.07 6.96 12.85 3.44 14.83 3.44 15.28 6.96"/><polyline class="cls-1" points="15.28 6.96 14.83 3.44 16.82 3.44 17.49 6.96"/><polyline class="cls-1" points="17.49 6.96 16.82 3.44 18.81 3.44 19.7 6.96"/><polyline class="cls-1" points="18.81 3.44 20.79 3.44 21.91 6.96"/><path class="cls-1" d="M21.91,7H2.07V8a1.11,1.11,0,0,0,1.11,1.1h0A1.11,1.11,0,0,0,4.29,8V7"/><path class="cls-1" d="M21.91,7V8a1.11,1.11,0,0,1-1.11,1.1h0A1.1,1.1,0,0,1,19.7,8V8a1.11,1.11,0,0,1-1.11,1.1h0A1.1,1.1,0,0,1,17.49,8V8a1.11,1.11,0,0,1-1.11,1.1h0A1.1,1.1,0,0,1,15.28,8V8a1.11,1.11,0,0,1-1.11,1.1h0A1.1,1.1,0,0,1,13.07,8V8A1.08,1.08,0,0,1,12,9.08h0A1.08,1.08,0,0,1,10.91,8V8a1.1,1.1,0,0,1-1.1,1.1h0A1.11,1.11,0,0,1,8.7,8V8a1.1,1.1,0,0,1-1.1,1.1h0A1.11,1.11,0,0,1,6.49,8V8a1.1,1.1,0,0,1-1.1,1.1h0A1.1,1.1,0,0,1,4.29,8V7"/><rect class="cls-1" x="3.19" y="0.5" width="17.6" height="2.94"/><rect class="cls-1" x="9.53" y="11.51" width="4.92" height="8.82"/><line class="cls-1" x1="11.2" y1="14.61" x2="12.62" y2="13.19"/><line class="cls-1" x1="11.28" y1="16.95" x2="12.67" y2="15.57"/><rect class="cls-1" x="2.75" y="11.51" width="4.42" height="5.21"/><rect class="cls-1" x="16.82" y="11.51" width="4.42" height="5.21"/><line class="cls-1" y1="20.32" x2="23.83" y2="20.32"/></svg>