<svg xmlns="http://www.w3.org/2000/svg" viewBox="0 0 23 23"><defs><style>.cls-1{fill:none;stroke:#fff;stroke-linecap:round;stroke-linejoin:round;}</style></defs><title>iconos</title><g id="Capa_8" data-name="Capa 8"><path class="cls-1" d="M9.92,2.14c-2.93.8-6.49,3-9,8.62V21.82s.66-10.63,9-16V1.18h0a3.6,3.6,0,0,1,3.6,3.6v1l7.25,5.4a3.23,3.23,0,0,1,.71,4.44h0a3.23,3.23,0,0,1-4.44.81l-1.51-1a1.92,1.92,0,0,0-1.09-.33H12.5l-3-2.3"/><path class="cls-1" d="M14.3,6.38l.86-4.44a10.25,10.25,0,0,0-3.25-.17"/><line class="cls-1" x1="12.5" y1="15.09" x2="12.5" y2="21.82"/><line class="cls-1" x1="15.21" y1="15.25" x2="19.1" y2="9.95"/><path class="cls-1" d="M11.36,9.72a1.14,1.14,0,1,1,2.28,0"/><circle class="cls-1" cx="19.96" cy="13.1" r="0.2"/></g></svg>