<svg xmlns="http://www.w3.org/2000/svg" viewBox="0 0 23 23"><defs><style>.cls-1{fill:none;stroke:#fff;stroke-linecap:round;stroke-linejoin:round;}.cls-2{fill:#fff;}</style></defs><title>iconos</title><g id="lineas"><line class="cls-1" x1="13.56" y1="3.8" x2="20.08" y2="3.8"/><path class="cls-1" d="M22.71,20.66V3.27a1.58,1.58,0,0,0-1.58-1.58,1.3,1.3,0,0,0-1.05.53V19.61a1.33,1.33,0,0,1,1.05-.53,1.58,1.58,0,0,1,0,3.16H.29V3.8H13.56"/><path class="cls-1" d="M5.8,13.72a1.72,1.72,0,1,0-3.44,0A3.08,3.08,0,0,0,2.77,15l.44,1,.64,1.41h0a.24.24,0,0,0,.46,0L4.92,16l.53-1.18A2.71,2.71,0,0,0,5.8,13.72Z"/><circle class="cls-1" cx="4.08" cy="13.75" r="0.29"/><line class="cls-1" x1="3.41" y1="18.81" x2="4.76" y2="20.16"/><line class="cls-1" x1="4.76" y1="18.81" x2="3.41" y2="20.16"/><path class="cls-2" d="M15.08,20h-1a.51.51,0,0,1-.5-.5.5.5,0,0,1,.5-.5h1a.49.49,0,0,0,.42-.24.5.5,0,0,1,.68-.17.5.5,0,0,1,.17.69A1.46,1.46,0,0,1,15.08,20Zm-3,0h-2a.51.51,0,0,1-.5-.5.5.5,0,0,1,.5-.5h2a.5.5,0,0,1,.5.5A.5.5,0,0,1,12.09,20Zm-4,0H6.52a.51.51,0,0,1-.5-.5.5.5,0,0,1,.5-.5H8.09a.5.5,0,0,1,.5.5A.5.5,0,0,1,8.09,20Zm7.08-2h0l0-.5V18h-2a.5.5,0,0,1-.5-.5.5.5,0,0,1,.5-.5h2a.5.5,0,0,1,0,1Zm-4-.14a.47.47,0,0,1-.25-.07,1.5,1.5,0,0,1-.73-1.28v-1a.5.5,0,0,1,1,0v1a.49.49,0,0,0,.24.42.5.5,0,0,1-.26.93Zm-.48-3.83a.5.5,0,0,1-.5-.5V12.49a1.47,1.47,0,0,1,.63-1.21.49.49,0,0,1,.69.12.5.5,0,0,1-.12.7.49.49,0,0,0-.2.39v1.06A.5.5,0,0,1,10.71,14.05Zm4.38-2h-2a.5.5,0,0,1-.5-.5.5.5,0,0,1,.5-.5h2a.5.5,0,0,1,.5.5A.51.51,0,0,1,15.09,12Zm1.8-.52a.46.46,0,0,1-.23-.06.5.5,0,0,1-.21-.68.46.46,0,0,0,.06-.23V9a.5.5,0,0,1,.5-.5.51.51,0,0,1,.5.5v1.52a1.43,1.43,0,0,1-.18.7A.5.5,0,0,1,16.89,11.49Zm.45-3.89A.52.52,0,0,1,17,7.43a.49.49,0,0,1,.05-.7,1.48,1.48,0,0,1,1-.38h1.7a.5.5,0,0,1,.5.5.5.5,0,0,1-.5.5H18a.53.53,0,0,0-.32.12A.46.46,0,0,1,17.34,7.6Z"/></g></svg>