<svg xmlns="http://www.w3.org/2000/svg" viewBox="0 0 23 23"><defs><style>.cls-1{fill:none;stroke:#fff;stroke-linecap:round;stroke-linejoin:round;}</style></defs><title>iconos</title><g id="Capa_8" data-name="Capa 8"><polyline class="cls-1" points="13.94 16.5 13.94 22.24 9.06 22.24 9.06 16.93"/><path class="cls-1" d="M14.42,17h0a.48.48,0,0,1-.48-.48V13.83a.8.8,0,0,0-.8-.8h0a.79.79,0,0,0-.8.79l0,2.66a.5.5,0,0,1-.5.5h0a.5.5,0,0,1-.51-.5v-.41a.92.92,0,0,0-.91-.92h0a.92.92,0,0,0-.92.92v.22a.69.69,0,0,1-.69.69h0a.69.69,0,0,1-.69-.69V10.21A.92.92,0,0,1,9,9.29h5a.92.92,0,0,1,.92.92V16.5A.48.48,0,0,1,14.42,17Z"/><line class="cls-1" x1="10.54" y1="19.28" x2="12.46" y2="19.28"/><line class="cls-1" x1="11.5" y1="18.3" x2="11.5" y2="20.92"/><line class="cls-1" x1="11.5" y1="7.92" x2="11.5" y2="9.29"/><path class="cls-1" d="M12.3,3.09c0,.07-.31.17-.38.21A5.81,5.81,0,0,0,11,4a3.13,3.13,0,0,0-.93,2.27,1.69,1.69,0,0,0,1.73,1.65,1.17,1.17,0,0,0,1-.91c.19-.92-.71-1.25-1-2S12,3.65,12.3,3.09Z"/><line class="cls-1" x1="3.8" y1="22.24" x2="19.2" y2="22.24"/><line class="cls-1" x1="11.5" y1="1.73" x2="11.5" y2="0.69"/><line class="cls-1" x1="8.31" y1="3.1" x2="7.58" y2="2.37"/><line class="cls-1" x1="7.02" y1="6.32" x2="5.99" y2="6.32"/><line class="cls-1" x1="14.69" y1="3.1" x2="15.42" y2="2.37"/><line class="cls-1" x1="15.98" y1="6.32" x2="17.01" y2="6.32"/></g></svg>