<svg xmlns="http://www.w3.org/2000/svg" viewBox="0 0 23 23"><defs><style>.cls-1{fill:none;stroke:#fff;stroke-linecap:round;stroke-linejoin:round;}</style></defs><title>iconos</title><g id="Layer_1" data-name="Layer 1"><path class="cls-1" d="M15.48,9.32A6.17,6.17,0,0,0,15,8.16a.72.72,0,0,1,.13-.82l.67-.67a.7.7,0,0,0,0-1l-1-1a.7.7,0,0,0-1,0l-.67.67a.69.69,0,0,1-.81.13A6.55,6.55,0,0,0,11.15,5a.7.7,0,0,1-.49-.67v-1a.7.7,0,0,0-.7-.71H8.54a.71.71,0,0,0-.71.71v1A.69.69,0,0,1,7.35,5a6.55,6.55,0,0,0-1.17.48.68.68,0,0,1-.81-.13l-.68-.67a.7.7,0,0,0-1,0l-1,1a.72.72,0,0,0,0,1l.67.67a.7.7,0,0,1,.14.82A6.17,6.17,0,0,0,3,9.32a.71.71,0,0,1-.68.49H1.39a.7.7,0,0,0-.7.71v1.41a.7.7,0,0,0,.7.71h1a.68.68,0,0,1,.67.48,7.06,7.06,0,0,0,.49,1.17.7.7,0,0,1-.14.82l-.67.67a.72.72,0,0,0,0,1l1,1a.72.72,0,0,0,1,0l.68-.67A.69.69,0,0,1,6.18,17a6.59,6.59,0,0,0,1.17.49.68.68,0,0,1,.48.67v.95a.71.71,0,0,0,.71.71H10a.7.7,0,0,0,.7-.71"/><path class="cls-1" d="M8.85,15.72a3.4,3.4,0,0,1-.46-.06,4.58,4.58,0,0,1-2.34-1.24A4.52,4.52,0,0,1,12.44,8a4.47,4.47,0,0,1,1.24,2.33"/><circle class="cls-1" cx="16.45" cy="16.38" r="1.55"/><path class="cls-1" d="M22.31,16.86v-1a.48.48,0,0,0-.48-.48h-.65a.47.47,0,0,1-.46-.33,4.34,4.34,0,0,0-.33-.8.47.47,0,0,1,.09-.56l.46-.46a.48.48,0,0,0,0-.68l-.69-.69a.48.48,0,0,0-.68,0l-.46.46a.47.47,0,0,1-.56.09,4.34,4.34,0,0,0-.8-.33.47.47,0,0,1-.33-.46V11a.48.48,0,0,0-.49-.48H16a.48.48,0,0,0-.49.48v.65a.47.47,0,0,1-.33.46,4.65,4.65,0,0,0-.8.33.47.47,0,0,1-.56-.09l-.46-.46a.48.48,0,0,0-.68,0l-.69.69a.48.48,0,0,0,0,.68l.46.46a.47.47,0,0,1,.09.56,4.34,4.34,0,0,0-.33.8.47.47,0,0,1-.46.33h-.65a.48.48,0,0,0-.48.48v1a.48.48,0,0,0,.48.49h.65a.47.47,0,0,1,.46.33,4.65,4.65,0,0,0,.33.8.47.47,0,0,1-.09.56L12,19.5a.48.48,0,0,0,0,.68l.69.69a.48.48,0,0,0,.68,0l.46-.46a.47.47,0,0,1,.56-.09,4.34,4.34,0,0,0,.8.33.47.47,0,0,1,.33.46v.65a.48.48,0,0,0,.49.48h1a.48.48,0,0,0,.49-.48v-.65a.47.47,0,0,1,.33-.46,4.34,4.34,0,0,0,.8-.33.47.47,0,0,1,.56.09l.46.46a.48.48,0,0,0,.68,0l.69-.69a.48.48,0,0,0,0-.68L20.48,19a.47.47,0,0,1-.09-.56,4.65,4.65,0,0,0,.33-.8.47.47,0,0,1,.46-.33h.65A.48.48,0,0,0,22.31,16.86Z"/></g></svg>