<?xml version="1.0" encoding="UTF-8"?>
<svg width="91px" height="80px" viewBox="0 0 91 80" version="1.1" xmlns="http://www.w3.org/2000/svg" xmlns:xlink="http://www.w3.org/1999/xlink">
    <!-- Generator: Sketch 47.1 (45422) - http://www.bohemiancoding.com/sketch -->
    <title>Page 1</title>
    <desc>Created with Sketch.</desc>
    <defs></defs>
    <g id="1.15.Cultura" stroke="none" stroke-width="1" fill="none" fill-rule="evenodd" stroke-linecap="round" stroke-linejoin="round">
        <g id="Cultura" transform="translate(-854.000000, -1838.000000)" stroke="#FFFFFF" stroke-width="4">
            <g id="Page-1" transform="translate(855.000000, 1840.000000)">
                <path d="M60.384,65.49 C94.204,52.95 87.364,5.074 87.364,5.074 C76.596,-0.374 60.384,0.006 60.384,0.006 C60.384,0.006 44.172,-0.374 33.404,5.074 C33.404,5.074 26.564,52.95 60.384,65.49 Z" id="Stroke-1"></path>
                <path d="M28.3392,13.816 C25.4152,14.92 23.5672,15.8 23.5672,15.8 C23.5672,15.8 8.6072,22.068 0.9992,31.428 C0.9992,31.428 14.2832,77.936 50.2752,75.592 C52.1472,73.756 53.7472,71.84 55.1032,69.864" id="Stroke-3"></path>
                <path d="M40.3352,29.652 C40.3352,25.172 43.9672,21.54 48.4512,21.54 C52.9312,21.54 56.5632,25.172 56.5632,29.652" id="Stroke-5"></path>
                <path d="M64.2044,29.652 C64.2044,25.172 67.8364,21.54 72.3164,21.54 C76.7964,21.54 80.4324,25.172 80.4324,29.652" id="Stroke-7"></path>
                <path d="M28.2492,37.5408 C30.3252,41.5128 28.7852,46.4168 24.8132,48.4888 C20.8412,50.5648 15.9412,49.0288 13.8652,45.0528" id="Stroke-9"></path>
                <path d="M46.6416,41.5504 L74.1256,41.5504 L69.2736,47.6304 C64.7216,53.3384 56.0456,53.3384 51.4896,47.6304 L46.6416,41.5504 Z" id="Stroke-11"></path>
            </g>
        </g>
    </g>
</svg>