<svg xmlns="http://www.w3.org/2000/svg" viewBox="0 0 23 23"><defs><style>.cls-1{fill:none;stroke:#fff;stroke-linecap:round;stroke-linejoin:round;}</style></defs><title>iconos</title><g id="Layer_4" data-name="Layer 4"><path class="cls-1" d="M15.48,19.7c8.45-3.14,6.74-15.11,6.74-15.11a16.93,16.93,0,0,0-6.74-1.26A16.93,16.93,0,0,0,8.74,4.59S7,16.56,15.48,19.7Z"/><path class="cls-1" d="M7.47,6.78c-.73.28-1.19.49-1.19.49A17.1,17.1,0,0,0,.63,11.18S4,22.81,13,22.22a9.88,9.88,0,0,0,1.21-1.43"/><path class="cls-1" d="M10.47,10.74a2,2,0,1,1,4,0"/><path class="cls-1" d="M16.43,10.74a2,2,0,1,1,4.06,0"/><path class="cls-1" d="M7.45,12.71a2,2,0,0,1-3.6,1.88"/><path class="cls-1" d="M12,13.71h6.88L17.7,15.23a2.83,2.83,0,0,1-4.44,0Z"/></g></svg>