<svg xmlns="http://www.w3.org/2000/svg" viewBox="0 0 23 23"><defs><style>.cls-1{fill:none;stroke:#fff;stroke-linecap:round;stroke-linejoin:round;}</style></defs><title>iconos</title><g id="Capa_8" data-name="Capa 8"><path class="cls-1" d="M7.2,21.43c1.55.84,3.4,1.51,4.86.15a4,4,0,0,0,1.08-3.94c-.24-.81-.92-1.73-.21-2.51.48-.52,1.34-.49,2-.75a2.72,2.72,0,0,0,1.36-1.21c1-1.89-.57-3.53-2.16-4.36s-3.8-1.34-4.83.54A2.75,2.75,0,0,0,9,11.15c.12.66.61,1.36.43,2-.27,1-1.41,1-2.23,1.18a4,4,0,0,0-2.73,3C4.09,19.38,5.65,20.58,7.2,21.43Z"/><circle class="cls-1" cx="9" cy="18.12" r="1.83"/><path class="cls-1" d="M14.69,9.14l2-3.63a.86.86,0,0,1,.57-.43L18,4.73a.91.91,0,0,0,.58-.43l.76-1.4A.87.87,0,0,0,19,1.71l-.77-.42-1-.56c-.43-.23-.79,0-1,.44l-.77,1.4a.87.87,0,0,0-.05.72l.17.84a.86.86,0,0,1,0,.72l-2,3.65"/><line class="cls-1" x1="16.19" y1="1.12" x2="15.16" y2="0.56"/><line class="cls-1" x1="15.64" y1="2.14" x2="14.61" y2="1.57"/><line class="cls-1" x1="20.38" y1="3.4" x2="19.35" y2="2.84"/><line class="cls-1" x1="19.82" y1="4.42" x2="18.79" y2="3.86"/><path class="cls-1" d="M17.45,14.14a3.31,3.31,0,0,0-.06-4.54"/><path class="cls-1" d="M3.49,15.29s-2.24,2.52.46,6"/></g></svg>