<?xml version="1.0" encoding="UTF-8"?>
<svg width="94px" height="91px" viewBox="0 0 94 91" version="1.1" xmlns="http://www.w3.org/2000/svg" xmlns:xlink="http://www.w3.org/1999/xlink">
    <!-- Generator: Sketch 47.1 (45422) - http://www.bohemiancoding.com/sketch -->
    <title>Page 1</title>
    <desc>Created with Sketch.</desc>
    <defs></defs>
    <g id="1.7.Naturaleza" stroke="none" stroke-width="1" fill="none" fill-rule="evenodd">
        <g id="Naturaleza" transform="translate(-197.000000, -1942.000000)">
            <g id="Page-1" transform="translate(199.000000, 1944.000000)">
                <path d="M18.6776,62.6444 L18.6776,35.1924 C18.6776,20.8444 30.3096,9.2164 44.6536,9.2164 C59.0016,9.2164 70.6336,20.8444 70.6336,35.1924 L70.6336,62.6444" id="Stroke-1" stroke="#FFFFFF" stroke-width="4" stroke-linecap="round" stroke-linejoin="round"></path>
                <path d="M9.5468,62.6444 L9.5468,35.1084 C9.5468,15.7204 25.2668,0.0004 44.6548,0.0004 C64.0468,0.0004 79.7628,15.7204 79.7628,35.1084 L79.7628,62.6444" id="Stroke-3" stroke="#FFFFFF" stroke-width="4" stroke-linecap="round" stroke-linejoin="round"></path>
                <path d="M58.7948,50.3572 L78.9188,86.5292" id="Stroke-5" stroke="#FFFFFF" stroke-width="4" stroke-linecap="round" stroke-linejoin="round"></path>
                <path d="M10.3904,86.5292 L30.5144,50.3572" id="Stroke-7" stroke="#FFFFFF" stroke-width="4" stroke-linecap="round" stroke-linejoin="round"></path>
                <path d="M44.654,59.5644 C43.55,59.5644 42.654,58.6684 42.654,57.5644 L42.654,49.5644 C42.654,48.4604 43.55,47.5644 44.654,47.5644 C45.758,47.5644 46.654,48.4604 46.654,49.5644 L46.654,57.5644 C46.654,58.6684 45.758,59.5644 44.654,59.5644 M44.654,75.5644 C43.55,75.5644 42.654,74.6684 42.654,73.5644 L42.654,65.5644 C42.654,64.4604 43.55,63.5644 44.654,63.5644 C45.758,63.5644 46.654,64.4604 46.654,65.5644 L46.654,73.5644 C46.654,74.6684 45.758,75.5644 44.654,75.5644 M44.654,88.5284 C43.55,88.5284 42.654,87.6364 42.654,86.5284 L42.654,81.5644 C42.654,80.4604 43.55,79.5644 44.654,79.5644 C45.758,79.5644 46.654,80.4604 46.654,81.5644 L46.654,86.5284 C46.654,87.6364 45.758,88.5284 44.654,88.5284" id="Fill-9" fill="#FFFFFF"></path>
                <path d="M18.6776,62.6444 L0.0016,62.6444" id="Stroke-11" stroke="#FFFFFF" stroke-width="4" stroke-linecap="round" stroke-linejoin="round"></path>
                <path d="M89.6656,62.6444 L70.6336,62.6444" id="Stroke-13" stroke="#FFFFFF" stroke-width="4" stroke-linecap="round" stroke-linejoin="round"></path>
            </g>
        </g>
    </g>
</svg>