<?xml version="1.0" encoding="UTF-8"?>
<svg width="68px" height="92px" viewBox="0 0 68 92" version="1.1" xmlns="http://www.w3.org/2000/svg" xmlns:xlink="http://www.w3.org/1999/xlink">
    <!-- Generator: Sketch 47.1 (45422) - http://www.bohemiancoding.com/sketch -->
    <title>Page 1</title>
    <desc>Created with Sketch.</desc>
    <defs></defs>
    <g id="1.20.Gastronomia" stroke="none" stroke-width="1" fill="none" fill-rule="evenodd" stroke-linecap="round" stroke-linejoin="round">
        <g id="Gastronomia" transform="translate(-686.000000, -1928.000000)" stroke="#FFFFFF" stroke-width="3.912">
            <g id="Page-1" transform="translate(687.000000, 1929.000000)">
                <path d="M23.258,24.4696 L23.258,24.4696 C21.586,23.3056 20.59,21.3976 20.59,19.3576 L20.59,2.8816 C20.59,1.8176 19.726,0.9576 18.662,0.9576 L13.854,0.9576 C12.794,0.9576 11.93,1.8176 11.93,2.8816 L11.93,19.3576 C11.93,21.3936 10.93,23.3056 9.258,24.4696 C4.058,28.0896 0.954,34.0256 0.954,40.3616 L0.954,88.7736 L31.562,88.7736 L31.562,40.3616 C31.562,34.0256 28.462,28.0896 23.258,24.4696 Z" id="Stroke-1"></path>
                <polyline id="Stroke-3" points="31.5628 43.856 31.5628 72.252 0.9548 72.252 0.9548 43.856 21.8588 43.856"></polyline>
                <path d="M11.93,17.4868 L20.59,17.4868" id="Stroke-5"></path>
                <path d="M11.93,6.1528 L20.59,6.1528" id="Stroke-7"></path>
                <path d="M53.5532,66.6548 L53.5532,66.6548 C47.3572,66.6548 42.3292,61.6308 42.3292,55.4308 L42.3292,35.5388 L64.7732,35.5388 L64.7732,55.4308 C64.7732,61.6308 59.7492,66.6548 53.5532,66.6548 Z" id="Stroke-9"></path>
                <g id="Group-13" transform="translate(43.000000, 88.728800)">
                    <path d="M0.7328,0.0432 L20.3728,0.0432" id="Stroke-11"></path>
                </g>
                <path d="M53.5532,66.6548 L53.5532,88.7708" id="Stroke-14"></path>
                <path d="M48.6548,44.5944 L64.7748,44.5944" id="Stroke-16"></path>
            </g>
        </g>
    </g>
</svg>