<svg id="Capa_1" data-name="Capa 1" xmlns="http://www.w3.org/2000/svg" viewBox="0 0 27.52 21.08"><defs><style>.cls-1{fill:none;stroke:#fff;stroke-linecap:round;stroke-linejoin:round;}</style></defs><title>iconos</title><path class="cls-1" d="M3.86,17.42c2.31,0,2.31-1.27,4.63-1.27s2.31,1.27,4.63,1.27,2.31-1.27,4.63-1.27,2.32,1.27,4.63,1.27"/><path class="cls-1" d="M3.86,20.58c2.31,0,2.31-1.27,4.63-1.27s2.31,1.27,4.63,1.27,2.31-1.27,4.63-1.27,2.32,1.27,4.63,1.27"/><path class="cls-1" d="M15.84,16.3s-2.15-4.2.63-7.35"/><path class="cls-1" d="M16.05,7.31a5.34,5.34,0,0,0-5.15-1S12.2,3.21,16.53,5c0,0-.54-3-5-3.86a5.15,5.15,0,0,1,7.08,2.31s.73-4,6.89-2.63c0,0-4.33,1.11-4.36,4,0,0,4.27-1.33,5.88,2.84,0,0-3.82-2-6.41-.47,0,0,3.79.34,3.16,5.09,0,0-1.68-3.54-5.44-3.58"/><path class="cls-1" d="M12.08,3A4,4,0,0,0,7.36,5.27S6.77,2,1.74,3.12c0,0,3.53.91,3.56,3.25A3.87,3.87,0,0,0,.5,8.7s3.12-1.6,5.24-.39c0,0-3.1.28-2.58,4.15A10.09,10.09,0,0,1,4.6,10.67C6.06,9.45,8.33,9,9.49,11s.44,4.12.13,5.3"/><path class="cls-1" d="M9.45,8.44a3.27,3.27,0,0,1,.72-.52"/></svg>