<?xml version="1.0" encoding="UTF-8"?>
<svg width="20px" height="19px" viewBox="0 0 20 19" version="1.1" xmlns="http://www.w3.org/2000/svg" xmlns:xlink="http://www.w3.org/1999/xlink">
    <!-- Generator: Sketch 48.2 (47327) - http://www.bohemiancoding.com/sketch -->
    <title>Page 1</title>
    <desc>Created with Sketch.</desc>
    <defs></defs>
    <g id="Media" stroke="none" stroke-width="1" fill="none" fill-rule="evenodd" transform="translate(-19.000000, -299.000000)" stroke-linecap="round" stroke-linejoin="round">
        <g id="Page-1" transform="translate(19.000000, 300.000000)" stroke="#005DA7">
            <path d="M13.8439,0.4997 C17.0049,1.9627 19.2029,5.1527 19.2029,8.8647 C19.2029,12.6157 17.5628,15.125 13.8439,17.125" id="Stroke-1"></path>
            <path d="M12.554,3.2948 C14.661,4.2708 16.132,6.3898 16.132,8.8648 C16.132,11.3788 14.619,13.5338 12.457,14.4878" id="Stroke-3"></path>
            <path d="M12.4573,14.4882 C14.6193,13.5342 16.1313,11.3792 16.1313,8.8652 C16.1313,6.3902 14.6613,4.2702 12.5543,3.2952" id="Stroke-5"></path>
            <path d="M11.2093,6.2089 C12.2133,6.6739 12.9153,7.6849 12.9153,8.8649 C12.9153,10.0839 12.1703,11.1289 11.1113,11.5719" id="Stroke-7"></path>
            <path d="M11.1111,11.5717 C12.1701,11.1287 12.9151,10.0847 12.9151,8.8647 C12.9151,7.6847 12.2141,6.6747 11.2091,6.2087" id="Stroke-9"></path>
            <polygon id="Stroke-11" points="3.3279 10.974 9.2279 15.016 9.2279 2.714 3.3279 6.756"></polygon>
            <polygon id="Stroke-13" points="0.5 10.9839 3.328 10.9839 3.328 6.7559 0.5 6.7559"></polygon>
        </g>
    </g>
</svg>