<?xml version="1.0" encoding="UTF-8"?>
<svg width="42px" height="38px" viewBox="0 0 42 38" version="1.1" xmlns="http://www.w3.org/2000/svg" xmlns:xlink="http://www.w3.org/1999/xlink">
    <!-- Generator: Sketch 49 (51002) - http://www.bohemiancoding.com/sketch -->
    <title>Group 18 Copy</title>
    <desc>Created with Sketch.</desc>
    <defs></defs>
    <g id="Categorías" stroke="none" stroke-width="1" fill="none" fill-rule="evenodd" stroke-linecap="round" stroke-linejoin="round">
        <g id="Group-18-Copy" transform="translate(1.000000, 0.000000)" stroke="#FFFFFF" stroke-width="2">
            <g id="Page-1">
                <path d="M23.1365,4.6764 L34.5085,4.6764" id="Stroke-1"></path>
                <g id="Group-16" transform="translate(0.000000, 0.846200)">
                    <path d="M39.1038,33.2428 L39.1038,2.9108 C39.1038,1.3888 37.8698,0.1538 36.3468,0.1538 C35.5318,0.1538 35.0128,0.5108 34.5078,1.0728 L34.5078,31.4048 C35.0128,30.8428 35.5318,30.4858 36.3468,30.4858 C37.8698,30.4858 39.1038,31.7198 39.1038,33.2428 C39.1038,34.7658 37.8698,35.9998 36.3468,35.9998 L16.5438,35.9998 L-0.0002,35.9998 L-0.0002,3.8298 L23.1368,3.8298" id="Stroke-2"></path>
                    <path d="M9.615,21.1314 C9.615,19.4764 8.273,18.1344 6.618,18.1344 C4.963,18.1344 3.621,19.4764 3.621,21.1314 C3.621,21.9294 4.012,22.6174 4.332,23.3224 L5.087,24.9854 C5.459,25.8044 5.831,26.6244 6.203,27.4444 C6.207,27.4524 6.212,27.4604 6.215,27.4684 C6.348,27.8504 6.888,27.8504 7.022,27.4684 C7.372,26.6974 7.721,25.9264 8.072,25.1554 C8.383,24.4694 8.694,23.7834 9.006,23.0984 C9.297,22.4574 9.615,21.8544 9.615,21.1314 Z" id="Stroke-4"></path>
                    <path d="M7.1233,21.1842 C7.1233,21.4632 6.8973,21.6902 6.6183,21.6902 C6.3383,21.6902 6.1123,21.4632 6.1123,21.1842 C6.1123,20.9052 6.3383,20.6792 6.6183,20.6792 C6.8973,20.6792 7.1233,20.9052 7.1233,21.1842 Z" id="Stroke-6"></path>
                    <path d="M5.4441,30.0167 L7.7921,32.3647" id="Stroke-8"></path>
                    <path d="M7.7917,30.0167 L5.4437,32.3647" id="Stroke-10"></path>
                    <path d="M11.4138,31.1905 L17.4138,31.1905" id="Stroke-12"></path>
                    <polyline id="Stroke-14" points="21.2473 31.1905 27.2473 31.1905 27.2473 27.7545 18.1493 27.7545 18.1493 17.2395 29.0553 17.2395 29.0553 8.9405 34.5083 8.9405"></polyline>
                </g>
            </g>
        </g>
    </g>
</svg>