<?xml version="1.0" encoding="UTF-8"?>
<svg width="18px" height="20px" viewBox="0 0 18 20" version="1.1" xmlns="http://www.w3.org/2000/svg" xmlns:xlink="http://www.w3.org/1999/xlink">
    <!-- Generator: Sketch 48.2 (47327) - http://www.bohemiancoding.com/sketch -->
    <title>Page 1</title>
    <desc>Created with Sketch.</desc>
    <defs>
        <path d="M3.359,0.16 C1.988,0.16 0.877,1.27 0.877,2.641 L7.496,2.641 C7.496,1.27 6.385,0.16 5.013,0.16 L3.359,0.16 Z" id="path-1"></path>
        <path d="M0.531,1.677 C0.531,2.591 1.273,3.331 2.186,3.331 C3.1,3.331 3.84,2.591 3.84,1.677 C3.84,0.764 3.1,0.022 2.186,0.022 C1.273,0.022 0.531,0.764 0.531,1.677 Z" id="path-3"></path>
    </defs>
    <g id="Media-detalle" stroke="none" stroke-width="1" fill="none" fill-rule="evenodd" transform="translate(-20.000000, -241.000000)">
        <g id="Page-1" transform="translate(20.000000, 241.000000)">
            <polygon id="Stroke-1" stroke="#005DA7" stroke-linecap="round" stroke-linejoin="round" points="0.914 18.9971 17.459 18.9971 17.459 0.9131 0.914 0.9131"></polygon>
            <polygon id="Stroke-3" stroke="#005DA7" stroke-linecap="round" stroke-linejoin="round" points="3.395 13.3231 14.977 13.3231 14.977 3.3961 3.395 3.3961"></polygon>
            <g id="Group-7" transform="translate(5.000000, 9.027100)">
                <mask id="mask-2" fill="white">
                    <use xlink:href="#path-1"></use>
                </mask>
                <g id="Clip-5"></g>
                <polygon id="Stroke-4" stroke="#005DA7" stroke-linecap="round" stroke-linejoin="round" mask="url(#mask-2)" points="-3.259 6.777 11.632 6.777 11.632 -3.978 -3.259 -3.978"></polygon>
                <polygon id="Stroke-6" stroke="#005DA7" stroke-linecap="round" stroke-linejoin="round" mask="url(#mask-2)" points="-4.5 10.5 12.873 10.5 12.873 -8.527 -4.5 -8.527"></polygon>
            </g>
            <path d="M5.8772,11.6679 C5.8772,10.2969 6.9882,9.1869 8.3592,9.1869 L10.0132,9.1869 C11.3842,9.1869 12.4952,10.2969 12.4952,11.6679 L5.8772,11.6679 Z" id="Stroke-8" stroke="#005DA7" stroke-linecap="round" stroke-linejoin="round"></path>
            <g id="Group-13" transform="translate(7.000000, 5.027100)">
                <mask id="mask-4" fill="white">
                    <use xlink:href="#path-3"></use>
                </mask>
                <g id="Clip-11"></g>
                <polygon id="Stroke-10" stroke="#005DA7" stroke-linecap="round" stroke-linejoin="round" mask="url(#mask-4)" points="-3.605 7.468 7.977 7.468 7.977 -4.114 -3.605 -4.114"></polygon>
                <polygon id="Stroke-12" stroke="#005DA7" stroke-linecap="round" stroke-linejoin="round" mask="url(#mask-4)" points="-6.5 14.5 10.873 14.5 10.873 -4.527 -6.5 -4.527"></polygon>
            </g>
            <path d="M9.1863,8.3588 C10.1003,8.3588 10.8403,7.6178 10.8403,6.7048 C10.8403,5.7908 10.1003,5.0498 9.1863,5.0498 C8.2723,5.0498 7.5313,5.7908 7.5313,6.7048 C7.5313,7.6178 8.2723,8.3588 9.1863,8.3588 Z" id="Stroke-14" stroke="#005DA7" stroke-linecap="round" stroke-linejoin="round"></path>
        </g>
    </g>
</svg>