<?xml version="1.0" encoding="UTF-8"?>
<svg width="40px" height="37px" viewBox="0 0 40 37" version="1.1" xmlns="http://www.w3.org/2000/svg" xmlns:xlink="http://www.w3.org/1999/xlink">
    <!-- Generator: Sketch 49 (51002) - http://www.bohemiancoding.com/sketch -->
    <title>Page 1</title>
    <desc>Created with Sketch.</desc>
    <defs>
        <polygon id="path-1" points="0 36.7487 39.537 36.7487 39.537 -0.0003 0 -0.0003"></polygon>
    </defs>
    <g id="Categorías" stroke="none" stroke-width="1" fill="none" fill-rule="evenodd">
        <g transform="translate(-30.000000, -96.000000)" id="Page-1">
            <g transform="translate(30.000000, 96.000000)">
                <path d="M12.0052,31.3948 L4.6042,31.3948 C2.6132,31.3948 1.0002,29.7808 1.0002,27.7908 L1.0002,20.8138 L38.5362,20.8138 L38.5362,27.7908 C38.5362,29.7808 36.9222,31.3948 34.9322,31.3948 L27.5312,31.3948" id="Stroke-1" stroke="#FFFFFF" stroke-width="2" stroke-linecap="round" stroke-linejoin="round"></path>
                <polyline id="Stroke-3" stroke="#FFFFFF" stroke-width="2" stroke-linecap="round" stroke-linejoin="round" points="4.6732 15.8762 1.0002 20.8132 38.5362 20.8132 34.8632 15.8762"></polyline>
                <path d="M24.3665,15.8762 L34.8395,15.8762 L34.8395,4.7872 C34.8395,2.6952 33.1435,1.0002 31.0525,1.0002 L8.4605,1.0002 C6.3685,1.0002 4.6735,2.6952 4.6735,4.7872 L4.6735,15.8762 L15.1345,15.8762" id="Stroke-5" stroke="#FFFFFF" stroke-width="2" stroke-linecap="round" stroke-linejoin="round"></path>
                <path d="M0.9998,24.7117 L38.5368,24.7117" id="Stroke-7" stroke="#FFFFFF" stroke-width="2" stroke-linecap="round" stroke-linejoin="round"></path>
                <path d="M10.5296,28.053 L29.0076,28.053" id="Stroke-9" stroke="#FFFFFF" stroke-width="2" stroke-linecap="round" stroke-linejoin="round"></path>
                <path d="M26.6209,10.8323 C26.6209,14.6173 23.5529,17.6853 19.7679,17.6853 C15.9839,17.6853 12.9149,14.6173 12.9149,10.8323 C12.9149,7.0473 15.9839,3.9793 19.7679,3.9793 C23.5529,3.9793 26.6209,7.0473 26.6209,10.8323 Z" id="Stroke-11" stroke="#FFFFFF" stroke-width="2" stroke-linecap="round" stroke-linejoin="round"></path>
                <path d="M23.536,10.8323 C23.536,12.9133 21.849,14.6003 19.768,14.6003 C17.688,14.6003 16.001,12.9133 16.001,10.8323 C16.001,8.7513 17.688,7.0643 19.768,7.0643 C21.849,7.0643 23.536,8.7513 23.536,10.8323 Z" id="Stroke-13" stroke="#FFFFFF" stroke-width="2" stroke-linecap="round" stroke-linejoin="round"></path>
                <mask id="mask-2" fill="white">
                    <use xlink:href="#path-1"></use>
                </mask>
                <g id="Clip-16"></g>
                <polygon id="Stroke-15" stroke="#FFFFFF" stroke-width="2" stroke-linecap="round" stroke-linejoin="round" mask="url(#mask-2)" points="12.005 35.7487 27.531 35.7487 27.531 28.0527 12.005 28.0527"></polygon>
                <path d="M30.9544,5.406 C30.9544,5.857 30.5884,6.222 30.1384,6.222 C29.6874,6.222 29.3214,5.857 29.3214,5.406 C29.3214,4.955 29.6874,4.59 30.1384,4.59 C30.5884,4.59 30.9544,4.955 30.9544,5.406 Z" id="Stroke-17" stroke="#FFFFFF" stroke-width="2" stroke-linecap="round" stroke-linejoin="round" mask="url(#mask-2)"></path>
            </g>
        </g>
    </g>
</svg>