<?xml version="1.0" encoding="UTF-8"?>
<svg width="37px" height="37px" viewBox="0 0 37 37" version="1.1" xmlns="http://www.w3.org/2000/svg" xmlns:xlink="http://www.w3.org/1999/xlink">
    <!-- Generator: Sketch 49 (51002) - http://www.bohemiancoding.com/sketch -->
    <title>Page 1</title>
    <desc>Created with Sketch.</desc>
    <defs></defs>
    <g id="Categorías" stroke="none" stroke-width="1" fill="none" fill-rule="evenodd" stroke-linecap="round" stroke-linejoin="round">
        <g transform="translate(-32.000000, -94.000000)" id="Group-19" stroke="#FFFFFF" stroke-width="2">
            <g transform="translate(18.000000, 94.000000)">
                <g id="Page-1" transform="translate(15.000000, 0.000000)">
                    <path d="M-0.0001,18.0184 L6.6969,18.0184 C8.8869,18.0184 10.9309,16.9174 12.1359,15.0894 L13.3319,13.2754 C14.2769,11.8404 14.7809,10.1604 14.7809,8.4424 L14.7809,3.4204 C14.7809,2.0834 15.8649,0.9994 17.2019,0.9994 C18.5379,0.9994 19.6219,2.0834 19.6219,3.4204 L19.6219,10.1224 C19.6219,12.6614 20.4109,15.1364 21.8799,17.2064 L22.0069,17.3844" id="Stroke-1"></path>
                    <path d="M-0.0001,32.3138 L11.0239,32.3138 C12.4959,32.3138 13.9249,32.8128 15.0779,33.7288 C16.2109,34.6298 17.6119,35.1268 19.0599,35.1438 L25.0629,35.2098" id="Stroke-3"></path>
                    <path d="M33.0585,21.6375 L22.2565,21.6375 C21.4595,21.6375 20.8075,20.9855 20.8075,20.1885 L20.8075,18.5625 C20.8075,17.7655 21.4595,17.1135 22.2565,17.1135 L33.0585,17.1135 C33.8555,17.1135 34.5075,17.7655 34.5075,18.5625 L34.5075,20.1885 C34.5075,20.9855 33.8555,21.6375 33.0585,21.6375 Z" id="Stroke-5"></path>
                    <path d="M33.0585,30.6854 L22.2565,30.6854 C21.4595,30.6854 20.8075,30.0334 20.8075,29.2364 L20.8075,27.6104 C20.8075,26.8134 21.4595,26.1614 22.2565,26.1614 L33.0585,26.1614 C33.8555,26.1614 34.5075,26.8134 34.5075,27.6104 L34.5075,29.2364 C34.5075,30.0334 33.8555,30.6854 33.0585,30.6854 Z" id="Stroke-7"></path>
                    <path d="M33.0585,35.2093 L23.4555,35.2093 C22.6585,35.2093 22.0065,34.5573 22.0065,33.7603 L22.0065,32.1343 C22.0065,31.3373 22.6585,30.6853 23.4555,30.6853 L33.0585,30.6853 C33.8555,30.6853 34.5075,31.3373 34.5075,32.1343 L34.5075,33.7603 C34.5075,34.5573 33.8555,35.2093 33.0585,35.2093 Z" id="Stroke-9"></path>
                    <path d="M33.0585,26.1614 L20.7965,26.1614 C19.9995,26.1614 19.3475,25.5094 19.3475,24.7124 L19.3475,23.0864 C19.3475,22.2894 19.9995,21.6374 20.7965,21.6374 L33.0585,21.6374 C33.8555,21.6374 34.5075,22.2894 34.5075,23.0864 L34.5075,24.7124 C34.5075,25.5094 33.8555,26.1614 33.0585,26.1614 Z" id="Stroke-11"></path>
                    <path d="M14.9409,19.8743 C14.9409,19.8743 15.1399,24.4643 9.8389,23.6763" id="Stroke-13"></path>
                </g>
            </g>
        </g>
    </g>
</svg>