<?xml version="1.0" encoding="UTF-8"?>
<svg width="16px" height="16px" viewBox="0 0 16 16" version="1.1" xmlns="http://www.w3.org/2000/svg" xmlns:xlink="http://www.w3.org/1999/xlink">
    <!-- Generator: Sketch 48.2 (47327) - http://www.bohemiancoding.com/sketch -->
    <title>Page 1</title>
    <desc>Created with Sketch.</desc>
    <defs></defs>
    <g id="Media" stroke="none" stroke-width="1" fill="none" fill-rule="evenodd" transform="translate(-734.000000, -116.000000)" stroke-linecap="round" stroke-linejoin="round">
        <g id="Group-17" transform="translate(650.000000, 99.000000)" stroke="#FFFFFF">
            <g id="Page-1" transform="translate(84.000000, 17.000000)">
                <g id="Group-6" transform="translate(0.000000, 0.804500)">
                    <polygon id="Stroke-1" points="0.5 3.818 3.623 3.818 3.623 0.695 0.5 0.695"></polygon>
                    <polygon id="Stroke-3" points="0.5 9.159 3.623 9.159 3.623 6.036 0.5 6.036"></polygon>
                    <polygon id="Stroke-4" points="0.5 14.5 3.623 14.5 3.623 11.377 0.5 11.377"></polygon>
                    <polygon id="Stroke-5" points="6.022 3.818 9.145 3.818 9.145 0.695 6.022 0.695"></polygon>
                </g>
                <polygon id="Stroke-7" points="6.022 9.9635 9.145 9.9635 9.145 6.8405 6.022 6.8405"></polygon>
                <g id="Group-13" transform="translate(6.000000, 0.804500)">
                    <polygon id="Stroke-8" points="0.022 14.5 3.145 14.5 3.145 11.377 0.022 11.377"></polygon>
                    <polygon id="Stroke-10" points="5.543 3.818 8.666 3.818 8.666 0.695 5.543 0.695"></polygon>
                    <polygon id="Stroke-11" points="5.543 9.159 8.666 9.159 8.666 6.036 5.543 6.036"></polygon>
                    <polygon id="Stroke-12" points="5.543 14.5 8.666 14.5 8.666 11.377 5.543 11.377"></polygon>
                </g>
            </g>
        </g>
    </g>
</svg>