<?xml version="1.0" encoding="UTF-8"?>
<svg width="17px" height="23px" viewBox="0 0 17 23" version="1.1" xmlns="http://www.w3.org/2000/svg" xmlns:xlink="http://www.w3.org/1999/xlink">
    <!-- Generator: Sketch 48.2 (47327) - http://www.bohemiancoding.com/sketch -->
    <title>Page 1</title>
    <desc>Created with Sketch.</desc>
    <defs></defs>
    <g id="Login" stroke="none" stroke-width="1" fill="none" fill-rule="evenodd" transform="translate(-593.000000, -455.000000)">
        <g id="Group-2" transform="translate(561.000000, 243.000000)" fill="#CECECE">
            <g id="Page-1" transform="translate(32.000000, 212.000000)">
                <path d="M15.9331,21.2236 L1.0001,21.2236 L1.0001,7.7446 L4.0421,7.7446 L12.8901,7.7446 L15.9331,7.7446 L15.9331,21.2236 Z M4.5421,4.9236 C4.5421,2.7606 6.3031,0.9996 8.4661,0.9996 C10.6301,0.9996 12.3901,2.7606 12.3901,4.9236 L12.3901,6.7446 L4.5421,6.7446 L4.5421,4.9236 Z M16.4331,6.7446 L13.3901,6.7446 L13.3901,4.9236 C13.3901,2.2086 11.1811,-0.000400000001 8.4661,-0.000400000001 C5.7511,-0.000400000001 3.5421,2.2086 3.5421,4.9236 L3.5421,6.7446 L0.5001,6.7446 C0.2241,6.7446 0.0001,6.9686 0.0001,7.2446 L0.0001,21.7236 C0.0001,21.9996 0.2241,22.2236 0.5001,22.2236 L16.4331,22.2236 C16.7091,22.2236 16.9331,21.9996 16.9331,21.7236 L16.9331,7.2446 C16.9331,6.9686 16.7091,6.7446 16.4331,6.7446 Z" id="Fill-1"></path>
                <path d="M11.438,11.7558 L7.042,16.1518 L5.495,14.6058 C5.299,14.4108 4.983,14.4108 4.788,14.6058 C4.592,14.8008 4.592,15.1178 4.788,15.3128 L6.688,17.2128 C6.786,17.3108 6.914,17.3598 7.042,17.3598 C7.169,17.3598 7.297,17.3108 7.395,17.2128 L12.145,12.4628 C12.34,12.2678 12.34,11.9508 12.145,11.7558 C11.95,11.5608 11.633,11.5608 11.438,11.7558" id="Fill-4"></path>
            </g>
        </g>
    </g>
</svg>