<?xml version="1.0" encoding="UTF-8"?>
<svg width="25px" height="17px" viewBox="0 0 25 17" version="1.1" xmlns="http://www.w3.org/2000/svg" xmlns:xlink="http://www.w3.org/1999/xlink">
    <!-- Generator: Sketch 48.2 (47327) - http://www.bohemiancoding.com/sketch -->
    <title>Page 1</title>
    <desc>Created with Sketch.</desc>
    <defs></defs>
    <g id="Experiencia-/-El-Palmar" stroke="none" stroke-width="1" fill="none" fill-rule="evenodd" transform="translate(-521.000000, -329.000000)" stroke-linecap="round" stroke-linejoin="round">
        <g id="Group-13" transform="translate(522.000000, 329.000000)" stroke="#FFFFFF">
            <g id="Page-1">
                <path d="M0.4998,9.4011 C5.7568,0.8381 18.1998,0.8381 23.4568,9.4011 C18.1998,17.9641 5.7568,17.9641 0.4998,9.4011 Z" id="Stroke-1"></path>
                <path d="M16.8152,9.4011 C16.8152,12.0721 14.6492,14.2371 11.9782,14.2371 C9.3072,14.2371 7.1412,12.0721 7.1412,9.4011 C7.1412,6.7301 9.3072,4.5641 11.9782,4.5641 C14.6492,4.5641 16.8152,6.7301 16.8152,9.4011 Z" id="Stroke-3"></path>
                <path d="M11.9783,6.0158 C13.8483,6.0158 15.3633,7.5318 15.3633,9.4008" id="Stroke-5"></path>
                <path d="M13.4822,9.4011 C13.4822,10.2321 12.8092,10.9051 11.9782,10.9051 C11.1482,10.9051 10.4742,10.2321 10.4742,9.4011 C10.4742,8.5701 11.1482,7.8971 11.9782,7.8971 C12.8092,7.8971 13.4822,8.5701 13.4822,9.4011 Z" id="Stroke-7"></path>
                <path d="M11.9783,2.9787 L11.9783,0.4997" id="Stroke-9"></path>
                <path d="M7.4558,3.7502 L6.5908,1.5712" id="Stroke-11"></path>
                <path d="M3.2302,6.1882 L1.7292,4.2332" id="Stroke-13"></path>
                <path d="M16.5007,3.7502 L17.3657,1.5712" id="Stroke-15"></path>
                <path d="M20.7258,6.1882 L22.2278,4.2332" id="Stroke-17"></path>
            </g>
        </g>
    </g>
</svg>