<?xml version="1.0" encoding="UTF-8"?>
<svg width="21px" height="22px" viewBox="0 0 21 22" version="1.1" xmlns="http://www.w3.org/2000/svg" xmlns:xlink="http://www.w3.org/1999/xlink">
    <!-- Generator: Sketch 48.2 (47327) - http://www.bohemiancoding.com/sketch -->
    <title>Page 1</title>
    <desc>Created with Sketch.</desc>
    <defs></defs>
    <g id="Login" stroke="none" stroke-width="1" fill="none" fill-rule="evenodd" transform="translate(-591.000000, -377.000000)">
        <g id="Group-2" transform="translate(561.000000, 243.000000)" fill="#CECECE">
            <g id="Page-1" transform="translate(30.000000, 134.000000)">
                <path d="M4.7812,6.1719 C4.7812,8.5149 6.6662,11.3439 9.0082,11.3439 C11.3492,11.3439 13.2342,8.5149 13.2342,6.1719 L13.2342,5.2269 C13.2342,2.8959 11.3382,0.9999 9.0082,0.9999 C6.6772,0.9999 4.7812,2.8959 4.7812,5.2269 L4.7812,6.1719 Z M2.5742,13.4449 C1.6332,13.7639 1.0002,14.6519 1.0002,15.6549 L1.0002,18.9059 L8.0622,18.9059 C8.3392,18.9059 8.5622,19.1299 8.5622,19.4059 C8.5622,19.6829 8.3392,19.9059 8.0622,19.9059 L0.5002,19.9059 C0.2232,19.9059 0.0002,19.6829 0.0002,19.4059 L0.0002,15.6549 C0.0002,14.2229 0.9062,12.9539 2.2542,12.4979 C3.3242,12.1369 4.8142,11.7329 6.5292,11.5119 C4.8782,10.3459 3.7812,8.1489 3.7812,6.1719 L3.7812,5.2269 C3.7812,2.3449 6.1262,-0.0001 9.0082,-0.0001 C11.8892,-0.0001 14.2342,2.3449 14.2342,5.2269 L14.2342,6.1719 C14.2342,9.0259 11.9512,12.3439 9.0082,12.3439 C6.3892,12.3439 4.0642,12.9429 2.5742,13.4449 Z" id="Fill-1"></path>
                <path d="M13.29,20.7969 L19.852,20.7969 L19.852,17.0699 L13.29,17.0699 L13.29,20.7969 Z M15.18,13.7339 C15.18,12.9679 15.804,12.3439 16.57,12.3439 C17.337,12.3439 17.961,12.9679 17.961,13.7339 L17.961,16.0699 L15.18,16.0699 L15.18,13.7339 Z M20.352,16.0699 L18.961,16.0699 L18.961,13.7339 C18.961,12.4159 17.889,11.3439 16.57,11.3439 C15.252,11.3439 14.18,12.4159 14.18,13.7339 L14.18,16.0699 L12.789,16.0699 C12.513,16.0699 12.289,16.2939 12.289,16.5699 L12.289,21.2969 C12.289,21.5729 12.513,21.7969 12.789,21.7969 L20.352,21.7969 C20.628,21.7969 20.852,21.5729 20.852,21.2969 L20.852,16.5699 C20.852,16.2939 20.628,16.0699 20.352,16.0699 Z" id="Fill-3"></path>
            </g>
        </g>
    </g>
</svg>