<?xml version="1.0" standalone="no"?>
<!DOCTYPE svg PUBLIC "-//W3C//DTD SVG 20010904//EN"
 "http://www.w3.org/TR/2001/REC-SVG-20010904/DTD/svg10.dtd">
<svg version="1.0" xmlns="http://www.w3.org/2000/svg"
 width="261.000000pt" height="261.000000pt" viewBox="0 0 261.000000 261.000000"
 preserveAspectRatio="xMidYMid meet">
<metadata>
Created by potrace 1.11, written by Peter Selinger 2001-2013
</metadata>
<g transform="translate(0.000000,261.000000) scale(0.100000,-0.100000)"
fill="#000000" stroke="none">
<path d="M1688 2443 c-14 -16 -35 -46 -46 -68 -27 -54 -76 -212 -97 -310 l-17
-80 -37 -1 c-47 0 -89 -31 -140 -104 -70 -100 -138 -268 -154 -385 -4 -29 -71
-145 -83 -145 -11 0 17 205 43 315 2 11 8 48 12 83 12 102 -17 146 -98 145
-62 0 -139 -41 -197 -106 -80 -90 -167 -276 -180 -390 -6 -52 -8 -54 -78 -104
-91 -65 -151 -95 -193 -96 -44 -1 -56 13 -58 68 -2 53 37 263 64 345 24 73 81
190 92 190 4 0 25 -11 45 -25 51 -34 117 -34 165 0 44 33 63 57 101 130 36 70
41 131 14 187 -46 95 -251 114 -413 37 -63 -30 -167 -121 -215 -189 -65 -91
-131 -252 -168 -410 -28 -118 -31 -143 -30 -254 0 -110 32 -200 93 -263 50
-52 92 -67 168 -60 99 9 238 100 339 221 58 69 83 83 100 52 25 -48 103 -71
161 -48 15 6 43 25 62 42 l35 31 26 -26 c22 -22 32 -25 59 -20 43 9 67 33 101
100 l28 57 18 -39 c31 -69 72 -89 140 -70 19 5 48 18 63 30 20 13 46 20 84 21
55 1 57 2 114 65 33 35 59 67 59 71 0 5 10 26 23 48 l22 39 1 -59 c2 -124 75
-130 183 -16 46 48 155 253 147 275 -3 8 -2 12 3 9 4 -3 13 6 20 20 8 19 8 24
0 18 -8 -5 -9 -3 -3 7 5 8 9 17 10 22 1 4 2 13 4 20 1 6 6 -3 11 -22 6 -19 18
-35 30 -38 10 -3 19 -7 19 -10 0 -2 -22 -41 -50 -86 -67 -111 -98 -186 -90
-217 9 -35 52 -34 164 6 212 73 315 153 331 255 12 77 -51 94 -150 41 -30 -17
-55 -27 -55 -24 1 19 30 39 80 56 30 10 72 28 93 41 42 25 140 115 133 122 -2
3 -19 -11 -38 -30 -39 -41 -97 -73 -153 -83 l-39 -7 40 49 c76 94 96 126 101
162 5 46 -23 94 -69 118 -42 22 -132 26 -168 7 -63 -31 -166 -172 -177 -239
-8 -53 -148 -314 -168 -314 -5 0 1 28 24 113 66 241 63 377 -8 377 -67 0 -113
-85 -169 -311 -29 -115 -50 -177 -85 -245 -47 -90 -79 -134 -97 -134 -10 0
-11 5 -14 53 -2 29 14 151 27 207 2 8 7 33 11 55 12 64 26 106 56 171 79 172
133 351 132 445 0 111 -57 162 -114 102z m41 -202 c-7 -28 -17 -51 -22 -51
-11 0 0 65 15 93 17 32 21 10 7 -42z m-44 -172 c-9 -24 -21 -59 -26 -76 -12
-40 -22 -44 -13 -5 9 42 49 143 52 133 1 -4 -4 -28 -13 -52z m535 -204 c-7 -8
-24 -15 -39 -15 -25 1 -25 2 9 19 39 20 49 19 30 -4z m-110 -9 c0 -3 -4 -8
-10 -11 -5 -3 -10 -1 -10 4 0 6 5 11 10 11 6 0 10 -2 10 -4z m-633 -128 c-3
-18 -10 -63 -16 -101 -6 -37 -13 -90 -15 -117 -7 -91 -70 -159 -72 -78 -2 58
83 328 103 328 3 0 2 -15 0 -32z m-462 -148 c-20 -62 -35 -121 -32 -131 3 -11
1 -17 -4 -14 -4 3 -16 -9 -25 -27 l-17 -33 23 20 c20 17 20 15 -4 -17 -16 -21
-32 -36 -36 -33 -10 6 23 158 50 225 27 70 72 148 77 133 2 -6 -12 -61 -32
-123z"/>
<path d="M1963 2372 c-64 -59 -94 -168 -62 -222 10 -16 27 -30 36 -30 14 0 15
2 4 9 -10 6 -2 11 27 16 74 12 118 92 113 202 -3 56 -70 71 -118 25z"/>
<path d="M1278 2318 c-91 -31 -158 -111 -177 -213 -8 -44 0 -78 13 -56 4 6 4
11 1 11 -3 0 7 13 22 29 15 16 69 50 119 76 121 61 157 100 133 146 -13 25
-49 27 -111 7z"/>
<path d="M2018 1332 c-28 -6 -57 -101 -64 -209 -5 -93 -28 -193 -42 -193 -4 0
-6 36 -5 79 2 84 -8 106 -44 99 -12 -2 -21 -17 -27 -43 -5 -22 -22 -78 -39
-124 -23 -62 -33 -79 -38 -65 -3 10 -5 21 -4 24 2 3 6 30 9 60 3 30 10 80 15
110 22 132 -1 232 -47 204 -38 -24 -46 -62 -46 -239 -1 -177 8 -227 42 -240
23 -9 58 34 73 88 l12 42 11 -44 c6 -24 20 -49 29 -55 15 -9 23 -5 48 22 16
18 29 41 29 52 0 24 20 37 21 13 2 -47 7 -65 22 -81 16 -15 19 -15 44 4 15 11
38 43 52 72 14 28 36 56 48 61 12 6 29 24 38 41 11 22 23 30 43 30 26 0 27 -2
28 -53 2 -73 16 -97 58 -97 25 0 36 6 46 25 14 25 30 33 30 15 0 -19 51 -32
80 -20 25 10 80 89 108 153 21 51 13 44 -25 -22 -43 -73 -68 -94 -83 -71 -19
29 -11 57 19 70 35 14 66 46 76 78 5 17 -1 29 -23 52 -27 26 -33 28 -62 20
-18 -5 -44 -19 -57 -32 -27 -25 -53 -104 -53 -159 0 -41 -25 -73 -40 -50 -8
15 -5 54 11 111 12 46 12 46 -7 64 -11 12 -20 13 -34 6 -31 -16 -50 -11 -60
15 -8 22 -13 24 -30 15 -24 -13 -34 -49 -26 -93 5 -33 -3 -49 -38 -77 -18 -14
-19 -13 -12 21 8 43 0 69 -21 69 -17 0 -15 18 10 85 35 94 -4 183 -75 167z
m47 -128 c-3 -19 -13 -48 -21 -66 l-15 -33 6 45 c4 25 8 52 10 60 2 8 4 21 4
28 1 7 6 10 12 6 6 -4 8 -20 4 -40z m425 -79 c0 -8 -9 -19 -19 -25 -30 -15
-33 -12 -15 15 18 28 34 33 34 10z m-416 -119 c-5 -13 -9 -14 -14 -5 -11 16 0
43 12 31 5 -5 6 -17 2 -26z m-24 -56 c0 -5 -4 -10 -10 -10 -5 0 -10 5 -10 10
0 6 5 10 10 10 6 0 10 -4 10 -10z"/>
<path d="M1850 1205 c-15 -28 -5 -75 17 -82 19 -7 54 35 51 60 -8 52 -45 64
-68 22z"/>
<path d="M852 1033 c-16 -6 -47 -67 -58 -113 -13 -58 -14 -63 -15 -110 -3
-146 33 -265 81 -265 23 0 25 3 24 45 -1 25 -5 79 -9 120 -5 54 -4 72 4 65 5
-6 13 -31 15 -55 10 -86 35 -150 59 -150 17 1 42 22 50 43 5 14 11 16 26 7 30
-16 66 -12 85 9 11 12 25 16 41 13 20 -3 27 1 38 26 12 30 13 30 35 12 38 -31
79 -4 122 83 12 25 15 26 23 10 14 -27 49 -53 73 -53 31 0 63 41 90 115 31 85
30 107 -1 31 -39 -94 -55 -105 -75 -55 -13 29 -12 32 19 56 63 49 73 115 22
142 -69 37 -141 -41 -141 -155 0 -56 -52 -126 -81 -108 -5 3 -9 32 -9 65 0 52
2 59 19 59 28 0 51 27 51 60 0 36 -23 51 -63 39 -59 -17 -90 -69 -89 -152 1
-122 -21 -133 -33 -17 -8 87 -12 98 -38 106 -70 24 -118 -47 -120 -181 -2 -64
-5 -80 -18 -83 -17 -3 -17 -4 -25 88 -6 83 -21 120 -46 120 -15 0 -18 4 -13
18 34 89 10 183 -43 165z m8 -110 c-11 -17 -11 -17 -6 0 3 10 7 26 7 35 1 15
2 15 6 0 2 -10 -1 -25 -7 -35z m628 31 c-2 -9 -13 -23 -25 -31 l-23 -15 16 31
c16 33 38 42 32 15z m-385 -190 c-2 -71 -12 -101 -14 -43 -2 63 4 109 14 109
1 0 1 -30 0 -66z"/>
<path d="M476 834 c-50 -17 -73 -20 -82 -13 -15 13 -34 4 -34 -16 0 -7 -26
-33 -57 -57 -68 -51 -93 -95 -93 -161 0 -41 5 -53 30 -79 54 -54 73 -31 55 65
-8 41 7 82 36 97 13 8 16 3 17 -28 5 -157 56 -451 80 -466 4 -2 14 -1 22 4 12
7 15 40 16 162 1 84 -2 180 -7 213 -5 33 -12 83 -15 111 l-5 50 44 22 c64 32
99 69 87 93 -16 28 -21 28 -94 3z"/>
<path d="M522 708 c-31 -35 -42 -71 -37 -137 5 -83 27 -122 76 -134 43 -11 74
22 92 95 21 83 29 137 18 118 -5 -8 -12 -36 -15 -62 -9 -60 -37 -98 -59 -80
-26 22 -26 49 0 74 38 35 56 83 42 111 -16 30 -28 37 -65 37 -19 0 -38 -9 -52
-22z m78 -42 c0 -14 -27 -42 -34 -35 -2 2 0 14 5 27 9 24 29 30 29 8z"/>
<path d="M2097 644 c-1 -1 -51 -4 -112 -7 -148 -8 -316 -33 -428 -62 -50 -14
-97 -26 -104 -28 -7 -2 -20 -10 -30 -18 -29 -23 -80 -49 -98 -49 -10 0 -13 -5
-9 -12 4 -7 3 -8 -4 -4 -17 10 -163 -68 -197 -106 l-30 -33 35 32 c35 32 231
114 302 127 18 4 -4 -7 -48 -23 -97 -34 -187 -80 -238 -123 -35 -28 -37 -33
-35 -81 3 -60 45 -117 85 -117 14 0 82 29 152 64 177 89 510 226 612 252 8 2
67 17 130 34 63 16 125 30 137 30 41 0 72 82 41 108 -10 8 -153 22 -161 16z"/>
</g>
</svg>
