<?xml version="1.0" encoding="UTF-8"?>
<svg width="123px" height="72px" viewBox="0 0 123 72" version="1.1" xmlns="http://www.w3.org/2000/svg" xmlns:xlink="http://www.w3.org/1999/xlink">
    <!-- Generator: Sketch 48.2 (47327) - http://www.bohemiancoding.com/sketch -->
    <title>Page 1</title>
    <desc>Created with Sketch.</desc>
    <defs></defs>
    <g id="Como-llegar" stroke="none" stroke-width="1" fill="none" fill-rule="evenodd" transform="translate(-178.000000, -1089.000000)" stroke-linecap="round" stroke-linejoin="round">
        <g id="Page-1" transform="translate(180.000000, 1091.000000)" stroke="#FFFFFF" stroke-width="4">
            <path d="M67.0128,45.2656 L118.4528,45.2656 C118.4528,30.6896 106.6368,18.8736 92.0608,18.8736 L29.6448,18.8736 L10.7688,0.0016 L0.0008,11.7296 L12.6328,45.2656 L35.4928,45.2656" id="Stroke-1"></path>
            <path d="M44.1536,36.6072 L13.6296,67.1272 C33.8136,67.1272 53.1696,59.1112 67.4456,44.8392 L75.8616,36.4232 L44.1536,36.6072 Z" id="Stroke-3"></path>
            <path d="M79.1536,29.1344 L73.5696,29.1344" id="Stroke-5"></path>
            <path d="M66.0696,29.1344 L60.4856,29.1344" id="Stroke-7"></path>
            <path d="M52.9856,29.1344 L47.4016,29.1344" id="Stroke-9"></path>
            <path d="M39.8996,29.1344 L34.3156,29.1344" id="Stroke-11"></path>
            <path d="M26.8156,29.1344 L21.2316,29.1344" id="Stroke-13"></path>
            <path d="M18.4444,7.6756 L4.7764,24.4076" id="Stroke-15"></path>
            <path d="M89.5872,29.1344 L89.5872,45.2664" id="Stroke-17"></path>
        </g>
    </g>
</svg>