<?xml version="1.0" encoding="UTF-8"?>
<svg width="65px" height="88px" viewBox="0 0 65 88" version="1.1" xmlns="http://www.w3.org/2000/svg" xmlns:xlink="http://www.w3.org/1999/xlink">
    <!-- Generator: Sketch 48.2 (47327) - http://www.bohemiancoding.com/sketch -->
    <title>Page 1</title>
    <desc>Created with Sketch.</desc>
    <defs></defs>
    <g id="Sala-prensa-idiomas" stroke="none" stroke-width="1" fill="none" fill-rule="evenodd" transform="translate(-208.000000, -1071.000000)" stroke-linecap="round" stroke-linejoin="round">
        <g id="Page-1" transform="translate(210.000000, 1073.000000)" stroke="#FFFFFF" stroke-width="4">
            <path d="M10.1088,5.7044 L10.1088,10.7684 C10.1088,12.1124 11.1968,13.2004 12.5408,13.2004 C13.8848,13.2004 14.9728,12.1124 14.9728,10.7684 L14.9728,5.0324 C14.9728,2.2524 12.7208,0.0004 9.9408,0.0004 C7.1648,0.0004 4.9088,2.2524 4.9088,5.0324 L4.9088,8.1684" id="Stroke-1"></path>
            <polyline id="Stroke-3" points="9.9408 8.3352 0.0008 8.3352 0.0008 77.8432 54.7408 77.8432 54.7408 8.3352 14.9728 8.3352"></polyline>
            <path d="M7.3608,19.6632 L47.3768,19.6632" id="Stroke-5"></path>
            <path d="M7.3608,26.1284 L47.3768,26.1284" id="Stroke-7"></path>
            <path d="M7.3608,32.5932 L47.3768,32.5932" id="Stroke-9"></path>
            <path d="M7.3608,39.056 L43.2648,39.056" id="Stroke-11"></path>
            <path d="M7.3608,51.9856 L47.3768,51.9856" id="Stroke-13"></path>
            <path d="M7.3608,58.4504 L47.3768,58.4504" id="Stroke-15"></path>
            <path d="M7.3608,64.9152 L33.6168,64.9152" id="Stroke-17"></path>
            <polyline id="Stroke-19" points="60.394 17.6144 60.394 83.0224 14.974 83.0224"></polyline>
        </g>
    </g>
</svg>