<?xml version="1.0" encoding="UTF-8"?>
<svg width="23px" height="23px" viewBox="0 0 23 23" version="1.1" xmlns="http://www.w3.org/2000/svg" xmlns:xlink="http://www.w3.org/1999/xlink">
    <!-- Generator: Sketch 47.1 (45422) - http://www.bohemiancoding.com/sketch -->
    <title>Page 1</title>
    <desc>Created with Sketch.</desc>
    <defs></defs>
    <g id="1.26.Eventos" stroke="none" stroke-width="1" fill="none" fill-rule="evenodd">
        <g id="Eventos" transform="translate(-480.000000, -637.000000)">
            <g id="Group-21" transform="translate(235.000000, 596.000000)">
                <g id="Group-23" transform="translate(23.000000, 18.000000)">
                    <g id="Group-8">
                        <g id="Group-19">
                            <g id="Page-1" transform="translate(222.000000, 23.000000)">
                                <g id="Group-11" transform="translate(0.000000, 0.003300)" stroke="#484848" stroke-linecap="round" stroke-linejoin="round">
                                    <path d="M18.5017374,22.4968 C6.5004458,22.4968 0.4998,22.4968 0.4998,22.4968 C0.4998,22.4968 0.4998,17.8301333 0.4998,8.4968" id="Stroke-1"></path>
                                    <g id="Group-5" transform="translate(22.000000, 8.000000)">
                                        <path d="M0.5,0.4968 L0.5,10.4468" id="Stroke-3"></path>
                                    </g>
                                    <polygon id="Stroke-6" points="0.5 8.497 22.5 8.497 22.5 2.497 0.5 2.497"></polygon>
                                    <path d="M11.5,0.4968 L11.5,4.4968" id="Stroke-8"></path>
                                    <path d="M5.5,0.4968 L5.5,4.4968" id="Stroke-9"></path>
                                    <path d="M17.5,0.4968 L17.5,4.4968" id="Stroke-10"></path>
                                </g>
                                <path d="M4.248,12.7936 L6.752,12.7936 C7.02814237,12.7936 7.252,12.5697424 7.252,12.2936 C7.252,12.0174576 7.02814237,11.7936 6.752,11.7936 L4.248,11.7936 C3.97185763,11.7936 3.748,12.0174576 3.748,12.2936 C3.748,12.5697424 3.97185763,12.7936 4.248,12.7936 Z" id="Stroke-12" fill="#484848" fill-rule="nonzero"></path>
                                <path d="M10.248,12.7936 L12.752,12.7936 C13.0281424,12.7936 13.252,12.5697424 13.252,12.2936 C13.252,12.0174576 13.0281424,11.7936 12.752,11.7936 L10.248,11.7936 C9.97185763,11.7936 9.748,12.0174576 9.748,12.2936 C9.748,12.5697424 9.97185763,12.7936 10.248,12.7936 Z" id="Stroke-13" fill="#484848" fill-rule="nonzero"></path>
                                <path d="M16.248,12.7936 L18.752,12.7936 C19.0281424,12.7936 19.252,12.5697424 19.252,12.2936 C19.252,12.0174576 19.0281424,11.7936 18.752,11.7936 L16.248,11.7936 C15.9718576,11.7936 15.748,12.0174576 15.748,12.2936 C15.748,12.5697424 15.9718576,12.7936 16.248,12.7936 Z" id="Stroke-14" fill="#484848" fill-rule="nonzero"></path>
                                <path d="M4.248,15.8717 L6.752,15.8717 C7.02814237,15.8717 7.252,15.6478424 7.252,15.3717 C7.252,15.0955576 7.02814237,14.8717 6.752,14.8717 L4.248,14.8717 C3.97185763,14.8717 3.748,15.0955576 3.748,15.3717 C3.748,15.6478424 3.97185763,15.8717 4.248,15.8717 Z" id="Stroke-15" fill="#484848" fill-rule="nonzero"></path>
                                <path d="M10.248,15.8717 L12.752,15.8717 C13.0281424,15.8717 13.252,15.6478424 13.252,15.3717 C13.252,15.0955576 13.0281424,14.8717 12.752,14.8717 L10.248,14.8717 C9.97185763,14.8717 9.748,15.0955576 9.748,15.3717 C9.748,15.6478424 9.97185763,15.8717 10.248,15.8717 Z" id="Stroke-16" fill="#484848" fill-rule="nonzero"></path>
                                <path d="M16.248,15.8717 L18.752,15.8717 C19.0281424,15.8717 19.252,15.6478424 19.252,15.3717 C19.252,15.0955576 19.0281424,14.8717 18.752,14.8717 L16.248,14.8717 C15.9718576,14.8717 15.748,15.0955576 15.748,15.3717 C15.748,15.6478424 15.9718576,15.8717 16.248,15.8717 Z" id="Stroke-17" fill="#484848" fill-rule="nonzero"></path>
                                <path d="M4.248,18.9503 L6.752,18.9503 C7.02814237,18.9503 7.252,18.7264424 7.252,18.4503 C7.252,18.1741576 7.02814237,17.9503 6.752,17.9503 L4.248,17.9503 C3.97185763,17.9503 3.748,18.1741576 3.748,18.4503 C3.748,18.7264424 3.97185763,18.9503 4.248,18.9503 Z" id="Stroke-18" fill="#484848" fill-rule="nonzero"></path>
                                <path d="M10.248,18.9503 L12.752,18.9503 C13.0281424,18.9503 13.252,18.7264424 13.252,18.4503 C13.252,18.1741576 13.0281424,17.9503 12.752,17.9503 L10.248,17.9503 C9.97185763,17.9503 9.748,18.1741576 9.748,18.4503 C9.748,18.7264424 9.97185763,18.9503 10.248,18.9503 Z" id="Stroke-19" fill="#484848" fill-rule="nonzero"></path>
                                <path d="M18.947,18.9503 L18.947,21.2961932 L21.2928932,18.9503 L18.947,18.9503 Z M22.8535534,18.8038534 L18.8005534,22.8568534 C18.485571,23.1718358 17.947,22.9487524 17.947,22.5033 L17.947,18.4503 C17.947,18.1741576 18.1708576,17.9503 18.447,17.9503 L22.5,17.9503 C22.9454524,17.9503 23.1685358,18.488871 22.8535534,18.8038534 Z" id="Stroke-20" fill="#484848" fill-rule="nonzero"></path>
                            </g>
                        </g>
                    </g>
                </g>
            </g>
        </g>
    </g>
</svg>