<?xml version="1.0" encoding="UTF-8"?>
<svg width="23px" height="23px" viewBox="0 0 23 23" version="1.1" xmlns="http://www.w3.org/2000/svg" xmlns:xlink="http://www.w3.org/1999/xlink">
    <!-- Generator: Sketch 48.2 (47327) - http://www.bohemiancoding.com/sketch -->
    <title>Page 1</title>
    <desc>Created with Sketch.</desc>
    <defs>
        <polygon id="path-1" points="0 23 23 23 23 0 0 0"></polygon>
    </defs>
    <g id="Home-+-footer" stroke="none" stroke-width="1" fill="none" fill-rule="evenodd" transform="translate(-328.000000, -638.000000)">
        <g id="Group-21" transform="translate(285.000000, 596.000000)">
            <g id="Group-8" transform="translate(23.000000, 18.000000)">
                <g id="Group-19">
                    <g id="Page-1" transform="translate(20.000000, 24.000000)">
                        <polygon id="Stroke-1" stroke="#484848" stroke-linecap="round" stroke-linejoin="round" points="22.5 8.5001 22.5 22.5001 0.5 22.5001 0.5 8.5001"></polygon>
                        <mask id="mask-2" fill="white">
                            <use xlink:href="#path-1"></use>
                        </mask>
                        <g id="Clip-4"></g>
                        <path d="M0.5,9 C0.223857625,9 0,8.77614237 0,8.5 L0,2.5 C0,2.22385763 0.223857625,2 0.5,2 L22.5,2 C22.7761424,2 23,2.22385763 23,2.5 L23,8.5 C23,8.77614237 22.7761424,9 22.5,9 L0.5,9 Z M1,8 L22,8 L22,3 L1,3 L1,8 Z" id="Stroke-3" fill="#484848" fill-rule="nonzero" mask="url(#mask-2)"></path>
                        <path d="M11,0.5001 C11,0.223957625 11.2238576,0.0001 11.5,0.0001 C11.7761424,0.0001 12,0.223957625 12,0.5001 L12,4.5001 C12,4.77624237 11.7761424,5.0001 11.5,5.0001 C11.2238576,5.0001 11,4.77624237 11,4.5001 L11,0.5001 Z" id="Stroke-5" fill="#484848" fill-rule="nonzero" mask="url(#mask-2)"></path>
                        <path d="M5,0.5001 C5,0.223957625 5.22385763,0.0001 5.5,0.0001 C5.77614237,0.0001 6,0.223957625 6,0.5001 L6,4.5001 C6,4.77624237 5.77614237,5.0001 5.5,5.0001 C5.22385763,5.0001 5,4.77624237 5,4.5001 L5,0.5001 Z" id="Stroke-6" fill="#484848" fill-rule="nonzero" mask="url(#mask-2)"></path>
                        <path d="M17,0.5001 C17,0.223957625 17.2238576,0.0001 17.5,0.0001 C17.7761424,0.0001 18,0.223957625 18,0.5001 L18,4.5001 C18,4.77624237 17.7761424,5.0001 17.5,5.0001 C17.2238576,5.0001 17,4.77624237 17,4.5001 L17,0.5001 Z" id="Stroke-7" fill="#484848" fill-rule="nonzero" mask="url(#mask-2)"></path>
                    </g>
                </g>
            </g>
        </g>
    </g>
</svg>