<?xml version="1.0" encoding="UTF-8"?>
<svg width="39px" height="39px" viewBox="0 0 39 39" version="1.1" xmlns="http://www.w3.org/2000/svg" xmlns:xlink="http://www.w3.org/1999/xlink">
    <!-- Generator: Sketch 47.1 (45422) - http://www.bohemiancoding.com/sketch -->
    <title>Page 1</title>
    <desc>Created with Sketch.</desc>
    <defs>
        <polygon id="path-1" points="0 39 39 39 39 0 0 0"></polygon>
    </defs>
    <g id="1.24.n.Experiencia" stroke="none" stroke-width="1" fill="none" fill-rule="evenodd">
        <g id="Experiencia-El-Palmar" transform="translate(-485.000000, -972.000000)">
            <g id="Group-13" transform="translate(482.000000, 972.000000)">
                <g id="Group-11">
                    <g id="Page-1" transform="translate(3.000000, 0.000000)">
                        <path d="M1.69782609,15.263213 L1.69782609,37.3023435 L37.3021739,37.3023435 L37.3021739,15.263213 L1.69782609,15.263213 Z M39.0021739,14.413213 L39.0021739,38.1523435 C39.0021739,38.6217855 38.621616,39.0023435 38.1521739,39.0023435 L0.847826087,39.0023435 C0.37838405,39.0023435 -0.00217391304,38.6217855 -0.00217391304,38.1523435 L-0.00217391304,14.413213 C-0.00217391304,13.943771 0.37838405,13.563213 0.847826087,13.563213 L38.1521739,13.563213 C38.621616,13.563213 39.0021739,13.943771 39.0021739,14.413213 Z" id="Stroke-1" fill="#FFFFFF" fill-rule="nonzero"></path>
                        <mask id="mask-2" fill="white">
                            <use xlink:href="#path-1"></use>
                        </mask>
                        <g id="Clip-4"></g>
                        <path d="M0.847826087,15.2630435 C0.37838405,15.2630435 -0.00217391304,14.8824855 -0.00217391304,14.4130435 L-0.00217391304,4.23913043 C-0.00217391304,3.7696884 0.37838405,3.38913043 0.847826087,3.38913043 L38.1521739,3.38913043 C38.621616,3.38913043 39.0021739,3.7696884 39.0021739,4.23913043 L39.0021739,14.4130435 C39.0021739,14.8824855 38.621616,15.2630435 38.1521739,15.2630435 L0.847826087,15.2630435 Z M37.3021739,13.5630435 L37.3021739,5.08913043 L1.69782609,5.08913043 L1.69782609,13.5630435 L37.3021739,13.5630435 Z" id="Stroke-3" fill="#FFFFFF" fill-rule="nonzero" mask="url(#mask-2)"></path>
                        <path d="M18.65,0.847995652 L18.65,7.63060435 C18.65,8.10004639 19.030558,8.48060435 19.5,8.48060435 C19.969442,8.48060435 20.35,8.10004639 20.35,7.63060435 L20.35,0.847995652 C20.35,0.378553615 19.969442,-0.00200434783 19.5,-0.00200434783 C19.030558,-0.00200434783 18.65,0.378553615 18.65,0.847995652 Z" id="Stroke-5" fill="#FFFFFF" fill-rule="nonzero" mask="url(#mask-2)"></path>
                        <path d="M8.47608696,0.847995652 L8.47608696,7.63060435 C8.47608696,8.10004639 8.85664492,8.48060435 9.32608696,8.48060435 C9.79552899,8.48060435 10.176087,8.10004639 10.176087,7.63060435 L10.176087,0.847995652 C10.176087,0.378553615 9.79552899,-0.00200434783 9.32608696,-0.00200434783 C8.85664492,-0.00200434783 8.47608696,0.378553615 8.47608696,0.847995652 Z" id="Stroke-6" fill="#FFFFFF" fill-rule="nonzero" mask="url(#mask-2)"></path>
                        <path d="M28.823913,0.847995652 L28.823913,7.63060435 C28.823913,8.10004639 29.204471,8.48060435 29.673913,8.48060435 C30.1433551,8.48060435 30.523913,8.10004639 30.523913,7.63060435 L30.523913,0.847995652 C30.523913,0.378553615 30.1433551,-0.00200434783 29.673913,-0.00200434783 C29.204471,-0.00200434783 28.823913,0.378553615 28.823913,0.847995652 Z" id="Stroke-7" fill="#FFFFFF" fill-rule="nonzero" mask="url(#mask-2)"></path>
                        <path d="M23.2563783,26.8638783 C22.8646826,26.2992261 22.3203783,25.8719217 21.6353348,25.5870522 C22.0643348,25.3276174 22.4407696,24.9867913 22.7595522,24.5679652 C23.1902478,23.9982261 23.408987,23.3911826 23.408987,22.7620957 C23.408987,22.0821391 23.2394217,21.4581391 22.9036826,20.9036609 C22.5696391,20.3525739 22.1016391,19.9134 21.5132478,19.596313 C20.9282478,19.2826174 20.2771174,19.1249217 19.5785087,19.1249217 C18.8239435,19.1249217 18.1287261,19.2826174 17.5149,19.5946174 C16.8976826,19.9100087 16.4059435,20.3491826 16.0532478,20.8985739 C15.6988565,21.4530522 15.520813,22.0787478 15.520813,22.7620957 C15.520813,23.0028783 15.6005087,23.2131391 15.7599,23.3877913 C16.0871609,23.7455739 16.6806391,23.7438783 17.002813,23.3877913 C17.1622043,23.2131391 17.2435957,22.9960957 17.2435957,22.7434435 C17.2435957,22.1838783 17.4555522,21.7311391 17.8896391,21.3597913 C18.328813,20.9850522 18.8968565,20.7951391 19.5785087,20.7951391 C20.2177696,20.7951391 20.717987,20.9799652 21.107987,21.3597913 C21.4962913,21.7362261 21.6845087,22.1940522 21.6845087,22.7620957 C21.6845087,23.1181826 21.5895522,23.457313 21.3996391,23.7659217 C21.2080304,24.0796174 20.9502913,24.3322696 20.6315087,24.5187913 C20.3093348,24.7070087 19.9752913,24.7968783 19.6141174,24.7968783 C19.3699435,24.7968783 19.1613783,24.8799652 18.9935087,25.0393565 C18.8222478,25.2038348 18.7340739,25.417487 18.7340739,25.6769217 C18.7340739,25.9346609 18.8205522,26.1500087 18.9884217,26.3178783 C19.157987,26.4874435 19.3682478,26.5739217 19.6141174,26.5739217 C20.1007696,26.5739217 20.5433348,26.6858348 20.9316391,26.9045739 C21.3165522,27.1250087 21.6285522,27.4387043 21.8523783,27.835487 C22.0795957,28.2356609 22.1949,28.7019652 22.1949,29.2259217 C22.1949,29.9906609 21.9592043,30.5909217 21.4776391,31.0572261 C20.9994652,31.5184435 20.3313783,31.7524435 19.4903348,31.7524435 C18.9782478,31.7524435 18.5068565,31.6337478 18.0931174,31.4014435 C17.675987,31.1691391 17.3453348,30.8486609 17.1096391,30.4501826 C16.8722478,30.0534 16.7518565,29.6057478 16.7518565,29.1190957 C16.7518565,28.8681391 16.6721609,28.6494 16.5144652,28.4696609 C16.1905957,28.1000087 15.5954217,28.0966174 15.2647696,28.4696609 C15.1087696,28.6494 15.0290739,28.8681391 15.0290739,29.1190957 C15.0290739,29.9279217 15.2274652,30.6706174 15.6208565,31.3268348 C16.0125522,31.9847478 16.5602478,32.505313 17.246987,32.8783565 C17.9303348,33.2530957 18.7035522,33.441313 19.5445957,33.441313 C20.3602043,33.441313 21.1130739,33.2581826 21.7862478,32.8987043 C22.4611174,32.5358348 23.0003348,32.0254435 23.3869435,31.3810957 C23.7735522,30.7350522 23.9702478,30.009313 23.9702478,29.2259217 C23.9702478,28.342487 23.7294652,27.5472261 23.2563783,26.8638783" id="Fill-8" fill="#FFFFFF" mask="url(#mask-2)"></path>
                    </g>
                </g>
            </g>
        </g>
    </g>
</svg>