<?xml version="1.0" encoding="UTF-8"?>
<svg width="16px" height="16px" viewBox="0 0 16 16" version="1.1" xmlns="http://www.w3.org/2000/svg" xmlns:xlink="http://www.w3.org/1999/xlink">
    <!-- Generator: Sketch 47.1 (45422) - http://www.bohemiancoding.com/sketch -->
    <title>ui-16px-1_calendar-60</title>
    <desc>Created with Sketch.</desc>
    <defs></defs>
    <g id="Evento" stroke="none" stroke-width="1" fill="none" fill-rule="evenodd">
        <g id="Artboard" transform="translate(-497.000000, -997.000000)" fill="#FFFFFF">
            <g id="Group-10" transform="translate(497.000000, 994.000000)">
                <g id="Group-5">
                    <g id="ui-16px-1_calendar-60" transform="translate(0.000000, 3.000000)">
                        <path d="M15,2 L13,2 L13,1 C13,0.4 12.6,0 12,0 L11,0 C10.4,0 10,0.4 10,1 L10,2 L6,2 L6,1 C6,0.4 5.6,0 5,0 L4,0 C3.4,0 3,0.4 3,1 L3,2 L1,2 C0.4,2 0,2.4 0,3 L0,15 C0,15.6 0.4,16 1,16 L15,16 C15.6,16 16,15.6 16,15 L16,3 C16,2.4 15.6,2 15,2 Z M14,14 L2,14 L2,7 L14,7 L14,14 Z" id="Shape"></path>
                    </g>
                </g>
            </g>
        </g>
    </g>
</svg>