<?xml version="1.0" encoding="UTF-8"?>
<svg width="23px" height="23px" viewBox="0 0 23 23" version="1.1" xmlns="http://www.w3.org/2000/svg" xmlns:xlink="http://www.w3.org/1999/xlink">
    <!-- Generator: Sketch 47.1 (45422) - http://www.bohemiancoding.com/sketch -->
    <title>Page 1</title>
    <desc>Created with Sketch.</desc>
    <defs>
        <polygon id="path-1" points="0 23 23 23 23 0 0 0"></polygon>
    </defs>
    <g id="1.1.Home" stroke="none" stroke-width="1" fill="none" fill-rule="evenodd">
        <g id="Home" transform="translate(-328.000000, -638.000000)">
            <g id="Group-21" transform="translate(285.000000, 596.000000)">
                <g id="Group-8" transform="translate(23.000000, 18.000000)">
                    <g id="Group-19">
                        <g id="Page-1" transform="translate(20.000000, 24.000000)">
                            <path d="M1,9.0001 L1,22.0001 L22,22.0001 L22,9.0001 L1,9.0001 Z M23,8.5001 L23,22.5001 C23,22.7762424 22.7761424,23.0001 22.5,23.0001 L0.5,23.0001 C0.223857625,23.0001 0,22.7762424 0,22.5001 L0,8.5001 C0,8.22395763 0.223857625,8.0001 0.5,8.0001 L22.5,8.0001 C22.7761424,8.0001 23,8.22395763 23,8.5001 Z" id="Stroke-1" fill="#484848" fill-rule="nonzero"></path>
                            <mask id="mask-2" fill="white">
                                <use xlink:href="#path-1"></use>
                            </mask>
                            <g id="Clip-4"></g>
                            <path d="M0.5,9 C0.223857625,9 0,8.77614237 0,8.5 L0,2.5 C0,2.22385763 0.223857625,2 0.5,2 L22.5,2 C22.7761424,2 23,2.22385763 23,2.5 L23,8.5 C23,8.77614237 22.7761424,9 22.5,9 L0.5,9 Z M22,8 L22,3 L1,3 L1,8 L22,8 Z" id="Stroke-3" fill="#484848" fill-rule="nonzero" mask="url(#mask-2)"></path>
                            <path d="M11,0.5001 L11,4.5001 C11,4.77624237 11.2238576,5.0001 11.5,5.0001 C11.7761424,5.0001 12,4.77624237 12,4.5001 L12,0.5001 C12,0.223957625 11.7761424,0.0001 11.5,0.0001 C11.2238576,0.0001 11,0.223957625 11,0.5001 Z" id="Stroke-5" fill="#484848" fill-rule="nonzero" mask="url(#mask-2)"></path>
                            <path d="M5,0.5001 L5,4.5001 C5,4.77624237 5.22385763,5.0001 5.5,5.0001 C5.77614237,5.0001 6,4.77624237 6,4.5001 L6,0.5001 C6,0.223957625 5.77614237,0.0001 5.5,0.0001 C5.22385763,0.0001 5,0.223957625 5,0.5001 Z" id="Stroke-6" fill="#484848" fill-rule="nonzero" mask="url(#mask-2)"></path>
                            <path d="M17,0.5001 L17,4.5001 C17,4.77624237 17.2238576,5.0001 17.5,5.0001 C17.7761424,5.0001 18,4.77624237 18,4.5001 L18,0.5001 C18,0.223957625 17.7761424,0.0001 17.5,0.0001 C17.2238576,0.0001 17,0.223957625 17,0.5001 Z" id="Stroke-7" fill="#484848" fill-rule="nonzero" mask="url(#mask-2)"></path>
                            <path d="M13.7153,15.8428 C13.4843,15.5098 13.1633,15.2578 12.7593,15.0898 C13.0123,14.9368 13.2343,14.7358 13.4223,14.4888 C13.6763,14.1528 13.8053,13.7948 13.8053,13.4238 C13.8053,13.0228 13.7053,12.6548 13.5073,12.3278 C13.3103,12.0028 13.0343,11.7438 12.6873,11.5568 C12.3423,11.3718 11.9583,11.2788 11.5463,11.2788 C11.1013,11.2788 10.6913,11.3718 10.3293,11.5558 C9.9653,11.7418 9.6753,12.0008 9.4673,12.3248 C9.2583,12.6518 9.1533,13.0208 9.1533,13.4238 C9.1533,13.5658 9.2003,13.6898 9.2943,13.7928 C9.4873,14.0038 9.8373,14.0028 10.0273,13.7928 C10.1213,13.6898 10.1693,13.5618 10.1693,13.4128 C10.1693,13.0828 10.2943,12.8158 10.5503,12.5968 C10.8093,12.3758 11.1443,12.2638 11.5463,12.2638 C11.9233,12.2638 12.2183,12.3728 12.4483,12.5968 C12.6773,12.8188 12.7883,13.0888 12.7883,13.4238 C12.7883,13.6338 12.7323,13.8338 12.6203,14.0158 C12.5073,14.2008 12.3553,14.3498 12.1673,14.4598 C11.9773,14.5708 11.7803,14.6238 11.5673,14.6238 C11.4233,14.6238 11.3003,14.6728 11.2013,14.7668 C11.1003,14.8638 11.0483,14.9898 11.0483,15.1428 C11.0483,15.2948 11.0993,15.4218 11.1983,15.5208 C11.2983,15.6208 11.4223,15.6718 11.5673,15.6718 C11.8543,15.6718 12.1153,15.7378 12.3443,15.8668 C12.5713,15.9968 12.7553,16.1818 12.8873,16.4158 C13.0213,16.6518 13.0893,16.9268 13.0893,17.2358 C13.0893,17.6868 12.9503,18.0408 12.6663,18.3158 C12.3843,18.5878 11.9903,18.7258 11.4943,18.7258 C11.1923,18.7258 10.9143,18.6558 10.6703,18.5188 C10.4243,18.3818 10.2293,18.1928 10.0903,17.9578 C9.9503,17.7238 9.8793,17.4598 9.8793,17.1728 C9.8793,17.0248 9.8323,16.8958 9.7393,16.7898 C9.5483,16.5718 9.1973,16.5698 9.0023,16.7898 C8.9103,16.8958 8.8633,17.0248 8.8633,17.1728 C8.8633,17.6498 8.9803,18.0878 9.2123,18.4748 C9.4433,18.8628 9.7663,19.1698 10.1713,19.3898 C10.5743,19.6108 11.0303,19.7218 11.5263,19.7218 C12.0073,19.7218 12.4513,19.6138 12.8483,19.4018 C13.2463,19.1878 13.5643,18.8868 13.7923,18.5068 C14.0203,18.1258 14.1363,17.6978 14.1363,17.2358 C14.1363,16.7148 13.9943,16.2458 13.7153,15.8428" id="Fill-8" fill="#484848" mask="url(#mask-2)"></path>
                        </g>
                    </g>
                </g>
            </g>
        </g>
    </g>
</svg>