<?xml version="1.0" encoding="UTF-8"?>
<svg width="24px" height="21px" viewBox="0 0 24 21" version="1.1" xmlns="http://www.w3.org/2000/svg" xmlns:xlink="http://www.w3.org/1999/xlink">
    <!-- Generator: Sketch 47.1 (45422) - http://www.bohemiancoding.com/sketch -->
    <title>Page 1</title>
    <desc>Created with Sketch.</desc>
    <defs></defs>
    <g id="1.27.Resultado-búsqueda-(eventos)" stroke="none" stroke-width="1" fill="none" fill-rule="evenodd" stroke-linecap="round" stroke-linejoin="round">
        <g id="Resultado-búsqueda" transform="translate(-529.000000, -846.000000)" stroke="#FFFFFF">
            <g id="Page-1" transform="translate(529.000000, 847.000000)">
                <path d="M7.2755,19.3418 L11.5895,19.3418 C11.5895,19.3418 10.3055,10.0318 2.5485,14.6848 C2.5485,14.6848 7.2755,13.3828 7.2755,19.3418 Z" id="Stroke-1"></path>
                <path d="M0.7999,14.2852 C0.3999,14.6852 0.3999,15.3332 0.7999,15.7332 C1.1999,16.1342 1.8489,16.1342 2.2489,15.7332 C2.6489,15.3332 2.6489,14.6852 2.2489,14.2852 C1.8489,13.8852 1.1999,13.8852 0.7999,14.2852 Z" id="Stroke-3"></path>
                <path d="M5.9445,0.7998 C5.5445,1.1998 5.5445,1.8488 5.9445,2.2488 C6.3445,2.6488 6.9925,2.6488 7.3935,2.2488 C7.7935,1.8488 7.7935,1.1998 7.3935,0.7998 C6.9925,0.3998 6.3445,0.3998 5.9445,0.7998 Z" id="Stroke-5"></path>
                <path d="M15.9035,19.3418 L11.5895,19.3418 C11.5895,19.3418 12.8735,10.0318 20.6305,14.6848 C20.6305,14.6848 15.9035,13.3828 15.9035,19.3418 Z" id="Stroke-7"></path>
                <path d="M22.379,14.2852 C22.779,14.6852 22.779,15.3332 22.379,15.7332 C21.979,16.1342 21.33,16.1342 20.93,15.7332 C20.53,15.3332 20.53,14.6852 20.93,14.2852 C21.33,13.8852 21.979,13.8852 22.379,14.2852 Z" id="Stroke-9"></path>
                <path d="M7.9054,13.6348 C7.9054,13.6348 11.2924,7.6298 7.4034,2.3058 C7.4034,2.3058 15.1814,4.4048 15.1814,13.6698" id="Stroke-11"></path>
                <path d="M7.069,5.5938 C7.069,5.5938 8.25,8.3658 6.669,11.1378" id="Stroke-13"></path>
            </g>
        </g>
    </g>
</svg>