<?xml version="1.0" encoding="UTF-8"?>
<svg width="24px" height="23px" viewBox="0 0 24 23" version="1.1" xmlns="http://www.w3.org/2000/svg" xmlns:xlink="http://www.w3.org/1999/xlink">
    <!-- Generator: Sketch 47.1 (45422) - http://www.bohemiancoding.com/sketch -->
    <title>Page 1</title>
    <desc>Created with Sketch.</desc>
    <defs></defs>
    <g id="1.26.Eventos" stroke="none" stroke-width="1" fill="none" fill-rule="evenodd" stroke-linecap="round" stroke-linejoin="round">
        <g id="Eventos" transform="translate(-278.000000, -638.000000)" stroke="#484848">
            <g id="Group-21" transform="translate(235.000000, 596.000000)">
                <g id="Group-23" transform="translate(23.000000, 18.000000)">
                    <g id="Page-1" transform="translate(20.000000, 23.000000)">
                        <polygon id="Stroke-1" points="0.5 15.1362 5.878 15.1362 5.878 9.7582 0.5 9.7582"></polygon>
                        <polygon id="Stroke-3" points="8.759 15.1362 14.137 15.1362 14.137 9.7582 8.759 9.7582"></polygon>
                        <g id="Group-12" transform="translate(0.000000, 0.895200)">
                            <polygon id="Stroke-4" points="17.217 14.241 22.595 14.241 22.595 8.863 17.217 8.863"></polygon>
                            <polygon id="Stroke-6" points="0.5 5.983 5.878 5.983 5.878 0.605 0.5 0.605"></polygon>
                            <polygon id="Stroke-7" points="8.759 5.983 14.137 5.983 14.137 0.605 8.759 0.605"></polygon>
                            <polygon id="Stroke-8" points="17.217 5.983 22.595 5.983 22.595 0.605 17.217 0.605"></polygon>
                            <polygon id="Stroke-9" points="0.5 22.5 5.878 22.5 5.878 17.122 0.5 17.122"></polygon>
                            <polygon id="Stroke-10" points="8.759 22.5 14.137 22.5 14.137 17.122 8.759 17.122"></polygon>
                            <polygon id="Stroke-11" points="17.217 22.5 22.595 22.5 22.595 17.122 17.217 17.122"></polygon>
                        </g>
                        <polyline id="Stroke-13" points="10.4886 11.9779 11.6976 13.1869 16.2466 8.6389"></polyline>
                    </g>
                </g>
            </g>
        </g>
    </g>
</svg>