<?xml version="1.0" encoding="UTF-8"?>
<svg width="17px" height="17px" viewBox="0 0 17 17" version="1.1" xmlns="http://www.w3.org/2000/svg" xmlns:xlink="http://www.w3.org/1999/xlink">
    <!-- Generator: Sketch 48.2 (47327) - http://www.bohemiancoding.com/sketch -->
    <title>Page 1</title>
    <desc>Created with Sketch.</desc>
    <defs></defs>
    <g id="movil-home-nav-1" stroke="none" stroke-width="1" fill="none" fill-rule="evenodd" transform="translate(-285.000000, -19.000000)">
        <g id="Page-1" transform="translate(286.000000, 20.000000)" fill="#1D1D1D" fill-rule="nonzero">
            <path d="M-0.707206781,0.707206781 C-1.09773107,0.316682489 -1.09773107,-0.316482489 -0.707206781,-0.707006781 C-0.316682489,-1.09753107 0.316482489,-1.09753107 0.707006781,-0.707006781 L14.8490068,13.4349932 C15.2395311,13.8255175 15.2395311,14.4586825 14.8490068,14.8492068 C14.4584825,15.2397311 13.8253175,15.2397311 13.4347932,14.8492068 L-0.707206781,0.707206781 Z" id="Stroke-1"></path>
            <path d="M13.4348932,-0.707006781 C13.8254175,-1.09753107 14.4585825,-1.09753107 14.8491068,-0.707006781 C15.2396311,-0.316482489 15.2396311,0.316682489 14.8491068,0.707206781 L0.707106781,14.8492068 C0.316582489,15.2397311 -0.316582489,15.2397311 -0.707106781,14.8492068 C-1.09763107,14.4586825 -1.09763107,13.8255175 -0.707106781,13.4349932 L13.4348932,-0.707006781 Z" id="Stroke-3"></path>
        </g>
    </g>
</svg>