<?xml version="1.0" encoding="UTF-8"?>
<svg width="91px" height="89px" viewBox="0 0 91 89" version="1.1" xmlns="http://www.w3.org/2000/svg" xmlns:xlink="http://www.w3.org/1999/xlink">
    <!-- Generator: Sketch 47.1 (45422) - http://www.bohemiancoding.com/sketch -->
    <title>Page 1</title>
    <desc>Created with Sketch.</desc>
    <defs></defs>
    <g id="1.11.Diversion" stroke="none" stroke-width="1" fill="none" fill-rule="evenodd" stroke-linecap="round" stroke-linejoin="round">
        <g id="Diversion" transform="translate(-197.000000, -1939.000000)" stroke="#FFFFFF" stroke-width="4">
            <g id="Page-1" transform="translate(197.000000, 1939.000000)">
                <polygon id="Stroke-1" points="2 36.5604 88.792 36.5604 88.792 20.2044 2 20.2044"></polygon>
                <polygon id="Stroke-3" points="6.16 86.4644 84.636 86.4644 84.636 36.5564 6.16 36.5564"></polygon>
                <path d="M45.3972,86.4648 L45.3972,20.2008" id="Stroke-4"></path>
                <path d="M45.3208,20.346 L45.3208,10.286 C45.3208,8.17 46.1608,6.134 47.6608,4.638 L47.9608,4.342 C51.0768,1.222 56.1368,1.222 59.2568,4.342 C62.3768,7.458 62.3768,12.518 59.2568,15.638 L56.8888,18.006 C55.3888,19.506 53.3568,20.346 51.2368,20.346 L45.3208,20.346" id="Stroke-5"></path>
                <path d="M45.4732,20.346 L45.4732,10.286 C45.4732,8.17 44.6332,6.134 43.1332,4.638 L42.8332,4.342 C39.7172,1.222 34.6572,1.222 31.5372,4.342 C28.4172,7.458 28.4172,12.518 31.5372,15.638 L33.9052,18.006 C35.4052,19.506 37.4372,20.346 39.5572,20.346 L45.4732,20.346" id="Stroke-6"></path>
            </g>
        </g>
    </g>
</svg>