<?xml version="1.0" encoding="UTF-8"?>
<svg width="42px" height="35px" viewBox="0 0 42 35" version="1.1" xmlns="http://www.w3.org/2000/svg" xmlns:xlink="http://www.w3.org/1999/xlink">
    <!-- Generator: Sketch 48.2 (47327) - http://www.bohemiancoding.com/sketch -->
    <title>Page 1</title>
    <desc>Created with Sketch.</desc>
    <defs></defs>
    <g id="Experiencia" stroke="none" stroke-width="1" fill="none" fill-rule="evenodd" transform="translate(-29.000000, -101.000000)" stroke-linecap="round" stroke-linejoin="round">
        <g id="Page-1" transform="translate(30.000000, 102.000000)" stroke="#2E98CE" stroke-width="2">
            <path d="M19.851,13.783 L19.851,16.289 L7.26,16.289 C6.382,16.289 5.67,17.001 5.67,17.879" id="Stroke-1"></path>
            <path d="M19.6722,13.783 L19.6722,16.289 L32.2632,16.289 C33.1412,16.289 33.8532,17.001 33.8532,17.879" id="Stroke-3"></path>
            <path d="M9.1259,32.7986 L1.7679,32.7986 C0.7949,32.7986 -0.0001,32.0036 -0.0001,31.0316 L-0.0001,23.6736 C-0.0001,22.7006 0.7949,21.9056 1.7679,21.9056 L9.1259,21.9056 C10.0979,21.9056 10.8929,22.7006 10.8929,23.6736 L10.8929,31.0316 C10.8929,32.0036 10.0979,32.7986 9.1259,32.7986 Z" id="Stroke-5"></path>
            <path d="M38.0238,32.7986 L30.6658,32.7986 C29.6928,32.7986 28.8978,32.0036 28.8978,31.0316 L28.8978,23.6736 C28.8978,22.7006 29.6928,21.9056 30.6658,21.9056 L38.0238,21.9056 C38.9958,21.9056 39.7908,22.7006 39.7908,23.6736 L39.7908,31.0316 C39.7908,32.0036 38.9958,32.7986 38.0238,32.7986 Z" id="Stroke-7"></path>
            <path d="M18.9877,28.8255 L20.7147,28.8255" id="Stroke-9"></path>
            <path d="M23.4242,28.8255 L25.1512,28.8255" id="Stroke-11"></path>
            <path d="M14.5511,28.8255 L16.2781,28.8255" id="Stroke-13"></path>
            <path d="M23.3392,10.8929 L15.9812,10.8929 C15.0082,10.8929 14.2142,10.0979 14.2142,9.1259 L14.2142,1.7679 C14.2142,0.7949 15.0082,-0.0001 15.9812,-0.0001 L23.3392,-0.0001 C24.3112,-0.0001 25.1062,0.7949 25.1062,1.7679 L25.1062,9.1259 C25.1062,10.0979 24.3112,10.8929 23.3392,10.8929 Z" id="Stroke-15"></path>
        </g>
    </g>
</svg>