<?xml version="1.0" encoding="UTF-8"?>
<svg width="40px" height="37px" viewBox="0 0 40 37" version="1.1" xmlns="http://www.w3.org/2000/svg" xmlns:xlink="http://www.w3.org/1999/xlink">
    <!-- Generator: Sketch 48.2 (47327) - http://www.bohemiancoding.com/sketch -->
    <title>Page 1</title>
    <desc>Created with Sketch.</desc>
    <defs></defs>
    <g id="Menú" stroke="none" stroke-width="1" fill="none" fill-rule="evenodd" transform="translate(-31.000000, -500.000000)">
        <g id="Group-28" transform="translate(31.000000, 500.000000)">
            <g id="Page-1">
                <g id="Group-14" transform="translate(0.000000, 0.166400)">
                    <path d="M23.0994,4.21 L34.0404,4.21" id="Stroke-1" stroke="#2E98CE" stroke-width="1.678" stroke-linecap="round" stroke-linejoin="round"></path>
                    <path d="M38.4617,32.5083 L38.4617,3.3253 C38.4617,1.8603 37.2747,0.6723 35.8087,0.6723 C35.0247,0.6723 34.5257,1.0163 34.0407,1.5563 L34.0407,30.7393 C34.5257,30.1983 35.0247,29.8553 35.8087,29.8553 C37.2747,29.8553 38.4617,31.0433 38.4617,32.5083 C38.4617,33.9733 37.2747,35.1613 35.8087,35.1613 L16.7567,35.1613 L0.8387,35.1613 L0.8387,4.2103 L23.0997,4.2103" id="Stroke-2" stroke="#2E98CE" stroke-width="1.678" stroke-linecap="round" stroke-linejoin="round"></path>
                    <path d="M10.0896,20.856 C10.0896,19.263 8.7986,17.972 7.2066,17.972 C5.6136,17.972 4.3226,19.263 4.3226,20.856 C4.3226,21.623 4.6996,22.286 5.0066,22.964 C5.2496,23.497 5.4906,24.03 5.7336,24.563 C6.0906,25.352 6.4496,26.141 6.8076,26.93 C6.8106,26.937 6.8156,26.945 6.8186,26.953 C6.9466,27.32 7.4656,27.32 7.5946,26.953 C7.9316,26.211 8.2686,25.469 8.6046,24.727 C8.9046,24.067 9.2036,23.408 9.5036,22.748 C9.7836,22.131 10.0896,21.551 10.0896,20.856 Z" id="Stroke-4" stroke="#2E98CE" stroke-width="1.678" stroke-linecap="round" stroke-linejoin="round"></path>
                    <path d="M7.6926,20.9067 C7.6926,21.1757 7.4746,21.3927 7.2066,21.3927 C6.9376,21.3927 6.7196,21.1757 6.7196,20.9067 C6.7196,20.6377 6.9376,20.4207 7.2066,20.4207 C7.4746,20.4207 7.6926,20.6377 7.6926,20.9067 Z" id="Stroke-6" stroke="#2E98CE" stroke-width="1.678" stroke-linecap="round" stroke-linejoin="round"></path>
                    <path d="M6.0769,29.4043 L8.3359,31.6633" id="Stroke-8" stroke="#2E98CE" stroke-width="1.678" stroke-linecap="round" stroke-linejoin="round"></path>
                    <path d="M8.3357,29.4043 L6.0767,31.6633" id="Stroke-10" stroke="#2E98CE" stroke-width="1.678" stroke-linecap="round" stroke-linejoin="round"></path>
                    <path d="M29.446,10.5918 C29.215,10.5918 28.986,10.4968 28.819,10.3108 C28.511,9.9658 28.542,9.4338 28.888,9.1258 C29.343,8.7208 29.932,8.4968 30.544,8.4968 L33.397,8.4968 C33.861,8.4968 34.236,8.8718 34.236,9.3358 C34.236,9.7998 33.861,10.1748 33.397,10.1748 L30.544,10.1748 C30.344,10.1748 30.152,10.2478 30.004,10.3798 C29.844,10.5228 29.645,10.5918 29.446,10.5918 M28.696,17.1108 C28.563,17.1108 28.426,17.0788 28.3,17.0108 C27.892,16.7918 27.738,16.2828 27.958,15.8748 C28.021,15.7578 28.052,15.6298 28.052,15.4948 L28.052,12.9478 C28.052,12.4848 28.427,12.1098 28.891,12.1098 C29.355,12.1098 29.73,12.4848 29.73,12.9478 L29.73,15.4928 C29.731,15.9008 29.63,16.3088 29.436,16.6698 C29.284,16.9508 28.995,17.1108 28.696,17.1108 M25.668,17.9848 L22.313,17.9848 C21.849,17.9848 21.473,17.6088 21.473,17.1448 C21.473,16.6818 21.849,16.3058 22.313,16.3058 L25.668,16.3058 C26.132,16.3058 26.507,16.6818 26.507,17.1448 C26.507,17.6088 26.132,17.9848 25.668,17.9848 M18.325,21.4158 C17.862,21.4158 17.486,21.0408 17.486,20.5768 L17.486,18.7978 C17.486,17.9918 17.879,17.2328 18.535,16.7668 C18.913,16.4978 19.437,16.5878 19.705,16.9648 C19.972,17.3428 19.884,17.8658 19.507,18.1348 C19.292,18.2868 19.164,18.5348 19.164,18.7978 L19.164,20.5768 C19.164,21.0408 18.789,21.4158 18.325,21.4158 M19.134,27.8368 C18.988,27.8368 18.842,27.7998 18.708,27.7198 C17.954,27.2728 17.486,26.4508 17.486,25.5758 L17.486,23.9328 C17.486,23.4688 17.862,23.0938 18.325,23.0938 C18.789,23.0938 19.164,23.4688 19.164,23.9328 L19.164,25.5758 C19.164,25.8658 19.313,26.1278 19.563,26.2758 C19.962,26.5128 20.093,27.0278 19.857,27.4248 C19.7,27.6898 19.421,27.8368 19.134,27.8368 M25.807,28.0728 C25.782,28.0728 25.758,28.0718 25.733,28.0698 L25.806,27.2338 L25.807,28.0728 L22.45,28.0668 C21.987,28.0668 21.611,27.6918 21.611,27.2278 C21.611,26.7638 21.987,26.3888 22.45,26.3888 L25.663,26.3888 C25.688,26.3888 25.855,26.3958 25.879,26.3978 C26.341,26.4388 26.682,26.8448 26.641,27.3068 C26.603,27.7428 26.237,28.0728 25.807,28.0728 M13.936,31.3728 L11.302,31.3728 C10.838,31.3728 10.463,30.9978 10.463,30.5338 C10.463,30.0708 10.838,29.6948 11.302,29.6948 L13.936,29.6948 C14.4,29.6948 14.775,30.0708 14.775,30.5338 C14.775,30.9978 14.4,31.3728 13.936,31.3728 M20.648,31.3728 L17.292,31.3728 C16.828,31.3728 16.453,30.9978 16.453,30.5338 C16.453,30.0708 16.828,29.6948 17.292,29.6948 L20.648,29.6948 C21.112,29.6948 21.487,30.0708 21.487,30.5338 C21.487,30.9978 21.112,31.3728 20.648,31.3728 M25.663,31.3728 L24.004,31.3728 C23.54,31.3728 23.164,30.9978 23.164,30.5338 C23.164,30.0708 23.54,29.6948 24.004,29.6948 L25.663,29.6948 C25.95,29.6948 26.21,29.5488 26.358,29.3028 C26.599,28.9068 27.114,28.7828 27.511,29.0208 C27.907,29.2618 28.033,29.7768 27.793,30.1738 C27.338,30.9248 26.542,31.3728 25.663,31.3728" id="Fill-12" fill="#2E98CE"></path>
                </g>
            </g>
        </g>
    </g>
</svg>