<?xml version="1.0" encoding="UTF-8"?>
<svg width="37px" height="37px" viewBox="0 0 37 37" version="1.1" xmlns="http://www.w3.org/2000/svg" xmlns:xlink="http://www.w3.org/1999/xlink">
    <!-- Generator: Sketch 48.2 (47327) - http://www.bohemiancoding.com/sketch -->
    <title>Page 1</title>
    <desc>Created with Sketch.</desc>
    <defs></defs>
    <g id="Menú" stroke="none" stroke-width="1" fill="none" fill-rule="evenodd" transform="translate(-32.000000, -300.000000)" stroke-linecap="round" stroke-linejoin="round">
        <g id="Group-6" transform="translate(18.000000, 300.000000)" stroke="#2E98CE" stroke-width="1.678">
            <g id="Page-1" transform="translate(14.000000, 0.000000)">
                <path d="M35.3276,18.0834 C35.3276,27.6064 27.6066,35.3274 18.0826,35.3274 C8.5596,35.3274 0.8386,27.6064 0.8386,18.0834 C0.8386,8.5594 8.5596,0.8384 18.0826,0.8384 C27.6066,0.8384 35.3276,8.5594 35.3276,18.0834 Z" id="Stroke-1"></path>
                <path d="M7.6992,15.4208 C7.6992,13.3498 9.3782,11.6708 11.4492,11.6708 C13.5212,11.6708 15.2002,13.3498 15.2002,15.4208" id="Stroke-3"></path>
                <path d="M20.9663,15.4208 C20.9663,13.3498 22.6453,11.6708 24.7163,11.6708 C26.7883,11.6708 28.4673,13.3498 28.4673,15.4208" id="Stroke-5"></path>
                <path d="M9.8486,24.5731 L26.3176,24.5731 C22.1006,29.8591 14.0656,29.8591 9.8486,24.5731 Z" id="Stroke-7"></path>
            </g>
        </g>
    </g>
</svg>