<?xml version="1.0" encoding="UTF-8"?>
<svg width="37px" height="37px" viewBox="0 0 37 37" version="1.1" xmlns="http://www.w3.org/2000/svg" xmlns:xlink="http://www.w3.org/1999/xlink">
    <!-- Generator: Sketch 48.2 (47327) - http://www.bohemiancoding.com/sketch -->
    <title>Page 1</title>
    <desc>Created with Sketch.</desc>
    <defs></defs>
    <g id="Menú" stroke="none" stroke-width="1" fill="none" fill-rule="evenodd" transform="translate(-32.000000, -401.000000)" stroke-linecap="round" stroke-linejoin="round">
        <g id="Group-29" transform="translate(30.000000, 401.000000)" stroke="#2E98CE" stroke-width="1.571">
            <g id="Page-1" transform="translate(2.000000, 0.000000)">
                <polyline id="Stroke-1" points="29.2501911 35.3543 0.786 35.3543 0.786 13.3563"></polyline>
                <path d="M35.3547,13.3563 L35.3547,28.9913" id="Stroke-3"></path>
                <polygon id="Stroke-6" points="0.786 13.3563 35.355 13.3563 35.355 3.9283 0.786 3.9283"></polygon>
                <path d="M18.07,0.7855 L18.07,7.0715" id="Stroke-8"></path>
                <path d="M8.6423,0.7855 L8.6423,7.0715" id="Stroke-9"></path>
                <path d="M27.4982,0.7855 L27.4982,7.0715" id="Stroke-10"></path>
                <path d="M6.675,19.3167 L10.61,19.3167" id="Stroke-12"></path>
                <path d="M16.1027,19.3167 L20.0377,19.3167" id="Stroke-13"></path>
                <path d="M25.5305,19.3167 L29.4655,19.3167" id="Stroke-14"></path>
                <path d="M6.675,24.1536 L10.61,24.1536" id="Stroke-15"></path>
                <path d="M16.1027,24.1536 L20.0377,24.1536" id="Stroke-16"></path>
                <path d="M25.5305,24.1536 L29.4655,24.1536" id="Stroke-17"></path>
                <path d="M6.675,28.991 L10.61,28.991" id="Stroke-18"></path>
                <path d="M16.1027,28.991 L20.0377,28.991" id="Stroke-19"></path>
                <polygon id="Stroke-20" points="35.3547 28.991 28.9857 35.36 28.9857 28.991"></polygon>
            </g>
        </g>
    </g>
</svg>