<?xml version="1.0" encoding="UTF-8"?>
<svg width="37px" height="37px" viewBox="0 0 37 37" version="1.1" xmlns="http://www.w3.org/2000/svg" xmlns:xlink="http://www.w3.org/1999/xlink">
    <!-- Generator: Sketch 48.2 (47327) - http://www.bohemiancoding.com/sketch -->
    <title>Page 1</title>
    <desc>Created with Sketch.</desc>
    <defs>
        <polygon id="path-1" points="0 37 36.636 37 36.636 0.488 0 0.488"></polygon>
    </defs>
    <g id="Menú" stroke="none" stroke-width="1" fill="none" fill-rule="evenodd" transform="translate(-32.000000, -200.000000)">
        <g id="Group-9" transform="translate(30.000000, 199.000000)">
            <g id="Page-1" transform="translate(2.000000, 0.000000)">
                <g id="Group-16" transform="translate(0.000000, 0.512500)">
                    <path d="M27.2596,20.3736 L27.2596,32.2486" id="Stroke-1" stroke="#2E98CE" stroke-width="2" stroke-linecap="round" stroke-linejoin="round"></path>
                    <path d="M3.2508,36.0001 L28.0098,36.0001 C29.2528,36.0001 30.2608,34.9921 30.2608,33.7491 C30.2608,33.0841 29.9688,32.6611 29.5098,32.2491 L4.7508,32.2491 C5.2098,32.6611 5.5018,33.0841 5.5018,33.7491 C5.5018,34.9921 4.4938,36.0001 3.2508,36.0001 C2.0078,36.0001 0.9998,34.9921 0.9998,33.7491 L0.9998,14.9921 L0.9998,1.4871 L27.2598,1.4871 L27.2598,7.2375" id="Stroke-2" stroke="#2E98CE" stroke-width="2" stroke-linecap="round" stroke-linejoin="round"></path>
                    <mask id="mask-2" fill="white">
                        <use xlink:href="#path-1"></use>
                    </mask>
                    <g id="Clip-5"></g>
                    <polygon id="Stroke-4" stroke="#2E98CE" stroke-width="2" stroke-linecap="round" stroke-linejoin="round" mask="url(#mask-2)" points="6.726 8.387 8.628 8.387 8.628 6.485 6.726 6.485"></polygon>
                    <path d="M12.2415,8.3868 L20.4205,8.3868" id="Stroke-6" stroke="#2E98CE" stroke-width="2" stroke-linecap="round" stroke-linejoin="round" mask="url(#mask-2)"></path>
                    <polygon id="Stroke-7" stroke="#2E98CE" stroke-width="2" stroke-linecap="round" stroke-linejoin="round" mask="url(#mask-2)" points="6.726 14.235 8.628 14.235 8.628 12.333 6.726 12.333"></polygon>
                    <path d="M12.2415,14.2354 L20.4205,14.2354" id="Stroke-8" stroke="#2E98CE" stroke-width="2" stroke-linecap="round" stroke-linejoin="round" mask="url(#mask-2)"></path>
                    <polygon id="Stroke-9" stroke="#2E98CE" stroke-width="2" stroke-linecap="round" stroke-linejoin="round" mask="url(#mask-2)" points="6.726 20.085 8.628 20.085 8.628 18.183 6.726 18.183"></polygon>
                    <path d="M12.2415,20.0845 L20.4205,20.0845" id="Stroke-10" stroke="#2E98CE" stroke-width="2" stroke-linecap="round" stroke-linejoin="round" mask="url(#mask-2)"></path>
                    <polygon id="Stroke-11" stroke="#2E98CE" stroke-width="2" stroke-linecap="round" stroke-linejoin="round" mask="url(#mask-2)" points="6.726 25.933 8.628 25.933 8.628 24.031 6.726 24.031"></polygon>
                    <path d="M12.2415,25.9332 L17.8485,25.9332" id="Stroke-12" stroke="#2E98CE" stroke-width="2" stroke-linecap="round" stroke-linejoin="round" mask="url(#mask-2)"></path>
                    <path d="M20.5443,23.107 L19.7093,25.933 L22.5353,25.098 L35.2243,12.409 C35.7733,11.859 35.7733,10.968 35.2243,10.419 C34.6743,9.869 33.7823,9.869 33.2323,10.419 L20.5443,23.107 Z" id="Stroke-13" stroke="#2E98CE" stroke-width="2" stroke-linecap="round" stroke-linejoin="round" mask="url(#mask-2)"></path>
                    <path d="M22.535,25.0982 L20.544,23.1072" id="Stroke-14" stroke="#2E98CE" stroke-width="2" stroke-linecap="round" stroke-linejoin="round" mask="url(#mask-2)"></path>
                    <path d="M32.1942,11.4571 L34.1692,13.4641" id="Stroke-15" stroke="#2E98CE" stroke-width="2" stroke-linecap="round" stroke-linejoin="round" mask="url(#mask-2)"></path>
                </g>
            </g>
        </g>
    </g>
</svg>