<?xml version="1.0" encoding="UTF-8"?>
<svg width="34px" height="37px" viewBox="0 0 34 37" version="1.1" xmlns="http://www.w3.org/2000/svg" xmlns:xlink="http://www.w3.org/1999/xlink">
    <!-- Generator: Sketch 48.2 (47327) - http://www.bohemiancoding.com/sketch -->
    <title>Page 1</title>
    <desc>Created with Sketch.</desc>
    <defs></defs>
    <g id="Mi-cuenta" stroke="none" stroke-width="1" fill="none" fill-rule="evenodd" transform="translate(-1387.000000, -22.000000)" stroke-linecap="round" stroke-linejoin="round">
        <g id="Page-1" transform="translate(1388.000000, 22.000000)" stroke="#FFFFFF" stroke-width="2">
            <path d="M18.9344,29.4014 L23.6674,29.4014" id="Stroke-1"></path>
            <g id="Group-8" transform="translate(0.000000, 0.712800)">
                <path d="M10.723,20.6524 L1.532,26.1914 C0.582,26.7614 0,27.7894 0,28.8974 L0,35.0004 L31.557,35.0004 L31.557,28.8974 C31.557,27.7874 30.975,26.7604 30.025,26.1914 L20.834,20.6524" id="Stroke-2"></path>
                <path d="M6.3163,9.4322 C7.3103,9.7252 8.3553,9.9212 9.4433,9.9212 C12.5363,9.9212 15.3273,8.6462 17.3333,6.5992 C19.3383,8.6462 22.1513,9.9212 25.2443,9.9212" id="Stroke-4"></path>
                <path d="M6.3114,9.7545 C6.3114,4.5255 10.5494,0.2875 15.7784,0.2875 C21.0074,0.2875 25.2454,4.5255 25.2454,9.7545 C25.2454,17.6435 21.0074,22.3775 15.7784,22.3775 C10.5494,22.3775 6.3114,17.6435 6.3114,9.7545 Z" id="Stroke-6"></path>
            </g>
        </g>
    </g>
</svg>