<?xml version="1.0" encoding="UTF-8"?>
<svg width="40px" height="33px" viewBox="0 0 40 33" version="1.1" xmlns="http://www.w3.org/2000/svg" xmlns:xlink="http://www.w3.org/1999/xlink">
    <!-- Generator: Sketch 47.1 (45422) - http://www.bohemiancoding.com/sketch -->
    <title>Page 1</title>
    <desc>Created with Sketch.</desc>
    <defs></defs>
    <g id="1.28.n.Eventos" stroke="none" stroke-width="1" fill="none" fill-rule="evenodd" stroke-linecap="round" stroke-linejoin="round">
        <g id="Evento" transform="translate(-687.000000, -972.000000)" stroke="#FFFFFF" stroke-width="1.7">
            <g id="Group-13" transform="translate(455.000000, 968.000000)">
                <g id="Group-16" transform="translate(224.000000, 4.000000)">
                    <g id="Page-1" transform="translate(8.000000, 0.000000)">
                        <path d="M7.1715913,15.3421474 L7.93124348,12.1488842 C8.32124348,10.5050947 7.2495913,8.87309474 5.57937391,8.56488421 L2.80528696,8.04951579 C1.44198261,7.79856842 0.5772,6.4512 0.924808696,5.11730526 L1.57254783,2.62635789 C1.88624348,1.41709474 3.08846087,0.655831579 4.3245913,0.881515789 L26.6817652,5.09035789 L35.448287,6.58256842 L37.2965478,6.92109474 C37.9069826,7.03393684 38.3054609,7.62341053 38.1748957,8.22804211 C38.1070696,8.54635789 37.8985043,8.81751579 37.6085478,8.96741053 L31.2498522,12.2684632 C30.7309826,12.5379368 30.3070696,12.9589895 30.0340696,13.4760421 L27.8805913,17.5602526 C27.4990696,18.2844632 27.4482,19.1366737 27.7398522,19.9029895 C28.1281565,20.9202526 27.9026348,22.0688842 27.1548522,22.8655158 L22.4816348,27.8507789 C21.7525043,28.6288842 20.7300261,29.0701474 19.6600696,29.0701474 L15.3717652,29.0701474 C14.9376783,29.0701474 14.5154609,29.2048842 14.1661565,29.4592 L12.0499826,30.9834105 C11.4768522,31.3960421 10.7290696,31.4869895 10.0711565,31.2208842 C9.56585217,31.0170947 9.16398261,30.6229895 8.95202609,30.1227789 L8.27206957,28.5194105 C8.03467826,27.9602526 7.55989565,27.5358316 6.9765913,27.3589895 L6.33733043,27.1653053 C5.30128696,26.8520421 4.68746087,25.7926737 4.93672174,24.7450947 L5.46746087,22.5118316" id="Stroke-1"></path>
                        <path d="M14.389813,20.2558316 C14.389813,18.4318316 12.9010304,16.9530947 11.0629435,16.9530947 C9.22655217,16.9530947 7.73776957,18.4318316 7.73776957,20.2558316 C7.73776957,21.1349895 8.17185652,21.8945684 8.52624783,22.6709895 C8.80603043,23.2823579 9.08581304,23.8937263 9.3639,24.5034105 C9.77763913,25.4078316 10.1896826,26.3122526 10.6034217,27.2149895 C10.606813,27.2250947 10.6119,27.2335158 10.6152913,27.2419368 C10.762813,27.6629895 11.3630739,27.6629895 11.5105957,27.2419368 C11.9005957,26.3930947 12.2889,25.5425684 12.6772043,24.6920421 C13.0231174,23.9358316 13.3673348,23.1796211 13.7132478,22.4234105 C14.0371174,21.7177263 14.389813,21.0524632 14.389813,20.2558316 Z" id="Stroke-3"></path>
                        <path d="M11.6243739,20.3141053 C11.6243739,20.6223158 11.3734174,20.8715789 11.063113,20.8715789 C10.7528087,20.8715789 10.5018522,20.6223158 10.5018522,20.3141053 C10.5018522,20.0058947 10.7528087,19.7566316 11.063113,19.7566316 C11.3734174,19.7566316 11.6243739,20.0058947 11.6243739,20.3141053 Z" id="Stroke-5"></path>
                    </g>
                </g>
            </g>
        </g>
    </g>
</svg>