<?xml version="1.0" encoding="UTF-8"?>
<svg width="42px" height="37px" viewBox="0 0 42 37" version="1.1" xmlns="http://www.w3.org/2000/svg" xmlns:xlink="http://www.w3.org/1999/xlink">
    <!-- Generator: Sketch 48.2 (47327) - http://www.bohemiancoding.com/sketch -->
    <title>Page 1</title>
    <desc>Created with Sketch.</desc>
    <defs>
        <polygon id="path-1" points="0 36.6366 41.965 36.6366 41.965 -0.0004 0 -0.0004"></polygon>
    </defs>
    <g id="Dashboard" stroke="none" stroke-width="1" fill="none" fill-rule="evenodd" transform="translate(-121.000000, -22.000000)">
        <g id="Group-3" transform="translate(121.000000, 22.000000)">
            <g id="Page-1">
                <polyline id="Stroke-1" stroke="#FFFFFF" stroke-width="2" stroke-linecap="round" stroke-linejoin="round" points="40.9653 10.3255 34.3043 18.9845 31.408498 16.088698"></polyline>
                <polyline id="Stroke-3" stroke="#FFFFFF" stroke-width="2" stroke-linecap="round" stroke-linejoin="round" points="0.9999 22.3148 5.6629 17.6518 8.9929 20.9828 14.3219 13.6558 20.3169 20.3168 24.0199 16.0098"></polyline>
                <mask id="mask-2" fill="white">
                    <use xlink:href="#path-1"></use>
                </mask>
                <g id="Clip-6"></g>
                <polygon id="Stroke-5" stroke="#FFFFFF" stroke-width="2" stroke-linecap="round" stroke-linejoin="round" mask="url(#mask-2)" points="1 35.6366 40.965 35.6366 40.965 0.9996 1 0.9996"></polygon>
                <path d="M27.5321,22.3148 L27.5321,35.6368" id="Stroke-7" stroke="#FFFFFF" stroke-width="2" stroke-linecap="round" stroke-linejoin="round" mask="url(#mask-2)"></path>
                <path d="M27.5321,0.9999 L27.5321,10.3249" id="Stroke-8" stroke="#FFFFFF" stroke-width="2" stroke-linecap="round" stroke-linejoin="round" mask="url(#mask-2)"></path>
                <path d="M27.6434,18.3182 C29.8514,18.3182 31.6404,16.5292 31.6404,14.3212 C31.6404,12.1142 29.8514,10.3252 27.6434,10.3252 C25.4364,10.3252 23.6464,12.1142 23.6464,14.3212 C23.6464,16.5292 25.4364,18.3182 27.6434,18.3182 Z" id="Stroke-9" stroke="#FFFFFF" stroke-width="2" stroke-linecap="round" stroke-linejoin="round" mask="url(#mask-2)"></path>
            </g>
        </g>
    </g>
</svg>