<?xml version="1.0" encoding="UTF-8"?>
<svg width="23px" height="23px" viewBox="0 0 23 23" version="1.1" xmlns="http://www.w3.org/2000/svg" xmlns:xlink="http://www.w3.org/1999/xlink">
    <!-- Generator: Sketch 47.1 (45422) - http://www.bohemiancoding.com/sketch -->
    <title>Page 1</title>
    <desc>Created with Sketch.</desc>
    <defs></defs>
    <g id="1.26.Eventos" stroke="none" stroke-width="1" fill="none" fill-rule="evenodd" stroke-linecap="round" stroke-linejoin="round">
        <g id="Eventos" transform="translate(-480.000000, -637.000000)" stroke="#484848">
            <g id="Group-21" transform="translate(235.000000, 596.000000)">
                <g id="Group-23" transform="translate(23.000000, 18.000000)">
                    <g id="Group-8">
                        <g id="Group-19">
                            <g id="Page-1" transform="translate(222.000000, 23.000000)">
                                <g id="Group-11" transform="translate(0.000000, 0.003300)">
                                    <path d="M18.5017374,22.4968 C6.5004458,22.4968 0.4998,22.4968 0.4998,22.4968 C0.4998,22.4968 0.4998,17.8301333 0.4998,8.4968" id="Stroke-1"></path>
                                    <g id="Group-5" transform="translate(22.000000, 8.000000)">
                                        <path d="M0.5,0.4968 L0.5,10.4468" id="Stroke-3"></path>
                                    </g>
                                    <polygon id="Stroke-6" points="0.5 8.497 22.5 8.497 22.5 2.497 0.5 2.497"></polygon>
                                    <path d="M11.5,0.4968 L11.5,4.4968" id="Stroke-8"></path>
                                    <path d="M5.5,0.4968 L5.5,4.4968" id="Stroke-9"></path>
                                    <path d="M17.5,0.4968 L17.5,4.4968" id="Stroke-10"></path>
                                </g>
                                <path d="M4.248,12.2936 L6.752,12.2936" id="Stroke-12"></path>
                                <path d="M10.248,12.2936 L12.752,12.2936" id="Stroke-13"></path>
                                <path d="M16.248,12.2936 L18.752,12.2936" id="Stroke-14"></path>
                                <path d="M4.248,15.3717 L6.752,15.3717" id="Stroke-15"></path>
                                <path d="M10.248,15.3717 L12.752,15.3717" id="Stroke-16"></path>
                                <path d="M16.248,15.3717 L18.752,15.3717" id="Stroke-17"></path>
                                <path d="M4.248,18.4503 L6.752,18.4503" id="Stroke-18"></path>
                                <path d="M10.248,18.4503 L12.752,18.4503" id="Stroke-19"></path>
                                <polygon id="Stroke-20" points="22.5 18.4503 18.447 22.5033 18.447 18.4503"></polygon>
                            </g>
                        </g>
                    </g>
                </g>
            </g>
        </g>
    </g>
</svg>