<?xml version="1.0" encoding="UTF-8"?>
<svg width="56px" height="57px" viewBox="0 0 56 57" version="1.1" xmlns="http://www.w3.org/2000/svg" xmlns:xlink="http://www.w3.org/1999/xlink">
    <!-- Generator: Sketch 47.1 (45422) - http://www.bohemiancoding.com/sketch -->
    <title>Page 1</title>
    <desc>Created with Sketch.</desc>
    <defs></defs>
    <g id="1.2.n.Comarca" stroke="none" stroke-width="1" fill="none" fill-rule="evenodd" stroke-linecap="round" stroke-linejoin="round">
        <g id="Comarca" transform="translate(-920.000000, -4425.000000)" stroke="#CFCFCF" stroke-width="2.7">
            <g id="Page-1" transform="translate(921.000000, 4426.000000)">
                <path d="M17.85815,45.6808286 C17.85815,50.5421143 13.93775,54.4805429 9.10475,54.4805429 C4.26905,54.4805429 0.35135,50.5421143 0.35135,45.6808286" id="Stroke-1"></path>
                <path d="M35.36468,45.6808286 C35.36468,50.5421143 31.44698,54.4805429 26.61128,54.4805429 C21.77558,54.4805429 17.85788,50.5421143 17.85788,45.6808286" id="Stroke-3"></path>
                <path d="M52.87229,45.6808286 C52.87229,50.5421143 48.95189,54.4805429 44.11889,54.4805429 C39.28319,54.4805429 35.36549,50.5421143 35.36549,45.6808286" id="Stroke-5"></path>
                <path d="M51.97994,35.5739143 L31.15754,41.7380571 L19.29914,1.25177143 C30.79844,-2.15194286 42.86744,4.46005714 46.25324,16.0202 L51.97994,35.5739143 Z" id="Stroke-7"></path>
                <path d="M15.2675,14.8204857 C15.6752,18.8756286 12.7376,22.4964857 8.7011,22.9063429 C4.67,23.3162 1.0682,20.3630571 0.6605,16.3052 C0.2501,12.2527714 3.1904,8.63191429 7.2242,8.22205714 C11.258,7.80948571 14.8598,10.7653429 15.2675,14.8204857 Z" id="Stroke-9"></path>
                <path d="M10.17071,22.6026143 L13.73471,34.7517571" id="Stroke-11"></path>
                <path d="M13.73552,34.7506714 L24.25472,36.6452429" id="Stroke-13"></path>
                <path d="M24.25607,36.6460571 L25.87067,43.5294857" id="Stroke-15"></path>
                <path d="M11.95325,28.6766429 L26.02025,24.2089286" id="Stroke-17"></path>
            </g>
        </g>
    </g>
</svg>