<?xml version="1.0" encoding="UTF-8"?>
<svg width="120px" height="87px" viewBox="0 0 120 87" version="1.1" xmlns="http://www.w3.org/2000/svg" xmlns:xlink="http://www.w3.org/1999/xlink">
    <!-- Generator: Sketch 49 (51002) - http://www.bohemiancoding.com/sketch -->
    <title>Page 1</title>
    <desc>Created with Sketch.</desc>
    <defs></defs>
    <g id="Page-1" stroke="none" stroke-width="1" fill="none" fill-rule="evenodd">
        <g id="Movil" transform="translate(-274.000000, -106.000000)" fill="#FFFFFF">
            <g id="Page-1" transform="translate(274.000000, 106.000000)">
                <g id="Group" transform="translate(65.000000, 0.000000)">
                    <path d="M3.575,83.6792 L51.695,83.6792 L51.695,74.6562 L3.575,74.6562 L3.575,83.6792 Z M3.575,12.0232 L51.695,12.0232 L51.695,3.0002 L3.575,3.0002 L3.575,12.0232 Z M3.575,71.6562 L51.695,71.6562 L51.695,15.0232 L3.575,15.0232 L3.575,71.6562 Z M53.195,0.0002 L2.075,0.0002 C1.247,0.0002 0.575,0.6712 0.575,1.5002 L0.575,85.1792 C0.575,86.0082 1.247,86.6792 2.075,86.6792 L53.195,86.6792 C54.023,86.6792 54.695,86.0082 54.695,85.1792 L54.695,1.5002 C54.695,0.6712 54.023,0.0002 53.195,0.0002 Z" id="Fill-1"></path>
                    <path d="M28.5889,77.7563 L26.6809,77.7563 C25.8529,77.7563 25.1809,78.4273 25.1809,79.2563 C25.1809,80.0853 25.8529,80.7563 26.6809,80.7563 L28.5889,80.7563 C29.4169,80.7563 30.0889,80.0853 30.0889,79.2563 C30.0889,78.4273 29.4169,77.7563 28.5889,77.7563" id="Fill-3"></path>
                    <path d="M8.6572,39.8291 C9.0412,39.8291 9.4252,39.6831 9.7182,39.3901 L26.0682,23.0391 C26.6542,22.4541 26.6542,21.5031 26.0682,20.9181 C25.4822,20.3321 24.5332,20.3321 23.9472,20.9181 L7.5962,37.2681 C7.0112,37.8541 7.0112,38.8041 7.5962,39.3901 C7.8892,39.6831 8.2732,39.8291 8.6572,39.8291" id="Fill-4"></path>
                    <path d="M37.4814,20.918 C36.8954,20.332 35.9464,20.332 35.3604,20.918 L7.5964,48.682 C7.0104,49.268 7.0104,50.218 7.5964,50.803 C7.8894,51.096 8.2734,51.243 8.6574,51.243 C9.0414,51.243 9.4244,51.096 9.7174,50.803 L37.4814,23.039 C38.0674,22.454 38.0674,21.503 37.4814,20.918" id="Fill-5"></path>
                </g>
                <path d="M60.4326,8.8784 C60.4216,8.8474 60.4156,8.8154 60.4046,8.7854 C60.3746,8.7164 60.3376,8.6524 60.2986,8.5894 C60.2866,8.5694 60.2796,8.5474 60.2656,8.5274 C60.2106,8.4454 60.1486,8.3694 60.0786,8.3004 L52.2176,0.4394 C51.6316,-0.1466 50.6826,-0.1466 50.0966,0.4394 C49.5106,1.0254 49.5106,1.9754 50.0966,2.5604 L55.3986,7.8614 L54.1256,7.8614 C45.7326,7.8614 38.9036,14.6904 38.9036,23.0834 L38.9036,27.9774 C38.9036,28.8064 39.5756,29.4774 40.4036,29.4774 C41.2316,29.4774 41.9036,28.8064 41.9036,27.9774 L41.9036,23.0834 C41.9036,16.3444 47.3866,10.8614 54.1256,10.8614 L55.3986,10.8614 L50.0966,16.1634 C49.5106,16.7484 49.5106,17.6984 50.0966,18.2844 C50.3896,18.5774 50.7736,18.7234 51.1576,18.7234 C51.5406,18.7234 51.9246,18.5774 52.2176,18.2844 L60.0786,10.4234 C60.1486,10.3544 60.2106,10.2774 60.2656,10.1954 C60.2796,10.1764 60.2866,10.1544 60.2986,10.1344 C60.3376,10.0714 60.3746,10.0074 60.4046,9.9384 C60.4156,9.9084 60.4216,9.8764 60.4326,9.8454 C60.4536,9.7834 60.4766,9.7234 60.4896,9.6584 C60.5086,9.5614 60.5196,9.4624 60.5196,9.3614 C60.5196,9.2614 60.5086,9.1624 60.4896,9.0654 C60.4766,9.0004 60.4536,8.9404 60.4326,8.8784" id="Fill-6"></path>
                <g id="Group-2" transform="translate(0.000000, 32.000000)" opacity="0.5">
                    <path d="M3,51.6792 L12.022,51.6792 L12.022,3.5592 L3,3.5592 L3,51.6792 Z M59.02,51.6792 L15.022,51.6792 L15.022,3.5592 L49.712,3.5592 C50.54,3.5592 51.212,2.8872 51.212,2.0592 C51.212,1.2302 50.54,0.5592 49.712,0.5592 L1.5,0.5592 C0.672,0.5592 0,1.2302 0,2.0592 L0,53.1792 C0,54.0082 0.672,54.6792 1.5,54.6792 L59.02,54.6792 C59.848,54.6792 60.52,54.0082 60.52,53.1792 C60.52,52.3502 59.848,51.6792 59.02,51.6792 Z" id="Fill-7"></path>
                    <path d="M20.918,29.186 C20.332,29.771 20.332,30.722 20.918,31.307 L37.269,47.658 C37.562,47.951 37.945,48.097 38.329,48.097 C38.713,48.097 39.097,47.951 39.39,47.658 C39.976,47.072 39.976,46.122 39.39,45.537 L23.039,29.186 C22.453,28.6 21.504,28.6 20.918,29.186" id="Fill-8"></path>
                    <path d="M49.7422,48.0972 C50.1262,48.0972 50.5102,47.9512 50.8032,47.6582 C51.3882,47.0722 51.3882,46.1222 50.8032,45.5362 L23.0392,17.7722 C22.4532,17.1862 21.5042,17.1862 20.9182,17.7722 C20.3322,18.3582 20.3322,19.3082 20.9182,19.8932 L48.6812,47.6582 C48.9742,47.9512 49.3582,48.0972 49.7422,48.0972" id="Fill-9"></path>
                    <path d="M59.0195,0.5591 L55.6045,0.5591 C54.7765,0.5591 54.1045,1.2301 54.1045,2.0591 C54.1045,2.8881 54.7765,3.5591 55.6045,3.5591 L59.0195,3.5591 C59.8475,3.5591 60.5195,2.8881 60.5195,2.0591 C60.5195,1.2301 59.8475,0.5591 59.0195,0.5591" id="Fill-10"></path>
                </g>
            </g>
        </g>
    </g>
</svg>