<?xml version="1.0" encoding="UTF-8"?>
<svg width="49px" height="66px" viewBox="0 0 49 66" version="1.1" xmlns="http://www.w3.org/2000/svg" xmlns:xlink="http://www.w3.org/1999/xlink">
    <!-- Generator: Sketch 48.2 (47327) - http://www.bohemiancoding.com/sketch -->
    <title>Page 1</title>
    <desc>Created with Sketch.</desc>
    <defs></defs>
    <g id="Publicaciones-(idiomas-descarga)" stroke="none" stroke-width="1" fill="none" fill-rule="evenodd" transform="translate(-553.000000, -1881.000000)" stroke-linecap="round" stroke-linejoin="round">
        <g id="Page-1" transform="translate(554.000000, 1882.000000)" stroke="#484848" stroke-width="3">
            <path d="M8.0822,4.7783 L8.0822,8.5763 C8.0822,9.5843 8.8982,10.4003 9.9062,10.4003 C10.9142,10.4003 11.7302,9.5843 11.7302,8.5763 L11.7302,4.2743 C11.7302,2.1893 10.0412,0.5003 7.9562,0.5003 C5.8712,0.5003 4.1822,2.1893 4.1822,4.2743 L4.1822,6.6263" id="Stroke-1"></path>
            <polyline id="Stroke-3" points="7.9562 6.7514 0.5012 6.7514 0.5012 58.8824 41.5532 58.8824 41.5532 6.7514 11.7302 6.7514"></polyline>
            <path d="M6.0209,15.2477 L36.0329,15.2477" id="Stroke-5"></path>
            <path d="M6.0209,20.0963 L36.0329,20.0963" id="Stroke-7"></path>
            <path d="M6.0209,24.9449 L36.0329,24.9449" id="Stroke-9"></path>
            <path d="M6.0209,29.792 L32.9489,29.792" id="Stroke-11"></path>
            <path d="M6.0209,39.4892 L36.0329,39.4892" id="Stroke-13"></path>
            <path d="M6.0209,44.3378 L36.0329,44.3378" id="Stroke-15"></path>
            <path d="M6.0209,49.1867 L25.7129,49.1867" id="Stroke-17"></path>
            <polyline id="Stroke-19" points="45.7946 13.7111 45.7946 62.7671 11.7296 62.7671"></polyline>
        </g>
    </g>
</svg>