<?xml version="1.0" encoding="UTF-8"?>
<svg width="20px" height="20px" viewBox="0 0 20 20" version="1.1" xmlns="http://www.w3.org/2000/svg" xmlns:xlink="http://www.w3.org/1999/xlink">
    <!-- Generator: Sketch 48.2 (47327) - http://www.bohemiancoding.com/sketch -->
    <title>Page 1</title>
    <desc>Created with Sketch.</desc>
    <defs></defs>
    <g id="Eventos" stroke="none" stroke-width="1" fill="none" fill-rule="evenodd" transform="translate(-311.000000, -211.000000)">
        <g id="Group-9" transform="translate(100.000000, 80.000000)" fill="#818181" fill-rule="nonzero">
            <g id="Page-1" transform="translate(211.000000, 131.000000)">
                <path d="M9.7726,4.0757 C9.7726,4.35184237 9.54874237,4.5757 9.2726,4.5757 L0.5006,4.5757 C0.224457625,4.5757 0.0006,4.35184237 0.0006,4.0757 L0.0006,3.3897 C0.0006,2.21574825 0.954266,1.2637 2.1286,1.2637 L10.8986,1.2637 L10.8986,2.2637 C10.5967201,2.2637 10.311627,2.38421083 10.1011534,2.59325339 C9.8916349,2.80277188 9.7726,3.08511686 9.7726,3.3897 L9.7726,4.0757 Z M8.7726,3.3897 C8.7726,2.98392532 8.88627814,2.59631956 9.09392203,2.2637 L2.1286,2.2637 C1.50617104,2.2637 1.0006,2.76841342 1.0006,3.3897 L1.0006,3.5757 L8.7726,3.5757 L8.7726,3.3897 Z M9.39525121,1.8849461 C9.79203991,1.49084749 10.329404,1.2637 10.8986,1.2637 C11.5652667,1.2637 11.5652667,2.2637 10.8986,2.2637 L9.09392203,2.2637 C9.17903114,2.12736583 9.27992667,2.00026945 9.39525121,1.8849461 Z" id="Stroke-1"></path>
                <path d="M8.7729,3.3899 C8.7729,2.81722705 8.9983259,2.28136732 9.39615812,1.88354433 C9.79338249,1.49035953 10.3295891,1.2639 10.8989,1.2639 C12.073234,1.2639 13.0269,2.21594825 13.0269,3.3899 L13.0269,6.7569 C13.0269,7.03304237 12.8030424,7.2569 12.5269,7.2569 C12.2507576,7.2569 12.0269,7.03304237 12.0269,6.7569 L12.0269,3.3899 C12.0269,2.76861342 11.521329,2.2639 10.8989,2.2639 C10.5965148,2.2639 10.3119932,2.38406381 10.1014534,2.59245339 C9.89158718,2.8023196 9.7729,3.08445081 9.7729,3.3899 L9.7729,4.0759 C9.7729,4.35204237 9.54904237,4.5759 9.2729,4.5759 L2.6289,4.5759 L2.6289,12.6139 L7.3279,12.6139 C7.60404237,12.6139 7.8279,12.8377576 7.8279,13.1139 C7.8279,13.3900424 7.60404237,13.6139 7.3279,13.6139 L2.1289,13.6139 C1.85275763,13.6139 1.6289,13.3900424 1.6289,13.1139 L1.6289,4.0759 C1.6289,3.79975763 1.85275763,3.5759 2.1289,3.5759 L8.7729,3.5759 L8.7729,3.3899 Z" id="Stroke-3"></path>
                <path d="M10.0821,15.5269 C10.0821,15.2507576 10.3059576,15.0269 10.5821,15.0269 L19.3541,15.0269 C19.6302424,15.0269 19.8541,15.2507576 19.8541,15.5269 L19.8541,16.2129 C19.8541,17.3868518 18.900434,18.3389 17.7261,18.3389 L8.9561,18.3389 L8.9561,17.3389 C9.25793997,17.3389 9.54274482,17.2184338 9.75314738,17.0087469 C9.96302575,16.7995799 10.0821,16.5175715 10.0821,16.2129 L10.0821,15.5269 Z M11.0821,16.2129 C11.0821,16.6189821 10.9682558,17.0067264 10.7605887,17.3389 L17.7261,17.3389 C18.348529,17.3389 18.8541,16.8341866 18.8541,16.2129 L18.8541,16.0269 L11.0821,16.0269 L11.0821,16.2129 Z M10.4590506,17.7170552 C10.0632813,18.1114783 9.52561359,18.3389 8.9561,18.3389 C8.28943333,18.3389 8.28943333,17.3389 8.9561,17.3389 L10.7605887,17.3389 C10.6754027,17.4751591 10.5744293,17.6020675 10.4590506,17.7170552 Z" id="Stroke-5"></path>
                <path d="M11.0817,16.2129 C11.0817,16.7849937 10.8557349,17.3209719 10.4590488,17.7176539 C10.0622601,18.1117525 9.52489599,18.3389 8.9557,18.3389 C7.781366,18.3389 6.8277,17.3868518 6.8277,16.2129 L6.8277,6.7569 C6.8277,6.48075763 7.05155763,6.2569 7.3277,6.2569 L17.7257,6.2569 C18.0018424,6.2569 18.2257,6.48075763 18.2257,6.7569 L18.2257,15.5269 C18.2257,15.8030424 18.0018424,16.0269 17.7257,16.0269 L11.0817,16.0269 L11.0817,16.2129 Z M7.8277,7.2569 L7.8277,16.2129 C7.8277,16.8341866 8.33327104,17.3389 8.9557,17.3389 C9.25757988,17.3389 9.54267303,17.2183892 9.75314661,17.0093466 C9.9626651,16.7998281 10.0817,16.5174831 10.0817,16.2129 L10.0817,15.5269 C10.0817,15.2507576 10.3055576,15.0269 10.5817,15.0269 L17.2257,15.0269 L17.2257,7.2569 L7.8277,7.2569 Z" id="Stroke-7"></path>
                <path d="M8.254,13.6138 C7.97785763,13.6138 7.754,13.3899424 7.754,13.1138 C7.754,12.8376576 7.97785763,12.6138 8.254,12.6138 L9.293,12.6138 C9.56914237,12.6138 9.793,12.8376576 9.793,13.1138 C9.793,13.3899424 9.56914237,13.6138 9.293,13.6138 L8.254,13.6138 Z" id="Stroke-9"></path>
                <path d="M10.3795,13.6138 C10.1033576,13.6138 9.8795,13.3899424 9.8795,13.1138 C9.8795,12.8376576 10.1033576,12.6138 10.3795,12.6138 L11.4185,12.6138 C11.6946424,12.6138 11.9185,12.8376576 11.9185,13.1138 C11.9185,13.3899424 11.6946424,13.6138 11.4185,13.6138 L10.3795,13.6138 Z" id="Stroke-11"></path>
                <path d="M12.0269,7.6211 C12.0269,7.34495763 12.2507576,7.1211 12.5269,7.1211 C12.8030424,7.1211 13.0269,7.34495763 13.0269,7.6211 L13.0269,8.6601 C13.0269,8.93624237 12.8030424,9.1601 12.5269,9.1601 C12.2507576,9.1601 12.0269,8.93624237 12.0269,8.6601 L12.0269,7.6211 Z" id="Stroke-13"></path>
                <path d="M12.0269,9.8829 C12.0269,9.60675763 12.2507576,9.3829 12.5269,9.3829 C12.8030424,9.3829 13.0269,9.60675763 13.0269,9.8829 L13.0269,10.9219 C13.0269,11.1980424 12.8030424,11.4219 12.5269,11.4219 C12.2507576,11.4219 12.0269,11.1980424 12.0269,10.9219 L12.0269,9.8829 Z" id="Stroke-15"></path>
                <path d="M12.0269,12.0758 C12.0269,11.7996576 12.2507576,11.5758 12.5269,11.5758 C12.8030424,11.5758 13.0269,11.7996576 13.0269,12.0758 L13.0269,13.1138 C13.0269,13.3899424 12.8030424,13.6138 12.5269,13.6138 C12.2507576,13.6138 12.0269,13.3899424 12.0269,13.1138 L12.0269,12.0758 Z" id="Stroke-17"></path>
                <path d="M5.899,17.1558 C6.17514237,17.1558 6.399,17.3796576 6.399,17.6558 C6.399,17.9319424 6.17514237,18.1558 5.899,18.1558 L5.582,18.1558 C3.53152367,18.1558 1.82606061,16.5886458 1.64400043,14.5594814 C1.61932358,14.2844438 1.82228104,14.0414773 2.09731861,14.0168004 C2.37235618,13.9921236 2.61532272,14.195081 2.63999957,14.4701186 C2.77589745,15.9847778 4.05026797,17.1558 5.582,17.1558 L5.899,17.1558 Z" id="Stroke-19"></path>
                <path d="M5.08402342,16.6427203 C4.93970023,16.4072942 5.01355369,16.0994466 5.24897974,15.9551234 C5.4844058,15.8108002 5.79225339,15.8846537 5.93657658,16.1200797 L6.71757658,17.3940797 C6.83809953,17.5906818 6.80853173,17.8442108 6.64600128,18.0078018 L5.42000128,19.2418018 C5.22537516,19.4376979 4.90879435,19.4387274 4.71289824,19.2441013 C4.51700213,19.0494752 4.5159726,18.7328943 4.71059872,18.5369982 L5.65966805,17.581736 L5.08402342,16.6427203 Z" id="Stroke-21"></path>
                <path d="M13.9557,2.2335 C13.6795576,2.2335 13.4557,2.00964237 13.4557,1.7335 C13.4557,1.45735763 13.6795576,1.2335 13.9557,1.2335 L14.2727,1.2335 C16.4568424,1.2335 18.2267,3.00335763 18.2267,5.1875 C18.2267,5.46364237 18.0028424,5.6875 17.7267,5.6875 C17.4505576,5.6875 17.2267,5.46364237 17.2267,5.1875 C17.2267,3.55564237 15.9045576,2.2335 14.2727,2.2335 L13.9557,2.2335 Z" id="Stroke-23"></path>
                <path d="M14.7700766,2.74657974 C14.9143998,2.9820058 14.8405463,3.28985339 14.6051203,3.43417658 C14.3696942,3.57849977 14.0618466,3.50464631 13.9175234,3.26922026 L13.1365234,1.99522026 C13.0160005,1.79861817 13.0455683,1.54508925 13.2080987,1.38149824 L14.4340987,0.14749824 C14.6287248,-0.0483978689 14.9453057,-0.0494274 15.1412018,0.145198718 C15.3370979,0.339824836 15.3381274,0.656405651 15.1435013,0.85230176 L14.1944319,1.80756404 L14.7700766,2.74657974 Z" id="Stroke-25"></path>
            </g>
        </g>
    </g>
</svg>