<?xml version="1.0" encoding="UTF-8"?>
<svg width="27px" height="26px" viewBox="0 0 27 26" version="1.1" xmlns="http://www.w3.org/2000/svg" xmlns:xlink="http://www.w3.org/1999/xlink">
    <!-- Generator: Sketch 48.2 (47327) - http://www.bohemiancoding.com/sketch -->
    <title>Group 6</title>
    <desc>Created with Sketch.</desc>
    <defs>
        <polygon id="path-1" points="0 0.931 26.0687 0.931 26.0687 27 0 27"></polygon>
    </defs>
    <g id="Home-+-footer" stroke="none" stroke-width="1" fill="none" fill-rule="evenodd" transform="translate(-1268.000000, -3066.000000)">
        <g id="Page-1" transform="translate(1268.000000, 3065.000000)">
            <g id="Group-6" transform="translate(0.000000, 0.069200)">
                <mask id="mask-2" fill="white">
                    <use xlink:href="#path-1"></use>
                </mask>
                <g id="Clip-5"></g>
                <path d="M15.7977,13.9702 L13.9887,13.9702 L13.9887,20.4142 L11.3107,20.4142 L11.3107,13.9702 L10.0367,13.9702 L10.0367,11.6932 L11.3107,11.6932 L11.3107,10.2192 C11.3107,9.1642 11.8117,7.5162 14.0147,7.5162 L15.9997,7.5232 L15.9997,9.7342 L14.5587,9.7342 C14.3237,9.7342 13.9907,9.8522 13.9907,10.3552 L13.9907,11.6942 L16.0317,11.6942 L15.7977,13.9702 Z M13.0347,0.9302 C5.8357,0.9302 -0.0003,6.7662 -0.0003,13.9652 C-0.0003,21.1642 5.8357,27.0002 13.0347,27.0002 C20.2337,27.0002 26.0687,21.1642 26.0687,13.9652 C26.0687,6.7662 20.2337,0.9302 13.0347,0.9302 Z" id="Fill-4" fill="#FEFEFE" mask="url(#mask-2)"></path>
            </g>
        </g>
    </g>
</svg>