<?xml version="1.0" encoding="UTF-8"?>
<svg width="82px" height="90px" viewBox="0 0 82 90" version="1.1" xmlns="http://www.w3.org/2000/svg" xmlns:xlink="http://www.w3.org/1999/xlink">
    <!-- Generator: Sketch 47.1 (45422) - http://www.bohemiancoding.com/sketch -->
    <title>Page 1</title>
    <desc>Created with Sketch.</desc>
    <defs></defs>
    <g id="1.15.Cultura" stroke="none" stroke-width="1" fill="none" fill-rule="evenodd" stroke-linecap="round" stroke-linejoin="round">
        <g id="Cultura" transform="translate(-1218.000000, -1833.000000)" stroke="#FFFFFF" stroke-width="4">
            <g id="Page-1" transform="translate(1219.000000, 1835.000000)">
                <path d="M42.1336,3.4992 L42.1336,12.2552" id="Stroke-1"></path>
                <path d="M78.9676,48.9696 C78.9676,69.2456 62.5276,85.6856 42.2516,85.6856 C21.9716,85.6856 5.5356,69.2456 5.5356,48.9696 C5.5356,28.6936 21.9716,12.2536 42.2516,12.2536 C62.5276,12.2536 78.9676,28.6936 78.9676,48.9696 Z" id="Stroke-3"></path>
                <path d="M42.6256,85.6864 C42.6256,85.6864 33.1336,71.2024 33.1336,48.9704 C33.1336,26.7344 42.6256,12.2544 42.6256,12.2544 C42.6256,12.2544 23.2336,24.4864 23.2336,48.9704 C23.2336,73.4544 42.6256,85.6864 42.6256,85.6864 Z" id="Stroke-5"></path>
                <path d="M42.6256,12.2548 C42.6256,12.2548 13.4856,20.2868 13.4856,48.9708 C13.4856,77.6548 42.6256,85.6868 42.6256,85.6868" id="Stroke-7"></path>
                <path d="M41.8756,12.2548 C41.8756,12.2548 51.3716,26.7348 51.3716,48.9708 C51.3716,71.2028 41.8756,85.6868 41.8756,85.6868 C41.8756,85.6868 61.2676,73.4548 61.2676,48.9708 C61.2676,24.4868 41.8756,12.2548 41.8756,12.2548 Z" id="Stroke-9"></path>
                <path d="M41.8756,85.6864 C41.8756,85.6864 71.0156,77.6544 71.0156,48.9704 C71.0156,20.2864 41.8756,12.2544 41.8756,12.2544" id="Stroke-11"></path>
                <path d="M5.5356,49.3448 C5.5356,49.3448 20.0156,39.8528 42.2516,39.8528 C64.4836,39.8528 78.9676,49.3448 78.9676,49.3448 C78.9676,49.3448 66.7356,29.9528 42.2516,29.9528 C17.7676,29.9528 5.5356,49.3448 5.5356,49.3448 Z" id="Stroke-13"></path>
                <path d="M78.9676,49.3448 C78.9676,49.3448 70.9356,20.2048 42.2516,20.2048 C13.5676,20.2048 5.5356,49.3448 5.5356,49.3448" id="Stroke-15"></path>
                <path d="M78.9676,48.5948 C78.9676,48.5948 64.4836,58.0908 42.2516,58.0908 C20.0156,58.0908 5.5356,48.5948 5.5356,48.5948 C5.5356,48.5948 17.7676,67.9868 42.2516,67.9868 C66.7356,67.9868 78.9676,48.5948 78.9676,48.5948 Z" id="Stroke-17"></path>
                <path d="M5.5356,48.5948 C5.5356,48.5948 13.5676,77.7348 42.2516,77.7348 C70.9356,77.7348 78.9676,48.5948 78.9676,48.5948" id="Stroke-19"></path>
                <path d="M14.4812,0.0828 L14.4812,0.0828 C14.4812,2.8188 12.2612,5.0348 9.5292,5.0348" id="Stroke-21"></path>
                <path d="M19.446,5.036 L19.446,5.036 C16.71,5.036 14.494,2.816 14.494,0.084" id="Stroke-23"></path>
                <path d="M14.4948,9.9872 L14.4948,9.9872 C14.4948,7.2512 16.7108,5.0352 19.4468,5.0352" id="Stroke-25"></path>
                <path d="M9.528,5.036 L9.528,5.036 C12.264,5.036 14.48,7.252 14.48,9.988" id="Stroke-27"></path>
                <path d="M63.864,0.0008 L63.864,0.0008 C63.864,2.7368 61.648,4.9528 58.912,4.9528" id="Stroke-29"></path>
                <path d="M68.8308,4.952 L68.8308,4.952 C66.0948,4.952 63.8788,2.736 63.8788,0" id="Stroke-31"></path>
                <path d="M63.8776,9.9052 L63.8776,9.9052 C63.8776,7.1692 66.0976,4.9532 68.8296,4.9532" id="Stroke-33"></path>
                <path d="M58.9128,4.952 L58.9128,4.952 C61.6488,4.952 63.8648,7.168 63.8648,9.904" id="Stroke-35"></path>
                <path d="M75.9712,11.8056 L75.9712,11.8056 C75.9712,13.1736 74.8632,14.2816 73.4952,14.2816" id="Stroke-37"></path>
                <path d="M78.4556,14.2824 L78.4556,14.2824 C77.0876,14.2824 75.9796,13.1744 75.9796,11.8064" id="Stroke-39"></path>
                <path d="M75.9792,16.7588 L75.9792,16.7588 C75.9792,15.3908 77.0872,14.2828 78.4552,14.2828" id="Stroke-41"></path>
                <path d="M73.4948,14.2824 L73.4948,14.2824 C74.8628,14.2824 75.9708,15.3904 75.9708,16.7584" id="Stroke-43"></path>
                <path d="M3.4752,18.2608 L3.4752,18.2608 C3.4752,19.6288 2.3672,20.7368 0.9992,20.7368" id="Stroke-45"></path>
                <path d="M5.9596,20.7372 L5.9596,20.7372 C4.5916,20.7372 3.4836,19.6292 3.4836,18.2612" id="Stroke-47"></path>
                <path d="M3.4832,23.214 L3.4832,23.214 C3.4832,21.846 4.5912,20.738 5.9592,20.738" id="Stroke-49"></path>
                <path d="M1.0008,20.7372 L1.0008,20.7372 C2.3688,20.7372 3.4768,21.8452 3.4768,23.2132" id="Stroke-51"></path>
            </g>
        </g>
    </g>
</svg>