<?xml version="1.0" encoding="UTF-8"?>
<svg width="52px" height="57px" viewBox="0 0 52 57" version="1.1" xmlns="http://www.w3.org/2000/svg" xmlns:xlink="http://www.w3.org/1999/xlink">
    <!-- Generator: Sketch 47.1 (45422) - http://www.bohemiancoding.com/sketch -->
    <title>Page 1</title>
    <desc>Created with Sketch.</desc>
    <defs></defs>
    <g id="1.28.n.Eventos" stroke="none" stroke-width="1" fill="none" fill-rule="evenodd" stroke-linecap="round" stroke-linejoin="round">
        <g id="Evento" transform="translate(-625.000000, -9496.000000)" stroke-width="2.5" stroke="#CECECE">
            <g id="Group-23" transform="translate(626.000000, 9497.000000)">
                <g id="Page-1">
                    <path d="M26.2152476,2.437 L26.2152476,7.9095" id="Stroke-1"></path>
                    <path d="M49.4557476,30.856 C49.4557476,43.5285 39.0828905,53.8035 26.2897,53.8035 C13.4939857,53.8035 3.12365238,43.5285 3.12365238,30.856 C3.12365238,18.1835 13.4939857,7.9085 26.2897,7.9085 C39.0828905,7.9085 49.4557476,18.1835 49.4557476,30.856 Z" id="Stroke-3"></path>
                    <path d="M26.5256762,53.804 C26.5256762,53.804 20.5366762,44.7515 20.5366762,30.8565 C20.5366762,16.959 26.5256762,7.909 26.5256762,7.909 C26.5256762,7.909 14.2902476,15.554 14.2902476,30.8565 C14.2902476,46.159 26.5256762,53.804 26.5256762,53.804 Z" id="Stroke-5"></path>
                    <path d="M26.5256762,7.90925 C26.5256762,7.90925 8.13972381,12.92925 8.13972381,30.85675 C8.13972381,48.78425 26.5256762,53.80425 26.5256762,53.80425" id="Stroke-7"></path>
                    <path d="M26.0524619,7.90925 C26.0524619,7.90925 32.0439857,16.95925 32.0439857,30.85675 C32.0439857,44.75175 26.0524619,53.80425 26.0524619,53.80425 C26.0524619,53.80425 38.2878905,46.15925 38.2878905,30.85675 C38.2878905,15.55425 26.0524619,7.90925 26.0524619,7.90925 Z" id="Stroke-9"></path>
                    <path d="M26.0524619,53.804 C26.0524619,53.804 44.4384143,48.784 44.4384143,30.8565 C44.4384143,12.929 26.0524619,7.909 26.0524619,7.909" id="Stroke-11"></path>
                    <path d="M3.12365238,31.0905 C3.12365238,31.0905 12.2598429,25.158 26.2897,25.158 C40.3170333,25.158 49.4557476,31.0905 49.4557476,31.0905 C49.4557476,31.0905 41.7379381,18.9705 26.2897,18.9705 C10.8414619,18.9705 3.12365238,31.0905 3.12365238,31.0905 Z" id="Stroke-13"></path>
                    <path d="M49.4557476,31.0905 C49.4557476,31.0905 44.3879381,12.878 26.2897,12.878 C8.1914619,12.878 3.12365238,31.0905 3.12365238,31.0905" id="Stroke-15"></path>
                    <path d="M49.4557476,30.62175 C49.4557476,30.62175 40.3170333,36.55675 26.2897,36.55675 C12.2598429,36.55675 3.12365238,30.62175 3.12365238,30.62175 C3.12365238,30.62175 10.8414619,42.74175 26.2897,42.74175 C41.7379381,42.74175 49.4557476,30.62175 49.4557476,30.62175 Z" id="Stroke-17"></path>
                    <path d="M3.12365238,30.62175 C3.12365238,30.62175 8.1914619,48.83425 26.2897,48.83425 C44.3879381,48.83425 49.4557476,30.62175 49.4557476,30.62175" id="Stroke-19"></path>
                    <path d="M8.7679,0.30175 L8.7679,0.30175 C8.7679,2.01175 7.36718571,3.39675 5.64342381,3.39675" id="Stroke-21"></path>
                    <path d="M11.9004524,3.3975 L11.9004524,3.3975 C10.1741667,3.3975 8.77597619,2.01 8.77597619,0.3025" id="Stroke-23"></path>
                    <path d="M8.77648095,6.492 L8.77648095,6.492 C8.77648095,4.782 10.1746714,3.397 11.9009571,3.397" id="Stroke-25"></path>
                    <path d="M5.64266667,3.3975 L5.64266667,3.3975 C7.36895238,3.3975 8.76714286,4.7825 8.76714286,6.4925" id="Stroke-27"></path>
                    <path d="M39.9260952,0.2505 L39.9260952,0.2505 C39.9260952,1.9605 38.5279048,3.3455 36.801619,3.3455" id="Stroke-29"></path>
                    <path d="M43.0599095,3.345 L43.0599095,3.345 C41.3336238,3.345 39.9354333,1.96 39.9354333,0.25" id="Stroke-31"></path>
                    <path d="M39.9346762,6.44075 L39.9346762,6.44075 C39.9346762,4.73075 41.3353905,3.34575 43.0591524,3.34575" id="Stroke-33"></path>
                    <path d="M36.8021238,3.345 L36.8021238,3.345 C38.5284095,3.345 39.9266,4.73 39.9266,6.44" id="Stroke-35"></path>
                    <path d="M47.5651619,7.6285 L47.5651619,7.6285 C47.5651619,8.4835 46.8660667,9.176 46.0029238,9.176" id="Stroke-37"></path>
                    <path d="M49.1327,9.1765 L49.1327,9.1765 C48.2695571,9.1765 47.5704619,8.484 47.5704619,7.629" id="Stroke-39"></path>
                    <path d="M47.5702095,10.72425 L47.5702095,10.72425 C47.5702095,9.86925 48.2693048,9.17675 49.1324476,9.17675" id="Stroke-41"></path>
                    <path d="M46.0026714,9.1765 L46.0026714,9.1765 C46.8658143,9.1765 47.5649095,9.869 47.5649095,10.724" id="Stroke-43"></path>
                    <path d="M1.8236381,11.663 L1.8236381,11.663 C1.8236381,12.518 1.12454286,13.2105 0.2614,13.2105" id="Stroke-45"></path>
                    <path d="M3.39117619,13.21075 L3.39117619,13.21075 C2.52803333,13.21075 1.8289381,12.51825 1.8289381,11.66325" id="Stroke-47"></path>
                    <path d="M1.82868571,14.75875 L1.82868571,14.75875 C1.82868571,13.90375 2.52778095,13.21125 3.39092381,13.21125" id="Stroke-49"></path>
                    <path d="M0.262409524,13.21075 L0.262409524,13.21075 C1.12555238,13.21075 1.82464762,13.90325 1.82464762,14.75825" id="Stroke-51"></path>
                </g>
            </g>
        </g>
    </g>
</svg>