<?xml version="1.0" encoding="UTF-8"?>
<svg width="62px" height="61px" viewBox="0 0 62 61" version="1.1" xmlns="http://www.w3.org/2000/svg" xmlns:xlink="http://www.w3.org/1999/xlink">
    <!-- Generator: Sketch 47.1 (45422) - http://www.bohemiancoding.com/sketch -->
    <title>Page 1</title>
    <desc>Created with Sketch.</desc>
    <defs></defs>
    <g id="1.17.Flamenco" stroke="none" stroke-width="1" fill="none" fill-rule="evenodd" stroke-linecap="round" stroke-linejoin="round">
        <g id="Flamenco" transform="translate(-1060.000000, -3936.000000)" stroke="#CFCFCF" stroke-width="2.7">
            <g id="Page-1" transform="translate(1061.000000, 3937.000000)">
                <path d="M53.1060522,41.3414174 C53.1060522,47.4875043 48.4560522,52.4690696 42.7224,52.4690696 C36.9887478,52.4690696 32.3387478,47.4875043 32.3387478,41.3414174 C32.3387478,35.1953304 36.9887478,30.2137652 42.7224,30.2137652 C48.4560522,30.2137652 53.1060522,35.1953304 53.1060522,41.3414174 Z" id="Stroke-1"></path>
                <path d="M28.9017913,49.9758609 C31.6756174,55.0625565 36.8270087,58.4806435 42.7224,58.4806435 C51.5560522,58.4806435 58.7184,50.8088174 58.7184,41.341687 C58.7184,35.6296 56.0982261,30.6022087 52.0870957,27.499513 C50.0060522,25.8902087 49.1245739,23.1837739 49.9764,20.695687 L51.2757043,16.9109913 C51.8660522,15.1911652 50.5856174,13.4012522 48.7660522,13.4012522 L36.6787478,13.4012522 C34.8591826,13.4012522 33.5787478,15.1911652 34.1690957,16.9109913 L35.4684,20.695687 C36.3202261,23.1837739 35.4387478,25.8902087 33.3604,27.499513 C32.1554435,28.429513 31.0771826,29.5347304 30.1552696,30.7774261" id="Stroke-3"></path>
                <polyline id="Stroke-5" points="9.08847826 18.7270522 16.3424783 30.097313 23.5991739 18.7270522"></polyline>
                <path d="M23.5986348,18.7270522 L24.8952435,14.9423565 C25.4855913,13.2225304 24.2078522,11.4299217 22.388287,11.4299217 L10.298287,11.4299217 C8.47872174,11.4299217 7.20098261,13.2225304 7.79133043,14.9423565 L9.08793913,18.7270522 C9.93976522,21.2124435 9.05828696,23.9215739 6.97993913,25.5281826 C2.96611304,28.6308783 0.348634783,33.6609652 0.348634783,39.3730522 C0.348634783,48.837487 7.50828696,56.5120087 16.3446348,56.5120087 C25.1755913,56.5120087 32.3379391,48.837487 32.3379391,39.3730522 C32.3379391,33.6609652 29.7204609,28.6308783 25.7066348,25.5281826 C23.6255913,23.9215739 22.7468087,21.2124435 23.5986348,18.7270522 Z" id="Stroke-7"></path>
                <path d="M13.6479043,11.4299217 L13.6479043,11.4299217 C13.6479043,8.2867913 16.1952957,5.7394 19.3384261,5.7394 L34.3343391,5.7394 C37.4774696,5.7394 40.0275565,8.2867913 40.0275565,11.4299217 L40.0275565,13.4004435" id="Stroke-9"></path>
                <path d="M19.0392087,11.4299217 L19.0392087,6.03861739 C19.0392087,2.89548696 21.5866,0.348095652 24.7297304,0.348095652 L39.7256435,0.348095652 C42.8687739,0.348095652 45.4188609,2.89548696 45.4188609,6.03861739 L45.4188609,13.4004435" id="Stroke-11"></path>
            </g>
        </g>
    </g>
</svg>