<?xml version="1.0" encoding="UTF-8"?>
<svg width="16px" height="16px" viewBox="0 0 16 16" version="1.1" xmlns="http://www.w3.org/2000/svg" xmlns:xlink="http://www.w3.org/1999/xlink">
    <!-- Generator: Sketch 47.1 (45422) - http://www.bohemiancoding.com/sketch -->
    <title>food-16px_barbecue-tools</title>
    <desc>Created with Sketch.</desc>
    <defs></defs>
    <g id="Evento" stroke="none" stroke-width="1" fill="none" fill-rule="evenodd">
        <g id="Artboard" transform="translate(-634.000000, -998.000000)" fill="#FFFFFF">
            <g id="Group-10" transform="translate(497.000000, 994.000000)">
                <g id="Group-4" transform="translate(137.000000, 0.000000)">
                    <g id="food-16px_barbecue-tools" transform="translate(0.000000, 4.000000)">
                        <g id="Group">
                            <path d="M15,0 L9,0 C8.4,0 8,0.4 8,1 L8,7 C8,7.6 8.4,8 9,8 L11,8 L11,10 L10,10 L10,14 C10,15.1 10.9,16 12,16 C13.1,16 14,15.1 14,14 L14,10 L13,10 L13,8 L15,8 C15.6,8 16,7.6 16,7 L16,1 C16,0.4 15.6,0 15,0 Z M10,6 L10,2 L11,2 L11,6 L10,6 Z M14,6 L13,6 L13,2 L14,2 L14,6 Z" id="Shape"></path>
                            <path d="M5,0 C4.4,0 4,0.4 4,1 L4,5 C4,5.6 3.6,6 3,6 C2.4,6 2,5.6 2,5 L2,1 C2,0.4 1.6,0 1,0 C0.4,0 0,0.4 0,1 L0,5 C0,6.3 0.8,7.4 2,7.8 L2,10 L1,10 L1,14 C1,15.1 1.9,16 3,16 C4.1,16 5,15.1 5,14 L5,10 L4,10 L4,7.8 C5.2,7.4 6,6.3 6,5 L6,1 C6,0.4 5.6,0 5,0 Z" id="Shape"></path>
                        </g>
                    </g>
                </g>
            </g>
        </g>
    </g>
</svg>