<?xml version="1.0" encoding="UTF-8"?>
<svg width="21px" height="23px" viewBox="0 0 21 23" version="1.1" xmlns="http://www.w3.org/2000/svg" xmlns:xlink="http://www.w3.org/1999/xlink">
    <!-- Generator: Sketch 47.1 (45422) - http://www.bohemiancoding.com/sketch -->
    <title>Page 1</title>
    <desc>Created with Sketch.</desc>
    <defs></defs>
    <g id="1.27.Resultado-búsqueda-(eventos)" stroke="none" stroke-width="1" fill="none" fill-rule="evenodd" stroke-linecap="round" stroke-linejoin="round">
        <g id="Resultado-búsqueda" transform="translate(-531.000000, -1472.000000)" stroke="#FFFFFF">
            <g id="Page-1" transform="translate(531.000000, 1472.000000)">
                <path d="M11.0747,5.6791 C10.9377,5.0921 10.6877,4.5201 10.3187,3.9971 L8.6247,1.5971 C8.3137,1.1571 7.8427,0.8551 7.3117,0.7571 C6.1987,0.5511 5.1267,1.2791 4.9077,2.3891 L4.8947,2.4521 C4.7847,3.0071 4.9077,3.5831 5.2347,4.0451 L6.6997,6.1211 C7.3507,7.0431 7.1307,8.3181 6.2087,8.9691 L6.1937,8.9791 C5.2717,9.6301 3.9967,9.4101 3.3457,8.4891 L2.2587,9.2561 L2.4617,9.5431 C3.9927,11.7131 6.9937,12.2301 9.1627,10.6991 C9.3507,10.5661 9.5257,10.4231 9.6877,10.2701" id="Stroke-1"></path>
                <path d="M3.3457,8.4887 C3.3457,8.4887 1.9407,5.0487 0.7917,5.8597 C-0.3573,6.6707 2.2587,9.2557 2.2587,9.2557" id="Stroke-3"></path>
                <path d="M1.5322,5.8456 C1.6132,5.5866 1.7042,5.3116 1.8632,5.0886 C2.0892,4.7706 2.4692,4.6656 2.7532,4.9676 C2.9702,5.1966 3.0652,5.5566 3.0782,5.8656 C3.1002,6.3676 2.9632,6.8776 2.7842,7.3436" id="Stroke-5"></path>
                <path d="M9.8037,3.268 C9.8037,3.268 9.3447,4.99 6.3877,5.679" id="Stroke-7"></path>
                <path d="M9.6875,9.0414 C8.9895,9.1764 8.0275,9.0604 6.8985,8.1204" id="Stroke-9"></path>
                <path d="M5.4267,9.3109 C5.4267,9.3109 6.0347,11.2109 7.0007,11.5399" id="Stroke-11"></path>
                <path d="M6.2114,2.8793 C6.2114,2.8793 4.5164,2.4283 4.5314,0.5003" id="Stroke-13"></path>
                <path d="M14.187,11.0043 L14.187,9.5393 C14.187,8.3253 15.171,7.3403 16.386,7.3403 L16.406,7.3403 C17.621,7.3403 18.605,8.3253 18.605,9.5393 L20.037,9.5393 L20.037,9.1613 C20.037,6.3033 17.72,3.9863 14.862,3.9863 C12.004,3.9863 9.687,6.3033 9.687,9.1613 L9.687,11.4303" id="Stroke-17"></path>
                <path d="M18.605,9.5395 C18.605,9.5395 17.705,13.4355 19.219,13.4355 C20.732,13.4355 20.037,9.5395 20.037,9.5395" id="Stroke-19"></path>
                <path d="M18.5591,12.9882 C18.3281,13.1662 18.0761,13.3512 17.7981,13.4482 C17.4031,13.5882 17.0041,13.4442 16.9401,13.0032 C16.8921,12.6662 17.0321,12.2912 17.2111,12.0112 C17.5041,11.5552 17.9421,11.1942 18.3881,10.8942" id="Stroke-21"></path>
                <path d="M9.687,10.121 C9.687,10.121 11.16,8.893 14.187,10.121" id="Stroke-23"></path>
                <path d="M11.937,4.8925 C11.937,4.8925 14.396,4.4585 15.253,7.6585" id="Stroke-25"></path>
                <path d="M17.2861,7.5248 C17.2861,7.5248 17.9311,5.4768 17.2861,4.5878" id="Stroke-27"></path>
                <polyline id="Stroke-29" points="9.2407 11.433 9.2407 22.426 16.9337 9.537"></polyline>
                <path d="M14.9004,7.914 C15.5754,8.089 16.4834,8.338 16.8094,9.028 C17.5104,10.518 14.1894,11.017 13.3254,11.156 C11.9764,11.373 10.6054,11.433 9.2404,11.433" id="Stroke-31"></path>
                <path d="M3.1826,8.121 C3.6926,7.896 5.0216,7.401 7.0576,7.281" id="Stroke-33"></path>
                <path d="M9.2407,12.6972 C7.7937,12.6352 6.3307,12.7032 4.8987,12.4452 C4.5477,12.3822 4.1247,12.2802 3.7017,12.1292 C2.7777,11.8012 1.8477,11.2442 1.6507,10.3672 C1.5247,9.8092 1.6727,9.3482 1.9857,8.9692" id="Stroke-35"></path>
                <path d="M1.811,10.7841 L9.241,22.4261" id="Stroke-37"></path>
            </g>
        </g>
    </g>
</svg>