<?xml version="1.0" encoding="UTF-8"?>
<svg width="36px" height="45px" viewBox="0 0 36 45" version="1.1" xmlns="http://www.w3.org/2000/svg" xmlns:xlink="http://www.w3.org/1999/xlink">
    <!-- Generator: Sketch 47.1 (45422) - http://www.bohemiancoding.com/sketch -->
    <title>food-48px-outline_cutlery-77</title>
    <desc>Created with Sketch.</desc>
    <defs></defs>
    <g id="Pueblo" stroke="none" stroke-width="1" fill="none" fill-rule="evenodd">
        <g id="Artboard" transform="translate(-542.000000, -4169.000000)" stroke="#4A4A4A">
            <g id="Group-25" transform="translate(334.000000, 4168.000000)">
                <g id="Group-8">
                    <g id="food-48px-outline_cutlery-77" transform="translate(208.000000, 1.000000)">
                        <g id="Group" transform="translate(0.500000, 0.500000)">
                            <path d="M29,28 L29,41 C29,42.7 30.3,44 32,44 L32,44 C33.7,44 35,42.7 35,41 L35,28" id="Shape"></path>
                            <path d="M35,28 L25,28 L25,10 C25,4.5 29.5,0 35,0 L35,0 L35,28 Z" id="Shape"></path>
                            <path d="M5,20 L5,41 C5,42.7 6.3,44 8,44 L8,44 C9.7,44 11,42.7 11,41 L11,20" id="Shape"></path>
                            <path d="M16,0 L16,16 C16,18.2 14.2,20 12,20 L4,20 C1.8,20 0,18.2 0,16 L0,0" id="Shape"></path>
                            <path d="M8,0 L8,10" id="Shape"></path>
                            <path d="M0,10 L16,10" id="Shape"></path>
                        </g>
                    </g>
                </g>
            </g>
        </g>
    </g>
</svg>