<?xml version="1.0" encoding="UTF-8"?>
<svg width="21px" height="23px" viewBox="0 0 21 23" version="1.1" xmlns="http://www.w3.org/2000/svg" xmlns:xlink="http://www.w3.org/1999/xlink">
    <!-- Generator: Sketch 47.1 (45422) - http://www.bohemiancoding.com/sketch -->
    <title>Page 1</title>
    <desc>Created with Sketch.</desc>
    <defs></defs>
    <g id="1.25.Resultado-búsqueda-(experiencia)" stroke="none" stroke-width="1" fill="none" fill-rule="evenodd" stroke-linecap="round" stroke-linejoin="round">
        <g id="Resultado-búsqueda" transform="translate(-187.000000, -850.000000)" stroke="#FFFFFF">
            <g id="Group-11" transform="translate(0.000000, 388.000000)">
                <g id="Group-10-Copy-3">
                    <g id="Group-24-Copy-3">
                        <g id="Group-10" transform="translate(50.000000, 427.000000)">
                            <g id="Group-19" transform="translate(137.000000, 35.000000)">
                                <g id="Page-1">
                                    <path d="M11.0747,5.6793 C10.9377,5.0913 10.6877,4.5203 10.3187,3.9963 L8.6247,1.5973 C8.3137,1.1573 7.8427,0.8553 7.3117,0.7573 C6.1987,0.5513 5.1267,1.2783 4.9077,2.3893 L4.8947,2.4523 C4.7847,3.0073 4.9077,3.5823 5.2347,4.0453 L6.6997,6.1213 C7.3507,7.0433 7.1307,8.3183 6.2087,8.9683 L6.1937,8.9793 C5.2717,9.6303 3.9967,9.4103 3.3457,8.4883 L2.2587,9.2563 L2.4617,9.5433 C3.9927,11.7123 6.9937,12.2303 9.1627,10.6983 C9.3507,10.5663 9.5257,10.4233 9.6877,10.2703" id="Stroke-1"></path>
                                    <path d="M3.3457,8.4884 C3.3457,8.4884 1.9407,5.0484 0.7917,5.8594 C-0.3573,6.6704 2.2587,9.2564 2.2587,9.2564" id="Stroke-3"></path>
                                    <path d="M1.5322,5.8458 C1.6132,5.5868 1.7042,5.3118 1.8632,5.0888 C2.0892,4.7708 2.4692,4.6658 2.7532,4.9668 C2.9702,5.1968 3.0652,5.5568 3.0782,5.8648 C3.1002,6.3678 2.9632,6.8778 2.7842,7.3438" id="Stroke-5"></path>
                                    <path d="M9.8037,3.2677 C9.8037,3.2677 9.3447,4.9897 6.3877,5.6797" id="Stroke-7"></path>
                                    <path d="M9.6875,9.0411 C8.9895,9.1761 8.0275,9.0601 6.8985,8.1201" id="Stroke-9"></path>
                                    <path d="M5.4267,9.3112 C5.4267,9.3112 6.0347,11.2112 7.0007,11.5402" id="Stroke-11"></path>
                                    <path d="M6.2114,2.8795 C6.2114,2.8795 4.5164,2.4285 4.5314,0.5005" id="Stroke-13"></path>
                                    <path d="M14.187,11.0045 L14.187,9.5395 C14.187,8.3245 15.171,7.3405 16.386,7.3405 L16.406,7.3405 C17.621,7.3405 18.605,8.3245 18.605,9.5395 L20.037,9.5395 L20.037,9.1615 C20.037,6.3025 17.72,3.9855 14.862,3.9855 C12.004,3.9855 9.687,6.3025 9.687,9.1615 L9.687,11.4305" id="Stroke-17"></path>
                                    <path d="M18.605,9.5392 C18.605,9.5392 17.705,13.4362 19.219,13.4362 C20.732,13.4362 20.037,9.5392 20.037,9.5392" id="Stroke-19"></path>
                                    <path d="M18.5591,12.9884 C18.3281,13.1664 18.0761,13.3504 17.7981,13.4484 C17.4031,13.5874 17.0041,13.4444 16.9401,13.0034 C16.8921,12.6664 17.0321,12.2914 17.2111,12.0114 C17.5041,11.5554 17.9421,11.1934 18.3881,10.8944" id="Stroke-21"></path>
                                    <path d="M9.687,10.1212 C9.687,10.1212 11.16,8.8922 14.187,10.1212" id="Stroke-23"></path>
                                    <path d="M11.937,4.8927 C11.937,4.8927 14.396,4.4587 15.253,7.6587" id="Stroke-25"></path>
                                    <path d="M17.2861,7.525 C17.2861,7.525 17.9311,5.477 17.2861,4.588" id="Stroke-27"></path>
                                    <polyline id="Stroke-29" points="9.2407 11.4327 9.2407 22.4257 16.9337 9.5367"></polyline>
                                    <path d="M14.9004,7.9142 C15.5754,8.0892 16.4834,8.3372 16.8094,9.0282 C17.5104,10.5182 14.1894,11.0172 13.3254,11.1562 C11.9764,11.3732 10.6054,11.4332 9.2404,11.4332" id="Stroke-31"></path>
                                    <path d="M3.1826,8.1212 C3.6926,7.8962 5.0216,7.4012 7.0576,7.2812" id="Stroke-33"></path>
                                    <path d="M9.2407,12.6974 C7.7937,12.6354 6.3307,12.7034 4.8987,12.4454 C4.5477,12.3824 4.1247,12.2804 3.7017,12.1294 C2.7777,11.8014 1.8477,11.2434 1.6507,10.3674 C1.5247,9.8094 1.6727,9.3484 1.9857,8.9694" id="Stroke-35"></path>
                                    <path d="M1.811,10.7843 L9.241,22.4263" id="Stroke-37"></path>
                                </g>
                            </g>
                        </g>
                    </g>
                </g>
            </g>
        </g>
    </g>
</svg>