<?xml version="1.0" encoding="UTF-8"?>
<svg width="97px" height="114px" viewBox="0 0 97 114" version="1.1" xmlns="http://www.w3.org/2000/svg" xmlns:xlink="http://www.w3.org/1999/xlink">
    <!-- Generator: Sketch 48.2 (47327) - http://www.bohemiancoding.com/sketch -->
    <title>Page 1</title>
    <desc>Created with Sketch.</desc>
    <defs></defs>
    <g id="Necesitas-ayuda" stroke="none" stroke-width="1" fill="none" fill-rule="evenodd" transform="translate(-306.000000, -1702.000000)" stroke-linecap="round" stroke-linejoin="round">
        <g id="Page-1" transform="translate(308.000000, 1704.000000)" stroke="#FFFFFF" stroke-width="4">
            <polygon id="Stroke-1" points="23.0124 96.2704 0.0004 109.3544 0.0004 33.2744 23.0124 20.1904"></polygon>
            <polygon id="Stroke-3" points="46.026 109.3544 23.014 96.2704 23.014 20.1904 46.026 33.2744"></polygon>
            <polyline id="Stroke-5" points="69.0376 96.2704 46.0256 109.3544 46.0256 33.2744 57.8216 26.5704"></polyline>
            <polyline id="Stroke-7" points="82.9772 28.116 92.0532 33.276 92.0532 109.356 69.0372 96.272 69.0372 64.772"></polyline>
            <path d="M57.8228,47.6044 L57.8228,43.6884 C57.8228,40.8924 59.6348,38.3084 62.3508,37.6484 C70.7108,35.6124 76.9148,28.0804 76.9148,19.0964 C76.9148,8.7724 68.1428,0.0004 57.8228,0.0004 C47.2748,0.0004 38.7308,8.5484 38.7308,19.0924" id="Stroke-9"></path>
            <path d="M54.3792,54.2784 L61.2632,61.1664" id="Stroke-11"></path>
            <path d="M61.264,54.2784 L54.38,61.1664" id="Stroke-13"></path>
        </g>
    </g>
</svg>