<?xml version="1.0" encoding="UTF-8"?>
<svg width="27px" height="26px" viewBox="0 0 27 26" version="1.1" xmlns="http://www.w3.org/2000/svg" xmlns:xlink="http://www.w3.org/1999/xlink">
    <!-- Generator: Sketch 48.2 (47327) - http://www.bohemiancoding.com/sketch -->
    <title>Group 24</title>
    <desc>Created with Sketch.</desc>
    <defs>
        <polygon id="path-1" points="0.0404 0.931 26.1094 0.931 26.1094 27 0.0404 27"></polygon>
    </defs>
    <g id="Home-+-footer" stroke="none" stroke-width="1" fill="none" fill-rule="evenodd" transform="translate(-1370.000000, -3066.000000)">
        <g id="Page-1" transform="translate(1268.000000, 3065.000000)">
            <g id="Group-24" transform="translate(102.000000, 0.000000)">
                <g id="Group-9" transform="translate(0.000000, 0.069200)">
                    <mask id="mask-2" fill="white">
                        <use xlink:href="#path-1"></use>
                    </mask>
                    <g id="Clip-8"></g>
                    <path d="M18.9574,16.9883 C18.9574,18.5673 17.6774,19.8473 16.0984,19.8473 L10.0514,19.8473 C8.4724,19.8473 7.1924,18.5673 7.1924,16.9883 L7.1924,10.9423 C7.1924,9.3633 8.4724,8.0833 10.0514,8.0833 L16.0984,8.0833 C17.6774,8.0833 18.9574,9.3633 18.9574,10.9423 L18.9574,16.9883 Z M13.0754,0.9303 C5.8754,0.9303 0.0404,6.7663 0.0404,13.9653 C0.0404,21.1643 5.8754,27.0003 13.0754,27.0003 C20.2734,27.0003 26.1094,21.1643 26.1094,13.9653 C26.1094,6.7663 20.2734,0.9303 13.0754,0.9303 Z" id="Fill-7" fill="#FEFEFE" mask="url(#mask-2)"></path>
                </g>
                <path d="M13.0751,16.3432 C11.8021,16.3432 10.7661,15.3072 10.7661,14.0342 C10.7661,12.7612 11.8021,11.7252 13.0751,11.7252 C14.3481,11.7252 15.3841,12.7612 15.3841,14.0342 C15.3841,15.3072 14.3481,16.3432 13.0751,16.3432 M13.0751,10.5512 C11.1551,10.5512 9.5921,12.1142 9.5921,14.0342 C9.5921,15.9552 11.1551,17.5172 13.0751,17.5172 C14.9951,17.5172 16.5571,15.9552 16.5571,14.0342 C16.5571,12.1142 14.9951,10.5512 13.0751,10.5512" id="Fill-10" fill="#FEFEFE"></path>
                <path d="M16.6078,9.7357 C16.1648,9.7357 15.8068,10.0937 15.8068,10.5367 C15.8068,10.9797 16.1648,11.3387 16.6078,11.3387 C17.0498,11.3387 17.4088,10.9797 17.4088,10.5367 C17.4088,10.0937 17.0498,9.7357 16.6078,9.7357" id="Fill-12" fill="#FEFEFE"></path>
            </g>
        </g>
    </g>
</svg>