<svg xmlns="http://www.w3.org/2000/svg" viewBox="0 0 25.63 23.95"><defs><style>.cls-1{fill:none;stroke:#4a4a4a;stroke-linecap:round;stroke-linejoin:round;}</style></defs><title>iconos</title><g id="Layer_4" data-name="Layer 4"><path class="cls-1" d="M7.72,20.51H2.87A2.36,2.36,0,0,1,.5,18.15V13.57H25.12v4.58a2.35,2.35,0,0,1-2.36,2.36H17.91"/><polyline class="cls-1" points="2.91 10.34 0.5 13.57 25.12 13.57 22.71 10.34"/><path class="cls-1" d="M15.83,10.34H22.7V3.06A2.48,2.48,0,0,0,20.21.58H5.4A2.48,2.48,0,0,0,2.91,3.06v7.28H9.77"/><line class="cls-1" x1="0.5" y1="16.13" x2="25.12" y2="16.13"/><line class="cls-1" x1="6.75" y1="18.32" x2="18.87" y2="18.32"/><circle class="cls-1" cx="12.81" cy="7.03" r="4.5"/><circle class="cls-1" cx="12.81" cy="7.03" r="2.47"/><rect class="cls-1" x="7.72" y="18.32" width="10.18" height="5.05"/><circle class="cls-1" cx="19.62" cy="3.47" r="0.54"/></g></svg>