<?xml version="1.0" encoding="UTF-8"?>
<svg width="24px" height="24px" viewBox="0 0 24 24" version="1.1" xmlns="http://www.w3.org/2000/svg" xmlns:xlink="http://www.w3.org/1999/xlink">
    <!-- Generator: Sketch 47.1 (45422) - http://www.bohemiancoding.com/sketch -->
    <title>Page 1</title>
    <desc>Created with Sketch.</desc>
    <defs></defs>
    <g id="1.1.Home" stroke="none" stroke-width="1" fill="none" fill-rule="evenodd" stroke-linecap="round" stroke-linejoin="round">
        <g id="Home" transform="translate(-498.000000, -637.000000)" stroke="#484848">
            <g id="Group-21" transform="translate(285.000000, 596.000000)">
                <g id="Group-8" transform="translate(23.000000, 18.000000)">
                    <g id="Group-19">
                        <g id="Page-1" transform="translate(190.000000, 24.000000)">
                            <path d="M0.5002,11.4036 L4.7912,11.4036 C6.1942,11.4036 7.5032,10.6986 8.2752,9.5266 L9.0422,8.3646 C9.6472,7.4456 9.9702,6.3686 9.9702,5.2686 L9.9702,2.0506 C9.9702,1.1946 10.6652,0.4996 11.5212,0.4996 C12.3772,0.4996 13.0712,1.1946 13.0712,2.0506 L13.0712,6.3446 C13.0712,7.9706 13.5772,9.5566 14.5182,10.8826 L14.5992,10.9976" id="Stroke-1"></path>
                            <path d="M0.5002,20.5628 L7.5632,20.5628 C8.5062,20.5628 9.4212,20.8818 10.1602,21.4688 C10.8862,22.0458 11.7842,22.3648 12.7112,22.3748 L16.5582,22.4178" id="Stroke-3"></path>
                            <path d="M21.1599,13.7224 L15.2809,13.7224 C14.4829,13.7224 13.8309,13.0704 13.8309,12.2734 C13.8309,11.4764 14.4829,10.8244 15.2809,10.8244 L21.1599,10.8244 C21.9569,10.8244 22.6089,11.4764 22.6089,12.2734 C22.6089,13.0704 21.9569,13.7224 21.1599,13.7224 Z" id="Stroke-5"></path>
                            <path d="M21.1599,19.5193 L15.2809,19.5193 C14.4829,19.5193 13.8309,18.8673 13.8309,18.0703 C13.8309,17.2733 14.4829,16.6213 15.2809,16.6213 L21.1599,16.6213 C21.9569,16.6213 22.6089,17.2733 22.6089,18.0703 C22.6089,18.8673 21.9569,19.5193 21.1599,19.5193 Z" id="Stroke-7"></path>
                            <path d="M21.1599,22.4178 L16.0489,22.4178 C15.2519,22.4178 14.5989,21.7658 14.5989,20.9688 C14.5989,20.1718 15.2519,19.5198 16.0489,19.5198 L21.1599,19.5198 C21.9569,19.5198 22.6089,20.1718 22.6089,20.9688 C22.6089,21.7658 21.9569,22.4178 21.1599,22.4178 Z" id="Stroke-9"></path>
                            <path d="M21.1599,16.6209 L14.3449,16.6209 C13.5479,16.6209 12.8959,15.9689 12.8959,15.1719 C12.8959,14.3749 13.5479,13.7229 14.3449,13.7229 L21.1599,13.7229 C21.9569,13.7229 22.6089,14.3749 22.6089,15.1719 C22.6089,15.9689 21.9569,16.6209 21.1599,16.6209 Z" id="Stroke-11"></path>
                            <path d="M10.0725,12.5926 C10.0725,12.5926 10.1995,15.5336 6.8035,15.0286" id="Stroke-13"></path>
                        </g>
                    </g>
                </g>
            </g>
        </g>
    </g>
</svg>