<?xml version="1.0" encoding="UTF-8"?>
<svg width="17px" height="23px" viewBox="0 0 17 23" version="1.1" xmlns="http://www.w3.org/2000/svg" xmlns:xlink="http://www.w3.org/1999/xlink">
    <!-- Generator: Sketch 47.1 (45422) - http://www.bohemiancoding.com/sketch -->
    <title>Page 1</title>
    <desc>Created with Sketch.</desc>
    <defs></defs>
    <g id="1.26.Eventos" stroke="none" stroke-width="1" fill="none" fill-rule="evenodd" stroke-linecap="round" stroke-linejoin="round">
        <g id="Eventos" transform="translate(-192.000000, -1960.000000)" stroke="#FFFFFF">
            <g id="Group-16" transform="translate(0.000000, 1497.000000)">
                <g id="Group-11">
                    <g id="Group-10-Copy-3">
                        <g id="Group-24-Copy-3">
                            <g id="Group-24-Copy" transform="translate(193.000000, 463.000000)">
                                <g id="Page-1">
                                    <path d="M13.8159,6.647 C13.8159,3.252 11.0639,0.5 7.6699,0.5 C4.2739,0.5 1.5229,3.252 1.5229,6.647 C1.5229,8.282 2.3249,9.695 2.9819,11.14 C3.4969,12.276 4.0129,13.413 4.5289,14.549 C5.2929,16.231 6.0559,17.913 6.8189,19.594 C6.8269,19.61 6.8359,19.627 6.8419,19.644 C7.1159,20.427 8.2229,20.427 8.4969,19.644 C8.6979,19.201 8.8989,18.757 9.1009,18.314 C9.6179,17.176 10.1339,16.037 10.6509,14.899 C11.2899,13.493 11.9279,12.086 12.5659,10.68 C13.1629,9.365 13.8159,8.128 13.8159,6.647 Z" id="Stroke-1"></path>
                                    <path d="M8.706,6.755 C8.706,7.327 8.242,7.792 7.669,7.792 C7.097,7.792 6.633,7.327 6.633,6.755 C6.633,6.182 7.097,5.718 7.669,5.718 C8.242,5.718 8.706,6.182 8.706,6.755 Z" id="Stroke-3"></path>
                                    <path d="M9.0849,18.3492 C12.4369,18.5272 14.9729,19.3572 14.9729,20.3542 C14.9729,21.4812 11.7329,22.3952 7.7359,22.3952 C3.7399,22.3952 0.4999,21.4812 0.4999,20.3542 C0.4999,19.3702 2.9699,18.5492 6.2569,18.3562" id="Stroke-5"></path>
                                </g>
                            </g>
                        </g>
                    </g>
                </g>
            </g>
        </g>
    </g>
</svg>