<?xml version="1.0" encoding="UTF-8"?>
<svg width="17px" height="24px" viewBox="0 0 17 24" version="1.1" xmlns="http://www.w3.org/2000/svg" xmlns:xlink="http://www.w3.org/1999/xlink">
    <!-- Generator: Sketch 47.1 (45422) - http://www.bohemiancoding.com/sketch -->
    <title>Page 1</title>
    <desc>Created with Sketch.</desc>
    <defs></defs>
    <g id="1.26.Eventos" stroke="none" stroke-width="1" fill="none" fill-rule="evenodd" stroke-linecap="round" stroke-linejoin="round">
        <g id="Eventos" transform="translate(-722.000000, -637.000000)" stroke="#484848">
            <g id="Group-21" transform="translate(235.000000, 596.000000)">
                <g id="Group-23" transform="translate(23.000000, 18.000000)">
                    <g id="Group-8">
                        <g id="Group-19">
                            <g id="Group-4">
                                <g id="Page-1" transform="translate(465.000000, 24.000000)">
                                    <path d="M13.8159,6.6469 C13.8159,3.2519 11.0639,0.4999 7.6699,0.4999 C4.2739,0.4999 1.5229,3.2519 1.5229,6.6469 C1.5229,8.2819 2.3249,9.6949 2.9819,11.1399 C3.4969,12.2759 4.0129,13.4129 4.5289,14.5489 C5.2929,16.2309 6.0559,17.9129 6.8189,19.5939 C6.8269,19.6109 6.8359,19.6269 6.8419,19.6439 C7.1159,20.4269 8.2229,20.4269 8.4969,19.6439 C8.6979,19.2009 8.8989,18.7569 9.1009,18.3139 C9.6179,17.1759 10.1339,16.0379 10.6509,14.8989 C11.2899,13.4929 11.9279,12.0859 12.5659,10.6799 C13.1629,9.3649 13.8159,8.1279 13.8159,6.6469 Z" id="Stroke-1"></path>
                                    <path d="M8.706,6.7548 C8.706,7.3278 8.242,7.7918 7.669,7.7918 C7.097,7.7918 6.633,7.3278 6.633,6.7548 C6.633,6.1828 7.097,5.7178 7.669,5.7178 C8.242,5.7178 8.706,6.1828 8.706,6.7548 Z" id="Stroke-3"></path>
                                    <path d="M9.0849,18.3495 C12.4369,18.5275 14.9729,19.3575 14.9729,20.3545 C14.9729,21.4815 11.7329,22.3955 7.7359,22.3955 C3.7399,22.3955 0.4999,21.4815 0.4999,20.3545 C0.4999,19.3705 2.9699,18.5495 6.2569,18.3565" id="Stroke-5"></path>
                                </g>
                            </g>
                        </g>
                    </g>
                </g>
            </g>
        </g>
    </g>
</svg>