<?xml version="1.0" encoding="UTF-8"?>
<svg width="123px" height="103px" viewBox="0 0 123 103" version="1.1" xmlns="http://www.w3.org/2000/svg" xmlns:xlink="http://www.w3.org/1999/xlink">
    <!-- Generator: Sketch 48.2 (47327) - http://www.bohemiancoding.com/sketch -->
    <title>Page 1</title>
    <desc>Created with Sketch.</desc>
    <defs></defs>
    <g id="Como-llegar" stroke="none" stroke-width="1" fill="none" fill-rule="evenodd" transform="translate(-1138.000000, -1057.000000)" stroke-linecap="round" stroke-linejoin="round">
        <g id="Page-1" transform="translate(1139.000000, 1058.000000)" stroke="#FFFFFF" stroke-width="4">
            <polyline id="Stroke-1" points="1.0024 42.2148 103.5344 42.2148 81.0424 87.1668"></polyline>
            <path d="M1.0024,73.0056 L88.1304,73.0056" id="Stroke-3"></path>
            <path d="M27.8324,57.0604 C27.8324,61.2764 24.4164,64.6924 20.2004,64.6924 C15.9844,64.6924 12.5684,61.2764 12.5684,57.0604 C12.5684,52.8444 15.9844,49.4284 20.2004,49.4284 C24.4164,49.4284 27.8324,52.8444 27.8324,57.0604 Z" id="Stroke-5"></path>
            <path d="M54.7072,57.0604 C54.7072,61.2764 51.2912,64.6924 47.0752,64.6924 C42.8592,64.6924 39.4432,61.2764 39.4432,57.0604 C39.4432,52.8444 42.8592,49.4284 47.0752,49.4284 C51.2912,49.4284 54.7072,52.8444 54.7072,57.0604 Z" id="Stroke-7"></path>
            <path d="M81.5804,57.0604 C81.5804,61.2764 78.1644,64.6924 73.9484,64.6924 C69.7364,64.6924 66.3164,61.2764 66.3164,57.0604 C66.3164,52.8444 69.7364,49.4284 73.9484,49.4284 C78.1644,49.4284 81.5804,52.8444 81.5804,57.0604 Z" id="Stroke-9"></path>
            <path d="M45.354,87.2148 C54.61,87.2148 54.61,82.1308 63.866,82.1308 C73.126,82.1308 73.126,87.2148 82.386,87.2148 C91.646,87.2148 91.646,82.1308 100.906,82.1308 C110.182,82.1308 110.182,87.2148 119.458,87.2148" id="Stroke-11"></path>
            <path d="M45.354,99.832 C54.61,99.832 54.61,94.748 63.866,94.748 C73.126,94.748 73.126,99.832 82.386,99.832 C91.646,99.832 91.646,94.748 100.906,94.748 C110.182,94.748 110.182,99.832 119.458,99.832" id="Stroke-13"></path>
            <path d="M1.0004,85.7028 C2.8004,86.5508 4.9364,87.2148 8.2844,87.2148 C17.5444,87.2148 17.5444,82.1308 26.8044,82.1308 C36.0804,82.1308 36.0804,87.2148 45.3524,87.2148" id="Stroke-15"></path>
            <path d="M1.0024,98.322 C2.8024,99.17 4.9384,99.83 8.2824,99.83 C17.5424,99.83 17.5424,94.746 26.8024,94.746 C36.0784,94.746 36.0784,99.83 45.3544,99.83" id="Stroke-17"></path>
            <path d="M1.0024,42.2148 L32.9624,42.2148 L32.9624,8.5988 C32.9624,4.3988 29.5624,0.9988 25.3664,0.9988 L1.0024,0.9988" id="Stroke-19"></path>
            <path d="M32.9632,15 L0.9992,15" id="Stroke-21"></path>
        </g>
    </g>
</svg>