<?xml version="1.0" encoding="UTF-8"?>
<svg width="1440px" height="830px" viewBox="0 0 1440 830" version="1.1" xmlns="http://www.w3.org/2000/svg" xmlns:xlink="http://www.w3.org/1999/xlink">
    <!-- Generator: Sketch 48.2 (47327) - http://www.bohemiancoding.com/sketch -->
    <title>Combined Shape</title>
    <desc>Created with Sketch.</desc>
    <defs></defs>
    <g id="Municipio" stroke="none" stroke-width="1" fill="none" fill-rule="evenodd" transform="translate(0.000000, -1868.000000)">
        <g id="Group-11" transform="translate(-409.000000, 1778.000000)" fill="#775A5A">
            <path d="M405,243.368017 C201.33174,227.127862 75,204.512125 75,179.5 C75,130.070515 568.382206,90 1177,90 C1785.61779,90 2279,130.070515 2279,179.5 C2279,207.075381 2125.4484,231.738041 1884,248.15576 L1884,767.114068 C2084.14645,783.318211 2208,805.734416 2208,830.5 C2208,879.929485 1714.61779,920 1106,920 C497.382206,920 4,879.929485 4,830.5 C4,802.696886 160.098307,777.854802 405,761.439169 L405,243.368017 Z" id="Combined-Shape"></path>
        </g>
    </g>
</svg>