<?xml version="1.0" encoding="UTF-8"?>
<svg width="163px" height="184px" viewBox="0 0 163 184" version="1.1" xmlns="http://www.w3.org/2000/svg" xmlns:xlink="http://www.w3.org/1999/xlink">
    <!-- Generator: Sketch 48.2 (47327) - http://www.bohemiancoding.com/sketch -->
    <title>Page 1</title>
    <desc>Created with Sketch.</desc>
    <defs>
        <polygon id="path-1" points="162.444 0.5552 162.444 162.9992 0 162.9992 0 0.5552"></polygon>
    </defs>
    <g id="Experiencia-El-Palmar-modal" stroke="none" stroke-width="1" fill="none" fill-rule="evenodd" transform="translate(-638.000000, -158.000000)">
        <g id="Group-18" transform="translate(390.000000, 82.000000)">
            <g id="Page-1" transform="translate(248.000000, 78.000000)">
                <g id="Group-3" transform="translate(0.000000, 18.285800)">
                    <mask id="mask-2" fill="white">
                        <use xlink:href="#path-1"></use>
                    </mask>
                    <g id="Clip-2"></g>
                    <path d="M0,81.7772 C0,36.9192 36.364,0.5552 81.222,0.5552 C126.08,0.5552 162.446,36.9192 162.446,81.7772 C162.446,126.6352 126.08,162.9992 81.222,162.9992 C36.364,162.9992 0,126.6352 0,81.7772" id="Fill-1" fill="#FAC22F" mask="url(#mask-2)"></path>
                </g>
                <path d="M101.465,78.2604 L111.807,85.4404 C118.387,90.0204 121.785,97.9604 120.567,105.8804 L113.525,151.6404 L113.525,163.1004 C103.865,168.1004 92.865,170.9204 81.227,170.9204 C79.747,170.9204 78.265,170.8804 76.785,170.7804 L76.785,148.7204 C76.785,148.7204 70.525,140.6604 69.845,128.1404 C69.785,127.5404 69.765,126.9204 69.765,126.2804 C69.705,121.9604 71.045,118.1004 72.887,114.8404 C74.685,111.6404 76.965,109.0404 78.925,107.1404 C81.227,104.9204 83.045,103.7004 83.045,103.7004 L83.045,90.4604 L83.045,65.5604 C83.045,63.0204 84.067,60.7004 85.747,59.0404 C87.407,57.3804 89.705,56.3404 92.247,56.3404 C92.987,56.3404 93.705,56.4204 94.387,56.6004 C98.445,57.5604 101.465,61.2004 101.465,65.5604 L101.465,78.2604 Z" id="Fill-4" fill="#FFD2AC"></path>
                <path d="M94.4454,13.6402 L94.4454,56.3402 L94.3874,56.6002 C93.7054,56.4202 92.9874,56.3402 92.2454,56.3402 C89.7054,56.3402 87.4054,57.3802 85.7454,59.0402 C84.0674,60.7002 83.0454,63.0202 83.0454,65.5602 L83.0454,90.4602 L29.3854,90.4602 L29.3854,13.6402 L94.4454,13.6402 Z" id="Fill-6" fill="#FFFFFF"></path>
                <path d="M94.4454,9.4996 L94.4454,13.6396 L29.3854,13.6396 L29.3854,9.4996 C29.3854,4.2796 33.6654,-0.0004 38.8854,-0.0004 L84.9454,-0.0004 C90.1654,-0.0004 94.4454,4.2796 94.4454,9.4996" id="Fill-8" fill="#4D5BA8"></path>
                <path d="M83.045,90.4596 L83.045,103.6996 C83.045,103.6996 81.227,104.9196 78.925,107.1396 L40.025,107.1396 L40.005,107.1396 L38.885,107.1396 C33.667,107.1396 29.385,102.8596 29.385,97.6396 L29.385,90.4596 L83.045,90.4596 Z" id="Fill-10" fill="#4D5BA8"></path>
                <path d="M40.0254,107.1402 L78.9254,107.1402 C76.9654,109.0402 74.6854,111.6402 72.8874,114.8402 L55.9454,114.8402 L48.3854,114.8402 C43.9854,114.8402 40.3854,111.4402 40.0254,107.1402" id="Fill-12" fill="#FFD2AC"></path>
                <path d="M55.9454,114.8394 L72.8874,114.8394 C71.0454,118.0994 69.7054,121.9594 69.7654,126.2794 C69.7654,126.9194 69.7854,127.5394 69.8454,128.1394 L69.5054,128.1594 L58.9254,128.1594 C52.2654,128.1594 49.2854,125.1794 49.2854,121.4994 C49.2854,119.6594 50.0254,117.9994 51.2254,116.7794 C52.4454,115.5794 54.1054,114.8394 55.9454,114.8394" id="Fill-14" fill="#FFD2AC"></path>
                <path d="M113.5254,163.1002 L113.5254,151.6402 L120.5674,105.8802 C121.7854,97.9602 118.3874,90.0202 111.8074,85.4402 L101.4654,78.2602" id="Stroke-16" stroke="#484848" stroke-width="4" stroke-linecap="round" stroke-linejoin="round"></path>
                <path d="M107.4454,110.2604 C104.1474,110.2604 101.4654,107.5804 101.4654,104.2604 L101.4654,78.2604 L101.4654,65.5604 C101.4654,61.2004 98.4454,57.5604 94.3874,56.6004 C93.7054,56.4204 92.9874,56.3404 92.2454,56.3404 C89.7054,56.3404 87.4054,57.3804 85.7454,59.0404 C84.0674,60.7004 83.0454,63.0204 83.0454,65.5604 L83.0454,90.4604 L83.0454,103.7004 C83.0454,103.7004 81.2274,104.9204 78.9254,107.1404 C76.9654,109.0404 74.6854,111.6404 72.8874,114.8404 C71.0454,118.1004 69.7054,121.9604 69.7654,126.2804 C69.7654,126.9204 69.7854,127.5404 69.8454,128.1404 C70.5254,140.6604 76.7854,148.7204 76.7854,148.7204 L76.7854,170.7804" id="Stroke-18" stroke="#484848" stroke-width="4" stroke-linecap="round" stroke-linejoin="round"></path>
                <path d="M72.8868,114.8394 L55.9448,114.8394 L48.3868,114.8394 C43.9848,114.8394 40.3868,111.4394 40.0248,107.1394" id="Stroke-20" stroke="#484848" stroke-width="4" stroke-linecap="round" stroke-linejoin="round"></path>
                <path d="M69.506,128.1598 L58.926,128.1598 C52.266,128.1598 49.286,125.1798 49.286,121.4998 C49.286,119.6598 50.026,117.9998 51.226,116.7798 C52.446,115.5798 54.106,114.8398 55.946,114.8398" id="Stroke-22" stroke="#484848" stroke-width="4" stroke-linecap="round" stroke-linejoin="round"></path>
                <path d="M78.9258,107.1402 L40.0258,107.1402 L40.0058,107.1402 L38.8858,107.1402 C33.6658,107.1402 29.3858,102.8602 29.3858,97.6402 L29.3858,90.4602 L29.3858,13.6402 L29.3858,9.5002 C29.3858,4.2802 33.6658,0.0002 38.8858,0.0002 L84.9458,0.0002 C90.1658,0.0002 94.4458,4.2802 94.4458,9.5002 L94.4458,13.6402 L94.4458,56.3402" id="Stroke-24" stroke="#484848" stroke-width="4" stroke-linecap="round" stroke-linejoin="round"></path>
                <path d="M29.3858,13.6402 L94.4458,13.6402" id="Stroke-26" stroke="#484848" stroke-width="4" stroke-linecap="round" stroke-linejoin="round"></path>
                <path d="M83.045,90.4596 L29.385,90.4596" id="Stroke-28" stroke="#484848" stroke-width="4" stroke-linecap="round" stroke-linejoin="round"></path>
                <path d="M60.8068,97.94 L63.0248,97.94" id="Stroke-30" stroke="#484848" stroke-width="4" stroke-linecap="round" stroke-linejoin="round"></path>
                <path d="M143.465,133.5396 C136.727,146.1796 126.265,156.5196 113.525,163.0996 C103.865,168.0996 92.865,170.9196 81.227,170.9196 C79.747,170.9196 78.265,170.8796 76.785,170.7796 C68.865,170.2996 61.285,168.4996 54.285,165.5996" id="Stroke-32" stroke="#484848" stroke-width="3.472" stroke-linecap="round" stroke-linejoin="round"></path>
                <path d="M82.1232,47.4292 C82.1232,57.9732 73.5752,66.5212 63.0312,66.5212 C52.4872,66.5212 43.9392,57.9732 43.9392,47.4292 C43.9392,36.8852 52.4872,28.3392 63.0312,28.3392 C73.5752,28.3392 82.1232,36.8852 82.1232,47.4292" id="Fill-34" fill="#FFA700"></path>
                <path d="M82.1232,47.4292 C82.1232,57.9732 73.5752,66.5212 63.0312,66.5212 C52.4872,66.5212 43.9392,57.9732 43.9392,47.4292 C43.9392,36.8852 52.4872,28.3392 63.0312,28.3392 C73.5752,28.3392 82.1232,36.8852 82.1232,47.4292 Z" id="Stroke-36" stroke="#484848" stroke-width="4" stroke-linecap="round" stroke-linejoin="round"></path>
                <path d="M62.9922,39.7956 L62.9922,55.0636" id="Stroke-38" stroke="#484848" stroke-width="4" stroke-linecap="round" stroke-linejoin="round"></path>
                <path d="M62.9922,55.064 L69.0522,49.004" id="Stroke-40" stroke="#484848" stroke-width="4" stroke-linecap="round" stroke-linejoin="round"></path>
                <path d="M62.9922,55.064 L57.1242,49.196" id="Stroke-42" stroke="#484848" stroke-width="4" stroke-linecap="round" stroke-linejoin="round"></path>
            </g>
        </g>
    </g>
</svg>