<?xml version="1.0" encoding="UTF-8"?>
<svg width="16px" height="16px" viewBox="0 0 16 16" version="1.1" xmlns="http://www.w3.org/2000/svg" xmlns:xlink="http://www.w3.org/1999/xlink">
    <!-- Generator: Sketch 47.1 (45422) - http://www.bohemiancoding.com/sketch -->
    <title>nature-16px_tree-02</title>
    <desc>Created with Sketch.</desc>
    <defs></defs>
    <g id="Evento" stroke="none" stroke-width="1" fill="none" fill-rule="evenodd">
        <g id="Artboard" transform="translate(-829.000000, -997.000000)" fill="#FFFFFF">
            <g id="Group-10" transform="translate(497.000000, 994.000000)">
                <g id="Group-2" transform="translate(332.000000, 0.000000)">
                    <g id="nature-16px_tree-02" transform="translate(0.000000, 3.000000)">
                        <path d="M12.58826,6.88232 L12.16394,6.88232 C12.42676,6.43084 12.58826,5.9129 12.58826,5.3529 C12.58826,3.66357 11.21875,2.29412 9.52942,2.29412 C9.51636,2.29412 9.50427,2.29778 9.49127,2.2979 C9.30597,1.00067 8.20142,0 6.85297,0 C5.37476,0 4.17645,1.1983 4.17645,2.67645 C4.17645,2.93603 4.22503,3.18194 4.294,3.41925 C3.31927,3.93066 2.64703,4.94049 2.64703,6.11761 C2.64703,6.40832 2.70056,6.68389 2.7763,6.95031 C1.39227,7.2431 0.35297,8.46997 0.35297,9.94116 C0.35297,11.63049 1.72241,13 3.41174,13 L7,13 L7,16 L9,16 L9,13 L12.58826,13 C14.27759,13 15.64704,11.63049 15.64704,9.94116 C15.64703,8.25177 14.27759,6.88232 12.58826,6.88232 Z" id="Shape"></path>
                    </g>
                </g>
            </g>
        </g>
    </g>
</svg>