<?xml version="1.0" encoding="UTF-8"?>
<svg width="62px" height="39px" viewBox="0 0 62 39" version="1.1" xmlns="http://www.w3.org/2000/svg" xmlns:xlink="http://www.w3.org/1999/xlink">
    <!-- Generator: Sketch 47.1 (45422) - http://www.bohemiancoding.com/sketch -->
    <title>Page 1</title>
    <desc>Created with Sketch.</desc>
    <defs></defs>
    <g id="1.28.n.Eventos" stroke="none" stroke-width="1" fill="none" fill-rule="evenodd" stroke-linecap="round" stroke-linejoin="round">
        <g id="Evento" transform="translate(-688.000000, -9297.000000)" stroke-width="2.7" stroke="#CFCFCF">
            <g id="Group-24" transform="translate(569.000000, 9278.000000)">
                <g id="Group-22" transform="translate(119.000000, 19.000000)">
                    <g id="Page-1">
                        <path d="M23.1308522,25.8082429 C23.1308522,31.8638143 18.2544174,36.7766714 12.2377217,36.7766714 C6.22372174,36.7766714 1.34728696,31.8638143 1.34728696,25.8082429 C1.34728696,19.7526714 6.22372174,14.8425286 12.2377217,14.8425286 C18.2544174,14.8425286 23.1308522,19.7526714 23.1308522,25.8082429 Z" id="Stroke-1"></path>
                        <path d="M60.1025304,25.8082429 C60.1025304,31.8638143 55.2260957,36.7766714 49.2094,36.7766714 C43.1954,36.7766714 38.3189652,31.8638143 38.3189652,25.8082429 C38.3189652,19.7526714 43.1954,14.8425286 49.2094,14.8425286 C55.2260957,14.8425286 60.1025304,19.7526714 60.1025304,25.8082429 Z" id="Stroke-3"></path>
                        <path d="M12.2390696,25.8082429 L18.8730696,5.33981429" id="Stroke-5"></path>
                        <path d="M18.8741478,5.33981429 L43.0622348,5.33981429" id="Stroke-7"></path>
                        <path d="M43.0614261,5.33981429 L49.2102087,25.8082429" id="Stroke-9"></path>
                        <path d="M31.425913,25.8082429 L18.8749565,5.33981429 C18.8749565,3.64881429 17.5136522,2.28081429 15.8369565,2.28081429 L12.5698261,2.28081429 C10.6397391,2.28081429 9.07356522,3.85781429 9.07356522,5.80124286 C9.07356522,7.74467143 10.6397391,9.32167143 12.5698261,9.32167143 L13.4297391,9.32167143" id="Stroke-11"></path>
                        <path d="M49.2107478,25.8082429 L31.4248348,25.8082429" id="Stroke-13"></path>
                        <path d="M43.0614261,5.33981429 L31.4269913,25.8082429" id="Stroke-15"></path>
                        <path d="M43.0614261,5.33981429 L43.0614261,1.35795714" id="Stroke-17"></path>
                        <path d="M39.1640522,1.35714286 L46.9598783,1.35714286" id="Stroke-19"></path>
                    </g>
                </g>
            </g>
        </g>
    </g>
</svg>