<?xml version="1.0" encoding="UTF-8"?>
<svg width="58px" height="94px" viewBox="0 0 58 94" version="1.1" xmlns="http://www.w3.org/2000/svg" xmlns:xlink="http://www.w3.org/1999/xlink">
    <!-- Generator: Sketch 48.2 (47327) - http://www.bohemiancoding.com/sketch -->
    <title>Page 1</title>
    <desc>Created with Sketch.</desc>
    <defs>
        <polygon id="path-1" points="0 93.4648 57.8 93.4648 57.8 0.0008 0 0.0008"></polygon>
    </defs>
    <g id="Diversion" stroke="none" stroke-width="1" fill="none" fill-rule="evenodd" transform="translate(-1167.000000, -1887.000000)">
        <g id="Page-1" transform="translate(1167.000000, 1887.000000)">
            <path d="M14.0672,59.6952 C12.9626305,59.6952 12.0672,58.7997695 12.0672,57.6952 L12.0672,45.4112 C12.0672,37.2106305 18.7146305,30.5632 26.9152,30.5632 C31.0530844,30.5632 35.0009433,32.2881598 37.8107059,35.3243672 L57.2667059,56.3363672 C58.4522776,57.6167554 57.5441854,59.6952 55.7992,59.6952 L14.0672,59.6952 Z M16.0672,55.6952 L51.2215928,55.6952 L34.8753074,38.041615 C32.822345,35.8232001 29.9386242,34.5632 26.9152,34.5632 C20.9237695,34.5632 16.0672,39.4197695 16.0672,45.4112 L16.0672,55.6952 Z" id="Stroke-1" fill="#FFFFFF" fill-rule="nonzero"></path>
            <path d="M8.9032,3.9996 C6.1957695,3.9996 3.9992,6.1961695 3.9992,8.9036 C3.9992,11.6110305 6.1957695,13.8076 8.9032,13.8076 L12.0672,13.8076 L12.0672,3.9996 L8.9032,3.9996 Z M8.9032,-0.0004 L14.0672,-0.0004 C15.1717695,-0.0004 16.0672,0.8950305 16.0672,1.9996 L16.0672,15.8076 C16.0672,16.9121695 15.1717695,17.8076 14.0672,17.8076 L8.9032,17.8076 C3.9866305,17.8076 -0.0008,13.8201695 -0.0008,8.9036 C-0.0008,3.9870305 3.9866305,-0.0004 8.9032,-0.0004 Z" id="Stroke-3" fill="#FFFFFF" fill-rule="nonzero"></path>
            <mask id="mask-2" fill="white">
                <use xlink:href="#path-1"></use>
            </mask>
            <g id="Clip-6"></g>
            <path d="M14.068,12.3008 C12.9634305,12.3008 12.068,11.4053695 12.068,10.3008 L12.068,2.0008 C12.068,0.8962305 12.9634305,0.0008 14.068,0.0008 L22.368,0.0008 C23.4725695,0.0008 24.368,0.8962305 24.368,2.0008 L24.368,10.3008 C24.368,11.4053695 23.4725695,12.3008 22.368,12.3008 L14.068,12.3008 Z M16.068,8.3008 L20.368,8.3008 L20.368,4.0008 L16.068,4.0008 L16.068,8.3008 Z" id="Stroke-5" fill="#FFFFFF" fill-rule="nonzero" mask="url(#mask-2)"></path>
            <path d="M27.1168,8.1276 C27.1168,6.33211302 25.9698418,4.80395683 24.3688,4.23600608 L24.3688,12.0191939 C25.9698418,11.4512432 27.1168,9.92308698 27.1168,8.1276 Z M22.9888,16.2556 L22.3688,16.2556 C21.2642305,16.2556 20.3688,15.3601695 20.3688,14.2556 L20.3688,1.9996 C20.3688,0.8950305 21.2642305,-0.0004 22.3688,-0.0004 L22.9888,-0.0004 C27.4773695,-0.0004 31.1168,3.6390305 31.1168,8.1276 C31.1168,12.6161695 27.4773695,16.2556 22.9888,16.2556 Z" id="Stroke-7" fill="#FFFFFF" fill-rule="nonzero" mask="url(#mask-2)"></path>
            <path d="M7.6784,8.1288 C7.6784,8.7773695 8.2058305,9.3048 8.8544,9.3048 C9.50785977,9.3048 10.0344,8.7764869 10.0344,8.1288 C10.0344,7.47998506 9.51074127,6.9528 8.8544,6.9528 C8.20294992,6.9528 7.6784,7.47911015 7.6784,8.1288 Z M11.6784,8.1288 C11.6784,9.68525495 10.4150942,10.9528 8.8544,10.9528 C7.29557044,10.9528 6.0344,9.68313683 6.0344,8.1288 C6.0344,6.57035215 7.29570533,5.3048 8.8544,5.3048 C10.4149695,5.3048 11.6784,6.5682305 11.6784,8.1288 Z" id="Stroke-8" fill="#FFFFFF" fill-rule="nonzero" mask="url(#mask-2)"></path>
            <path d="M31.356,57.6952 C31.356,56.5906305 32.2514305,55.6952 33.356,55.6952 C34.4605695,55.6952 35.356,56.5906305 35.356,57.6952 L35.356,91.4632 C35.356,92.5677695 34.4605695,93.4632 33.356,93.4632 C32.2514305,93.4632 31.356,92.5677695 31.356,91.4632 L31.356,57.6952 Z" id="Stroke-9" fill="#FFFFFF" fill-rule="nonzero" mask="url(#mask-2)"></path>
            <path d="M33.356,89.4648 C34.4605695,89.4648 35.356,90.3602305 35.356,91.4648 C35.356,92.5693695 34.4605695,93.4648 33.356,93.4648 L25.74,93.4648 C24.6354305,93.4648 23.74,92.5693695 23.74,91.4648 C23.74,90.3602305 24.6354305,89.4648 25.74,89.4648 L33.356,89.4648 Z" id="Stroke-10" fill="#FFFFFF" fill-rule="nonzero" mask="url(#mask-2)"></path>
            <path d="M27.70156,59.1091871 C26.9206365,58.3280134 26.9208393,57.0616835 27.7020129,56.28076 C28.4831866,55.4998365 29.7495165,55.5000393 30.53044,56.2812129 L43.01844,68.7732129 C43.7993635,69.5543866 43.7991607,70.8207165 43.0179871,71.60164 C42.2368134,72.3825635 40.9704835,72.3823607 40.18956,71.6011871 L27.70156,59.1091871 Z" id="Stroke-11" fill="#FFFFFF" fill-rule="nonzero" mask="url(#mask-2)"></path>
            <path d="M41.604,68.1852 C42.7085695,68.1852 43.604,69.0806305 43.604,70.1852 C43.604,71.2897695 42.7085695,72.1852 41.604,72.1852 L18.216,72.1852 C17.1114305,72.1852 16.216,71.2897695 16.216,70.1852 C16.216,69.0806305 17.1114305,68.1852 18.216,68.1852 L41.604,68.1852 Z" id="Stroke-12" fill="#FFFFFF" fill-rule="nonzero" mask="url(#mask-2)"></path>
            <path d="M16.2176,70.1852 C16.2176,69.0806305 17.1130305,68.1852 18.2176,68.1852 C19.3221695,68.1852 20.2176,69.0806305 20.2176,70.1852 L20.2176,75.7452 C20.2176,76.8497695 19.3221695,77.7452 18.2176,77.7452 C17.1130305,77.7452 16.2176,76.8497695 16.2176,75.7452 L16.2176,70.1852 Z" id="Stroke-13" fill="#FFFFFF" fill-rule="nonzero" mask="url(#mask-2)"></path>
            <path d="M16.0672,57.6952 C16.0672,58.7997695 15.1717695,59.6952 14.0672,59.6952 C7.93538508,59.6952 2.9632,54.7245239 2.9632,48.5952 L2.9632,15.8072 C2.9632,14.7026305 3.8586305,13.8072 4.9632,13.8072 L14.0672,13.8072 C15.1717695,13.8072 16.0672,14.7026305 16.0672,15.8072 L16.0672,57.6952 Z M12.0672,17.8072 L6.9632,17.8072 L6.9632,48.5952 C6.9632,51.8212269 9.11773669,54.5461671 12.0672,55.4097955 L12.0672,17.8072 Z" id="Stroke-14" fill="#FFFFFF" fill-rule="nonzero" mask="url(#mask-2)"></path>
        </g>
    </g>
</svg>