<?xml version="1.0" encoding="UTF-8"?>
<svg width="26px" height="24px" viewBox="0 0 26 24" version="1.1" xmlns="http://www.w3.org/2000/svg" xmlns:xlink="http://www.w3.org/1999/xlink">
    <!-- Generator: Sketch 51.2 (57519) - http://www.bohemiancoding.com/sketch -->
    <title>Group 18</title>
    <desc>Created with Sketch.</desc>
    <defs>
        <polygon id="path-1" points="0 23.793 25.622 23.793 25.622 0 0 0"></polygon>
    </defs>
    <g id="Publicaciones" stroke="none" stroke-width="1" fill="none" fill-rule="evenodd">
        <g transform="translate(-585.000000, -583.000000)" id="Group-18">
            <g transform="translate(585.000000, 583.000000)">
                <path d="M7.7189,20.4369 L2.8649,20.4369 C1.5589,20.4369 0.4999,19.3779 0.4999,18.0729 L0.4999,13.4969 L25.1219,13.4969 L25.1219,18.0729 C25.1219,19.3779 24.0629,20.4369 22.7579,20.4369 L17.9029,20.4369" id="Stroke-1" stroke="#484848" stroke-linecap="round" stroke-linejoin="round"></path>
                <polyline id="Stroke-3" stroke="#484848" stroke-linecap="round" stroke-linejoin="round" points="2.9093 10.2582 0.5003 13.4962 25.1213 13.4962 22.7123 10.2582"></polyline>
                <path d="M15.8273,10.2582 L22.6963,10.2582 L22.6963,2.9842 C22.6963,1.6122 21.5843,0.5002 20.2123,0.5002 L5.3933,0.5002 C4.0213,0.5002 2.9093,1.6122 2.9093,2.9842 L2.9093,10.2582 L9.7713,10.2582" id="Stroke-5" stroke="#484848" stroke-linecap="round" stroke-linejoin="round"></path>
                <path d="M0.5001,16.0536 L25.1221,16.0536" id="Stroke-7" stroke="#484848" stroke-linecap="round" stroke-linejoin="round"></path>
                <path d="M6.7506,18.245 L18.8706,18.245" id="Stroke-9" stroke="#484848" stroke-linecap="round" stroke-linejoin="round"></path>
                <path d="M17.3058,6.9496 C17.3058,9.4316 15.2938,11.4446 12.8108,11.4446 C10.3278,11.4446 8.3158,9.4316 8.3158,6.9496 C8.3158,4.4676 10.3278,2.4546 12.8108,2.4546 C15.2938,2.4546 17.3058,4.4676 17.3058,6.9496 Z" id="Stroke-11" stroke="#484848" stroke-linecap="round" stroke-linejoin="round"></path>
                <path d="M15.2823,6.9496 C15.2823,8.3146 14.1763,9.4206 12.8103,9.4206 C11.4463,9.4206 10.3393,8.3146 10.3393,6.9496 C10.3393,5.5846 11.4463,4.4786 12.8103,4.4786 C14.1763,4.4786 15.2823,5.5846 15.2823,6.9496 Z" id="Stroke-13" stroke="#484848" stroke-linecap="round" stroke-linejoin="round"></path>
                <mask id="mask-2" fill="white">
                    <use xlink:href="#path-1"></use>
                </mask>
                <g id="Clip-16"></g>
                <polygon id="Stroke-15" stroke="#484848" stroke-linecap="round" stroke-linejoin="round" mask="url(#mask-2)" points="7.719 23.293 17.903 23.293 17.903 18.245 7.719 18.245"></polygon>
                <path d="M20.1481,3.39 C20.1481,3.686 19.9081,3.925 19.6131,3.925 C19.3171,3.925 19.0771,3.686 19.0771,3.39 C19.0771,3.094 19.3171,2.854 19.6131,2.854 C19.9081,2.854 20.1481,3.094 20.1481,3.39 Z" id="Stroke-17" stroke="#484848" stroke-linecap="round" stroke-linejoin="round" mask="url(#mask-2)"></path>
            </g>
        </g>
    </g>
</svg>