<svg id="Capa_1" data-name="Capa 1" xmlns="http://www.w3.org/2000/svg" viewBox="0 0 23 23"><defs><style>.cls-1{fill:none;stroke:#fff;stroke-linecap:round;stroke-linejoin:round;}</style></defs><title>iconos</title><path class="cls-1" d="M3.24,19.72c1.93,0,1.93-1.06,3.86-1.06S9,19.72,11,19.72s1.93-1.06,3.86-1.06,1.94,1.06,3.87,1.06"/><path class="cls-1" d="M3.24,22.35c1.93,0,1.93-1.06,3.86-1.06S9,22.35,11,22.35s1.93-1.06,3.86-1.06,1.94,1.06,3.87,1.06"/><path class="cls-1" d="M13.24,18.79s-1.8-3.5.52-6.13"/><path class="cls-1" d="M13.41,11.3a4.41,4.41,0,0,0-4.29-.87s1.08-2.56,4.69-1.08c0,0-.45-2.53-4.17-3.22a4.3,4.3,0,0,1,5.91,1.92s.6-3.37,5.74-2.18c0,0-3.61.92-3.63,3.32a3.94,3.94,0,0,1,4.9,2.37s-3.19-1.63-5.35-.4c0,0,3.16.29,2.63,4.25a5.4,5.4,0,0,0-4.53-3"/><path class="cls-1" d="M10.1,7.71A3.36,3.36,0,0,0,6.16,9.59S5.67,6.83,1.47,7.8c0,0,3,.75,3,2.71a3.22,3.22,0,0,0-4,1.94s2.6-1.34,4.37-.32c0,0-2.58.23-2.15,3.46a8.63,8.63,0,0,1,1.2-1.5c1.22-1,3.11-1.36,4.08.28s.37,3.44.11,4.42"/><path class="cls-1" d="M7.9,12.23a2.92,2.92,0,0,1,.61-.43"/></svg>