<?xml version="1.0" encoding="UTF-8"?>
<svg width="25px" height="18px" viewBox="0 0 25 18" version="1.1" xmlns="http://www.w3.org/2000/svg" xmlns:xlink="http://www.w3.org/1999/xlink">
    <!-- Generator: Sketch 47.1 (45422) - http://www.bohemiancoding.com/sketch -->
    <title>Page 1</title>
    <desc>Created with Sketch.</desc>
    <defs></defs>
    <g id="1.25.Resultado-búsqueda-(experiencia)" stroke="none" stroke-width="1" fill="none" fill-rule="evenodd" stroke-linecap="round" stroke-linejoin="round">
        <g id="Resultado-búsqueda" transform="translate(-667.000000, -1492.000000)" stroke="#FFFFFF">
            <g id="Page-1" transform="translate(668.000000, 1492.000000)">
                <path d="M3.3008,14.6106 C5.2308,14.6106 5.2308,13.5506 7.1598,13.5506 C9.0908,13.5506 9.0908,14.6106 11.0198,14.6106 C12.9508,14.6106 12.9508,13.5506 14.8818,13.5506 C16.8148,13.5506 16.8148,14.6106 18.7488,14.6106" id="Stroke-1"></path>
                <path d="M3.3008,17.241 C5.2308,17.241 5.2308,16.181 7.1598,16.181 C9.0908,16.181 9.0908,17.241 11.0198,17.241 C12.9508,17.241 12.9508,16.181 14.8818,16.181 C16.8148,16.181 16.8148,17.241 18.7488,17.241" id="Stroke-3"></path>
                <path d="M13.2944,13.6741 C13.2944,13.6741 11.4964,10.1741 13.8144,7.5501" id="Stroke-5"></path>
                <path d="M13.4692,6.1824 C13.4692,6.1824 11.9672,4.6004 9.1732,5.3124 C9.1732,5.3124 10.2532,2.7564 13.8652,4.2324 C13.8652,4.2324 13.4162,1.7014 9.7002,1.0164 C9.7002,1.0164 13.4432,-0.9866 15.6042,2.9404 C15.6042,2.9404 16.2102,-0.4336 21.3502,0.7524 C21.3502,0.7524 17.7392,1.6754 17.7132,4.0744 C17.7132,4.0744 21.2712,2.9664 22.6152,6.4464 C22.6152,6.4464 19.4262,4.8114 17.2652,6.0504 C17.2652,6.0504 20.4282,6.3404 19.9012,10.2944 C19.9012,10.2944 18.5042,7.3424 15.3672,7.3154" id="Stroke-7"></path>
                <path d="M10.1587,2.5931 C9.1197,2.3511 7.3877,2.3531 6.2207,4.4731 C6.2207,4.4731 5.7257,1.7201 1.5327,2.6881 C1.5327,2.6881 4.4787,3.4411 4.5007,5.3981 C4.5007,5.3981 1.5967,4.4951 0.4997,7.3341 C0.4997,7.3341 3.1027,6.0001 4.8657,7.0111 C4.8657,7.0111 2.2847,7.2481 2.7157,10.4741 C2.9837,10.0131 3.6597,9.1961 3.9187,8.9791 C5.1397,7.9631 7.0307,7.6181 7.9977,9.2561 C8.9987,10.9501 8.3637,12.6931 8.1057,13.6741" id="Stroke-9"></path>
                <path d="M7.9629,7.1189 C7.9629,7.1189 8.1689,6.9029 8.5669,6.6869" id="Stroke-11"></path>
            </g>
        </g>
    </g>
</svg>