<?xml version="1.0" encoding="UTF-8"?>
<svg width="110px" height="93px" viewBox="0 0 110 93" version="1.1" xmlns="http://www.w3.org/2000/svg" xmlns:xlink="http://www.w3.org/1999/xlink">
    <!-- Generator: Sketch 48.2 (47327) - http://www.bohemiancoding.com/sketch -->
    <title>Page 1</title>
    <desc>Created with Sketch.</desc>
    <defs></defs>
    <g id="Necesitas-ayuda" stroke="none" stroke-width="1" fill="none" fill-rule="evenodd" transform="translate(-1017.000000, -1719.000000)" stroke-linecap="round" stroke-linejoin="round">
        <g id="Page-1" transform="translate(1018.000000, 1721.000000)" stroke="#FFFFFF" stroke-width="4">
            <polyline id="Stroke-1" points="26.4852 0 41.7452 15.264 11.8052 45.208 0.9972 34.404"></polyline>
            <path d="M7.3192,28.082 L13.0792,33.842" id="Stroke-3"></path>
            <path d="M36.3956,20.6132 L70.9476,20.6132" id="Stroke-4"></path>
            <polyline id="Stroke-5" points="81.3388 0 65.8828 15.488 95.8268 45.428 106.6308 34.624"></polyline>
            <path d="M100.3116,28.3064 L94.5516,34.0664" id="Stroke-7"></path>
            <g id="Group-28" transform="translate(14.000000, 20.336000)">
                <path d="M0.0692,22.9316 L5.8652,28.7276 C7.0372,29.8996 7.6932,31.4836 7.6932,33.1396 C7.6932,34.7956 8.3492,36.3836 9.5212,37.5516 L38.0612,66.0956 C39.8532,67.8836 42.7532,67.8836 44.5452,66.0956 C46.3332,64.3036 46.3332,61.3996 44.5452,59.6076 L30.1212,45.1876" id="Stroke-8"></path>
                <path d="M34.8156,0.502 L25.4156,9.902 C23.5236,11.794 23.5236,14.858 25.4156,16.75 C27.3076,18.642 30.3716,18.642 32.2596,16.75 L39.1516,9.858 C39.7156,9.294 40.4836,8.978 41.2796,8.978 C42.9436,8.978 44.2916,10.326 44.2916,11.99 L44.2916,17.822 C44.2916,18.622 44.6076,19.386 45.1716,19.95 L66.9276,41.71 C68.6756,43.454 68.6756,46.286 66.9276,48.034 C65.1836,49.778 62.3516,49.778 60.6036,48.034 L43.9396,31.37" id="Stroke-10"></path>
                <path d="M58.6336,17.3748 C58.6336,20.1708 56.3656,22.4388 53.5696,22.4388 L47.6576,22.4388" id="Stroke-12"></path>
                <path d="M79.87,23.1364 L75.178,27.8284 C74.282,28.7204 73.782,29.9364 73.782,31.2004 C73.782,32.4644 73.278,33.6764 72.382,34.5684 L66.162,40.7924" id="Stroke-14"></path>
                <path d="M10.4052,38.408 L9.2132,39.6 C7.3492,41.464 7.3492,44.488 9.2132,46.348 C11.0772,48.216 14.0972,48.216 15.9612,46.348 L17.1532,45.156" id="Stroke-16"></path>
                <path d="M17.1532,45.1836 L15.9612,46.3756 C14.0972,48.2396 14.0972,51.2636 15.9612,53.1276 C17.8252,54.9916 20.8452,54.9916 22.7092,53.1276 L23.9012,51.9316" id="Stroke-18"></path>
                <path d="M23.9012,51.9452 L22.7092,53.1372 C20.8452,55.0012 20.8452,58.0252 22.7092,59.8892 C24.5692,61.7532 27.5932,61.7532 29.4572,59.8892 L30.6492,58.6932" id="Stroke-20"></path>
                <path d="M30.6944,58.66 L29.5024,59.852 C27.6384,61.716 27.6384,64.74 29.5024,66.6 C31.3664,68.468 34.3864,68.468 36.2504,66.6 L37.4424,65.408" id="Stroke-22"></path>
                <path d="M37.1924,38.1192 L56.3284,57.2552 C58.1924,59.1192 61.2164,59.1192 63.0804,57.2552 C64.9444,55.3872 64.9444,52.3672 63.0804,50.4992 L44.0644,31.4832" id="Stroke-24"></path>
                <path d="M30.122,45.1872 L47.674,62.7272 C49.622,64.6752 52.778,64.6752 54.722,62.7272 C56.67,60.7792 56.67,57.6272 54.726,55.6792 L37.194,38.1192" id="Stroke-26"></path>
            </g>
        </g>
    </g>
</svg>