<?xml version="1.0" encoding="UTF-8"?>
<svg width="77px" height="72px" viewBox="0 0 77 72" version="1.1" xmlns="http://www.w3.org/2000/svg" xmlns:xlink="http://www.w3.org/1999/xlink">
    <!-- Generator: Sketch 48.2 (47327) - http://www.bohemiancoding.com/sketch -->
    <title>Page 1</title>
    <desc>Created with Sketch.</desc>
    <defs></defs>
    <g id="Sala-prensa-idiomas" stroke="none" stroke-width="1" fill="none" fill-rule="evenodd" transform="translate(-1160.000000, -1081.000000)" stroke-linecap="round" stroke-linejoin="round">
        <g id="Page-1" transform="translate(1162.000000, 1082.000000)" stroke="#FFFFFF" stroke-width="4">
            <polygon id="Stroke-1" points="0 68.9352 51.232 68.9352 51.232 26.6152 0 26.6152"></polygon>
            <polygon id="Stroke-3" points="12.724 56.3072 38.508 56.3072 38.508 39.2432 12.724 39.2432"></polygon>
            <g id="Group-14" transform="translate(0.000000, 0.935200)">
                <polygon id="Stroke-4" points="72.3872 66.91 51.2312 58.638 51.2312 39.694 72.3872 31.422"></polygon>
                <path d="M25.6156,12.8728 C25.6156,5.7968 19.8796,0.0648 12.8076,0.0648 C5.7356,0.0648 -0.0004,5.7968 -0.0004,12.8728 C-0.0004,19.9488 5.7356,25.6808 12.8076,25.6808 C19.8796,25.6808 25.6156,19.9488 25.6156,12.8728 Z" id="Stroke-6"></path>
                <path d="M5.76,12.8728 C5.76,16.7648 8.916,19.9208 12.808,19.9208" id="Stroke-8"></path>
                <path d="M31.3752,12.8728 C31.3752,16.7648 34.5312,19.9208 38.4232,19.9208" id="Stroke-10"></path>
                <path d="M51.2308,12.8728 C51.2308,5.7968 45.4988,0.0648 38.4228,0.0648 C31.3508,0.0648 25.6148,5.7968 25.6148,12.8728 C25.6148,19.9488 31.3508,25.6808 38.4228,25.6808 C45.4988,25.6808 51.2308,19.9488 51.2308,12.8728 Z" id="Stroke-12"></path>
            </g>
        </g>
    </g>
</svg>