<?xml version="1.0" encoding="UTF-8"?>
<svg width="164px" height="172px" viewBox="0 0 164 172" version="1.1" xmlns="http://www.w3.org/2000/svg" xmlns:xlink="http://www.w3.org/1999/xlink">
    <!-- Generator: Sketch 51.2 (57519) - http://www.bohemiancoding.com/sketch -->
    <title>Group 22</title>
    <desc>Created with Sketch.</desc>
    <defs>
        <polygon id="path-1" points="0.000402439024 1.56738485 163.434512 1.56738485 163.434512 165.242021 0.000402439024 165.242021"></polygon>
    </defs>
    <g id="Publicaciones" stroke="none" stroke-width="1" fill="none" fill-rule="evenodd">
        <g id="Publicaciones-modal" transform="translate(-638.000000, -147.000000)">
            <g id="Group-22" transform="translate(638.000000, 148.000000)">
                <g id="Group-3" transform="translate(0.000000, 5.239803)">
                    <mask id="mask-2" fill="white">
                        <use xlink:href="#path-1"></use>
                    </mask>
                    <g id="Clip-2"></g>
                    <path d="M0.000402439024,83.404703 C0.000402439024,38.2068697 36.5861341,1.56738485 81.7176585,1.56738485 C126.849183,1.56738485 163.434915,38.2068697 163.434915,83.404703 C163.434915,128.602536 126.849183,165.242021 81.7176585,165.242021 C36.5861341,165.242021 0.000402439024,128.602536 0.000402439024,83.404703" id="Fill-1" fill="#FFC305" mask="url(#mask-2)"></path>
                </g>
                <path d="M12.7337744,103.512294 C8.77377439,81.1481424 15.4220671,57.2706121 32.6766402,39.9906879 C36.1476768,36.5145515 39.882311,33.4696576 43.8201768,30.8539909" id="Stroke-4" stroke="#484848" stroke-width="4.032" stroke-linecap="round" stroke-linejoin="round"></path>
                <path d="M19.7076402,145.34422 L35.3725793,124.426947 L35.3725793,93.053053 C35.3725793,87.2997955 40.0710549,82.5944167 45.815872,82.5944167 L87.5850183,82.5944167 C93.3298354,82.5944167 98.0303232,87.2997955 98.0303232,93.053053 L98.0303232,134.885583 C98.0303232,140.638841 93.3298354,145.34422 87.5850183,145.34422 L51.0355061,145.34422 L19.7076402,145.34422 Z" id="Fill-6" fill="#FFFFFF"></path>
                <path d="M19.7076402,145.34422 L35.3725793,124.426947 L35.3725793,93.053053 C35.3725793,87.2997955 40.0710549,82.5944167 45.815872,82.5944167 L87.5850183,82.5944167 C93.3298354,82.5944167 98.0303232,87.2997955 98.0303232,93.053053 L98.0303232,134.885583 C98.0303232,140.638841 93.3298354,145.34422 87.5850183,145.34422 L51.0355061,145.34422 L19.7076402,145.34422 Z" id="Stroke-8" stroke="#484848" stroke-width="4.032" stroke-linecap="round" stroke-linejoin="round"></path>
                <path d="M56.2573537,103.511286 L77.143939,103.511286" id="Stroke-10" stroke="#484848" stroke-width="4.032" stroke-linecap="round" stroke-linejoin="round"></path>
                <path d="M56.2573537,124.42735 L66.7006463,124.42735" id="Stroke-12" stroke="#484848" stroke-width="4.032" stroke-linecap="round" stroke-linejoin="round"></path>
                <path d="M143.726872,62.76435 L128.063945,41.8490924 L128.063945,10.4731833 C128.063945,4.72194091 123.363457,0.0145469697 117.61864,0.0145469697 L75.8494939,0.0145469697 C70.1046768,0.0145469697 65.404189,4.72194091 65.404189,10.4731833 L65.404189,52.3057136 C65.404189,58.0589712 70.1046768,62.76435 75.8494939,62.76435 L112.399006,62.76435 L143.726872,62.76435 Z" id="Fill-14" fill="#4D5BA8"></path>
                <path d="M143.726872,63.76435 L128.063945,42.8490924 L128.063945,11.4731833 C128.063945,5.72194091 123.363457,1.01454697 117.61864,1.01454697 L75.8494939,1.01454697 C70.1046768,1.01454697 65.404189,5.72194091 65.404189,11.4731833 L65.404189,53.3057136 C65.404189,59.0589712 70.1046768,63.76435 75.8494939,63.76435 L112.399006,63.76435 L143.726872,63.76435 Z" id="Stroke-16" stroke="#484848" stroke-width="4.032" stroke-linecap="round" stroke-linejoin="round"></path>
                <path d="M107.17736,20.9312152 L86.2907744,20.9312152" id="Stroke-18" stroke="#484848" stroke-width="4.032" stroke-linecap="round" stroke-linejoin="round"></path>
                <path d="M107.17736,41.8482864 L96.7360793,41.8482864" id="Stroke-20" stroke="#484848" stroke-width="4.032" stroke-linecap="round" stroke-linejoin="round"></path>
            </g>
        </g>
    </g>
</svg>