<?xml version="1.0" encoding="UTF-8"?>
<svg width="24px" height="22px" viewBox="0 0 24 22" version="1.1" xmlns="http://www.w3.org/2000/svg" xmlns:xlink="http://www.w3.org/1999/xlink">
    <!-- Generator: Sketch 47.1 (45422) - http://www.bohemiancoding.com/sketch -->
    <title>Page 1</title>
    <desc>Created with Sketch.</desc>
    <defs></defs>
    <g id="1.25.Resultado-búsqueda-(experiencia)" stroke="none" stroke-width="1" fill="none" fill-rule="evenodd">
        <g id="Resultado-búsqueda" transform="translate(-1145.000000, -1488.000000)">
            <g id="Group-2" transform="translate(960.000000, 1028.000000)">
                <g id="Page-1" transform="translate(185.000000, 460.000000)">
                    <path d="M14,3 L21,3" id="Stroke-1" stroke="#FFFFFF" stroke-linecap="round" stroke-linejoin="round"></path>
                    <g id="Group-14">
                        <path d="M22.9231,19.919 L22.9231,2.526 C22.9231,1.653 22.2151,0.945 21.3411,0.945 C20.8741,0.945 20.5771,1.15 20.2881,1.472 L20.2881,18.865 C20.5771,18.543 20.8741,18.338 21.3411,18.338 C22.2151,18.338 22.9231,19.045 22.9231,19.919 C22.9231,20.792 22.2151,21.5 21.3411,21.5 L9.9871,21.5 L0.5001,21.5 L0.5001,3.053 L13.7671,3.053" id="Stroke-2" stroke="#FFFFFF" stroke-linecap="round" stroke-linejoin="round"></path>
                        <path d="M6.0134,12.9741 C6.0134,12.0251 5.2434,11.2561 4.2944,11.2561 C3.3464,11.2561 2.5764,12.0251 2.5764,12.9741 C2.5764,13.4321 2.8014,13.8261 2.9844,14.2301 C3.1284,14.5481 3.2724,14.8661 3.4164,15.1831 C3.6304,15.6541 3.8434,16.1241 4.0574,16.5941 C4.0594,16.5991 4.0614,16.6031 4.0634,16.6081 C4.1394,16.8271 4.4504,16.8271 4.5264,16.6081 C4.7264,16.1651 4.9284,15.7241 5.1284,15.2811 C5.3064,14.8881 5.4854,14.4951 5.6634,14.1021 C5.8304,13.7341 6.0134,13.3881 6.0134,12.9741 Z" id="Stroke-4" stroke="#FFFFFF" stroke-linecap="round" stroke-linejoin="round"></path>
                        <path d="M4.5847,13.0044 C4.5847,13.1644 4.4547,13.2944 4.2947,13.2944 C4.1347,13.2944 4.0047,13.1644 4.0047,13.0044 C4.0047,12.8444 4.1347,12.7144 4.2947,12.7144 C4.4547,12.7144 4.5847,12.8444 4.5847,13.0044 Z" id="Stroke-6" stroke="#FFFFFF" stroke-linecap="round" stroke-linejoin="round"></path>
                        <path d="M3.6218,18.0689 L4.9678,19.4149" id="Stroke-8" stroke="#FFFFFF" stroke-linecap="round" stroke-linejoin="round"></path>
                        <path d="M4.968,18.0689 L3.622,19.4149" id="Stroke-10" stroke="#FFFFFF" stroke-linecap="round" stroke-linejoin="round"></path>
                        <path d="M17.5495,6.8569 C17.4115,6.8569 17.2755,6.7999 17.1755,6.6899 C16.9925,6.4829 17.0105,6.1669 17.2165,5.9829 C17.4885,5.7419 17.8395,5.6079 18.2035,5.6079 L19.9035,5.6079 C20.1805,5.6079 20.4035,5.8319 20.4035,6.1079 C20.4035,6.3849 20.1805,6.6079 19.9035,6.6079 L18.2035,6.6079 C18.0845,6.6079 17.9705,6.6519 17.8825,6.7309 C17.7865,6.8149 17.6685,6.8569 17.5495,6.8569 M17.1025,10.7419 C17.0235,10.7419 16.9425,10.7229 16.8665,10.6829 C16.6235,10.5519 16.5315,10.2489 16.6625,10.0049 C16.7005,9.9359 16.7185,9.8589 16.7185,9.7789 L16.7185,8.2609 C16.7185,7.9849 16.9425,7.7609 17.2185,7.7609 C17.4955,7.7609 17.7185,7.9849 17.7185,8.2609 L17.7185,9.7779 C17.7195,10.0209 17.6585,10.2639 17.5435,10.4789 C17.4535,10.6469 17.2805,10.7419 17.1025,10.7419 M15.2985,11.2629 L13.2985,11.2629 C13.0215,11.2629 12.7985,11.0389 12.7985,10.7629 C12.7985,10.4859 13.0215,10.2629 13.2985,10.2629 L15.2985,10.2629 C15.5745,10.2629 15.7985,10.4859 15.7985,10.7629 C15.7985,11.0389 15.5745,11.2629 15.2985,11.2629 M10.9215,13.3079 C10.6455,13.3079 10.4215,13.0849 10.4215,12.8079 L10.4215,11.7479 C10.4215,11.2679 10.6555,10.8149 11.0465,10.5369 C11.2725,10.3769 11.5845,10.4309 11.7435,10.6549 C11.9035,10.8799 11.8505,11.1919 11.6255,11.3529 C11.4975,11.4429 11.4215,11.5909 11.4215,11.7479 L11.4215,12.8079 C11.4215,13.0849 11.1975,13.3079 10.9215,13.3079 M11.4035,17.1349 C11.3175,17.1349 11.2295,17.1119 11.1495,17.0649 C10.7005,16.7989 10.4215,16.3089 10.4215,15.7869 L10.4215,14.8079 C10.4215,14.5319 10.6455,14.3079 10.9215,14.3079 C11.1975,14.3079 11.4215,14.5319 11.4215,14.8079 L11.4215,15.7869 C11.4215,15.9609 11.5105,16.1159 11.6595,16.2049 C11.8975,16.3459 11.9755,16.6519 11.8345,16.8899 C11.7415,17.0469 11.5745,17.1349 11.4035,17.1349 M15.3805,17.2749 C15.3655,17.2749 15.3515,17.2749 15.3365,17.2739 L15.3805,16.7749 L15.3805,17.2749 L13.3805,17.2719 C13.1035,17.2719 12.8805,17.0479 12.8805,16.7719 C12.8805,16.4959 13.1035,16.2719 13.3805,16.2719 L15.2955,16.2719 C15.3095,16.2719 15.4095,16.2759 15.4235,16.2769 C15.6985,16.3009 15.9025,16.5439 15.8785,16.8189 C15.8555,17.0789 15.6365,17.2749 15.3805,17.2749 M8.3055,19.2419 L6.7365,19.2419 C6.4595,19.2419 6.2365,19.0189 6.2365,18.7419 C6.2365,18.4659 6.4595,18.2419 6.7365,18.2419 L8.3055,18.2419 C8.5825,18.2419 8.8055,18.4659 8.8055,18.7419 C8.8055,19.0189 8.5825,19.2419 8.3055,19.2419 M12.3055,19.2419 L10.3055,19.2419 C10.0295,19.2419 9.8055,19.0189 9.8055,18.7419 C9.8055,18.4659 10.0295,18.2419 10.3055,18.2419 L12.3055,18.2419 C12.5825,18.2419 12.8055,18.4659 12.8055,18.7419 C12.8055,19.0189 12.5825,19.2419 12.3055,19.2419 M15.2955,19.2419 L14.3055,19.2419 C14.0295,19.2419 13.8055,19.0189 13.8055,18.7419 C13.8055,18.4659 14.0295,18.2419 14.3055,18.2419 L15.2955,18.2419 C15.4665,18.2419 15.6205,18.1549 15.7095,18.0089 C15.8525,17.7729 16.1595,17.6989 16.3965,17.8399 C16.6325,17.9839 16.7075,18.2909 16.5645,18.5269 C16.2935,18.9749 15.8185,19.2419 15.2955,19.2419" id="Fill-12" fill="#FFFFFF"></path>
                    </g>
                </g>
            </g>
        </g>
    </g>
</svg>