<?xml version="1.0" encoding="UTF-8"?>
<svg width="64px" height="59px" viewBox="0 0 64 59" version="1.1" xmlns="http://www.w3.org/2000/svg" xmlns:xlink="http://www.w3.org/1999/xlink">
    <!-- Generator: Sketch 47.1 (45422) - http://www.bohemiancoding.com/sketch -->
    <title>Page 1</title>
    <desc>Created with Sketch.</desc>
    <defs></defs>
    <g id="1.8.Via_verde" stroke="none" stroke-width="1" fill="none" fill-rule="evenodd">
        <g id="Via-verde" transform="translate(-1057.000000, -4206.000000)">
            <g id="Page-1" transform="translate(1057.000000, 4204.000000)">
                <path d="M37.1110435,9.72672174 L54.6893913,9.72672174" id="Stroke-1" stroke="#CFCFCF" stroke-width="2.7" stroke-linecap="round" stroke-linejoin="round"></path>
                <g id="Group-14" transform="translate(0.000000, 1.495817)">
                    <path d="M61.7918957,53.693887 L61.7918957,6.8084087 C61.7918957,4.45510435 59.8833739,2.54658261 57.5300696,2.54658261 C56.2712,2.54658261 55.4678957,3.0991913 54.6888522,3.96988696 L54.6888522,50.8526696 C55.4678957,49.9846696 56.2712,49.4320609 57.5300696,49.4320609 C59.8833739,49.4320609 61.7918957,51.3405826 61.7918957,53.693887 C61.7918957,56.049887 59.8833739,57.9584087 57.5300696,57.9584087 L26.9209391,57.9584087 L1.34728696,57.9584087 L1.34728696,8.23171304 L37.1105043,8.23171304" id="Stroke-2" stroke="#CFCFCF" stroke-width="2.7" stroke-linecap="round" stroke-linejoin="round"></path>
                    <path d="M16.2105739,34.9742 C16.2105739,32.4160261 14.1349217,30.3403739 11.5767478,30.3403739 C9.01857391,30.3403739 6.94292174,32.4160261 6.94292174,34.9742 C6.94292174,36.206113 7.54944348,37.2708957 8.04544348,38.3599391 C8.43361739,39.2171565 8.8217913,40.0743739 9.20996522,40.9288957 C9.78683478,42.1985478 10.3610087,43.4628087 10.9351826,44.7324609 C10.9405739,44.7459391 10.9486609,44.7567217 10.9540522,44.7702 C11.1589217,45.3605478 11.9945739,45.3605478 12.2021391,44.7702 C12.7412696,43.5760261 13.2830957,42.3845478 13.8249217,41.1930696 C14.3047478,40.1336783 14.7872696,39.074287 15.2670957,38.0122 C15.7172696,37.0228957 16.2105739,36.0902 16.2105739,34.9742 Z" id="Stroke-4" stroke="#CFCFCF" stroke-width="2.7" stroke-linecap="round" stroke-linejoin="round"></path>
                    <path d="M12.3592957,35.0558783 C12.3592957,35.4871826 12.0088609,35.8376174 11.5775565,35.8376174 C11.1462522,35.8376174 10.7958174,35.4871826 10.7958174,35.0558783 C10.7958174,34.6245739 11.1462522,34.2741391 11.5775565,34.2741391 C12.0088609,34.2741391 12.3592957,34.6245739 12.3592957,35.0558783 Z" id="Stroke-6" stroke="#CFCFCF" stroke-width="2.7" stroke-linecap="round" stroke-linejoin="round"></path>
                    <path d="M9.76365217,48.7077391 L13.392,52.336087" id="Stroke-8" stroke="#CFCFCF" stroke-width="2.7" stroke-linecap="round" stroke-linejoin="round"></path>
                    <path d="M13.3911913,48.7077391 L9.76284348,52.336087" id="Stroke-10" stroke="#CFCFCF" stroke-width="2.7" stroke-linecap="round" stroke-linejoin="round"></path>
                    <path d="M47.3081565,18.4843565 C46.9361565,18.4843565 46.5695478,18.3307043 46.2999826,18.0341826 C45.8066783,17.4761826 45.8552,16.6243565 46.4105043,16.1283565 C47.1437217,15.4787043 48.0898957,15.117487 49.071113,15.117487 L53.6537217,15.117487 C54.4004174,15.117487 55.0015478,15.721313 55.0015478,16.465313 C55.0015478,17.2120087 54.4004174,17.8131391 53.6537217,17.8131391 L49.071113,17.8131391 C48.7503304,17.8131391 48.4430261,17.9317478 48.2058087,18.1447043 C47.9470261,18.3711391 47.6289391,18.4843565 47.3081565,18.4843565 M46.1032,28.9569652 C45.8902435,28.9569652 45.6718957,28.9057478 45.4670261,28.7979217 C44.8119826,28.4447913 44.5639826,27.6280087 44.917113,26.9702696 C45.0195478,26.7842696 45.0680696,26.5767043 45.0680696,26.3610522 L45.0680696,22.2690522 C45.0680696,21.5250522 45.6718957,20.9212261 46.4158957,20.9212261 C47.1625913,20.9212261 47.7637217,21.5250522 47.7637217,22.2690522 L47.7637217,26.3583565 C47.7664174,27.0134 47.6019826,27.6684435 47.2919826,28.2480087 C47.0493739,28.7008783 46.5830261,28.9569652 46.1032,28.9569652 M41.2402435,30.3614 L35.8489391,30.3614 C35.1022435,30.3614 34.501113,29.7575739 34.501113,29.0135739 C34.501113,28.2668783 35.1022435,27.6657478 35.8489391,27.6657478 L41.2402435,27.6657478 C41.9842435,27.6657478 42.5880696,28.2668783 42.5880696,29.0135739 C42.5880696,29.7575739 41.9842435,30.3614 41.2402435,30.3614 M29.4413739,35.8740087 C28.6973739,35.8740087 28.0935478,35.2728783 28.0935478,34.5261826 L28.0935478,31.6687913 C28.0935478,30.3748783 28.7243304,29.1537478 29.7783304,28.4043565 C30.3875478,27.9730522 31.2285913,28.1186174 31.6572,28.7224435 C32.0885043,29.3289652 31.9456348,30.1700087 31.339113,30.6040087 C30.9940696,30.8466174 30.7892,31.2455739 30.7892,31.6687913 L30.7892,34.5261826 C30.7892,35.2728783 30.1853739,35.8740087 29.4413739,35.8740087 M30.7406783,46.1902696 C30.5088522,46.1902696 30.2716348,46.1282696 30.0559826,46.0015739 C28.8456348,45.2845304 28.0935478,43.9636609 28.0935478,42.5565304 L28.0935478,39.917487 C28.0935478,39.173487 28.6973739,38.5696609 29.4413739,38.5696609 C30.1853739,38.5696609 30.7892,39.173487 30.7892,39.917487 L30.7892,42.5565304 C30.7892,43.0255739 31.029113,43.4434 31.4307652,43.683313 C32.0723304,44.0634 32.2825913,44.8882696 31.9025043,45.5298348 C31.6518087,45.9530522 31.2016348,46.1902696 30.7406783,46.1902696 M41.461287,46.5676609 C41.4208522,46.5676609 41.383113,46.5676609 41.3426783,46.5649652 L41.461287,45.2198348 L41.461287,46.5676609 L36.0699826,46.5595739 C35.323287,46.5595739 34.7221565,45.9557478 34.7221565,45.2117478 C34.7221565,44.4677478 35.323287,43.8639217 36.0699826,43.8639217 L41.2321565,43.8639217 C41.2698957,43.8639217 41.5394609,43.8747043 41.5772,43.8774 C42.3185043,43.9420957 42.8684174,44.5971391 42.8037217,45.3384435 C42.7417217,46.039313 42.1513739,46.5676609 41.461287,46.5676609 M22.3895478,51.8700087 L18.1573739,51.8700087 C17.4133739,51.8700087 16.8095478,51.2688783 16.8095478,50.5221826 C16.8095478,49.7781826 17.4133739,49.1743565 18.1573739,49.1743565 L22.3895478,49.1743565 C23.1362435,49.1743565 23.7373739,49.7781826 23.7373739,50.5221826 C23.7373739,51.2688783 23.1362435,51.8700087 22.3895478,51.8700087 M33.1721565,51.8700087 L27.7808522,51.8700087 C27.0368522,51.8700087 26.4330261,51.2688783 26.4330261,50.5221826 C26.4330261,49.7781826 27.0368522,49.1743565 27.7808522,49.1743565 L33.1721565,49.1743565 C33.9188522,49.1743565 34.5199826,49.7781826 34.5199826,50.5221826 C34.5199826,51.2688783 33.9188522,51.8700087 33.1721565,51.8700087 M41.2321565,51.8700087 L38.5634609,51.8700087 C37.8194609,51.8700087 37.2156348,51.2688783 37.2156348,50.5221826 C37.2156348,49.7781826 37.8194609,49.1743565 38.5634609,49.1743565 L41.2321565,49.1743565 C41.693113,49.1743565 42.1082435,48.9398348 42.3481565,48.5462696 C42.7336348,47.9100957 43.5612,47.7106174 44.2000696,48.0907043 C44.8362435,48.4788783 45.0384174,49.3064435 44.6529391,49.9426174 C43.9224174,51.1502696 42.6419826,51.8700087 41.2321565,51.8700087" id="Fill-12" fill="#CFCFCF"></path>
                </g>
            </g>
        </g>
    </g>
</svg>