<?xml version="1.0" encoding="UTF-8"?>
<svg width="196px" height="188px" viewBox="0 0 196 188" version="1.1" xmlns="http://www.w3.org/2000/svg" xmlns:xlink="http://www.w3.org/1999/xlink">
    <!-- Generator: Sketch 48.2 (47327) - http://www.bohemiancoding.com/sketch -->
    <title>Page 1</title>
    <desc>Created with Sketch.</desc>
    <defs>
        <polygon id="path-1" points="163.512 1.5552 163.512 163.9992 1.0672 163.9992 1.0672 1.5552 163.512 1.5552"></polygon>
    </defs>
    <g id="Experiencia-El-Palmar-modal-Copy" stroke="none" stroke-width="1" fill="none" fill-rule="evenodd" transform="translate(-605.000000, -236.000000)">
        <g id="Page-1" transform="translate(606.000000, 237.000000)">
            <g id="Group-3" transform="translate(31.000000, 22.541600)">
                <mask id="mask-2" fill="white">
                    <use xlink:href="#path-1"></use>
                </mask>
                <g id="Clip-2"></g>
                <path d="M1.0672,82.7772 C1.0672,37.9192 37.4332,1.5552 82.2892,1.5552 C127.1492,1.5552 163.5132,37.9192 163.5132,82.7772 C163.5132,127.6352 127.1492,163.9992 82.2892,163.9992 C37.4332,163.9992 1.0672,127.6352 1.0672,82.7772" id="Fill-1" fill="#FFC305" mask="url(#mask-2)"></path>
            </g>
            <path d="M119.7352,35.1352 C135.2552,36.9152 150.3152,43.7552 162.2352,55.6752 C174.6552,68.0952 181.5552,83.9152 182.9752,100.1352 L144.0352,100.1352 L123.4152,100.1352 L97.1752,100.1352 L97.1752,65.1552 C97.1752,64.0152 97.1152,62.8752 96.9752,61.7552 C96.9352,61.3352 96.8952,60.9152 96.8152,60.4952 C96.7352,59.8952 96.6152,59.2752 96.4752,58.6552 C96.3952,58.2952 96.3152,57.9552 96.2352,57.5952 C96.0752,56.9552 95.9352,56.5152 95.7952,56.0752 C95.6752,55.6552 95.5352,55.2352 95.3752,54.8352 C95.1752,54.2752 94.9752,53.7152 94.7352,53.1752 C94.5752,52.8152 94.4152,52.4552 94.2552,52.1152 C94.1752,51.9352 94.0752,51.7552 93.9752,51.5552 C93.7752,51.1352 93.5752,50.7352 93.3352,50.3352 C92.2352,48.3552 90.9152,46.4952 89.3952,44.8152 C89.1752,44.5552 88.9352,44.2952 88.6752,44.0352 C87.3352,42.6352 85.8552,41.3552 84.2552,40.2352 C83.9152,39.9952 83.5552,39.7552 83.1952,39.5352 C82.7552,39.2352 82.2952,38.9552 81.8352,38.7152 C81.5152,38.5152 81.1752,38.3152 80.8352,38.1552 C79.6352,37.5152 78.3752,36.9552 77.0552,36.4752 C76.6152,36.3152 76.1552,36.1752 75.7152,36.0352 C74.8552,35.7552 73.9552,35.5152 73.0352,35.3352 C72.6352,35.2352 72.2352,35.1552 71.8152,35.1152 C71.2952,34.9952 70.7752,34.9352 70.2352,34.8752 C69.0552,34.7352 67.8752,34.6552 66.6552,34.6552 L109.3152,34.6552 L119.7352,34.6952 L119.7352,35.1352 Z M119.7352,51.3152 C117.0152,51.3152 114.7952,53.5352 114.7952,56.2552 C114.7952,58.9752 117.0152,61.1752 119.7352,61.1752 C122.4552,61.1752 124.6552,58.9752 124.6552,56.2552 C124.6552,53.5352 122.4552,51.3152 119.7352,51.3152 Z" id="Fill-4" fill="#F5A623"></path>
            <polygon id="Fill-6" fill="#FFFFFF" points="148.2752 6.7358 139.7552 16.4758 148.2752 26.2358 119.7352 26.2358 119.7352 6.7358"></polygon>
            <path d="M119.7352,51.316 C122.4552,51.316 124.6552,53.536 124.6552,56.256 C124.6552,58.976 122.4552,61.176 119.7352,61.176 C117.0152,61.176 114.7952,58.976 114.7952,56.256 C114.7952,53.536 117.0152,51.316 119.7352,51.316" id="Fill-8" fill="#FFFFFF"></path>
            <path d="M97.1756,100.1352 L97.1756,135.0952 C97.1756,151.9352 83.4956,165.5952 66.6556,165.5952 C49.8156,165.5952 36.1556,151.9352 36.1556,135.0952 L36.1556,100.1352 L43.3156,100.1352 L86.8556,100.1352 L97.1756,100.1352 Z" id="Fill-10" fill="#FFFFFF"></path>
            <path d="M48.8758,47.7954 L41.7158,47.7954 L41.7158,47.5954 C47.2158,39.7754 56.3358,34.6554 66.6558,34.6554 C67.8758,34.6554 69.0558,34.7354 70.2358,34.8754 C70.7758,34.9354 71.2958,34.9954 71.8158,35.1154 C72.2158,35.1754 72.6358,35.2554 73.0358,35.3354 C73.9558,35.5154 74.8558,35.7554 75.7158,36.0354 C76.1758,36.1754 76.6158,36.3154 77.0558,36.4754 C78.3758,36.9554 79.6358,37.5154 80.8358,38.1554 C81.1758,38.3354 81.5158,38.5154 81.8358,38.7154 C82.2958,38.9554 82.7558,39.2354 83.1958,39.5354 C83.5558,39.7554 83.9158,39.9954 84.2558,40.2354 C85.8558,41.3554 87.3358,42.6354 88.6758,44.0354 C88.9158,44.2954 89.1558,44.5554 89.3958,44.8154 C90.9158,46.4954 92.2358,48.3554 93.3358,50.3354 C93.5758,50.7354 93.7758,51.1354 93.9758,51.5554 C94.0758,51.7554 94.1758,51.9354 94.2558,52.1154 C94.4158,52.4554 94.5758,52.8154 94.7358,53.1754 C94.9758,53.7154 95.1758,54.2754 95.3758,54.8354 C95.5358,55.2354 95.6758,55.6554 95.7958,56.0754 C95.9358,56.5154 96.0758,56.9754 96.1758,57.4154 C96.1958,57.4954 96.2158,57.5554 96.2358,57.5954 C96.3158,57.9554 96.4158,58.2954 96.4758,58.6554 C96.6158,59.2754 96.7358,59.8954 96.8158,60.4954 C96.8958,60.9154 96.9358,61.3354 96.9758,61.7554 C97.1158,62.8754 97.1758,64.0154 97.1758,65.1554 L97.1758,100.1354 L86.8558,100.1354 L43.3158,100.1354 L36.1558,100.1354 L36.1558,91.6754 L43.3158,91.6754 L65.6958,91.6754 L65.6958,47.7954 L48.8758,47.7954 Z" id="Fill-12" fill="#4D5BA8"></path>
            <polygon id="Fill-14" fill="#FFA700" points="65.6962 47.7954 65.6962 91.6754 44.6162 70.5954 44.7162 70.4954"></polygon>
            <path d="M65.6962,47.7954 L44.7162,70.4954 L44.6162,70.5954 C44.0562,71.1954 43.4562,71.7354 42.8362,72.2554 C36.9562,76.8154 28.5162,76.6154 22.8562,71.6154 C22.4962,71.2954 22.1362,70.9554 21.7962,70.5954 C21.7762,70.5554 21.7562,70.5354 21.7162,70.4954 L14.9962,63.2354 L0.7362,47.7954 L16.3362,47.7954 L41.7162,47.7954 L48.8762,47.7954 L65.6962,47.7954 Z" id="Fill-16" fill="#FFA700"></path>
            <path d="M65.6962,91.6754 L43.3162,91.6754 L36.1562,91.6754 L14.9962,91.6754 L0.7362,91.6754 L21.7962,70.5954 C22.1362,70.9554 22.4962,71.2954 22.8562,71.6154 C28.5162,76.6154 36.9562,76.8154 42.8362,72.2554 C43.4562,71.7354 44.0562,71.1954 44.6162,70.5954 L65.6962,91.6754 Z" id="Fill-18" fill="#FFA700"></path>
            <path d="M21.7156,70.4956 C21.7556,70.5356 21.7756,70.5556 21.7956,70.5956 L0.7356,91.6756 L0.7356,47.7956 L14.9956,63.2356 L21.7156,70.4956 Z" id="Fill-20" fill="#FFA700"></path>
            <path d="M73.036,35.3354 C72.636,35.2554 72.216,35.1754 71.816,35.1154" id="Stroke-22" stroke="#484848" stroke-width="3.472" stroke-linecap="round" stroke-linejoin="round"></path>
            <path d="M77.0556,36.4762 C76.6156,36.3162 76.1556,36.1762 75.7156,36.0362" id="Stroke-24" stroke="#484848" stroke-width="3.472" stroke-linecap="round" stroke-linejoin="round"></path>
            <path d="M81.8358,38.7154 C81.5158,38.5154 81.1758,38.3354 80.8358,38.1554" id="Stroke-26" stroke="#484848" stroke-width="3.472" stroke-linecap="round" stroke-linejoin="round"></path>
            <path d="M84.2558,40.2358 C83.9158,39.9958 83.5558,39.7558 83.1958,39.5358" id="Stroke-28" stroke="#484848" stroke-width="3.472" stroke-linecap="round" stroke-linejoin="round"></path>
            <path d="M89.3954,44.816 C89.1554,44.556 88.9154,44.296 88.6754,44.036" id="Stroke-30" stroke="#484848" stroke-width="3.472" stroke-linecap="round" stroke-linejoin="round"></path>
            <path d="M93.9754,51.5552 C93.7754,51.1352 93.5754,50.7352 93.3354,50.3352" id="Stroke-32" stroke="#484848" stroke-width="3.472" stroke-linecap="round" stroke-linejoin="round"></path>
            <path d="M94.7352,53.1754 C94.5752,52.8154 94.4152,52.4554 94.2552,52.1154" id="Stroke-34" stroke="#484848" stroke-width="3.472" stroke-linecap="round" stroke-linejoin="round"></path>
            <path d="M96.1756,57.4156 C96.0756,56.9556 95.9356,56.5156 95.7956,56.0756 C95.6756,55.6556 95.5356,55.2356 95.3756,54.8356" id="Stroke-36" stroke="#484848" stroke-width="3.472" stroke-linecap="round" stroke-linejoin="round"></path>
            <path d="M96.4754,58.6558 C96.3954,58.2958 96.3154,57.9558 96.2354,57.5958" id="Stroke-38" stroke="#484848" stroke-width="3.472" stroke-linecap="round" stroke-linejoin="round"></path>
            <path d="M96.9754,61.7554 C96.9354,61.3354 96.8954,60.9154 96.8154,60.4954" id="Stroke-40" stroke="#484848" stroke-width="3.472" stroke-linecap="round" stroke-linejoin="round"></path>
            <path d="M48.8758,47.5952 L48.8758,47.7952" id="Stroke-42" stroke="#484848" stroke-width="3.472" stroke-linecap="round" stroke-linejoin="round"></path>
            <polyline id="Stroke-44" stroke="#484848" stroke-width="3.472" stroke-linecap="round" stroke-linejoin="round" points="65.6962 47.7954 48.8762 47.7954 41.7162 47.7954 16.3362 47.7954 0.7362 47.7954"></polyline>
            <path d="M65.6962,47.7954 L44.7162,70.4954 L44.6162,70.5954 C44.0562,71.1954 43.4562,71.7354 42.8362,72.2554 C36.9562,76.8154 28.5162,76.6154 22.8562,71.6154 C22.4962,71.2954 22.1362,70.9554 21.7962,70.5954 C21.7762,70.5554 21.7562,70.5354 21.7162,70.4954 L14.9962,63.2354 L0.7362,47.7954 L0.7362,91.6754 L14.9962,91.6754 L36.1562,91.6754 L43.3162,91.6754 L65.6962,91.6754 L65.6962,47.7954 Z" id="Stroke-46" stroke="#484848" stroke-width="3.472" stroke-linecap="round" stroke-linejoin="round"></path>
            <path d="M123.4158,100.1352 L123.4158,175.4552" id="Stroke-48" stroke="#484848" stroke-width="3.472" stroke-linecap="round" stroke-linejoin="round"></path>
            <path d="M144.036,168.356 L144.036,100.136" id="Stroke-50" stroke="#484848" stroke-width="3.472" stroke-linecap="round" stroke-linejoin="round"></path>
            <path d="M66.656,34.6558 C56.336,34.6558 47.216,39.7758 41.716,47.5958" id="Stroke-52" stroke="#484848" stroke-width="3.472" stroke-linecap="round" stroke-linejoin="round"></path>
            <path d="M36.156,100.1352 L36.156,135.0952 C36.156,151.9352 49.816,165.5952 66.656,165.5952 C83.496,165.5952 97.176,151.9352 97.176,135.0952 L97.176,100.1352 L86.856,100.1352 L43.316,100.1352 L36.156,100.1352 Z" id="Stroke-54" stroke="#484848" stroke-width="3.472" stroke-linecap="round" stroke-linejoin="round"></path>
            <path d="M182.9754,100.1352 L144.0354,100.1352 L123.4154,100.1352 L97.1754,100.1352 L97.1754,65.1552 C97.1754,64.0152 97.1154,62.8752 96.9754,61.7552 C96.9354,61.3352 96.8954,60.9152 96.8154,60.4952 C96.7354,59.8952 96.6154,59.2752 96.4754,58.6552 C96.4154,58.2952 96.3154,57.9552 96.2354,57.5952 C96.2154,57.5552 96.1954,57.4952 96.1754,57.4152 C96.0754,56.9752 95.9354,56.5152 95.7954,56.0752 C95.6754,55.6552 95.5354,55.2352 95.3754,54.8352 C95.1754,54.2752 94.9754,53.7152 94.7354,53.1752 C94.5754,52.8152 94.4154,52.4552 94.2554,52.1152 C94.1754,51.9352 94.0754,51.7552 93.9754,51.5552 C93.7754,51.1352 93.5754,50.7352 93.3354,50.3352 C92.2354,48.3552 90.9154,46.4952 89.3954,44.8152 C89.1754,44.5552 88.9354,44.2952 88.6754,44.0352 C87.3354,42.6352 85.8554,41.3552 84.2554,40.2352 C83.9154,39.9952 83.5554,39.7552 83.1954,39.5352 C82.7554,39.2352 82.2954,38.9552 81.8354,38.7152 C81.5154,38.5152 81.1754,38.3152 80.8354,38.1552 C79.6354,37.5152 78.3754,36.9552 77.0554,36.4752 C76.6154,36.3152 76.1754,36.1752 75.7154,36.0352 C74.8554,35.7552 73.9554,35.5152 73.0354,35.3352 C72.6354,35.2352 72.2354,35.1552 71.8154,35.1152 C71.2954,34.9952 70.7754,34.9352 70.2354,34.8752 C69.0554,34.7352 67.8754,34.6552 66.6554,34.6552 L109.3154,34.6552 L119.7354,34.6952" id="Stroke-56" stroke="#484848" stroke-width="3.472" stroke-linecap="round" stroke-linejoin="round"></path>
            <path d="M0.7352,91.6754 L21.7952,70.5954" id="Stroke-58" stroke="#484848" stroke-width="3.472" stroke-linecap="round" stroke-linejoin="round"></path>
            <path d="M65.6962,91.6754 L44.6162,70.5954" id="Stroke-60" stroke="#484848" stroke-width="3.472" stroke-linecap="round" stroke-linejoin="round"></path>
            <path d="M36.156,100.1352 L36.156,91.6752" id="Stroke-62" stroke="#484848" stroke-width="3.472" stroke-linecap="round" stroke-linejoin="round"></path>
            <path d="M119.7352,6.7358 L119.7352,0.7358" id="Stroke-64" stroke="#484848" stroke-width="3.472" stroke-linecap="round" stroke-linejoin="round"></path>
            <polyline id="Stroke-66" stroke="#484848" stroke-width="3.472" stroke-linecap="round" stroke-linejoin="round" points="119.7352 51.316 119.7352 35.136 119.7352 34.696 119.7352 26.236"></polyline>
            <polygon id="Stroke-68" stroke="#484848" stroke-width="3.472" stroke-linecap="round" stroke-linejoin="round" points="119.7352 6.7358 148.2752 6.7358 139.7552 16.4758 148.2752 26.2358 119.7352 26.2358"></polygon>
            <path d="M124.656,56.2554 C124.656,58.9754 122.456,61.1754 119.736,61.1754 C117.016,61.1754 114.796,58.9754 114.796,56.2554 C114.796,53.5354 117.016,51.3154 119.736,51.3154 C122.456,51.3154 124.656,53.5354 124.656,56.2554 Z" id="Stroke-70" stroke="#484848" stroke-width="3.472" stroke-linecap="round" stroke-linejoin="round"></path>
            <path d="M175.536,138.7954 C168.796,151.4354 158.336,161.7754 145.596,168.3554 C145.176,168.5754 144.776,168.7754 144.356,168.9754 C137.876,172.1754 130.836,174.3954 123.416,175.4554 C120.116,175.9354 116.736,176.1754 113.296,176.1754 C111.816,176.1754 110.336,176.1354 108.856,176.0354" id="Stroke-72" stroke="#484848" stroke-width="3.472" stroke-linecap="round" stroke-linejoin="round"></path>
            <path d="M119.7352,35.1352 C135.2552,36.9152 150.3152,43.7552 162.2352,55.6752 C174.6552,68.0952 181.5552,83.9152 182.9752,100.1352 C183.4352,105.4952 183.2952,110.9152 182.5552,116.2552" id="Stroke-74" stroke="#484848" stroke-width="3.532" stroke-linecap="round" stroke-linejoin="round"></path>
        </g>
    </g>
</svg>