<?xml version="1.0" encoding="UTF-8"?>
<svg width="29px" height="22px" viewBox="0 0 29 22" version="1.1" xmlns="http://www.w3.org/2000/svg" xmlns:xlink="http://www.w3.org/1999/xlink">
    <!-- Generator: Sketch 51.1 (57501) - http://www.bohemiancoding.com/sketch -->
    <title>Group 13</title>
    <desc>Created with Sketch.</desc>
    <defs></defs>
    <g id="Playas" stroke="none" stroke-width="1" fill="none" fill-rule="evenodd" stroke-linecap="round" stroke-linejoin="round">
        <g id="Playas-estado" transform="translate(-276.000000, -638.000000)" stroke="#484848">
            <g id="Group-14" transform="translate(236.000000, 596.000000)">
                <g id="Group-10">
                    <g id="Group-8" transform="translate(41.000000, 37.000000)">
                        <g id="Group-13" transform="translate(0.000000, 5.000000)">
                            <path d="M3.8585,17.4218 C6.1725,17.4218 6.1725,16.1508 8.4865,16.1508 C10.8015,16.1508 10.8015,17.4218 13.1165,17.4218 C15.4315,17.4218 15.4315,16.1508 17.7465,16.1508 C20.0655,16.1508 20.0655,17.4218 22.3845,17.4218" id="Stroke-1"></path>
                            <path d="M3.8585,20.5766 C6.1725,20.5766 6.1725,19.3056 8.4865,19.3056 C10.8015,19.3056 10.8015,20.5766 13.1165,20.5766 C15.4315,20.5766 15.4315,19.3056 17.7465,19.3056 C20.0655,19.3056 20.0655,20.5766 22.3845,20.5766" id="Stroke-3"></path>
                            <path d="M15.8439,16.2988 C15.8439,16.2988 13.6869,12.1028 16.4669,8.9548" id="Stroke-5"></path>
                            <path d="M16.0533,7.3149 C16.0533,7.3149 14.2513,5.4189 10.9013,6.2719 C10.9013,6.2719 12.1973,3.2059 16.5273,4.9759 C16.5273,4.9759 15.9903,1.9409 11.5323,1.1189 C11.5323,1.1189 16.0213,-1.2831 18.6143,3.4269 C18.6143,3.4269 19.3413,-0.6191 25.5043,0.8029 C25.5043,0.8029 21.1743,1.9099 21.1423,4.7859 C21.1423,4.7859 25.4093,3.4589 27.0223,7.6309 C27.0223,7.6309 23.1973,5.6709 20.6053,7.1569 C20.6053,7.1569 24.3983,7.5039 23.7663,12.2459 C23.7663,12.2459 22.0913,8.7059 18.3293,8.6739" id="Stroke-7"></path>
                            <path d="M12.0826,3.0102 C10.8376,2.7202 8.7606,2.7212 7.3606,5.2652 C7.3606,5.2652 6.7676,1.9642 1.7376,3.1242 C1.7376,3.1242 5.2716,4.0272 5.2976,6.3742 C5.2976,6.3742 1.8156,5.2912 0.4996,8.6952 C0.4996,8.6952 3.6206,7.0962 5.7356,8.3082 C5.7356,8.3082 2.6406,8.5922 3.1566,12.4612 C3.4776,11.9082 4.2896,10.9272 4.6006,10.6692 C6.0646,9.4502 8.3326,9.0362 9.4916,11.0002 C10.6916,13.0322 9.9306,15.1222 9.6206,16.2992" id="Stroke-9"></path>
                            <path d="M9.4498,8.4374 C9.4498,8.4374 9.6968,8.1784 10.1748,7.9194" id="Stroke-11"></path>
                        </g>
                    </g>
                </g>
            </g>
        </g>
    </g>
</svg>