<?xml version="1.0" encoding="UTF-8"?>
<svg width="27px" height="26px" viewBox="0 0 27 26" version="1.1" xmlns="http://www.w3.org/2000/svg" xmlns:xlink="http://www.w3.org/1999/xlink">
    <!-- Generator: Sketch 48.2 (47327) - http://www.bohemiancoding.com/sketch -->
    <title>Group 3</title>
    <desc>Created with Sketch.</desc>
    <defs>
        <polygon id="path-1" points="0.8957 0.931 26.9647 0.931 26.9647 27 0.8957 27"></polygon>
    </defs>
    <g id="Home-+-footer" stroke="none" stroke-width="1" fill="none" fill-rule="evenodd" transform="translate(-1301.000000, -3066.000000)">
        <g id="Page-1" transform="translate(1268.000000, 3065.000000)">
            <g id="Group-3" transform="translate(33.000000, 0.069200)">
                <mask id="mask-2" fill="white">
                    <use xlink:href="#path-1"></use>
                </mask>
                <g id="Clip-2"></g>
                <path d="M19.7377,13.0054 C19.1837,15.5204 17.8517,17.6104 15.5907,18.9094 C12.7327,20.5514 9.7737,20.5474 6.6337,18.9934 C8.3177,18.8884 9.7357,18.5824 11.0147,17.4494 C9.5207,17.3384 8.5897,16.6854 8.0667,15.4464 C8.5367,15.3474 9.0237,15.5544 9.4767,15.2354 C7.8407,14.6654 6.9687,13.6724 6.9357,12.3754 C7.3797,12.4204 7.7917,12.6594 8.3817,12.5564 C6.9957,11.4644 6.5257,10.1514 7.2487,8.4834 C8.0727,9.3264 8.8957,10.1114 9.9447,10.6534 C11.1027,11.2484 12.3237,11.5284 13.5877,11.7114 C13.9357,11.7604 13.8477,11.5094 13.8217,11.3704 C13.4767,9.4164 14.9547,8.0374 16.6257,7.8004 C17.2997,7.7064 17.9747,7.9594 18.4817,8.3734 C19.0637,8.8494 19.5557,8.8114 20.1717,8.5194 C20.3767,8.4214 20.6057,8.3064 20.9197,8.2494 C20.6397,8.8804 20.2287,9.3284 19.5287,9.7164 C20.1957,9.8464 20.6487,9.5634 21.2267,9.5474 C19.7277,10.3104 20.0147,11.7444 19.7377,13.0054 M13.9297,0.9304 C6.7317,0.9304 0.8957,6.7664 0.8957,13.9654 C0.8957,21.1644 6.7317,27.0004 13.9297,27.0004 C21.1297,27.0004 26.9647,21.1644 26.9647,13.9654 C26.9647,6.7664 21.1297,0.9304 13.9297,0.9304" id="Fill-1" fill="#FEFEFE" mask="url(#mask-2)"></path>
            </g>
        </g>
    </g>
</svg>