<svg xmlns="http://www.w3.org/2000/svg" viewBox="0 0 25.73 22.3"><defs><style>.cls-1{fill:none;stroke:#4a4a4a;stroke-linecap:round;stroke-linejoin:round;}</style></defs><title>iconos</title><g id="Capa_2" data-name="Capa 2"><path class="cls-1" d="M.5,18.65c2.31,0,2.31-1.27,4.63-1.27s2.31,1.27,4.63,1.27,2.31-1.27,4.63-1.27,2.32,1.27,4.64,1.27"/><path class="cls-1" d="M.5,21.8c2.31,0,2.31-1.27,4.63-1.27S7.44,21.8,9.76,21.8s2.31-1.27,4.63-1.27S16.71,21.8,19,21.8"/><path class="cls-1" d="M14,17.38s-2.07-4,.71-7.2"/><path class="cls-1" d="M14.26,8.54a5.31,5.31,0,0,0-5.15-1s1.29-3.07,5.62-1.3c0,0-.53-3-5-3.86a5.15,5.15,0,0,1,7.08,2.31s.73-4,6.89-2.62c0,0-4.33,1.1-4.36,4,0,0,4.27-1.33,5.88,2.85,0,0-3.83-2-6.42-.48,0,0,3.8.35,3.16,5.09,0,0-1.67-3.54-5.43-3.57"/><line class="cls-1" x1="7.52" y1="7.03" x2="8.43" y2="7.03"/><line class="cls-1" x1="4.71" y1="7.03" x2="5.62" y2="7.03"/><line class="cls-1" x1="4.71" y1="8.66" x2="5.62" y2="8.66"/><line class="cls-1" x1="7.52" y1="10.3" x2="8.43" y2="10.3"/><line class="cls-1" x1="4.71" y1="10.3" x2="5.62" y2="10.3"/><line class="cls-1" x1="7.52" y1="11.94" x2="8.43" y2="11.94"/><line class="cls-1" x1="4.71" y1="11.94" x2="5.62" y2="11.94"/><line class="cls-1" x1="7.52" y1="13.57" x2="8.43" y2="13.57"/><line class="cls-1" x1="4.71" y1="13.57" x2="5.62" y2="13.57"/><line class="cls-1" x1="7.52" y1="15.21" x2="8.43" y2="15.21"/><line class="cls-1" x1="4.71" y1="15.21" x2="5.62" y2="15.21"/><polyline class="cls-1" points="10.09 6.46 10.09 4.92 3.06 4.92 3.06 17.88"/><line class="cls-1" x1="10.09" y1="18.27" x2="10.09" y2="9.52"/><rect class="cls-1" x="5.17" y="2.81" width="2.81" height="2.11"/><line class="cls-1" x1="6.57" y1="2.81" x2="6.57"/><line class="cls-1" x1="0.5" y1="18.65" x2="0.5" y2="8.23"/><line class="cls-1" x1="0.5" y1="8.23" x2="3.06" y2="8.23"/><line class="cls-1" x1="10.09" y1="10.38" x2="11.72" y2="10.38"/><line class="cls-1" x1="11.72" y1="10.38" x2="11.72" y2="18.2"/></g></svg>