<?xml version="1.0" encoding="UTF-8"?>
<svg width="83px" height="64px" viewBox="0 0 83 64" version="1.1" xmlns="http://www.w3.org/2000/svg" xmlns:xlink="http://www.w3.org/1999/xlink">
    <!-- Generator: Sketch 48.2 (47327) - http://www.bohemiancoding.com/sketch -->
    <title>Page 1</title>
    <desc>Created with Sketch.</desc>
    <defs></defs>
    <g id="Playa" stroke="none" stroke-width="1" fill="none" fill-rule="evenodd" transform="translate(-473.000000, -4043.000000)" stroke-linecap="round" stroke-linejoin="round">
        <g id="Page-1" transform="translate(473.000000, 4043.000000)" stroke="#484848" stroke-width="3">
            <path d="M11.5755,52.2654 C18.5175,52.2654 18.5175,48.4524 25.4595,48.4524 C32.4045,48.4524 32.4045,52.2654 39.3495,52.2654 C46.2945,52.2654 46.2945,48.4524 53.2395,48.4524 C60.1965,48.4524 60.1965,52.2654 67.1535,52.2654" id="Stroke-1"></path>
            <path d="M11.5755,61.7298 C18.5175,61.7298 18.5175,57.9168 25.4595,57.9168 C32.4045,57.9168 32.4045,61.7298 39.3495,61.7298 C46.2945,61.7298 46.2945,57.9168 53.2395,57.9168 C60.1965,57.9168 60.1965,61.7298 67.1535,61.7298" id="Stroke-3"></path>
            <path d="M47.5317,48.8964 C47.5317,48.8964 41.0607,36.3084 49.4007,26.8644" id="Stroke-5"></path>
            <path d="M48.1599,21.9447 C48.1599,21.9447 42.7539,16.2567 32.7039,18.8157 C32.7039,18.8157 36.5919,9.6177 49.5819,14.9277 C49.5819,14.9277 47.9709,5.8227 34.5969,3.3567 C34.5969,3.3567 48.0639,-3.8493 55.8429,10.2807 C55.8429,10.2807 58.0239,-1.8573 76.5129,2.4087 C76.5129,2.4087 63.5229,5.7297 63.4269,14.3577 C63.4269,14.3577 76.2279,10.3767 81.0669,22.8927 C81.0669,22.8927 69.5919,17.0127 61.8159,21.4707 C61.8159,21.4707 73.1949,22.5117 71.2989,36.7377 C71.2989,36.7377 66.2739,26.1177 54.9879,26.0217" id="Stroke-7"></path>
            <path d="M36.2478,9.0306 C32.5128,8.1606 26.2818,8.1636 22.0818,15.7956 C22.0818,15.7956 20.3028,5.8926 5.2128,9.3726 C5.2128,9.3726 15.8148,12.0816 15.8928,19.1226 C15.8928,19.1226 5.4468,15.8736 1.4988,26.0856 C1.4988,26.0856 10.8618,21.2886 17.2068,24.9246 C17.2068,24.9246 7.9218,25.7766 9.4698,37.3836 C10.4328,35.7246 12.8688,32.7816 13.8018,32.0076 C18.1938,28.3506 24.9978,27.1086 28.4748,33.0006 C32.0748,39.0966 29.7918,45.3666 28.8618,48.8976" id="Stroke-9"></path>
            <path d="M28.3494,25.3122 C28.3494,25.3122 29.0904,24.5352 30.5244,23.7582" id="Stroke-11"></path>
        </g>
    </g>
</svg>