<?xml version="1.0" encoding="UTF-8"?>
<svg width="27px" height="26px" viewBox="0 0 27 26" version="1.1" xmlns="http://www.w3.org/2000/svg" xmlns:xlink="http://www.w3.org/1999/xlink">
    <!-- Generator: Sketch 48.2 (47327) - http://www.bohemiancoding.com/sketch -->
    <title>Group 23</title>
    <desc>Created with Sketch.</desc>
    <defs>
        <polygon id="path-1" points="0.7918 0.931 26.8608 0.931 26.8608 26.9998 0.7918 26.9998"></polygon>
    </defs>
    <g id="Home-+-footer" stroke="none" stroke-width="1" fill="none" fill-rule="evenodd" transform="translate(-1335.000000, -3066.000000)">
        <g id="Page-1" transform="translate(1268.000000, 3065.000000)">
            <g id="Group-23" transform="translate(67.000000, 0.000000)">
                <g id="Group-16" transform="translate(0.000000, 0.069200)">
                    <mask id="mask-2" fill="white">
                        <use xlink:href="#path-1"></use>
                    </mask>
                    <g id="Clip-15"></g>
                    <path d="M21.3178,17.6358 C21.1278,18.4618 20.4518,19.0708 19.6388,19.1608 C17.7138,19.3758 15.7658,19.3778 13.8258,19.3758 C11.8848,19.3778 9.9368,19.3758 8.0108,19.1608 C7.1978,19.0708 6.5238,18.4618 6.3338,17.6358 C6.0628,16.4598 6.0628,15.1768 6.0628,13.9658 C6.0628,12.7548 6.0668,11.4708 6.3368,10.2958 C6.5268,9.4698 7.2018,8.8608 8.0148,8.7698 C9.9398,8.5548 11.8888,8.5528 13.8288,8.5548 C15.7688,8.5528 17.7168,8.5548 19.6428,8.7698 C20.4548,8.8608 21.1308,9.4698 21.3208,10.2958 C21.5918,11.4708 21.5888,12.7548 21.5888,13.9658 C21.5888,15.1768 21.5888,16.4598 21.3178,17.6358 M13.8258,0.9308 C6.6268,0.9308 0.7918,6.7668 0.7918,13.9658 C0.7918,21.1638 6.6268,26.9998 13.8258,26.9998 C21.0248,26.9998 26.8608,21.1638 26.8608,13.9658 C26.8608,6.7668 21.0248,0.9308 13.8258,0.9308" id="Fill-14" fill="#FEFEFE" mask="url(#mask-2)"></path>
                </g>
                <path d="M11.8226,16.4442 C13.4726,15.5892 15.1076,14.7412 16.7586,13.8852 C15.1026,13.0212 13.4686,12.1692 11.8226,11.3102 L11.8226,16.4442 Z" id="Fill-17" fill="#FEFEFE"></path>
            </g>
        </g>
    </g>
</svg>