<?xml version="1.0" encoding="UTF-8"?>
<svg width="17px" height="23px" viewBox="0 0 17 23" version="1.1" xmlns="http://www.w3.org/2000/svg" xmlns:xlink="http://www.w3.org/1999/xlink">
    <!-- Generator: Sketch 48.2 (47327) - http://www.bohemiancoding.com/sketch -->
    <title>Page 1 Copy 3</title>
    <desc>Created with Sketch.</desc>
    <defs></defs>
    <g id="Resultado-búsqueda" stroke="none" stroke-width="1" fill="none" fill-rule="evenodd" transform="translate(-153.000000, -1356.000000)" stroke-linecap="round" stroke-linejoin="round">
        <g id="Page-1-Copy-3" transform="translate(154.000000, 1356.000000)" stroke="#CECECE">
            <path d="M13.8163,6.647 C13.8163,3.252 11.0643,0.5 7.6693,0.5 C4.2743,0.5 1.5223,3.252 1.5223,6.647 C1.5223,8.282 2.3253,9.695 2.9813,11.14 C3.4973,12.276 4.0133,13.413 4.5293,14.549 C5.2923,16.231 6.0553,17.913 6.8193,19.594 C6.8263,19.61 6.8363,19.627 6.8413,19.644 C7.1153,20.427 8.2233,20.427 8.4973,19.644 C8.6983,19.201 8.8993,18.757 9.1013,18.314 C9.6173,17.176 10.1343,16.037 10.6503,14.899 C11.2893,13.493 11.9273,12.086 12.5663,10.68 C13.1633,9.365 13.8163,8.128 13.8163,6.647 Z" id="Stroke-1"></path>
            <path d="M8.706,6.7549 C8.706,7.3279 8.242,7.7919 7.669,7.7919 C7.097,7.7919 6.633,7.3279 6.633,6.7549 C6.633,6.1819 7.097,5.7179 7.669,5.7179 C8.242,5.7179 8.706,6.1819 8.706,6.7549 Z" id="Stroke-3"></path>
            <path d="M9.0849,18.3491 C12.4369,18.5271 14.9729,19.3571 14.9729,20.3541 C14.9729,21.4811 11.7329,22.3951 7.7359,22.3951 C3.7399,22.3951 0.4999,21.4811 0.4999,20.3541 C0.4999,19.3701 2.9699,18.5491 6.2569,18.3561" id="Stroke-5"></path>
        </g>
    </g>
</svg>