<?xml version="1.0" encoding="UTF-8"?>
<svg width="39px" height="38px" viewBox="0 0 39 38" version="1.1" xmlns="http://www.w3.org/2000/svg" xmlns:xlink="http://www.w3.org/1999/xlink">
    <!-- Generator: Sketch 48.2 (47327) - http://www.bohemiancoding.com/sketch -->
    <title>Page 1</title>
    <desc>Created with Sketch.</desc>
    <defs></defs>
    <g id="Crear-un-tipo-de-empresa-estado" stroke="none" stroke-width="1" fill="none" fill-rule="evenodd" transform="translate(-31.000000, -198.000000)" stroke-linecap="round" stroke-linejoin="round">
        <g id="Page-1" transform="translate(32.000000, 198.000000)" stroke="#FFFFFF" stroke-width="2">
            <polygon id="Stroke-1" points="0 23.3066 8.797 23.3066 8.797 14.5096 0 14.5096"></polygon>
            <polygon id="Stroke-3" points="13.51 23.3066 22.307 23.3066 22.307 14.5096 13.51 14.5096"></polygon>
            <g id="Group-12" transform="translate(0.000000, 0.815600)">
                <polygon id="Stroke-4" points="27.345 22.491 36.142 22.491 36.142 13.694 27.345 13.694"></polygon>
                <polygon id="Stroke-6" points="0 8.982 8.797 8.982 8.797 0.185 0 0.185"></polygon>
                <polygon id="Stroke-7" points="13.51 8.982 22.307 8.982 22.307 0.185 13.51 0.185"></polygon>
                <polygon id="Stroke-8" points="27.345 8.982 36.142 8.982 36.142 0.185 27.345 0.185"></polygon>
                <polygon id="Stroke-9" points="0 36 8.797 36 8.797 27.203 0 27.203"></polygon>
                <polygon id="Stroke-10" points="13.51 36 22.307 36 22.307 27.203 13.51 27.203"></polygon>
                <polygon id="Stroke-11" points="27.345 36 36.142 36 36.142 27.203 27.345 27.203"></polygon>
            </g>
            <polyline id="Stroke-13" points="16.3392 18.1392 18.3172 20.1172 25.7572 12.6772"></polyline>
        </g>
    </g>
</svg>