<?xml version="1.0" encoding="UTF-8"?>
<svg width="81px" height="113px" viewBox="0 0 81 113" version="1.1" xmlns="http://www.w3.org/2000/svg" xmlns:xlink="http://www.w3.org/1999/xlink">
    <!-- Generator: Sketch 48.2 (47327) - http://www.bohemiancoding.com/sketch -->
    <title>Page 1</title>
    <desc>Created with Sketch.</desc>
    <defs></defs>
    <g id="Resultado-búsqueda-0" stroke="none" stroke-width="1" fill="none" fill-rule="evenodd" transform="translate(-681.000000, -848.000000)" stroke-linecap="round" stroke-linejoin="round">
        <g id="Page-1" transform="translate(682.000000, 849.000000)" stroke="#484848" stroke-width="2">
            <path d="M63.8411,17.5088 C72.9891,33.9488 67.0771,54.6938 50.6371,63.8418 C34.1961,72.9888 13.4521,67.0778 4.3041,50.6368 C-4.8439,34.1958 1.0681,13.4518 17.5081,4.3038 C33.9491,-4.8442 54.6931,1.0678 63.8411,17.5088 Z" id="Stroke-1"></path>
            <path d="M15.0818,14.8609 C21.4978,7.9559 31.4678,4.8149 41.1538,7.5749" id="Stroke-3"></path>
            <path d="M9.1712,25.3711 C9.6872,23.5601 10.3842,21.8491 11.2362,20.2521" id="Stroke-5"></path>
            <path d="M52.8777,78.5489 L68.9347,107.7489 C70.3737,110.3349 73.6377,111.2649 76.2237,109.8259 C78.8107,108.3869 79.7407,105.1229 78.3017,102.5359 L62.4327,73.6739" id="Stroke-7"></path>
            <path d="M50.0672,73.6743 L59.4342,68.4623" id="Stroke-9"></path>
            <path d="M54.7508,71.0684 L50.6368,63.8414" id="Stroke-11"></path>
        </g>
    </g>
</svg>