<?xml version="1.0" encoding="UTF-8"?>
<svg width="29px" height="42px" viewBox="0 0 29 42" version="1.1" xmlns="http://www.w3.org/2000/svg" xmlns:xlink="http://www.w3.org/1999/xlink">
    <!-- Generator: Sketch 48.2 (47327) - http://www.bohemiancoding.com/sketch -->
    <title>Page 1</title>
    <desc>Created with Sketch.</desc>
    <defs></defs>
    <g id="Empresa-detalle" stroke="none" stroke-width="1" fill="none" fill-rule="evenodd" transform="translate(-1032.000000, -963.000000)" stroke-linecap="round" stroke-linejoin="round">
        <g id="Group-5-Copy-3" transform="translate(973.000000, 963.000000)" stroke="#FFFFFF" stroke-width="2">
            <g id="Page-1" transform="translate(59.500000, 0.300000)">
                <path d="M24.86862,11.9646 C24.86862,5.8536 19.91502,0.9 13.80582,0.9 C7.69302,0.9 2.74122,5.8536 2.74122,11.9646 C2.74122,14.9076 4.18482,17.451 5.36742,20.052 C6.29442,22.0968 7.22322,24.1434 8.15202,26.1882 C9.52722,29.2158 10.90062,32.2434 12.27402,35.2692 C12.28842,35.298 12.30462,35.3286 12.31542,35.3592 C12.80862,36.7686 14.80122,36.7686 15.29442,35.3592 C15.65622,34.5618 16.01802,33.7626 16.38162,32.9652 C17.31222,30.9168 18.24102,28.8666 19.17162,26.8182 C20.32182,24.2874 21.47022,21.7548 22.61862,19.224 C23.69322,16.857 24.86862,14.6304 24.86862,11.9646 Z" id="Stroke-1"></path>
                <path d="M15.6708,12.159 C15.6708,13.1886 14.8356,14.0256 13.8042,14.0256 C12.7746,14.0256 11.9394,13.1886 11.9394,12.159 C11.9394,11.1276 12.7746,10.2924 13.8042,10.2924 C14.8356,10.2924 15.6708,11.1276 15.6708,12.159 Z" id="Stroke-3"></path>
                <path d="M16.35282,33.02856 C22.38642,33.34896 26.95122,34.84296 26.95122,36.63756 C26.95122,38.66616 21.11922,40.31136 13.92462,40.31136 C6.73182,40.31136 0.89982,38.66616 0.89982,36.63756 C0.89982,34.86636 5.34582,33.38856 11.26242,33.04116" id="Stroke-5"></path>
            </g>
        </g>
    </g>
</svg>