<?xml version="1.0" encoding="UTF-8"?>
<svg width="35px" height="35px" viewBox="0 0 35 35" version="1.1" xmlns="http://www.w3.org/2000/svg" xmlns:xlink="http://www.w3.org/1999/xlink">
    <!-- Generator: Sketch 48.2 (47327) - http://www.bohemiancoding.com/sketch -->
    <title>Page 1</title>
    <desc>Created with Sketch.</desc>
    <defs></defs>
    <g id="Empresa-detalle" stroke="none" stroke-width="1" fill="none" fill-rule="evenodd" transform="translate(-816.000000, -967.000000)" stroke-linecap="round" stroke-linejoin="round">
        <g id="Group-8" transform="translate(725.000000, 967.000000)" stroke="#FFFFFF" stroke-width="1.8">
            <g id="Page-1" transform="translate(91.000000, 0.000000)">
                <path d="M33.8246316,17.3598632 C33.8246316,26.4539684 26.4537895,33.8248105 17.3596842,33.8248105 C8.26557895,33.8248105 0.894736842,26.4539684 0.894736842,17.3598632 C0.894736842,8.26575789 8.26557895,0.894915789 17.3596842,0.894915789 C26.4537895,0.894915789 33.8246316,8.26575789 33.8246316,17.3598632 Z" id="Stroke-1"></path>
                <path d="M24.1056421,17.3598632 C24.1056421,26.4539684 21.0850105,33.8248105 17.3593263,33.8248105 C13.6336421,33.8248105 10.6130105,26.4539684 10.6130105,17.3598632 C10.6130105,8.26575789 13.6336421,0.894915789 17.3593263,0.894915789 C21.0850105,0.894915789 24.1056421,8.26575789 24.1056421,17.3598632 Z" id="Stroke-3"></path>
                <path d="M17.3602211,0.894557895 L17.3602211,33.8244526" id="Stroke-5"></path>
                <path d="M1.80021053,11.9687158 L32.9191579,11.9687158" id="Stroke-7"></path>
                <path d="M1.80021053,22.7510105 L32.9191579,22.7510105" id="Stroke-9"></path>
            </g>
        </g>
    </g>
</svg>