<?xml version="1.0" encoding="UTF-8"?>
<svg width="39px" height="39px" viewBox="0 0 39 39" version="1.1" xmlns="http://www.w3.org/2000/svg" xmlns:xlink="http://www.w3.org/1999/xlink">
    <!-- Generator: Sketch 48.2 (47327) - http://www.bohemiancoding.com/sketch -->
    <title>Page 1</title>
    <desc>Created with Sketch.</desc>
    <defs>
        <polygon id="path-1" points="0 39 39 39 39 0 0 0"></polygon>
    </defs>
    <g id="Mail-experiencia" stroke="none" stroke-width="1" fill="none" fill-rule="evenodd" transform="translate(-485.000000, -952.000000)">
        <g id="Group-13" transform="translate(482.000000, 952.000000)">
            <g id="Group-11">
                <g id="Page-1" transform="translate(3.000000, 0.000000)">
                    <polygon id="Stroke-1" stroke="#FFFFFF" stroke-width="1.7" stroke-linecap="round" stroke-linejoin="round" points="38 14 38 38 1 38 1 14"></polygon>
                    <mask id="mask-2" fill="white">
                        <use xlink:href="#path-1"></use>
                    </mask>
                    <g id="Clip-4"></g>
                    <polygon id="Stroke-3" stroke="#FFFFFF" stroke-width="1.7" stroke-linecap="round" stroke-linejoin="round" mask="url(#mask-2)" points="1 14 38 14 38 4 1 4"></polygon>
                    <path d="M20,1 L20,8" id="Stroke-5" stroke="#FFFFFF" stroke-width="1.7" stroke-linecap="round" stroke-linejoin="round" mask="url(#mask-2)"></path>
                    <path d="M9,1 L9,8" id="Stroke-6" stroke="#FFFFFF" stroke-width="1.7" stroke-linecap="round" stroke-linejoin="round" mask="url(#mask-2)"></path>
                    <path d="M30,1 L30,8" id="Stroke-7" stroke="#FFFFFF" stroke-width="1.7" stroke-linecap="round" stroke-linejoin="round" mask="url(#mask-2)"></path>
                    <path d="M23.2814337,26.5679261 C22.887161,26.0157527 22.3392756,25.5978917 21.649725,25.3193178 C22.0815475,25.0656165 22.4604589,24.7323226 22.7813389,24.3227526 C23.2148682,23.7656046 23.4350465,23.1719768 23.4350465,22.5567926 C23.4350465,21.8918631 23.2643656,21.2816534 22.9264176,20.7394291 C22.5901764,20.2005211 22.1190973,19.7710529 21.5268348,19.4609736 C20.937986,19.1542106 20.2825716,19 19.5793666,19 C18.8198369,19 18.1200455,19.1542106 17.5021809,19.4593154 C16.8809027,19.7677366 16.3859283,20.1972048 16.0309122,20.7344546 C15.6741893,21.2766789 15.4949744,21.8885467 15.4949744,22.5567926 C15.4949744,22.7922539 15.5751944,22.9978681 15.7356344,23.1686604 C16.0650484,23.5185361 16.6624313,23.5168779 16.9867248,23.1686604 C17.1471648,22.9978681 17.2290916,22.7856212 17.2290916,22.5385526 C17.2290916,21.9913538 17.4424426,21.5486202 17.8793855,21.1854791 C18.3214489,20.8190217 18.8932297,20.6333057 19.5793666,20.6333057 C20.2228333,20.6333057 20.7263417,20.8140471 21.1189076,21.1854791 C21.5097667,21.5535947 21.6992225,22.0013029 21.6992225,22.5567926 C21.6992225,22.9050101 21.6036412,23.2366457 21.4124787,23.5384342 C21.2196093,23.8451972 20.9601745,24.0922658 20.6392945,24.2746654 C20.3150009,24.4587232 19.9787597,24.5466067 19.6152096,24.5466067 C19.3694292,24.5466067 19.1594918,24.6278574 18.9905177,24.7837262 C18.8181301,24.9445695 18.7293761,25.1534999 18.7293761,25.4072012 C18.7293761,25.6592443 18.8164233,25.869833 18.9853973,26.0339927 C19.1560781,26.1998105 19.3677224,26.2843776 19.6152096,26.2843776 C20.1050635,26.2843776 20.5505405,26.3938174 20.9413996,26.6077224 C21.3288451,26.8232856 21.6428978,27.1300486 21.8681965,27.5180623 C22.0969088,27.9093924 22.2129717,28.3653914 22.2129717,28.8777686 C22.2129717,29.625607 21.9757254,30.2126022 21.4909918,30.6686012 C21.0096719,31.1196257 20.3371895,31.3484543 19.4906126,31.3484543 C18.9751565,31.3484543 18.5006638,31.2323819 18.0842025,31.0052114 C17.6643277,30.778041 17.3315001,30.4646453 17.0942537,30.0749734 C16.8553006,29.6869596 16.7341172,29.2492005 16.7341172,28.7733033 C16.7341172,28.5278929 16.6538972,28.3139879 16.495164,28.138221 C16.1691637,27.7767381 15.570074,27.7734218 15.2372463,28.138221 C15.08022,28.3139879 15,28.5278929 15,28.7733033 C15,29.5642544 15.1996966,30.2905365 15.5956761,30.9322516 C15.9899488,31.5756248 16.5412479,32.0846855 17.2325052,32.4494848 C17.9203489,32.8159422 18.6986535,33 19.5452304,33 C20.3662052,33 21.1240281,32.8209167 21.801631,32.4693829 C22.4809406,32.1145327 23.0237057,31.6154211 23.412858,30.9853133 C23.8020102,30.3535473 24,29.643847 24,28.8777686 C24,28.0138576 23.7576332,27.236172 23.2814337,26.5679261" id="Fill-8" fill="#FFFFFF" mask="url(#mask-2)"></path>
                </g>
            </g>
        </g>
    </g>
</svg>