<?xml version="1.0" encoding="UTF-8"?>
<svg width="40px" height="37px" viewBox="0 0 40 37" version="1.1" xmlns="http://www.w3.org/2000/svg" xmlns:xlink="http://www.w3.org/1999/xlink">
    <!-- Generator: Sketch 48.2 (47327) - http://www.bohemiancoding.com/sketch -->
    <title>Page 1</title>
    <desc>Created with Sketch.</desc>
    <defs></defs>
    <g id="Mail-experiencia" stroke="none" stroke-width="1" fill="none" fill-rule="evenodd" transform="translate(-730.000000, -954.000000)" stroke-linecap="round" stroke-linejoin="round">
        <g id="Group-13" transform="translate(482.000000, 952.000000)" stroke="#FFFFFF" stroke-width="1.7">
            <g id="Group-4" transform="translate(227.000000, 2.000000)">
                <g id="Page-1" transform="translate(21.000000, 0.000000)">
                    <path d="M11.5758783,25.9808955 C10.6093565,26.9916682 9.24435652,27.6240318 7.73692174,27.6240318 C4.82209565,27.6240318 2.4380087,25.2577136 2.4380087,22.36835 L2.4380087,13.43285 C2.4380087,10.5418045 4.82209565,8.17716818 7.73692174,8.17716818 C10.6517478,8.17716818 13.0358348,10.5418045 13.0358348,13.43285 L13.0358348,15.2206227" id="Stroke-1"></path>
                    <path d="M7.72335652,12.9730409 L7.72335652,35.5060409" id="Stroke-3"></path>
                    <path d="M7.72335652,22.8274864 L9.8124,20.7554864" id="Stroke-5"></path>
                    <path d="M7.72335652,16.9806455 L10.8755739,13.8541455" id="Stroke-7"></path>
                    <path d="M7.72335652,20.3705182 L4.87296522,17.5433818" id="Stroke-9"></path>
                    <path d="M15.6254348,29.3889318 C13.3634348,29.3889318 11.5117826,27.5523864 11.5117826,25.3088409 L11.5117826,18.3747045 C11.5117826,16.1311591 13.3634348,14.2962955 15.6254348,14.2962955 C17.8857391,14.2962955 19.7373913,16.1311591 19.7373913,18.3747045 L19.7373913,25.3088409 C19.7373913,27.5523864 17.8857391,29.3889318 15.6254348,29.3889318 Z" id="Stroke-11"></path>
                    <path d="M15.6145826,18.0178227 L15.6145826,35.50705" id="Stroke-13"></path>
                    <path d="M15.6145826,25.6655545 L17.2373217,24.0577364" id="Stroke-15"></path>
                    <path d="M15.6145826,21.1285136 L16.9524522,19.8015591" id="Stroke-17"></path>
                    <path d="M15.6145826,23.75955 L13.4017565,21.5647773" id="Stroke-19"></path>
                    <path d="M13.7641174,28.9380364 L11.7632478,34.7705818" id="Stroke-21"></path>
                    <polyline id="Stroke-23" points="0.847995652 35.5068818 38.3643 35.5068818 24.1699957 5.04579091 18.4030826 15.4175636"></polyline>
                    <polyline id="Stroke-25" points="19.9654565 12.6060682 13.0353261 0.840068182 9.29980435 8.17784091"></polyline>
                    <path d="M18.4039304,9.95602727 L11.7637565,9.95602727" id="Stroke-27"></path>
                    <path d="M19.7377304,21.79115 L31.9735565,21.79115" id="Stroke-29"></path>
                    <path d="M2.78951739,24.2400455 L0.847995652,27.9551818" id="Stroke-31"></path>
                </g>
            </g>
        </g>
    </g>
</svg>