<?xml version="1.0" encoding="UTF-8"?>
<svg width="40px" height="31px" viewBox="0 0 40 31" version="1.1" xmlns="http://www.w3.org/2000/svg" xmlns:xlink="http://www.w3.org/1999/xlink">
    <!-- Generator: Sketch 48.2 (47327) - http://www.bohemiancoding.com/sketch -->
    <title>Page 1</title>
    <desc>Created with Sketch.</desc>
    <defs></defs>
    <g id="Mail-experiencia" stroke="none" stroke-width="1" fill="none" fill-rule="evenodd" transform="translate(-594.000000, -961.000000)" stroke-linecap="round" stroke-linejoin="round">
        <g id="Group-13" transform="translate(482.000000, 952.000000)" stroke="#FFFFFF" stroke-width="1.7">
            <g id="Group-14" transform="translate(111.000000, 10.000000)">
                <g id="Page-1" transform="translate(2.000000, 0.000000)">
                    <path d="M5,24 C8.24831693,24 8.24831693,22 11.4949508,22 C14.7449508,22 14.7449508,24 17.9915847,24 C21.2415847,24 21.2415847,22 24.4915847,22 C27.7449508,22 27.7449508,24 31,24" id="Stroke-1"></path>
                    <path d="M5,29 C8.24831693,29 8.24831693,27 11.4949508,27 C14.7449508,27 14.7449508,29 17.9915847,29 C21.2415847,29 21.2415847,27 24.4915847,27 C27.7449508,27 27.7449508,29 31,29" id="Stroke-3"></path>
                    <path d="M21.1221868,23 C21.1221868,23 18.086979,16.7132593 22,12" id="Stroke-5"></path>
                    <path d="M22.3506919,9.8630644 C22.3506919,9.8630644 19.7806874,7.11728811 15,8.35306101 C15,8.35306101 16.8479393,3.91677516 23.0282696,6.47857403 C23.0282696,6.47857403 22.260006,2.08567909 15.9017259,0.896768371 C15.9017259,0.896768371 22.3062044,-2.57971071 26.0037941,4.23613221 C26.0037941,4.23613221 27.0406933,-1.61990396 35.8355155,0.438560443 C35.8355155,0.438560443 29.6568963,2.04055255 29.6124089,6.20434353 C29.6124089,6.20434353 35.7003422,4.28125874 38,10.3212723 C38,10.3212723 32.5434459,7.48350733 28.8458563,9.63396044 C28.8458563,9.63396044 34.2579229,10.1372949 33.356197,17 C33.356197,17 30.9658533,11.8764023 25.5982741,11.8295401" id="Stroke-7"></path>
                    <path d="M16,3.18891575 C14.2789109,2.77809701 11.4098768,2.78149221 9.47675743,6.38040013 C9.47675743,6.38040013 8.65679677,1.70691263 1.71115022,3.35018756 C1.71115022,3.35018756 6.59115851,4.62847891 6.6276012,7.95067834 C6.6276012,7.95067834 1.81716534,6.41774728 0,11.2372282 C0,11.2372282 4.31183352,8.97263238 7.23221866,10.688904 C7.23221866,10.688904 2.95682783,11.0912348 3.67077337,16.5676862 C4.11471167,15.7850935 5.23449632,14.3981558 5.66352624,14.029777 C7.68609587,12.3050174 10.8185112,11.7193461 12.4203334,14.5000117 C14.078476,17.3757428 13.0266073,20.3346563 12.5992339,22" id="Stroke-9"></path>
                    <path d="M13,11.744 C13,11.744 13.3410596,11.372 14,11" id="Stroke-11"></path>
                </g>
            </g>
        </g>
    </g>
</svg>