<svg id="Capa_1" data-name="Capa 1" xmlns="http://www.w3.org/2000/svg" viewBox="0 0 23 23"><defs><style>.cls-1{fill:none;stroke:#cecece;stroke-linecap:round;stroke-linejoin:round;}</style></defs><title>iconos</title><path class="cls-1" d="M8.26,19a3.25,3.25,0,0,1-6.49,0"/><path class="cls-1" d="M14.74,19a3.24,3.24,0,0,1-6.48,0"/><path class="cls-1" d="M21.23,19a3.25,3.25,0,0,1-6.49,0"/><path class="cls-1" d="M10.82,1.18h0a8,8,0,0,1,8,8v7.51a0,0,0,0,1,0,0h-8a0,0,0,0,1,0,0V1.18A0,0,0,0,1,10.82,1.18Z" transform="translate(-1.93 4.56) rotate(-16.41)"/><circle class="cls-1" cx="4.59" cy="7.91" r="2.72"/><line class="cls-1" x1="5.41" y1="10.5" x2="6.73" y2="14.97"/><line class="cls-1" x1="6.73" y1="14.97" x2="10.63" y2="15.67"/><line class="cls-1" x1="10.63" y1="15.67" x2="11.23" y2="18.21"/><line class="cls-1" x1="6.07" y1="12.74" x2="11.28" y2="11.09"/></svg>