<?xml version="1.0" encoding="UTF-8"?>
<svg width="43px" height="39px" viewBox="0 0 43 39" version="1.1" xmlns="http://www.w3.org/2000/svg" xmlns:xlink="http://www.w3.org/1999/xlink">
    <!-- Generator: Sketch 49 (51002) - http://www.bohemiancoding.com/sketch -->
    <title>Page 1</title>
    <desc>Created with Sketch.</desc>
    <defs></defs>
    <g id="Empresas" stroke="none" stroke-width="1" fill="none" fill-rule="evenodd" stroke-linecap="round" stroke-linejoin="round">
        <g id="Crear-empresa" transform="translate(-1146.000000, -20.000000)" stroke="#FFFFFF" stroke-width="2">
            <g id="Page-1" transform="translate(1147.000000, 21.000000)">
                <path d="M27.4708,12.3696 C27.2448,11.6256 26.9478,10.8996 26.5758,10.2026 C26.3108,9.7046 26.4228,9.0896 26.8218,8.6906 L28.0688,7.4436 C28.5818,6.9306 28.5818,6.0986 28.0688,5.5856 L26.2108,3.7276 C25.6978,3.2146 24.8658,3.2146 24.3528,3.7276 L23.1058,4.9746 C22.7068,5.3736 22.0908,5.4856 21.5938,5.2206 C20.8958,4.8486 20.1698,4.5506 19.4268,4.3256 C18.8848,4.1616 18.5258,3.6476 18.5258,3.0816 L18.5258,1.3136 C18.5258,0.5886 17.9378,-0.0004 17.2118,-0.0004 L14.5848,-0.0004 C13.8588,-0.0004 13.2698,0.5886 13.2708,1.3136 L13.2708,3.0806 C13.2708,3.6476 12.9118,4.1616 12.3698,4.3256 C11.6258,4.5506 10.8998,4.8486 10.2028,5.2206 C9.7048,5.4856 9.0898,5.3736 8.6908,4.9746 L7.4438,3.7276 C6.9298,3.2146 6.0978,3.2146 5.5858,3.7276 L3.7278,5.5856 C3.2148,6.0986 3.2148,6.9306 3.7278,7.4436 L4.9748,8.6906 C5.3728,9.0896 5.4858,9.7046 5.2208,10.2026 C4.8488,10.8996 4.5508,11.6256 4.3258,12.3696 C4.1608,12.9116 3.6478,13.2706 3.0808,13.2706 L1.3138,13.2706 C0.5888,13.2706 -0.0002,13.8586 -0.0002,14.5846 L-0.0002,17.2116 C-0.0002,17.9376 0.5888,18.5256 1.3138,18.5256 L3.0808,18.5256 C3.6478,18.5256 4.1608,18.8846 4.3248,19.4266 C4.5508,20.1696 4.8488,20.8956 5.2208,21.5936 C5.4858,22.0916 5.3728,22.7066 4.9748,23.1056 L3.7278,24.3526 C3.2148,24.8656 3.2148,25.6976 3.7278,26.2106 L5.5858,28.0686 C6.0978,28.5816 6.9298,28.5816 7.4438,28.0686 L8.6908,26.8216 C9.0898,26.4226 9.7048,26.3106 10.2028,26.5756 C10.8998,26.9476 11.6258,27.2446 12.3698,27.4706 C12.9108,27.6346 13.2698,28.1486 13.2708,28.7146 L13.2708,30.4816 C13.2708,31.2076 13.8588,31.7956 14.5848,31.7956 L17.2118,31.7956 C17.9378,31.7956 18.5258,31.2076 18.5258,30.4816" id="Stroke-1"></path>
                <path d="M15.1549,24.2514 C14.8669,24.2254 14.5809,24.1854 14.2969,24.1304 C12.7109,23.8234 11.1969,23.0564 9.9679,21.8274 C6.6939,18.5524 6.6939,13.2434 9.9679,9.9684 C13.2429,6.6934 18.5529,6.6934 21.8279,9.9684 C23.0559,11.1964 23.8229,12.7104 24.1309,14.2964" id="Stroke-3"></path>
                <path d="M31.2994,27.5 C30.1784,28.621 28.3614,28.621 27.2404,27.5 C26.1194,26.379 26.1194,24.562 27.2404,23.441 C28.3614,22.321 30.1784,22.321 31.2994,23.441 C32.4204,24.562 32.4204,26.379 31.2994,27.5 Z" id="Stroke-5"></path>
                <path d="M40.1578,26.3706 L40.1578,24.5716 C40.1578,24.0746 39.7548,23.6716 39.2578,23.6716 L38.0508,23.6716 C37.6638,23.6716 37.3118,23.4276 37.1988,23.0576 C37.0408,22.5406 36.8338,22.0446 36.5828,21.5756 C36.3998,21.2336 36.4748,20.8106 36.7488,20.5366 L37.6048,19.6806 C37.9568,19.3286 37.9568,18.7596 37.6048,18.4086 L36.3328,17.1356 C35.9818,16.7846 35.4118,16.7846 35.0598,17.1356 L34.2038,17.9916 C33.9298,18.2656 33.5078,18.3406 33.1658,18.1576 C32.6968,17.9066 32.1998,17.6996 31.6828,17.5416 C31.3128,17.4296 31.0698,17.0766 31.0698,16.6906 L31.0698,15.4826 C31.0698,14.9856 30.6668,14.5826 30.1698,14.5826 L28.3698,14.5826 C27.8728,14.5826 27.4698,14.9856 27.4698,15.4826 L27.4698,16.6906 C27.4698,17.0766 27.2268,17.4296 26.8568,17.5416 C26.3398,17.6996 25.8438,17.9066 25.3748,18.1576 C25.0328,18.3406 24.6098,18.2656 24.3358,17.9916 L23.4798,17.1356 C23.1288,16.7846 22.5588,16.7846 22.2068,17.1356 L20.9348,18.4086 C20.5838,18.7596 20.5838,19.3286 20.9348,19.6806 L21.7908,20.5366 C22.0648,20.8106 22.1398,21.2336 21.9568,21.5756 C21.7058,22.0446 21.4988,22.5406 21.3408,23.0576 C21.2288,23.4276 20.8758,23.6716 20.4898,23.6716 L19.2818,23.6716 C18.7848,23.6716 18.3818,24.0746 18.3818,24.5716 L18.3818,26.3706 C18.3818,26.8676 18.7848,27.2706 19.2818,27.2706 L20.4898,27.2706 C20.8758,27.2706 21.2288,27.5146 21.3408,27.8836 C21.4988,28.4016 21.7058,28.8966 21.9568,29.3666 C22.1398,29.7076 22.0648,30.1306 21.7908,30.4056 L20.9348,31.2606 C20.5838,31.6126 20.5838,32.1826 20.9348,32.5336 L22.2068,33.8056 C22.5588,34.1576 23.1288,34.1576 23.4798,33.8056 L24.3358,32.9506 C24.6098,32.6756 25.0328,32.6006 25.3748,32.7836 C25.8438,33.0346 26.3398,33.2426 26.8568,33.3996 C27.2268,33.5126 27.4698,33.8646 27.4698,34.2506 L27.4698,35.4586 C27.4698,35.9556 27.8728,36.3586 28.3698,36.3586 L30.1698,36.3586 C30.6668,36.3586 31.0698,35.9556 31.0698,35.4586 L31.0698,34.2506 C31.0698,33.8646 31.3128,33.5126 31.6828,33.3996 C32.1998,33.2426 32.6968,33.0346 33.1658,32.7836 C33.5078,32.6006 33.9298,32.6756 34.2038,32.9506 L35.0598,33.8056 C35.4118,34.1576 35.9818,34.1576 36.3328,33.8056 L37.6048,32.5336 C37.9568,32.1826 37.9568,31.6126 37.6048,31.2606 L36.7488,30.4056 C36.4748,30.1306 36.3998,29.7076 36.5828,29.3666 C36.8338,28.8966 37.0408,28.4016 37.1988,27.8836 C37.3118,27.5146 37.6638,27.2706 38.0508,27.2706 L39.2578,27.2706 C39.7548,27.2706 40.1578,26.8676 40.1578,26.3706 Z" id="Stroke-7"></path>
            </g>
        </g>
    </g>
</svg>